G04 #@! TF.FileFunction,Soldermask,Bot*
%FSLAX46Y46*%
G04 Gerber Fmt 4.6, Leading zero omitted, Abs format (unit mm)*
G04 Created by KiCad (PCBNEW 4.0.7) date 10/24/17 18:43:56*
%MOMM*%
%LPD*%
G01*
G04 APERTURE LIST*
%ADD10C,0.100000*%
G04 APERTURE END LIST*
D10*
G36*
X127741175Y-121492618D02*
X127741190Y-121492623D01*
X127741250Y-121492629D01*
X127957518Y-121559575D01*
X128156664Y-121667252D01*
X128331102Y-121811560D01*
X128474189Y-121987002D01*
X128580473Y-122186894D01*
X128645908Y-122403624D01*
X128668000Y-122628936D01*
X128668000Y-123243178D01*
X128667910Y-123256017D01*
X128667887Y-123259260D01*
X128642651Y-123484242D01*
X128574197Y-123700037D01*
X128465132Y-123898426D01*
X128319609Y-124071852D01*
X128143173Y-124213711D01*
X128004390Y-124286265D01*
X127986330Y-124299236D01*
X127972429Y-124316943D01*
X127964011Y-124337821D01*
X127961743Y-124360218D01*
X127965804Y-124382360D01*
X127975873Y-124402494D01*
X127991152Y-124419025D01*
X128010433Y-124430646D01*
X128041678Y-124437000D01*
X128808000Y-124437000D01*
X128830287Y-124433833D01*
X128850810Y-124424582D01*
X128867943Y-124409979D01*
X128880330Y-124391182D01*
X128886989Y-124369678D01*
X128888000Y-124357000D01*
X128888000Y-121476000D01*
X131208000Y-121476000D01*
X131208000Y-124396000D01*
X129248000Y-124396000D01*
X129225713Y-124399167D01*
X129205190Y-124408418D01*
X129188057Y-124423021D01*
X129175670Y-124441818D01*
X129169011Y-124463322D01*
X129168000Y-124476000D01*
X129168000Y-126007000D01*
X127848000Y-126007000D01*
X127848000Y-124453350D01*
X127844833Y-124431063D01*
X127835582Y-124410540D01*
X127820979Y-124393407D01*
X127802182Y-124381020D01*
X127780678Y-124374361D01*
X127758171Y-124373956D01*
X127745536Y-124376579D01*
X127725362Y-124382517D01*
X127725311Y-124382522D01*
X127725293Y-124382527D01*
X127499904Y-124403039D01*
X127274827Y-124379382D01*
X127274813Y-124379378D01*
X127274750Y-124379371D01*
X127271572Y-124378387D01*
X127249431Y-124374836D01*
X127227090Y-124377604D01*
X127206406Y-124386486D01*
X127189014Y-124400780D01*
X127176293Y-124419352D01*
X127169250Y-124440734D01*
X127168000Y-124454823D01*
X127168000Y-126007000D01*
X125848000Y-126007000D01*
X125848000Y-124437000D01*
X126972809Y-124437000D01*
X126995096Y-124433833D01*
X127015619Y-124424582D01*
X127032752Y-124409979D01*
X127045139Y-124391182D01*
X127051798Y-124369678D01*
X127052203Y-124347171D01*
X127046321Y-124325441D01*
X127034619Y-124306211D01*
X127011027Y-124286766D01*
X126859336Y-124204748D01*
X126684898Y-124060440D01*
X126541811Y-123884998D01*
X126435527Y-123685106D01*
X126370092Y-123468376D01*
X126348000Y-123243064D01*
X126348000Y-122628822D01*
X126348090Y-122615983D01*
X126348090Y-122615979D01*
X126348113Y-122612740D01*
X126373349Y-122387758D01*
X126441803Y-122171963D01*
X126550868Y-121973574D01*
X126696391Y-121800148D01*
X126872827Y-121658289D01*
X127073456Y-121553403D01*
X127290638Y-121489483D01*
X127290689Y-121489478D01*
X127290707Y-121489473D01*
X127516096Y-121468961D01*
X127741175Y-121492618D01*
X127741175Y-121492618D01*
G37*
G36*
X192072358Y-122293102D02*
X192391252Y-122358562D01*
X192691358Y-122484715D01*
X192961243Y-122666755D01*
X193190636Y-122897754D01*
X193370786Y-123168903D01*
X193494844Y-123469888D01*
X193557965Y-123788674D01*
X193557965Y-123788692D01*
X193558071Y-123789229D01*
X193552879Y-124161060D01*
X193552757Y-124161596D01*
X193552757Y-124161609D01*
X193480759Y-124478512D01*
X193348347Y-124775914D01*
X193160694Y-125041930D01*
X192924945Y-125266430D01*
X192650082Y-125440864D01*
X192346570Y-125558589D01*
X192025966Y-125615120D01*
X191700501Y-125608302D01*
X191382548Y-125538395D01*
X191084233Y-125408065D01*
X190816914Y-125222273D01*
X190590769Y-124988094D01*
X190414423Y-124714458D01*
X190294582Y-124411775D01*
X190235815Y-124091575D01*
X190240359Y-123766068D01*
X190308044Y-123447636D01*
X190436290Y-123148417D01*
X190620209Y-122879809D01*
X190852804Y-122652036D01*
X191125203Y-122473783D01*
X191427047Y-122351830D01*
X191746821Y-122290830D01*
X192072358Y-122293102D01*
X192072358Y-122293102D01*
G37*
G36*
X208072358Y-122293102D02*
X208391252Y-122358562D01*
X208691358Y-122484715D01*
X208961243Y-122666755D01*
X209190636Y-122897754D01*
X209370786Y-123168903D01*
X209494844Y-123469888D01*
X209557965Y-123788674D01*
X209557965Y-123788692D01*
X209558071Y-123789229D01*
X209552879Y-124161060D01*
X209552757Y-124161596D01*
X209552757Y-124161609D01*
X209480759Y-124478512D01*
X209348347Y-124775914D01*
X209160694Y-125041930D01*
X208924945Y-125266430D01*
X208650082Y-125440864D01*
X208346570Y-125558589D01*
X208025966Y-125615120D01*
X207700501Y-125608302D01*
X207382548Y-125538395D01*
X207084233Y-125408065D01*
X206816914Y-125222273D01*
X206590769Y-124988094D01*
X206414423Y-124714458D01*
X206294582Y-124411775D01*
X206235815Y-124091575D01*
X206240359Y-123766068D01*
X206308044Y-123447636D01*
X206436290Y-123148417D01*
X206620209Y-122879809D01*
X206852804Y-122652036D01*
X207125203Y-122473783D01*
X207427047Y-122351830D01*
X207746821Y-122290830D01*
X208072358Y-122293102D01*
X208072358Y-122293102D01*
G37*
G36*
X99080000Y-125470000D02*
X97460000Y-125470000D01*
X97460000Y-123450000D01*
X99080000Y-123450000D01*
X99080000Y-125470000D01*
X99080000Y-125470000D01*
G37*
G36*
X95580000Y-125470000D02*
X93960000Y-125470000D01*
X93960000Y-123450000D01*
X95580000Y-123450000D01*
X95580000Y-125470000D01*
X95580000Y-125470000D01*
G37*
G36*
X133627000Y-124596000D02*
X132057000Y-124596000D01*
X132057000Y-123276000D01*
X133627000Y-123276000D01*
X133627000Y-124596000D01*
X133627000Y-124596000D01*
G37*
G36*
X122661175Y-121492618D02*
X122661190Y-121492623D01*
X122661250Y-121492629D01*
X122877518Y-121559575D01*
X123076664Y-121667252D01*
X123251102Y-121811560D01*
X123394189Y-121987002D01*
X123500473Y-122186894D01*
X123565908Y-122403624D01*
X123588000Y-122628936D01*
X123588000Y-123243178D01*
X123587910Y-123256017D01*
X123587887Y-123259260D01*
X123562651Y-123484242D01*
X123494197Y-123700037D01*
X123385132Y-123898426D01*
X123239609Y-124071852D01*
X123063173Y-124213711D01*
X122862544Y-124318597D01*
X122645362Y-124382517D01*
X122645311Y-124382522D01*
X122645293Y-124382527D01*
X122419904Y-124403039D01*
X122194825Y-124379382D01*
X122194810Y-124379377D01*
X122194750Y-124379371D01*
X121978482Y-124312425D01*
X121779336Y-124204748D01*
X121604898Y-124060440D01*
X121461811Y-123884998D01*
X121355527Y-123685106D01*
X121290092Y-123468376D01*
X121268000Y-123243064D01*
X121268000Y-122628822D01*
X121268090Y-122615983D01*
X121268090Y-122615979D01*
X121268113Y-122612740D01*
X121293349Y-122387758D01*
X121361803Y-122171963D01*
X121470868Y-121973574D01*
X121616391Y-121800148D01*
X121792827Y-121658289D01*
X121993456Y-121553403D01*
X122210638Y-121489483D01*
X122210689Y-121489478D01*
X122210707Y-121489473D01*
X122436096Y-121468961D01*
X122661175Y-121492618D01*
X122661175Y-121492618D01*
G37*
G36*
X125201175Y-121492618D02*
X125201190Y-121492623D01*
X125201250Y-121492629D01*
X125417518Y-121559575D01*
X125616664Y-121667252D01*
X125791102Y-121811560D01*
X125934189Y-121987002D01*
X126040473Y-122186894D01*
X126105908Y-122403624D01*
X126128000Y-122628936D01*
X126128000Y-123243178D01*
X126127910Y-123256017D01*
X126127887Y-123259260D01*
X126102651Y-123484242D01*
X126034197Y-123700037D01*
X125925132Y-123898426D01*
X125779609Y-124071852D01*
X125603173Y-124213711D01*
X125402544Y-124318597D01*
X125185362Y-124382517D01*
X125185311Y-124382522D01*
X125185293Y-124382527D01*
X124959904Y-124403039D01*
X124734825Y-124379382D01*
X124734810Y-124379377D01*
X124734750Y-124379371D01*
X124518482Y-124312425D01*
X124319336Y-124204748D01*
X124144898Y-124060440D01*
X124001811Y-123884998D01*
X123895527Y-123685106D01*
X123830092Y-123468376D01*
X123808000Y-123243064D01*
X123808000Y-122628822D01*
X123808090Y-122615983D01*
X123808090Y-122615979D01*
X123808113Y-122612740D01*
X123833349Y-122387758D01*
X123901803Y-122171963D01*
X124010868Y-121973574D01*
X124156391Y-121800148D01*
X124332827Y-121658289D01*
X124533456Y-121553403D01*
X124750638Y-121489483D01*
X124750689Y-121489478D01*
X124750707Y-121489473D01*
X124976096Y-121468961D01*
X125201175Y-121492618D01*
X125201175Y-121492618D01*
G37*
G36*
X136123175Y-121492618D02*
X136123190Y-121492623D01*
X136123250Y-121492629D01*
X136339518Y-121559575D01*
X136538664Y-121667252D01*
X136713102Y-121811560D01*
X136856189Y-121987002D01*
X136962473Y-122186894D01*
X137027908Y-122403624D01*
X137050000Y-122628936D01*
X137050000Y-123243178D01*
X137049910Y-123256017D01*
X137049887Y-123259260D01*
X137024651Y-123484242D01*
X136956197Y-123700037D01*
X136847132Y-123898426D01*
X136701609Y-124071852D01*
X136525173Y-124213711D01*
X136324544Y-124318597D01*
X136107362Y-124382517D01*
X136107311Y-124382522D01*
X136107293Y-124382527D01*
X135881904Y-124403039D01*
X135656825Y-124379382D01*
X135656810Y-124379377D01*
X135656750Y-124379371D01*
X135440482Y-124312425D01*
X135241336Y-124204748D01*
X135066898Y-124060440D01*
X134923811Y-123884998D01*
X134817527Y-123685106D01*
X134752092Y-123468376D01*
X134730000Y-123243064D01*
X134730000Y-122628822D01*
X134730090Y-122615983D01*
X134730090Y-122615979D01*
X134730113Y-122612740D01*
X134755349Y-122387758D01*
X134823803Y-122171963D01*
X134932868Y-121973574D01*
X135078391Y-121800148D01*
X135254827Y-121658289D01*
X135455456Y-121553403D01*
X135672638Y-121489483D01*
X135672689Y-121489478D01*
X135672707Y-121489473D01*
X135898096Y-121468961D01*
X136123175Y-121492618D01*
X136123175Y-121492618D01*
G37*
G36*
X138663175Y-121492618D02*
X138663190Y-121492623D01*
X138663250Y-121492629D01*
X138879518Y-121559575D01*
X139078664Y-121667252D01*
X139253102Y-121811560D01*
X139396189Y-121987002D01*
X139502473Y-122186894D01*
X139567908Y-122403624D01*
X139590000Y-122628936D01*
X139590000Y-123243178D01*
X139589910Y-123256017D01*
X139589887Y-123259260D01*
X139564651Y-123484242D01*
X139496197Y-123700037D01*
X139387132Y-123898426D01*
X139241609Y-124071852D01*
X139065173Y-124213711D01*
X138864544Y-124318597D01*
X138647362Y-124382517D01*
X138647311Y-124382522D01*
X138647293Y-124382527D01*
X138421904Y-124403039D01*
X138196825Y-124379382D01*
X138196810Y-124379377D01*
X138196750Y-124379371D01*
X137980482Y-124312425D01*
X137781336Y-124204748D01*
X137606898Y-124060440D01*
X137463811Y-123884998D01*
X137357527Y-123685106D01*
X137292092Y-123468376D01*
X137270000Y-123243064D01*
X137270000Y-122628822D01*
X137270090Y-122615983D01*
X137270090Y-122615979D01*
X137270113Y-122612740D01*
X137295349Y-122387758D01*
X137363803Y-122171963D01*
X137472868Y-121973574D01*
X137618391Y-121800148D01*
X137794827Y-121658289D01*
X137995456Y-121553403D01*
X138212638Y-121489483D01*
X138212689Y-121489478D01*
X138212707Y-121489473D01*
X138438096Y-121468961D01*
X138663175Y-121492618D01*
X138663175Y-121492618D01*
G37*
G36*
X141203175Y-121492618D02*
X141203190Y-121492623D01*
X141203250Y-121492629D01*
X141419518Y-121559575D01*
X141618664Y-121667252D01*
X141793102Y-121811560D01*
X141936189Y-121987002D01*
X142042473Y-122186894D01*
X142107908Y-122403624D01*
X142130000Y-122628936D01*
X142130000Y-123243178D01*
X142129910Y-123256017D01*
X142129887Y-123259260D01*
X142104651Y-123484242D01*
X142036197Y-123700037D01*
X141927132Y-123898426D01*
X141781609Y-124071852D01*
X141605173Y-124213711D01*
X141404544Y-124318597D01*
X141187362Y-124382517D01*
X141187311Y-124382522D01*
X141187293Y-124382527D01*
X140961904Y-124403039D01*
X140736825Y-124379382D01*
X140736810Y-124379377D01*
X140736750Y-124379371D01*
X140520482Y-124312425D01*
X140321336Y-124204748D01*
X140146898Y-124060440D01*
X140003811Y-123884998D01*
X139897527Y-123685106D01*
X139832092Y-123468376D01*
X139810000Y-123243064D01*
X139810000Y-122628822D01*
X139810090Y-122615983D01*
X139810090Y-122615979D01*
X139810113Y-122612740D01*
X139835349Y-122387758D01*
X139903803Y-122171963D01*
X140012868Y-121973574D01*
X140158391Y-121800148D01*
X140334827Y-121658289D01*
X140535456Y-121553403D01*
X140752638Y-121489483D01*
X140752689Y-121489478D01*
X140752707Y-121489473D01*
X140978096Y-121468961D01*
X141203175Y-121492618D01*
X141203175Y-121492618D01*
G37*
G36*
X166603175Y-121492618D02*
X166603190Y-121492623D01*
X166603250Y-121492629D01*
X166819518Y-121559575D01*
X167018664Y-121667252D01*
X167193102Y-121811560D01*
X167336189Y-121987002D01*
X167442473Y-122186894D01*
X167507908Y-122403624D01*
X167530000Y-122628936D01*
X167530000Y-123243178D01*
X167529910Y-123256017D01*
X167529887Y-123259260D01*
X167504651Y-123484242D01*
X167436197Y-123700037D01*
X167327132Y-123898426D01*
X167181609Y-124071852D01*
X167005173Y-124213711D01*
X166804544Y-124318597D01*
X166587362Y-124382517D01*
X166587311Y-124382522D01*
X166587293Y-124382527D01*
X166361904Y-124403039D01*
X166136825Y-124379382D01*
X166136810Y-124379377D01*
X166136750Y-124379371D01*
X165920482Y-124312425D01*
X165721336Y-124204748D01*
X165546898Y-124060440D01*
X165403811Y-123884998D01*
X165297527Y-123685106D01*
X165232092Y-123468376D01*
X165210000Y-123243064D01*
X165210000Y-122628822D01*
X165210090Y-122615983D01*
X165210090Y-122615979D01*
X165210113Y-122612740D01*
X165235349Y-122387758D01*
X165303803Y-122171963D01*
X165412868Y-121973574D01*
X165558391Y-121800148D01*
X165734827Y-121658289D01*
X165935456Y-121553403D01*
X166152638Y-121489483D01*
X166152689Y-121489478D01*
X166152707Y-121489473D01*
X166378096Y-121468961D01*
X166603175Y-121492618D01*
X166603175Y-121492618D01*
G37*
G36*
X169143175Y-121492618D02*
X169143190Y-121492623D01*
X169143250Y-121492629D01*
X169359518Y-121559575D01*
X169558664Y-121667252D01*
X169733102Y-121811560D01*
X169876189Y-121987002D01*
X169982473Y-122186894D01*
X170047908Y-122403624D01*
X170070000Y-122628936D01*
X170070000Y-123243178D01*
X170069910Y-123256017D01*
X170069887Y-123259260D01*
X170044651Y-123484242D01*
X169976197Y-123700037D01*
X169867132Y-123898426D01*
X169721609Y-124071852D01*
X169545173Y-124213711D01*
X169344544Y-124318597D01*
X169127362Y-124382517D01*
X169127311Y-124382522D01*
X169127293Y-124382527D01*
X168901904Y-124403039D01*
X168676825Y-124379382D01*
X168676810Y-124379377D01*
X168676750Y-124379371D01*
X168460482Y-124312425D01*
X168261336Y-124204748D01*
X168086898Y-124060440D01*
X167943811Y-123884998D01*
X167837527Y-123685106D01*
X167772092Y-123468376D01*
X167750000Y-123243064D01*
X167750000Y-122628822D01*
X167750090Y-122615983D01*
X167750090Y-122615979D01*
X167750113Y-122612740D01*
X167775349Y-122387758D01*
X167843803Y-122171963D01*
X167952868Y-121973574D01*
X168098391Y-121800148D01*
X168274827Y-121658289D01*
X168475456Y-121553403D01*
X168692638Y-121489483D01*
X168692689Y-121489478D01*
X168692707Y-121489473D01*
X168918096Y-121468961D01*
X169143175Y-121492618D01*
X169143175Y-121492618D01*
G37*
G36*
X176763175Y-121492618D02*
X176763190Y-121492623D01*
X176763250Y-121492629D01*
X176979518Y-121559575D01*
X177178664Y-121667252D01*
X177353102Y-121811560D01*
X177496189Y-121987002D01*
X177602473Y-122186894D01*
X177667908Y-122403624D01*
X177690000Y-122628936D01*
X177690000Y-123243178D01*
X177689910Y-123256017D01*
X177689887Y-123259260D01*
X177664651Y-123484242D01*
X177596197Y-123700037D01*
X177487132Y-123898426D01*
X177341609Y-124071852D01*
X177165173Y-124213711D01*
X176964544Y-124318597D01*
X176747362Y-124382517D01*
X176747311Y-124382522D01*
X176747293Y-124382527D01*
X176521904Y-124403039D01*
X176296825Y-124379382D01*
X176296810Y-124379377D01*
X176296750Y-124379371D01*
X176080482Y-124312425D01*
X175881336Y-124204748D01*
X175706898Y-124060440D01*
X175563811Y-123884998D01*
X175457527Y-123685106D01*
X175392092Y-123468376D01*
X175370000Y-123243064D01*
X175370000Y-122628822D01*
X175370090Y-122615983D01*
X175370090Y-122615979D01*
X175370113Y-122612740D01*
X175395349Y-122387758D01*
X175463803Y-122171963D01*
X175572868Y-121973574D01*
X175718391Y-121800148D01*
X175894827Y-121658289D01*
X176095456Y-121553403D01*
X176312638Y-121489483D01*
X176312689Y-121489478D01*
X176312707Y-121489473D01*
X176538096Y-121468961D01*
X176763175Y-121492618D01*
X176763175Y-121492618D01*
G37*
G36*
X179303175Y-121492618D02*
X179303190Y-121492623D01*
X179303250Y-121492629D01*
X179519518Y-121559575D01*
X179718664Y-121667252D01*
X179893102Y-121811560D01*
X180036189Y-121987002D01*
X180142473Y-122186894D01*
X180207908Y-122403624D01*
X180230000Y-122628936D01*
X180230000Y-123243178D01*
X180229910Y-123256017D01*
X180229887Y-123259260D01*
X180204651Y-123484242D01*
X180136197Y-123700037D01*
X180027132Y-123898426D01*
X179881609Y-124071852D01*
X179705173Y-124213711D01*
X179504544Y-124318597D01*
X179287362Y-124382517D01*
X179287311Y-124382522D01*
X179287293Y-124382527D01*
X179061904Y-124403039D01*
X178836825Y-124379382D01*
X178836810Y-124379377D01*
X178836750Y-124379371D01*
X178620482Y-124312425D01*
X178421336Y-124204748D01*
X178246898Y-124060440D01*
X178103811Y-123884998D01*
X177997527Y-123685106D01*
X177932092Y-123468376D01*
X177910000Y-123243064D01*
X177910000Y-122628822D01*
X177910090Y-122615983D01*
X177910090Y-122615979D01*
X177910113Y-122612740D01*
X177935349Y-122387758D01*
X178003803Y-122171963D01*
X178112868Y-121973574D01*
X178258391Y-121800148D01*
X178434827Y-121658289D01*
X178635456Y-121553403D01*
X178852638Y-121489483D01*
X178852689Y-121489478D01*
X178852707Y-121489473D01*
X179078096Y-121468961D01*
X179303175Y-121492618D01*
X179303175Y-121492618D01*
G37*
G36*
X181843175Y-121492618D02*
X181843190Y-121492623D01*
X181843250Y-121492629D01*
X182059518Y-121559575D01*
X182258664Y-121667252D01*
X182433102Y-121811560D01*
X182576189Y-121987002D01*
X182682473Y-122186894D01*
X182747908Y-122403624D01*
X182770000Y-122628936D01*
X182770000Y-123243178D01*
X182769910Y-123256017D01*
X182769887Y-123259260D01*
X182744651Y-123484242D01*
X182676197Y-123700037D01*
X182567132Y-123898426D01*
X182421609Y-124071852D01*
X182245173Y-124213711D01*
X182044544Y-124318597D01*
X181827362Y-124382517D01*
X181827311Y-124382522D01*
X181827293Y-124382527D01*
X181601904Y-124403039D01*
X181376825Y-124379382D01*
X181376810Y-124379377D01*
X181376750Y-124379371D01*
X181160482Y-124312425D01*
X180961336Y-124204748D01*
X180786898Y-124060440D01*
X180643811Y-123884998D01*
X180537527Y-123685106D01*
X180472092Y-123468376D01*
X180450000Y-123243064D01*
X180450000Y-122628822D01*
X180450090Y-122615983D01*
X180450090Y-122615979D01*
X180450113Y-122612740D01*
X180475349Y-122387758D01*
X180543803Y-122171963D01*
X180652868Y-121973574D01*
X180798391Y-121800148D01*
X180974827Y-121658289D01*
X181175456Y-121553403D01*
X181392638Y-121489483D01*
X181392689Y-121489478D01*
X181392707Y-121489473D01*
X181618096Y-121468961D01*
X181843175Y-121492618D01*
X181843175Y-121492618D01*
G37*
G36*
X164063175Y-121492618D02*
X164063190Y-121492623D01*
X164063250Y-121492629D01*
X164279518Y-121559575D01*
X164478664Y-121667252D01*
X164653102Y-121811560D01*
X164796189Y-121987002D01*
X164902473Y-122186894D01*
X164967908Y-122403624D01*
X164990000Y-122628936D01*
X164990000Y-123243178D01*
X164989910Y-123256017D01*
X164989887Y-123259260D01*
X164964651Y-123484242D01*
X164896197Y-123700037D01*
X164787132Y-123898426D01*
X164641609Y-124071852D01*
X164465173Y-124213711D01*
X164264544Y-124318597D01*
X164047362Y-124382517D01*
X164047311Y-124382522D01*
X164047293Y-124382527D01*
X163821904Y-124403039D01*
X163596825Y-124379382D01*
X163596810Y-124379377D01*
X163596750Y-124379371D01*
X163380482Y-124312425D01*
X163181336Y-124204748D01*
X163006898Y-124060440D01*
X162863811Y-123884998D01*
X162757527Y-123685106D01*
X162692092Y-123468376D01*
X162670000Y-123243064D01*
X162670000Y-122628822D01*
X162670090Y-122615983D01*
X162670090Y-122615979D01*
X162670113Y-122612740D01*
X162695349Y-122387758D01*
X162763803Y-122171963D01*
X162872868Y-121973574D01*
X163018391Y-121800148D01*
X163194827Y-121658289D01*
X163395456Y-121553403D01*
X163612638Y-121489483D01*
X163612689Y-121489478D01*
X163612707Y-121489473D01*
X163838096Y-121468961D01*
X164063175Y-121492618D01*
X164063175Y-121492618D01*
G37*
G36*
X185310000Y-124396000D02*
X182990000Y-124396000D01*
X182990000Y-121476000D01*
X185310000Y-121476000D01*
X185310000Y-124396000D01*
X185310000Y-124396000D01*
G37*
G36*
X144670000Y-124396000D02*
X142350000Y-124396000D01*
X142350000Y-121476000D01*
X144670000Y-121476000D01*
X144670000Y-124396000D01*
X144670000Y-124396000D01*
G37*
G36*
X172610000Y-124396000D02*
X170290000Y-124396000D01*
X170290000Y-121476000D01*
X172610000Y-121476000D01*
X172610000Y-124396000D01*
X172610000Y-124396000D01*
G37*
G36*
X133627000Y-122596000D02*
X132057000Y-122596000D01*
X132057000Y-121276000D01*
X133627000Y-121276000D01*
X133627000Y-122596000D01*
X133627000Y-122596000D01*
G37*
G36*
X111896000Y-121435000D02*
X110576000Y-121435000D01*
X110576000Y-119865000D01*
X111896000Y-119865000D01*
X111896000Y-121435000D01*
X111896000Y-121435000D01*
G37*
G36*
X109896000Y-121435000D02*
X108576000Y-121435000D01*
X108576000Y-119865000D01*
X109896000Y-119865000D01*
X109896000Y-121435000D01*
X109896000Y-121435000D01*
G37*
G36*
X123393014Y-117115731D02*
X123393029Y-117115736D01*
X123393089Y-117115742D01*
X123581391Y-117174031D01*
X123754785Y-117267785D01*
X123906666Y-117393432D01*
X124031250Y-117546188D01*
X124123791Y-117720232D01*
X124180765Y-117908936D01*
X124200000Y-118105113D01*
X124200000Y-118115004D01*
X124199925Y-118125746D01*
X124199902Y-118128989D01*
X124177929Y-118324878D01*
X124118327Y-118512768D01*
X124023365Y-118685504D01*
X123896660Y-118836504D01*
X123743039Y-118960019D01*
X123568353Y-119051343D01*
X123379255Y-119106997D01*
X123379204Y-119107002D01*
X123379186Y-119107007D01*
X123182951Y-119124865D01*
X122986986Y-119104269D01*
X122986971Y-119104264D01*
X122986911Y-119104258D01*
X122798609Y-119045969D01*
X122625215Y-118952215D01*
X122473334Y-118826568D01*
X122348750Y-118673812D01*
X122256209Y-118499768D01*
X122199235Y-118311064D01*
X122180000Y-118114887D01*
X122180000Y-118104996D01*
X122180075Y-118094254D01*
X122180075Y-118094250D01*
X122180098Y-118091011D01*
X122202071Y-117895122D01*
X122261673Y-117707232D01*
X122356635Y-117534496D01*
X122483340Y-117383496D01*
X122636961Y-117259981D01*
X122811647Y-117168657D01*
X123000745Y-117113003D01*
X123000796Y-117112998D01*
X123000814Y-117112993D01*
X123197049Y-117095135D01*
X123393014Y-117115731D01*
X123393014Y-117115731D01*
G37*
G36*
X143713014Y-117115731D02*
X143713029Y-117115736D01*
X143713089Y-117115742D01*
X143901391Y-117174031D01*
X144074785Y-117267785D01*
X144226666Y-117393432D01*
X144351250Y-117546188D01*
X144443791Y-117720232D01*
X144500765Y-117908936D01*
X144520000Y-118105113D01*
X144520000Y-118115004D01*
X144519925Y-118125746D01*
X144519902Y-118128989D01*
X144497929Y-118324878D01*
X144438327Y-118512768D01*
X144343365Y-118685504D01*
X144216660Y-118836504D01*
X144063039Y-118960019D01*
X143888353Y-119051343D01*
X143699255Y-119106997D01*
X143699204Y-119107002D01*
X143699186Y-119107007D01*
X143502951Y-119124865D01*
X143306986Y-119104269D01*
X143306971Y-119104264D01*
X143306911Y-119104258D01*
X143118609Y-119045969D01*
X142945215Y-118952215D01*
X142793334Y-118826568D01*
X142668750Y-118673812D01*
X142576209Y-118499768D01*
X142519235Y-118311064D01*
X142500000Y-118114887D01*
X142500000Y-118104996D01*
X142500075Y-118094254D01*
X142500075Y-118094250D01*
X142500098Y-118091011D01*
X142522071Y-117895122D01*
X142581673Y-117707232D01*
X142676635Y-117534496D01*
X142803340Y-117383496D01*
X142956961Y-117259981D01*
X143131647Y-117168657D01*
X143320745Y-117113003D01*
X143320796Y-117112998D01*
X143320814Y-117112993D01*
X143517049Y-117095135D01*
X143713014Y-117115731D01*
X143713014Y-117115731D01*
G37*
G36*
X138633014Y-117115731D02*
X138633029Y-117115736D01*
X138633089Y-117115742D01*
X138821391Y-117174031D01*
X138994785Y-117267785D01*
X139146666Y-117393432D01*
X139271250Y-117546188D01*
X139363791Y-117720232D01*
X139420765Y-117908936D01*
X139440000Y-118105113D01*
X139440000Y-118115004D01*
X139439925Y-118125746D01*
X139439902Y-118128989D01*
X139417929Y-118324878D01*
X139358327Y-118512768D01*
X139263365Y-118685504D01*
X139136660Y-118836504D01*
X138983039Y-118960019D01*
X138808353Y-119051343D01*
X138619255Y-119106997D01*
X138619204Y-119107002D01*
X138619186Y-119107007D01*
X138422951Y-119124865D01*
X138226986Y-119104269D01*
X138226971Y-119104264D01*
X138226911Y-119104258D01*
X138038609Y-119045969D01*
X137865215Y-118952215D01*
X137713334Y-118826568D01*
X137588750Y-118673812D01*
X137496209Y-118499768D01*
X137439235Y-118311064D01*
X137420000Y-118114887D01*
X137420000Y-118104996D01*
X137420075Y-118094254D01*
X137420075Y-118094250D01*
X137420098Y-118091011D01*
X137442071Y-117895122D01*
X137501673Y-117707232D01*
X137596635Y-117534496D01*
X137723340Y-117383496D01*
X137876961Y-117259981D01*
X138051647Y-117168657D01*
X138240745Y-117113003D01*
X138240796Y-117112998D01*
X138240814Y-117112993D01*
X138437049Y-117095135D01*
X138633014Y-117115731D01*
X138633014Y-117115731D01*
G37*
G36*
X125933014Y-117115731D02*
X125933029Y-117115736D01*
X125933089Y-117115742D01*
X126121391Y-117174031D01*
X126294785Y-117267785D01*
X126446666Y-117393432D01*
X126571250Y-117546188D01*
X126663791Y-117720232D01*
X126720765Y-117908936D01*
X126740000Y-118105113D01*
X126740000Y-118115004D01*
X126739925Y-118125746D01*
X126739902Y-118128989D01*
X126717929Y-118324878D01*
X126658327Y-118512768D01*
X126563365Y-118685504D01*
X126436660Y-118836504D01*
X126283039Y-118960019D01*
X126108353Y-119051343D01*
X125919255Y-119106997D01*
X125919204Y-119107002D01*
X125919186Y-119107007D01*
X125722951Y-119124865D01*
X125526986Y-119104269D01*
X125526971Y-119104264D01*
X125526911Y-119104258D01*
X125338609Y-119045969D01*
X125165215Y-118952215D01*
X125013334Y-118826568D01*
X124888750Y-118673812D01*
X124796209Y-118499768D01*
X124739235Y-118311064D01*
X124720000Y-118114887D01*
X124720000Y-118104996D01*
X124720075Y-118094254D01*
X124720075Y-118094250D01*
X124720098Y-118091011D01*
X124742071Y-117895122D01*
X124801673Y-117707232D01*
X124896635Y-117534496D01*
X125023340Y-117383496D01*
X125176961Y-117259981D01*
X125351647Y-117168657D01*
X125540745Y-117113003D01*
X125540796Y-117112998D01*
X125540814Y-117112993D01*
X125737049Y-117095135D01*
X125933014Y-117115731D01*
X125933014Y-117115731D01*
G37*
G36*
X128473014Y-117115731D02*
X128473029Y-117115736D01*
X128473089Y-117115742D01*
X128661391Y-117174031D01*
X128834785Y-117267785D01*
X128986666Y-117393432D01*
X129111250Y-117546188D01*
X129203791Y-117720232D01*
X129260765Y-117908936D01*
X129280000Y-118105113D01*
X129280000Y-118115004D01*
X129279925Y-118125746D01*
X129279902Y-118128989D01*
X129257929Y-118324878D01*
X129198327Y-118512768D01*
X129103365Y-118685504D01*
X128976660Y-118836504D01*
X128823039Y-118960019D01*
X128648353Y-119051343D01*
X128459255Y-119106997D01*
X128459204Y-119107002D01*
X128459186Y-119107007D01*
X128262951Y-119124865D01*
X128066986Y-119104269D01*
X128066971Y-119104264D01*
X128066911Y-119104258D01*
X127878609Y-119045969D01*
X127705215Y-118952215D01*
X127553334Y-118826568D01*
X127428750Y-118673812D01*
X127336209Y-118499768D01*
X127279235Y-118311064D01*
X127260000Y-118114887D01*
X127260000Y-118104996D01*
X127260075Y-118094254D01*
X127260075Y-118094250D01*
X127260098Y-118091011D01*
X127282071Y-117895122D01*
X127341673Y-117707232D01*
X127436635Y-117534496D01*
X127563340Y-117383496D01*
X127716961Y-117259981D01*
X127891647Y-117168657D01*
X128080745Y-117113003D01*
X128080796Y-117112998D01*
X128080814Y-117112993D01*
X128277049Y-117095135D01*
X128473014Y-117115731D01*
X128473014Y-117115731D01*
G37*
G36*
X131013014Y-117115731D02*
X131013029Y-117115736D01*
X131013089Y-117115742D01*
X131201391Y-117174031D01*
X131374785Y-117267785D01*
X131526666Y-117393432D01*
X131651250Y-117546188D01*
X131743791Y-117720232D01*
X131800765Y-117908936D01*
X131820000Y-118105113D01*
X131820000Y-118115004D01*
X131819925Y-118125746D01*
X131819902Y-118128989D01*
X131797929Y-118324878D01*
X131738327Y-118512768D01*
X131643365Y-118685504D01*
X131516660Y-118836504D01*
X131363039Y-118960019D01*
X131188353Y-119051343D01*
X130999255Y-119106997D01*
X130999204Y-119107002D01*
X130999186Y-119107007D01*
X130802951Y-119124865D01*
X130606986Y-119104269D01*
X130606971Y-119104264D01*
X130606911Y-119104258D01*
X130418609Y-119045969D01*
X130245215Y-118952215D01*
X130093334Y-118826568D01*
X129968750Y-118673812D01*
X129876209Y-118499768D01*
X129819235Y-118311064D01*
X129800000Y-118114887D01*
X129800000Y-118104996D01*
X129800075Y-118094254D01*
X129800075Y-118094250D01*
X129800098Y-118091011D01*
X129822071Y-117895122D01*
X129881673Y-117707232D01*
X129976635Y-117534496D01*
X130103340Y-117383496D01*
X130256961Y-117259981D01*
X130431647Y-117168657D01*
X130620745Y-117113003D01*
X130620796Y-117112998D01*
X130620814Y-117112993D01*
X130817049Y-117095135D01*
X131013014Y-117115731D01*
X131013014Y-117115731D01*
G37*
G36*
X141173014Y-117115731D02*
X141173029Y-117115736D01*
X141173089Y-117115742D01*
X141361391Y-117174031D01*
X141534785Y-117267785D01*
X141686666Y-117393432D01*
X141811250Y-117546188D01*
X141903791Y-117720232D01*
X141960765Y-117908936D01*
X141980000Y-118105113D01*
X141980000Y-118115004D01*
X141979925Y-118125746D01*
X141979902Y-118128989D01*
X141957929Y-118324878D01*
X141898327Y-118512768D01*
X141803365Y-118685504D01*
X141676660Y-118836504D01*
X141523039Y-118960019D01*
X141348353Y-119051343D01*
X141159255Y-119106997D01*
X141159204Y-119107002D01*
X141159186Y-119107007D01*
X140962951Y-119124865D01*
X140766986Y-119104269D01*
X140766971Y-119104264D01*
X140766911Y-119104258D01*
X140578609Y-119045969D01*
X140405215Y-118952215D01*
X140253334Y-118826568D01*
X140128750Y-118673812D01*
X140036209Y-118499768D01*
X139979235Y-118311064D01*
X139960000Y-118114887D01*
X139960000Y-118104996D01*
X139960075Y-118094254D01*
X139960075Y-118094250D01*
X139960098Y-118091011D01*
X139982071Y-117895122D01*
X140041673Y-117707232D01*
X140136635Y-117534496D01*
X140263340Y-117383496D01*
X140416961Y-117259981D01*
X140591647Y-117168657D01*
X140780745Y-117113003D01*
X140780796Y-117112998D01*
X140780814Y-117112993D01*
X140977049Y-117095135D01*
X141173014Y-117115731D01*
X141173014Y-117115731D01*
G37*
G36*
X136093014Y-117115731D02*
X136093029Y-117115736D01*
X136093089Y-117115742D01*
X136281391Y-117174031D01*
X136454785Y-117267785D01*
X136606666Y-117393432D01*
X136731250Y-117546188D01*
X136823791Y-117720232D01*
X136880765Y-117908936D01*
X136900000Y-118105113D01*
X136900000Y-118115004D01*
X136899925Y-118125746D01*
X136899902Y-118128989D01*
X136877929Y-118324878D01*
X136818327Y-118512768D01*
X136723365Y-118685504D01*
X136596660Y-118836504D01*
X136443039Y-118960019D01*
X136268353Y-119051343D01*
X136079255Y-119106997D01*
X136079204Y-119107002D01*
X136079186Y-119107007D01*
X135882951Y-119124865D01*
X135686986Y-119104269D01*
X135686971Y-119104264D01*
X135686911Y-119104258D01*
X135498609Y-119045969D01*
X135325215Y-118952215D01*
X135173334Y-118826568D01*
X135048750Y-118673812D01*
X134956209Y-118499768D01*
X134899235Y-118311064D01*
X134880000Y-118114887D01*
X134880000Y-118104996D01*
X134880075Y-118094254D01*
X134880075Y-118094250D01*
X134880098Y-118091011D01*
X134902071Y-117895122D01*
X134961673Y-117707232D01*
X135056635Y-117534496D01*
X135183340Y-117383496D01*
X135336961Y-117259981D01*
X135511647Y-117168657D01*
X135700745Y-117113003D01*
X135700796Y-117112998D01*
X135700814Y-117112993D01*
X135897049Y-117095135D01*
X136093014Y-117115731D01*
X136093014Y-117115731D01*
G37*
G36*
X189433014Y-117115731D02*
X189433029Y-117115736D01*
X189433089Y-117115742D01*
X189621391Y-117174031D01*
X189794785Y-117267785D01*
X189946666Y-117393432D01*
X190071250Y-117546188D01*
X190163791Y-117720232D01*
X190220765Y-117908936D01*
X190240000Y-118105113D01*
X190240000Y-118115004D01*
X190239925Y-118125746D01*
X190239902Y-118128989D01*
X190217929Y-118324878D01*
X190158327Y-118512768D01*
X190063365Y-118685504D01*
X189936660Y-118836504D01*
X189783039Y-118960019D01*
X189608353Y-119051343D01*
X189419255Y-119106997D01*
X189419204Y-119107002D01*
X189419186Y-119107007D01*
X189222951Y-119124865D01*
X189026986Y-119104269D01*
X189026971Y-119104264D01*
X189026911Y-119104258D01*
X188838609Y-119045969D01*
X188665215Y-118952215D01*
X188513334Y-118826568D01*
X188388750Y-118673812D01*
X188296209Y-118499768D01*
X188239235Y-118311064D01*
X188220000Y-118114887D01*
X188220000Y-118104996D01*
X188220075Y-118094254D01*
X188220075Y-118094250D01*
X188220098Y-118091011D01*
X188242071Y-117895122D01*
X188301673Y-117707232D01*
X188396635Y-117534496D01*
X188523340Y-117383496D01*
X188676961Y-117259981D01*
X188851647Y-117168657D01*
X189040745Y-117113003D01*
X189040796Y-117112998D01*
X189040814Y-117112993D01*
X189237049Y-117095135D01*
X189433014Y-117115731D01*
X189433014Y-117115731D01*
G37*
G36*
X191973014Y-117115731D02*
X191973029Y-117115736D01*
X191973089Y-117115742D01*
X192161391Y-117174031D01*
X192334785Y-117267785D01*
X192486666Y-117393432D01*
X192611250Y-117546188D01*
X192703791Y-117720232D01*
X192760765Y-117908936D01*
X192780000Y-118105113D01*
X192780000Y-118115004D01*
X192779925Y-118125746D01*
X192779902Y-118128989D01*
X192757929Y-118324878D01*
X192698327Y-118512768D01*
X192603365Y-118685504D01*
X192476660Y-118836504D01*
X192323039Y-118960019D01*
X192148353Y-119051343D01*
X191959255Y-119106997D01*
X191959204Y-119107002D01*
X191959186Y-119107007D01*
X191762951Y-119124865D01*
X191566986Y-119104269D01*
X191566971Y-119104264D01*
X191566911Y-119104258D01*
X191378609Y-119045969D01*
X191205215Y-118952215D01*
X191053334Y-118826568D01*
X190928750Y-118673812D01*
X190836209Y-118499768D01*
X190779235Y-118311064D01*
X190760000Y-118114887D01*
X190760000Y-118104996D01*
X190760075Y-118094254D01*
X190760075Y-118094250D01*
X190760098Y-118091011D01*
X190782071Y-117895122D01*
X190841673Y-117707232D01*
X190936635Y-117534496D01*
X191063340Y-117383496D01*
X191216961Y-117259981D01*
X191391647Y-117168657D01*
X191580745Y-117113003D01*
X191580796Y-117112998D01*
X191580814Y-117112993D01*
X191777049Y-117095135D01*
X191973014Y-117115731D01*
X191973014Y-117115731D01*
G37*
G36*
X186893014Y-117115731D02*
X186893029Y-117115736D01*
X186893089Y-117115742D01*
X187081391Y-117174031D01*
X187254785Y-117267785D01*
X187406666Y-117393432D01*
X187531250Y-117546188D01*
X187623791Y-117720232D01*
X187680765Y-117908936D01*
X187700000Y-118105113D01*
X187700000Y-118115004D01*
X187699925Y-118125746D01*
X187699902Y-118128989D01*
X187677929Y-118324878D01*
X187618327Y-118512768D01*
X187523365Y-118685504D01*
X187396660Y-118836504D01*
X187243039Y-118960019D01*
X187068353Y-119051343D01*
X186879255Y-119106997D01*
X186879204Y-119107002D01*
X186879186Y-119107007D01*
X186682951Y-119124865D01*
X186486986Y-119104269D01*
X186486971Y-119104264D01*
X186486911Y-119104258D01*
X186298609Y-119045969D01*
X186125215Y-118952215D01*
X185973334Y-118826568D01*
X185848750Y-118673812D01*
X185756209Y-118499768D01*
X185699235Y-118311064D01*
X185680000Y-118114887D01*
X185680000Y-118104996D01*
X185680075Y-118094254D01*
X185680075Y-118094250D01*
X185680098Y-118091011D01*
X185702071Y-117895122D01*
X185761673Y-117707232D01*
X185856635Y-117534496D01*
X185983340Y-117383496D01*
X186136961Y-117259981D01*
X186311647Y-117168657D01*
X186500745Y-117113003D01*
X186500796Y-117112998D01*
X186500814Y-117112993D01*
X186697049Y-117095135D01*
X186893014Y-117115731D01*
X186893014Y-117115731D01*
G37*
G36*
X133553014Y-117115731D02*
X133553029Y-117115736D01*
X133553089Y-117115742D01*
X133741391Y-117174031D01*
X133914785Y-117267785D01*
X134066666Y-117393432D01*
X134191250Y-117546188D01*
X134283791Y-117720232D01*
X134340765Y-117908936D01*
X134360000Y-118105113D01*
X134360000Y-118115004D01*
X134359925Y-118125746D01*
X134359902Y-118128989D01*
X134337929Y-118324878D01*
X134278327Y-118512768D01*
X134183365Y-118685504D01*
X134056660Y-118836504D01*
X133903039Y-118960019D01*
X133728353Y-119051343D01*
X133539255Y-119106997D01*
X133539204Y-119107002D01*
X133539186Y-119107007D01*
X133342951Y-119124865D01*
X133146986Y-119104269D01*
X133146971Y-119104264D01*
X133146911Y-119104258D01*
X132958609Y-119045969D01*
X132785215Y-118952215D01*
X132633334Y-118826568D01*
X132508750Y-118673812D01*
X132416209Y-118499768D01*
X132359235Y-118311064D01*
X132340000Y-118114887D01*
X132340000Y-118104996D01*
X132340075Y-118094254D01*
X132340075Y-118094250D01*
X132340098Y-118091011D01*
X132362071Y-117895122D01*
X132421673Y-117707232D01*
X132516635Y-117534496D01*
X132643340Y-117383496D01*
X132796961Y-117259981D01*
X132971647Y-117168657D01*
X133160745Y-117113003D01*
X133160796Y-117112998D01*
X133160814Y-117112993D01*
X133357049Y-117095135D01*
X133553014Y-117115731D01*
X133553014Y-117115731D01*
G37*
G36*
X207213014Y-117115731D02*
X207213029Y-117115736D01*
X207213089Y-117115742D01*
X207401391Y-117174031D01*
X207574785Y-117267785D01*
X207726666Y-117393432D01*
X207851250Y-117546188D01*
X207943791Y-117720232D01*
X208000765Y-117908936D01*
X208020000Y-118105113D01*
X208020000Y-118115004D01*
X208019925Y-118125746D01*
X208019902Y-118128989D01*
X207997929Y-118324878D01*
X207938327Y-118512768D01*
X207843365Y-118685504D01*
X207716660Y-118836504D01*
X207563039Y-118960019D01*
X207388353Y-119051343D01*
X207199255Y-119106997D01*
X207199204Y-119107002D01*
X207199186Y-119107007D01*
X207002951Y-119124865D01*
X206806986Y-119104269D01*
X206806971Y-119104264D01*
X206806911Y-119104258D01*
X206618609Y-119045969D01*
X206445215Y-118952215D01*
X206293334Y-118826568D01*
X206168750Y-118673812D01*
X206076209Y-118499768D01*
X206019235Y-118311064D01*
X206000000Y-118114887D01*
X206000000Y-118104996D01*
X206000075Y-118094254D01*
X206000075Y-118094250D01*
X206000098Y-118091011D01*
X206022071Y-117895122D01*
X206081673Y-117707232D01*
X206176635Y-117534496D01*
X206303340Y-117383496D01*
X206456961Y-117259981D01*
X206631647Y-117168657D01*
X206820745Y-117113003D01*
X206820796Y-117112998D01*
X206820814Y-117112993D01*
X207017049Y-117095135D01*
X207213014Y-117115731D01*
X207213014Y-117115731D01*
G37*
G36*
X204673014Y-117115731D02*
X204673029Y-117115736D01*
X204673089Y-117115742D01*
X204861391Y-117174031D01*
X205034785Y-117267785D01*
X205186666Y-117393432D01*
X205311250Y-117546188D01*
X205403791Y-117720232D01*
X205460765Y-117908936D01*
X205480000Y-118105113D01*
X205480000Y-118115004D01*
X205479925Y-118125746D01*
X205479902Y-118128989D01*
X205457929Y-118324878D01*
X205398327Y-118512768D01*
X205303365Y-118685504D01*
X205176660Y-118836504D01*
X205023039Y-118960019D01*
X204848353Y-119051343D01*
X204659255Y-119106997D01*
X204659204Y-119107002D01*
X204659186Y-119107007D01*
X204462951Y-119124865D01*
X204266986Y-119104269D01*
X204266971Y-119104264D01*
X204266911Y-119104258D01*
X204078609Y-119045969D01*
X203905215Y-118952215D01*
X203753334Y-118826568D01*
X203628750Y-118673812D01*
X203536209Y-118499768D01*
X203479235Y-118311064D01*
X203460000Y-118114887D01*
X203460000Y-118104996D01*
X203460075Y-118094254D01*
X203460075Y-118094250D01*
X203460098Y-118091011D01*
X203482071Y-117895122D01*
X203541673Y-117707232D01*
X203636635Y-117534496D01*
X203763340Y-117383496D01*
X203916961Y-117259981D01*
X204091647Y-117168657D01*
X204280745Y-117113003D01*
X204280796Y-117112998D01*
X204280814Y-117112993D01*
X204477049Y-117095135D01*
X204673014Y-117115731D01*
X204673014Y-117115731D01*
G37*
G36*
X202133014Y-117115731D02*
X202133029Y-117115736D01*
X202133089Y-117115742D01*
X202321391Y-117174031D01*
X202494785Y-117267785D01*
X202646666Y-117393432D01*
X202771250Y-117546188D01*
X202863791Y-117720232D01*
X202920765Y-117908936D01*
X202940000Y-118105113D01*
X202940000Y-118115004D01*
X202939925Y-118125746D01*
X202939902Y-118128989D01*
X202917929Y-118324878D01*
X202858327Y-118512768D01*
X202763365Y-118685504D01*
X202636660Y-118836504D01*
X202483039Y-118960019D01*
X202308353Y-119051343D01*
X202119255Y-119106997D01*
X202119204Y-119107002D01*
X202119186Y-119107007D01*
X201922951Y-119124865D01*
X201726986Y-119104269D01*
X201726971Y-119104264D01*
X201726911Y-119104258D01*
X201538609Y-119045969D01*
X201365215Y-118952215D01*
X201213334Y-118826568D01*
X201088750Y-118673812D01*
X200996209Y-118499768D01*
X200939235Y-118311064D01*
X200920000Y-118114887D01*
X200920000Y-118104996D01*
X200920075Y-118094254D01*
X200920075Y-118094250D01*
X200920098Y-118091011D01*
X200942071Y-117895122D01*
X201001673Y-117707232D01*
X201096635Y-117534496D01*
X201223340Y-117383496D01*
X201376961Y-117259981D01*
X201551647Y-117168657D01*
X201740745Y-117113003D01*
X201740796Y-117112998D01*
X201740814Y-117112993D01*
X201937049Y-117095135D01*
X202133014Y-117115731D01*
X202133014Y-117115731D01*
G37*
G36*
X199593014Y-117115731D02*
X199593029Y-117115736D01*
X199593089Y-117115742D01*
X199781391Y-117174031D01*
X199954785Y-117267785D01*
X200106666Y-117393432D01*
X200231250Y-117546188D01*
X200323791Y-117720232D01*
X200380765Y-117908936D01*
X200400000Y-118105113D01*
X200400000Y-118115004D01*
X200399925Y-118125746D01*
X200399902Y-118128989D01*
X200377929Y-118324878D01*
X200318327Y-118512768D01*
X200223365Y-118685504D01*
X200096660Y-118836504D01*
X199943039Y-118960019D01*
X199768353Y-119051343D01*
X199579255Y-119106997D01*
X199579204Y-119107002D01*
X199579186Y-119107007D01*
X199382951Y-119124865D01*
X199186986Y-119104269D01*
X199186971Y-119104264D01*
X199186911Y-119104258D01*
X198998609Y-119045969D01*
X198825215Y-118952215D01*
X198673334Y-118826568D01*
X198548750Y-118673812D01*
X198456209Y-118499768D01*
X198399235Y-118311064D01*
X198380000Y-118114887D01*
X198380000Y-118104996D01*
X198380075Y-118094254D01*
X198380075Y-118094250D01*
X198380098Y-118091011D01*
X198402071Y-117895122D01*
X198461673Y-117707232D01*
X198556635Y-117534496D01*
X198683340Y-117383496D01*
X198836961Y-117259981D01*
X199011647Y-117168657D01*
X199200745Y-117113003D01*
X199200796Y-117112998D01*
X199200814Y-117112993D01*
X199397049Y-117095135D01*
X199593014Y-117115731D01*
X199593014Y-117115731D01*
G37*
G36*
X197053014Y-117115731D02*
X197053029Y-117115736D01*
X197053089Y-117115742D01*
X197241391Y-117174031D01*
X197414785Y-117267785D01*
X197566666Y-117393432D01*
X197691250Y-117546188D01*
X197783791Y-117720232D01*
X197840765Y-117908936D01*
X197860000Y-118105113D01*
X197860000Y-118115004D01*
X197859925Y-118125746D01*
X197859902Y-118128989D01*
X197837929Y-118324878D01*
X197778327Y-118512768D01*
X197683365Y-118685504D01*
X197556660Y-118836504D01*
X197403039Y-118960019D01*
X197228353Y-119051343D01*
X197039255Y-119106997D01*
X197039204Y-119107002D01*
X197039186Y-119107007D01*
X196842951Y-119124865D01*
X196646986Y-119104269D01*
X196646971Y-119104264D01*
X196646911Y-119104258D01*
X196458609Y-119045969D01*
X196285215Y-118952215D01*
X196133334Y-118826568D01*
X196008750Y-118673812D01*
X195916209Y-118499768D01*
X195859235Y-118311064D01*
X195840000Y-118114887D01*
X195840000Y-118104996D01*
X195840075Y-118094254D01*
X195840075Y-118094250D01*
X195840098Y-118091011D01*
X195862071Y-117895122D01*
X195921673Y-117707232D01*
X196016635Y-117534496D01*
X196143340Y-117383496D01*
X196296961Y-117259981D01*
X196471647Y-117168657D01*
X196660745Y-117113003D01*
X196660796Y-117112998D01*
X196660814Y-117112993D01*
X196857049Y-117095135D01*
X197053014Y-117115731D01*
X197053014Y-117115731D01*
G37*
G36*
X194513014Y-117115731D02*
X194513029Y-117115736D01*
X194513089Y-117115742D01*
X194701391Y-117174031D01*
X194874785Y-117267785D01*
X195026666Y-117393432D01*
X195151250Y-117546188D01*
X195243791Y-117720232D01*
X195300765Y-117908936D01*
X195320000Y-118105113D01*
X195320000Y-118115004D01*
X195319925Y-118125746D01*
X195319902Y-118128989D01*
X195297929Y-118324878D01*
X195238327Y-118512768D01*
X195143365Y-118685504D01*
X195016660Y-118836504D01*
X194863039Y-118960019D01*
X194688353Y-119051343D01*
X194499255Y-119106997D01*
X194499204Y-119107002D01*
X194499186Y-119107007D01*
X194302951Y-119124865D01*
X194106986Y-119104269D01*
X194106971Y-119104264D01*
X194106911Y-119104258D01*
X193918609Y-119045969D01*
X193745215Y-118952215D01*
X193593334Y-118826568D01*
X193468750Y-118673812D01*
X193376209Y-118499768D01*
X193319235Y-118311064D01*
X193300000Y-118114887D01*
X193300000Y-118104996D01*
X193300075Y-118094254D01*
X193300075Y-118094250D01*
X193300098Y-118091011D01*
X193322071Y-117895122D01*
X193381673Y-117707232D01*
X193476635Y-117534496D01*
X193603340Y-117383496D01*
X193756961Y-117259981D01*
X193931647Y-117168657D01*
X194120745Y-117113003D01*
X194120796Y-117112998D01*
X194120814Y-117112993D01*
X194317049Y-117095135D01*
X194513014Y-117115731D01*
X194513014Y-117115731D01*
G37*
G36*
X210560000Y-119120000D02*
X208540000Y-119120000D01*
X208540000Y-117100000D01*
X210560000Y-117100000D01*
X210560000Y-119120000D01*
X210560000Y-119120000D01*
G37*
G36*
X147060000Y-119120000D02*
X145040000Y-119120000D01*
X145040000Y-117100000D01*
X147060000Y-117100000D01*
X147060000Y-119120000D01*
X147060000Y-119120000D01*
G37*
G36*
X157425500Y-118323500D02*
X156105500Y-118323500D01*
X156105500Y-116753500D01*
X157425500Y-116753500D01*
X157425500Y-118323500D01*
X157425500Y-118323500D01*
G37*
G36*
X155425500Y-118323500D02*
X154105500Y-118323500D01*
X154105500Y-116753500D01*
X155425500Y-116753500D01*
X155425500Y-118323500D01*
X155425500Y-118323500D01*
G37*
G36*
X191973014Y-114575731D02*
X191973029Y-114575736D01*
X191973089Y-114575742D01*
X192161391Y-114634031D01*
X192334785Y-114727785D01*
X192486666Y-114853432D01*
X192611250Y-115006188D01*
X192703791Y-115180232D01*
X192760765Y-115368936D01*
X192780000Y-115565113D01*
X192780000Y-115575004D01*
X192779925Y-115585746D01*
X192779902Y-115588989D01*
X192757929Y-115784878D01*
X192698327Y-115972768D01*
X192603365Y-116145504D01*
X192476660Y-116296504D01*
X192323039Y-116420019D01*
X192148353Y-116511343D01*
X191959255Y-116566997D01*
X191959204Y-116567002D01*
X191959186Y-116567007D01*
X191762951Y-116584865D01*
X191566986Y-116564269D01*
X191566971Y-116564264D01*
X191566911Y-116564258D01*
X191378609Y-116505969D01*
X191205215Y-116412215D01*
X191053334Y-116286568D01*
X190928750Y-116133812D01*
X190836209Y-115959768D01*
X190779235Y-115771064D01*
X190760000Y-115574887D01*
X190760000Y-115564996D01*
X190760075Y-115554254D01*
X190760075Y-115554250D01*
X190760098Y-115551011D01*
X190782071Y-115355122D01*
X190841673Y-115167232D01*
X190936635Y-114994496D01*
X191063340Y-114843496D01*
X191216961Y-114719981D01*
X191391647Y-114628657D01*
X191580745Y-114573003D01*
X191580796Y-114572998D01*
X191580814Y-114572993D01*
X191777049Y-114555135D01*
X191973014Y-114575731D01*
X191973014Y-114575731D01*
G37*
G36*
X189433014Y-114575731D02*
X189433029Y-114575736D01*
X189433089Y-114575742D01*
X189621391Y-114634031D01*
X189794785Y-114727785D01*
X189946666Y-114853432D01*
X190071250Y-115006188D01*
X190163791Y-115180232D01*
X190220765Y-115368936D01*
X190240000Y-115565113D01*
X190240000Y-115575004D01*
X190239925Y-115585746D01*
X190239902Y-115588989D01*
X190217929Y-115784878D01*
X190158327Y-115972768D01*
X190063365Y-116145504D01*
X189936660Y-116296504D01*
X189783039Y-116420019D01*
X189608353Y-116511343D01*
X189419255Y-116566997D01*
X189419204Y-116567002D01*
X189419186Y-116567007D01*
X189222951Y-116584865D01*
X189026986Y-116564269D01*
X189026971Y-116564264D01*
X189026911Y-116564258D01*
X188838609Y-116505969D01*
X188665215Y-116412215D01*
X188513334Y-116286568D01*
X188388750Y-116133812D01*
X188296209Y-115959768D01*
X188239235Y-115771064D01*
X188220000Y-115574887D01*
X188220000Y-115564996D01*
X188220075Y-115554254D01*
X188220075Y-115554250D01*
X188220098Y-115551011D01*
X188242071Y-115355122D01*
X188301673Y-115167232D01*
X188396635Y-114994496D01*
X188523340Y-114843496D01*
X188676961Y-114719981D01*
X188851647Y-114628657D01*
X189040745Y-114573003D01*
X189040796Y-114572998D01*
X189040814Y-114572993D01*
X189237049Y-114555135D01*
X189433014Y-114575731D01*
X189433014Y-114575731D01*
G37*
G36*
X194513014Y-114575731D02*
X194513029Y-114575736D01*
X194513089Y-114575742D01*
X194701391Y-114634031D01*
X194874785Y-114727785D01*
X195026666Y-114853432D01*
X195151250Y-115006188D01*
X195243791Y-115180232D01*
X195300765Y-115368936D01*
X195320000Y-115565113D01*
X195320000Y-115575004D01*
X195319925Y-115585746D01*
X195319902Y-115588989D01*
X195297929Y-115784878D01*
X195238327Y-115972768D01*
X195143365Y-116145504D01*
X195016660Y-116296504D01*
X194863039Y-116420019D01*
X194688353Y-116511343D01*
X194499255Y-116566997D01*
X194499204Y-116567002D01*
X194499186Y-116567007D01*
X194302951Y-116584865D01*
X194106986Y-116564269D01*
X194106971Y-116564264D01*
X194106911Y-116564258D01*
X193918609Y-116505969D01*
X193745215Y-116412215D01*
X193593334Y-116286568D01*
X193468750Y-116133812D01*
X193376209Y-115959768D01*
X193319235Y-115771064D01*
X193300000Y-115574887D01*
X193300000Y-115564996D01*
X193300075Y-115554254D01*
X193300075Y-115554250D01*
X193300098Y-115551011D01*
X193322071Y-115355122D01*
X193381673Y-115167232D01*
X193476635Y-114994496D01*
X193603340Y-114843496D01*
X193756961Y-114719981D01*
X193931647Y-114628657D01*
X194120745Y-114573003D01*
X194120796Y-114572998D01*
X194120814Y-114572993D01*
X194317049Y-114555135D01*
X194513014Y-114575731D01*
X194513014Y-114575731D01*
G37*
G36*
X133553014Y-114575731D02*
X133553029Y-114575736D01*
X133553089Y-114575742D01*
X133741391Y-114634031D01*
X133914785Y-114727785D01*
X134066666Y-114853432D01*
X134191250Y-115006188D01*
X134283791Y-115180232D01*
X134340765Y-115368936D01*
X134360000Y-115565113D01*
X134360000Y-115575004D01*
X134359925Y-115585746D01*
X134359902Y-115588989D01*
X134337929Y-115784878D01*
X134278327Y-115972768D01*
X134183365Y-116145504D01*
X134056660Y-116296504D01*
X133903039Y-116420019D01*
X133728353Y-116511343D01*
X133539255Y-116566997D01*
X133539204Y-116567002D01*
X133539186Y-116567007D01*
X133342951Y-116584865D01*
X133146986Y-116564269D01*
X133146971Y-116564264D01*
X133146911Y-116564258D01*
X132958609Y-116505969D01*
X132785215Y-116412215D01*
X132633334Y-116286568D01*
X132508750Y-116133812D01*
X132416209Y-115959768D01*
X132359235Y-115771064D01*
X132340000Y-115574887D01*
X132340000Y-115564996D01*
X132340075Y-115554254D01*
X132340075Y-115554250D01*
X132340098Y-115551011D01*
X132362071Y-115355122D01*
X132421673Y-115167232D01*
X132516635Y-114994496D01*
X132643340Y-114843496D01*
X132796961Y-114719981D01*
X132971647Y-114628657D01*
X133160745Y-114573003D01*
X133160796Y-114572998D01*
X133160814Y-114572993D01*
X133357049Y-114555135D01*
X133553014Y-114575731D01*
X133553014Y-114575731D01*
G37*
G36*
X131013014Y-114575731D02*
X131013029Y-114575736D01*
X131013089Y-114575742D01*
X131201391Y-114634031D01*
X131374785Y-114727785D01*
X131526666Y-114853432D01*
X131651250Y-115006188D01*
X131743791Y-115180232D01*
X131800765Y-115368936D01*
X131820000Y-115565113D01*
X131820000Y-115575004D01*
X131819925Y-115585746D01*
X131819902Y-115588989D01*
X131797929Y-115784878D01*
X131738327Y-115972768D01*
X131643365Y-116145504D01*
X131516660Y-116296504D01*
X131363039Y-116420019D01*
X131188353Y-116511343D01*
X130999255Y-116566997D01*
X130999204Y-116567002D01*
X130999186Y-116567007D01*
X130802951Y-116584865D01*
X130606986Y-116564269D01*
X130606971Y-116564264D01*
X130606911Y-116564258D01*
X130418609Y-116505969D01*
X130245215Y-116412215D01*
X130093334Y-116286568D01*
X129968750Y-116133812D01*
X129876209Y-115959768D01*
X129819235Y-115771064D01*
X129800000Y-115574887D01*
X129800000Y-115564996D01*
X129800075Y-115554254D01*
X129800075Y-115554250D01*
X129800098Y-115551011D01*
X129822071Y-115355122D01*
X129881673Y-115167232D01*
X129976635Y-114994496D01*
X130103340Y-114843496D01*
X130256961Y-114719981D01*
X130431647Y-114628657D01*
X130620745Y-114573003D01*
X130620796Y-114572998D01*
X130620814Y-114572993D01*
X130817049Y-114555135D01*
X131013014Y-114575731D01*
X131013014Y-114575731D01*
G37*
G36*
X138633014Y-114575731D02*
X138633029Y-114575736D01*
X138633089Y-114575742D01*
X138821391Y-114634031D01*
X138994785Y-114727785D01*
X139146666Y-114853432D01*
X139271250Y-115006188D01*
X139363791Y-115180232D01*
X139420765Y-115368936D01*
X139440000Y-115565113D01*
X139440000Y-115575004D01*
X139439925Y-115585746D01*
X139439902Y-115588989D01*
X139417929Y-115784878D01*
X139358327Y-115972768D01*
X139263365Y-116145504D01*
X139136660Y-116296504D01*
X138983039Y-116420019D01*
X138808353Y-116511343D01*
X138619255Y-116566997D01*
X138619204Y-116567002D01*
X138619186Y-116567007D01*
X138422951Y-116584865D01*
X138226986Y-116564269D01*
X138226971Y-116564264D01*
X138226911Y-116564258D01*
X138038609Y-116505969D01*
X137865215Y-116412215D01*
X137713334Y-116286568D01*
X137588750Y-116133812D01*
X137496209Y-115959768D01*
X137439235Y-115771064D01*
X137420000Y-115574887D01*
X137420000Y-115564996D01*
X137420075Y-115554254D01*
X137420075Y-115554250D01*
X137420098Y-115551011D01*
X137442071Y-115355122D01*
X137501673Y-115167232D01*
X137596635Y-114994496D01*
X137723340Y-114843496D01*
X137876961Y-114719981D01*
X138051647Y-114628657D01*
X138240745Y-114573003D01*
X138240796Y-114572998D01*
X138240814Y-114572993D01*
X138437049Y-114555135D01*
X138633014Y-114575731D01*
X138633014Y-114575731D01*
G37*
G36*
X143713014Y-114575731D02*
X143713029Y-114575736D01*
X143713089Y-114575742D01*
X143901391Y-114634031D01*
X144074785Y-114727785D01*
X144226666Y-114853432D01*
X144351250Y-115006188D01*
X144443791Y-115180232D01*
X144500765Y-115368936D01*
X144520000Y-115565113D01*
X144520000Y-115575004D01*
X144519925Y-115585746D01*
X144519902Y-115588989D01*
X144497929Y-115784878D01*
X144438327Y-115972768D01*
X144343365Y-116145504D01*
X144216660Y-116296504D01*
X144063039Y-116420019D01*
X143888353Y-116511343D01*
X143699255Y-116566997D01*
X143699204Y-116567002D01*
X143699186Y-116567007D01*
X143502951Y-116584865D01*
X143306986Y-116564269D01*
X143306971Y-116564264D01*
X143306911Y-116564258D01*
X143118609Y-116505969D01*
X142945215Y-116412215D01*
X142793334Y-116286568D01*
X142668750Y-116133812D01*
X142576209Y-115959768D01*
X142519235Y-115771064D01*
X142500000Y-115574887D01*
X142500000Y-115564996D01*
X142500075Y-115554254D01*
X142500075Y-115554250D01*
X142500098Y-115551011D01*
X142522071Y-115355122D01*
X142581673Y-115167232D01*
X142676635Y-114994496D01*
X142803340Y-114843496D01*
X142956961Y-114719981D01*
X143131647Y-114628657D01*
X143320745Y-114573003D01*
X143320796Y-114572998D01*
X143320814Y-114572993D01*
X143517049Y-114555135D01*
X143713014Y-114575731D01*
X143713014Y-114575731D01*
G37*
G36*
X146253014Y-114575731D02*
X146253029Y-114575736D01*
X146253089Y-114575742D01*
X146441391Y-114634031D01*
X146614785Y-114727785D01*
X146766666Y-114853432D01*
X146891250Y-115006188D01*
X146983791Y-115180232D01*
X147040765Y-115368936D01*
X147060000Y-115565113D01*
X147060000Y-115575004D01*
X147059925Y-115585746D01*
X147059902Y-115588989D01*
X147037929Y-115784878D01*
X146978327Y-115972768D01*
X146883365Y-116145504D01*
X146756660Y-116296504D01*
X146603039Y-116420019D01*
X146428353Y-116511343D01*
X146239255Y-116566997D01*
X146239204Y-116567002D01*
X146239186Y-116567007D01*
X146042951Y-116584865D01*
X145846986Y-116564269D01*
X145846971Y-116564264D01*
X145846911Y-116564258D01*
X145658609Y-116505969D01*
X145485215Y-116412215D01*
X145333334Y-116286568D01*
X145208750Y-116133812D01*
X145116209Y-115959768D01*
X145059235Y-115771064D01*
X145040000Y-115574887D01*
X145040000Y-115564996D01*
X145040075Y-115554254D01*
X145040075Y-115554250D01*
X145040098Y-115551011D01*
X145062071Y-115355122D01*
X145121673Y-115167232D01*
X145216635Y-114994496D01*
X145343340Y-114843496D01*
X145496961Y-114719981D01*
X145671647Y-114628657D01*
X145860745Y-114573003D01*
X145860796Y-114572998D01*
X145860814Y-114572993D01*
X146057049Y-114555135D01*
X146253014Y-114575731D01*
X146253014Y-114575731D01*
G37*
G36*
X123393014Y-114575731D02*
X123393029Y-114575736D01*
X123393089Y-114575742D01*
X123581391Y-114634031D01*
X123754785Y-114727785D01*
X123906666Y-114853432D01*
X124031250Y-115006188D01*
X124123791Y-115180232D01*
X124180765Y-115368936D01*
X124200000Y-115565113D01*
X124200000Y-115575004D01*
X124199925Y-115585746D01*
X124199902Y-115588989D01*
X124177929Y-115784878D01*
X124118327Y-115972768D01*
X124023365Y-116145504D01*
X123896660Y-116296504D01*
X123743039Y-116420019D01*
X123568353Y-116511343D01*
X123379255Y-116566997D01*
X123379204Y-116567002D01*
X123379186Y-116567007D01*
X123182951Y-116584865D01*
X122986986Y-116564269D01*
X122986971Y-116564264D01*
X122986911Y-116564258D01*
X122798609Y-116505969D01*
X122625215Y-116412215D01*
X122473334Y-116286568D01*
X122348750Y-116133812D01*
X122256209Y-115959768D01*
X122199235Y-115771064D01*
X122180000Y-115574887D01*
X122180000Y-115564996D01*
X122180075Y-115554254D01*
X122180075Y-115554250D01*
X122180098Y-115551011D01*
X122202071Y-115355122D01*
X122261673Y-115167232D01*
X122356635Y-114994496D01*
X122483340Y-114843496D01*
X122636961Y-114719981D01*
X122811647Y-114628657D01*
X123000745Y-114573003D01*
X123000796Y-114572998D01*
X123000814Y-114572993D01*
X123197049Y-114555135D01*
X123393014Y-114575731D01*
X123393014Y-114575731D01*
G37*
G36*
X141173014Y-114575731D02*
X141173029Y-114575736D01*
X141173089Y-114575742D01*
X141361391Y-114634031D01*
X141534785Y-114727785D01*
X141686666Y-114853432D01*
X141811250Y-115006188D01*
X141903791Y-115180232D01*
X141960765Y-115368936D01*
X141980000Y-115565113D01*
X141980000Y-115575004D01*
X141979925Y-115585746D01*
X141979902Y-115588989D01*
X141957929Y-115784878D01*
X141898327Y-115972768D01*
X141803365Y-116145504D01*
X141676660Y-116296504D01*
X141523039Y-116420019D01*
X141348353Y-116511343D01*
X141159255Y-116566997D01*
X141159204Y-116567002D01*
X141159186Y-116567007D01*
X140962951Y-116584865D01*
X140766986Y-116564269D01*
X140766971Y-116564264D01*
X140766911Y-116564258D01*
X140578609Y-116505969D01*
X140405215Y-116412215D01*
X140253334Y-116286568D01*
X140128750Y-116133812D01*
X140036209Y-115959768D01*
X139979235Y-115771064D01*
X139960000Y-115574887D01*
X139960000Y-115564996D01*
X139960075Y-115554254D01*
X139960075Y-115554250D01*
X139960098Y-115551011D01*
X139982071Y-115355122D01*
X140041673Y-115167232D01*
X140136635Y-114994496D01*
X140263340Y-114843496D01*
X140416961Y-114719981D01*
X140591647Y-114628657D01*
X140780745Y-114573003D01*
X140780796Y-114572998D01*
X140780814Y-114572993D01*
X140977049Y-114555135D01*
X141173014Y-114575731D01*
X141173014Y-114575731D01*
G37*
G36*
X199593014Y-114575731D02*
X199593029Y-114575736D01*
X199593089Y-114575742D01*
X199781391Y-114634031D01*
X199954785Y-114727785D01*
X200106666Y-114853432D01*
X200231250Y-115006188D01*
X200323791Y-115180232D01*
X200380765Y-115368936D01*
X200400000Y-115565113D01*
X200400000Y-115575004D01*
X200399925Y-115585746D01*
X200399902Y-115588989D01*
X200377929Y-115784878D01*
X200318327Y-115972768D01*
X200223365Y-116145504D01*
X200096660Y-116296504D01*
X199943039Y-116420019D01*
X199768353Y-116511343D01*
X199579255Y-116566997D01*
X199579204Y-116567002D01*
X199579186Y-116567007D01*
X199382951Y-116584865D01*
X199186986Y-116564269D01*
X199186971Y-116564264D01*
X199186911Y-116564258D01*
X198998609Y-116505969D01*
X198825215Y-116412215D01*
X198673334Y-116286568D01*
X198548750Y-116133812D01*
X198456209Y-115959768D01*
X198399235Y-115771064D01*
X198380000Y-115574887D01*
X198380000Y-115564996D01*
X198380075Y-115554254D01*
X198380075Y-115554250D01*
X198380098Y-115551011D01*
X198402071Y-115355122D01*
X198461673Y-115167232D01*
X198556635Y-114994496D01*
X198683340Y-114843496D01*
X198836961Y-114719981D01*
X199011647Y-114628657D01*
X199200745Y-114573003D01*
X199200796Y-114572998D01*
X199200814Y-114572993D01*
X199397049Y-114555135D01*
X199593014Y-114575731D01*
X199593014Y-114575731D01*
G37*
G36*
X197053014Y-114575731D02*
X197053029Y-114575736D01*
X197053089Y-114575742D01*
X197241391Y-114634031D01*
X197414785Y-114727785D01*
X197566666Y-114853432D01*
X197691250Y-115006188D01*
X197783791Y-115180232D01*
X197840765Y-115368936D01*
X197860000Y-115565113D01*
X197860000Y-115575004D01*
X197859925Y-115585746D01*
X197859902Y-115588989D01*
X197837929Y-115784878D01*
X197778327Y-115972768D01*
X197683365Y-116145504D01*
X197556660Y-116296504D01*
X197403039Y-116420019D01*
X197228353Y-116511343D01*
X197039255Y-116566997D01*
X197039204Y-116567002D01*
X197039186Y-116567007D01*
X196842951Y-116584865D01*
X196646986Y-116564269D01*
X196646971Y-116564264D01*
X196646911Y-116564258D01*
X196458609Y-116505969D01*
X196285215Y-116412215D01*
X196133334Y-116286568D01*
X196008750Y-116133812D01*
X195916209Y-115959768D01*
X195859235Y-115771064D01*
X195840000Y-115574887D01*
X195840000Y-115564996D01*
X195840075Y-115554254D01*
X195840075Y-115554250D01*
X195840098Y-115551011D01*
X195862071Y-115355122D01*
X195921673Y-115167232D01*
X196016635Y-114994496D01*
X196143340Y-114843496D01*
X196296961Y-114719981D01*
X196471647Y-114628657D01*
X196660745Y-114573003D01*
X196660796Y-114572998D01*
X196660814Y-114572993D01*
X196857049Y-114555135D01*
X197053014Y-114575731D01*
X197053014Y-114575731D01*
G37*
G36*
X136093014Y-114575731D02*
X136093029Y-114575736D01*
X136093089Y-114575742D01*
X136281391Y-114634031D01*
X136454785Y-114727785D01*
X136606666Y-114853432D01*
X136731250Y-115006188D01*
X136823791Y-115180232D01*
X136880765Y-115368936D01*
X136900000Y-115565113D01*
X136900000Y-115575004D01*
X136899925Y-115585746D01*
X136899902Y-115588989D01*
X136877929Y-115784878D01*
X136818327Y-115972768D01*
X136723365Y-116145504D01*
X136596660Y-116296504D01*
X136443039Y-116420019D01*
X136268353Y-116511343D01*
X136079255Y-116566997D01*
X136079204Y-116567002D01*
X136079186Y-116567007D01*
X135882951Y-116584865D01*
X135686986Y-116564269D01*
X135686971Y-116564264D01*
X135686911Y-116564258D01*
X135498609Y-116505969D01*
X135325215Y-116412215D01*
X135173334Y-116286568D01*
X135048750Y-116133812D01*
X134956209Y-115959768D01*
X134899235Y-115771064D01*
X134880000Y-115574887D01*
X134880000Y-115564996D01*
X134880075Y-115554254D01*
X134880075Y-115554250D01*
X134880098Y-115551011D01*
X134902071Y-115355122D01*
X134961673Y-115167232D01*
X135056635Y-114994496D01*
X135183340Y-114843496D01*
X135336961Y-114719981D01*
X135511647Y-114628657D01*
X135700745Y-114573003D01*
X135700796Y-114572998D01*
X135700814Y-114572993D01*
X135897049Y-114555135D01*
X136093014Y-114575731D01*
X136093014Y-114575731D01*
G37*
G36*
X125933014Y-114575731D02*
X125933029Y-114575736D01*
X125933089Y-114575742D01*
X126121391Y-114634031D01*
X126294785Y-114727785D01*
X126446666Y-114853432D01*
X126571250Y-115006188D01*
X126663791Y-115180232D01*
X126720765Y-115368936D01*
X126740000Y-115565113D01*
X126740000Y-115575004D01*
X126739925Y-115585746D01*
X126739902Y-115588989D01*
X126717929Y-115784878D01*
X126658327Y-115972768D01*
X126563365Y-116145504D01*
X126436660Y-116296504D01*
X126283039Y-116420019D01*
X126108353Y-116511343D01*
X125919255Y-116566997D01*
X125919204Y-116567002D01*
X125919186Y-116567007D01*
X125722951Y-116584865D01*
X125526986Y-116564269D01*
X125526971Y-116564264D01*
X125526911Y-116564258D01*
X125338609Y-116505969D01*
X125165215Y-116412215D01*
X125013334Y-116286568D01*
X124888750Y-116133812D01*
X124796209Y-115959768D01*
X124739235Y-115771064D01*
X124720000Y-115574887D01*
X124720000Y-115564996D01*
X124720075Y-115554254D01*
X124720075Y-115554250D01*
X124720098Y-115551011D01*
X124742071Y-115355122D01*
X124801673Y-115167232D01*
X124896635Y-114994496D01*
X125023340Y-114843496D01*
X125176961Y-114719981D01*
X125351647Y-114628657D01*
X125540745Y-114573003D01*
X125540796Y-114572998D01*
X125540814Y-114572993D01*
X125737049Y-114555135D01*
X125933014Y-114575731D01*
X125933014Y-114575731D01*
G37*
G36*
X186893014Y-114575731D02*
X186893029Y-114575736D01*
X186893089Y-114575742D01*
X187081391Y-114634031D01*
X187254785Y-114727785D01*
X187406666Y-114853432D01*
X187531250Y-115006188D01*
X187623791Y-115180232D01*
X187680765Y-115368936D01*
X187700000Y-115565113D01*
X187700000Y-115575004D01*
X187699925Y-115585746D01*
X187699902Y-115588989D01*
X187677929Y-115784878D01*
X187618327Y-115972768D01*
X187523365Y-116145504D01*
X187396660Y-116296504D01*
X187243039Y-116420019D01*
X187068353Y-116511343D01*
X186879255Y-116566997D01*
X186879204Y-116567002D01*
X186879186Y-116567007D01*
X186682951Y-116584865D01*
X186486986Y-116564269D01*
X186486971Y-116564264D01*
X186486911Y-116564258D01*
X186298609Y-116505969D01*
X186125215Y-116412215D01*
X185973334Y-116286568D01*
X185848750Y-116133812D01*
X185756209Y-115959768D01*
X185699235Y-115771064D01*
X185680000Y-115574887D01*
X185680000Y-115564996D01*
X185680075Y-115554254D01*
X185680075Y-115554250D01*
X185680098Y-115551011D01*
X185702071Y-115355122D01*
X185761673Y-115167232D01*
X185856635Y-114994496D01*
X185983340Y-114843496D01*
X186136961Y-114719981D01*
X186311647Y-114628657D01*
X186500745Y-114573003D01*
X186500796Y-114572998D01*
X186500814Y-114572993D01*
X186697049Y-114555135D01*
X186893014Y-114575731D01*
X186893014Y-114575731D01*
G37*
G36*
X128473014Y-114575731D02*
X128473029Y-114575736D01*
X128473089Y-114575742D01*
X128661391Y-114634031D01*
X128834785Y-114727785D01*
X128986666Y-114853432D01*
X129111250Y-115006188D01*
X129203791Y-115180232D01*
X129260765Y-115368936D01*
X129280000Y-115565113D01*
X129280000Y-115575004D01*
X129279925Y-115585746D01*
X129279902Y-115588989D01*
X129257929Y-115784878D01*
X129198327Y-115972768D01*
X129103365Y-116145504D01*
X128976660Y-116296504D01*
X128823039Y-116420019D01*
X128648353Y-116511343D01*
X128459255Y-116566997D01*
X128459204Y-116567002D01*
X128459186Y-116567007D01*
X128262951Y-116584865D01*
X128066986Y-116564269D01*
X128066971Y-116564264D01*
X128066911Y-116564258D01*
X127878609Y-116505969D01*
X127705215Y-116412215D01*
X127553334Y-116286568D01*
X127428750Y-116133812D01*
X127336209Y-115959768D01*
X127279235Y-115771064D01*
X127260000Y-115574887D01*
X127260000Y-115564996D01*
X127260075Y-115554254D01*
X127260075Y-115554250D01*
X127260098Y-115551011D01*
X127282071Y-115355122D01*
X127341673Y-115167232D01*
X127436635Y-114994496D01*
X127563340Y-114843496D01*
X127716961Y-114719981D01*
X127891647Y-114628657D01*
X128080745Y-114573003D01*
X128080796Y-114572998D01*
X128080814Y-114572993D01*
X128277049Y-114555135D01*
X128473014Y-114575731D01*
X128473014Y-114575731D01*
G37*
G36*
X207213014Y-114575731D02*
X207213029Y-114575736D01*
X207213089Y-114575742D01*
X207401391Y-114634031D01*
X207574785Y-114727785D01*
X207726666Y-114853432D01*
X207851250Y-115006188D01*
X207943791Y-115180232D01*
X208000765Y-115368936D01*
X208020000Y-115565113D01*
X208020000Y-115575004D01*
X208019925Y-115585746D01*
X208019902Y-115588989D01*
X207997929Y-115784878D01*
X207938327Y-115972768D01*
X207843365Y-116145504D01*
X207716660Y-116296504D01*
X207563039Y-116420019D01*
X207388353Y-116511343D01*
X207199255Y-116566997D01*
X207199204Y-116567002D01*
X207199186Y-116567007D01*
X207002951Y-116584865D01*
X206806986Y-116564269D01*
X206806971Y-116564264D01*
X206806911Y-116564258D01*
X206618609Y-116505969D01*
X206445215Y-116412215D01*
X206293334Y-116286568D01*
X206168750Y-116133812D01*
X206076209Y-115959768D01*
X206019235Y-115771064D01*
X206000000Y-115574887D01*
X206000000Y-115564996D01*
X206000075Y-115554254D01*
X206000075Y-115554250D01*
X206000098Y-115551011D01*
X206022071Y-115355122D01*
X206081673Y-115167232D01*
X206176635Y-114994496D01*
X206303340Y-114843496D01*
X206456961Y-114719981D01*
X206631647Y-114628657D01*
X206820745Y-114573003D01*
X206820796Y-114572998D01*
X206820814Y-114572993D01*
X207017049Y-114555135D01*
X207213014Y-114575731D01*
X207213014Y-114575731D01*
G37*
G36*
X204673014Y-114575731D02*
X204673029Y-114575736D01*
X204673089Y-114575742D01*
X204861391Y-114634031D01*
X205034785Y-114727785D01*
X205186666Y-114853432D01*
X205311250Y-115006188D01*
X205403791Y-115180232D01*
X205460765Y-115368936D01*
X205480000Y-115565113D01*
X205480000Y-115575004D01*
X205479925Y-115585746D01*
X205479902Y-115588989D01*
X205457929Y-115784878D01*
X205398327Y-115972768D01*
X205303365Y-116145504D01*
X205176660Y-116296504D01*
X205023039Y-116420019D01*
X204848353Y-116511343D01*
X204659255Y-116566997D01*
X204659204Y-116567002D01*
X204659186Y-116567007D01*
X204462951Y-116584865D01*
X204266986Y-116564269D01*
X204266971Y-116564264D01*
X204266911Y-116564258D01*
X204078609Y-116505969D01*
X203905215Y-116412215D01*
X203753334Y-116286568D01*
X203628750Y-116133812D01*
X203536209Y-115959768D01*
X203479235Y-115771064D01*
X203460000Y-115574887D01*
X203460000Y-115564996D01*
X203460075Y-115554254D01*
X203460075Y-115554250D01*
X203460098Y-115551011D01*
X203482071Y-115355122D01*
X203541673Y-115167232D01*
X203636635Y-114994496D01*
X203763340Y-114843496D01*
X203916961Y-114719981D01*
X204091647Y-114628657D01*
X204280745Y-114573003D01*
X204280796Y-114572998D01*
X204280814Y-114572993D01*
X204477049Y-114555135D01*
X204673014Y-114575731D01*
X204673014Y-114575731D01*
G37*
G36*
X202133014Y-114575731D02*
X202133029Y-114575736D01*
X202133089Y-114575742D01*
X202321391Y-114634031D01*
X202494785Y-114727785D01*
X202646666Y-114853432D01*
X202771250Y-115006188D01*
X202863791Y-115180232D01*
X202920765Y-115368936D01*
X202940000Y-115565113D01*
X202940000Y-115575004D01*
X202939925Y-115585746D01*
X202939902Y-115588989D01*
X202917929Y-115784878D01*
X202858327Y-115972768D01*
X202763365Y-116145504D01*
X202636660Y-116296504D01*
X202483039Y-116420019D01*
X202308353Y-116511343D01*
X202119255Y-116566997D01*
X202119204Y-116567002D01*
X202119186Y-116567007D01*
X201922951Y-116584865D01*
X201726986Y-116564269D01*
X201726971Y-116564264D01*
X201726911Y-116564258D01*
X201538609Y-116505969D01*
X201365215Y-116412215D01*
X201213334Y-116286568D01*
X201088750Y-116133812D01*
X200996209Y-115959768D01*
X200939235Y-115771064D01*
X200920000Y-115574887D01*
X200920000Y-115564996D01*
X200920075Y-115554254D01*
X200920075Y-115554250D01*
X200920098Y-115551011D01*
X200942071Y-115355122D01*
X201001673Y-115167232D01*
X201096635Y-114994496D01*
X201223340Y-114843496D01*
X201376961Y-114719981D01*
X201551647Y-114628657D01*
X201740745Y-114573003D01*
X201740796Y-114572998D01*
X201740814Y-114572993D01*
X201937049Y-114555135D01*
X202133014Y-114575731D01*
X202133014Y-114575731D01*
G37*
G36*
X209753014Y-114575731D02*
X209753029Y-114575736D01*
X209753089Y-114575742D01*
X209941391Y-114634031D01*
X210114785Y-114727785D01*
X210266666Y-114853432D01*
X210391250Y-115006188D01*
X210483791Y-115180232D01*
X210540765Y-115368936D01*
X210560000Y-115565113D01*
X210560000Y-115575004D01*
X210559925Y-115585746D01*
X210559902Y-115588989D01*
X210537929Y-115784878D01*
X210478327Y-115972768D01*
X210383365Y-116145504D01*
X210256660Y-116296504D01*
X210103039Y-116420019D01*
X209928353Y-116511343D01*
X209739255Y-116566997D01*
X209739204Y-116567002D01*
X209739186Y-116567007D01*
X209542951Y-116584865D01*
X209346986Y-116564269D01*
X209346971Y-116564264D01*
X209346911Y-116564258D01*
X209158609Y-116505969D01*
X208985215Y-116412215D01*
X208833334Y-116286568D01*
X208708750Y-116133812D01*
X208616209Y-115959768D01*
X208559235Y-115771064D01*
X208540000Y-115574887D01*
X208540000Y-115564996D01*
X208540075Y-115554254D01*
X208540075Y-115554250D01*
X208540098Y-115551011D01*
X208562071Y-115355122D01*
X208621673Y-115167232D01*
X208716635Y-114994496D01*
X208843340Y-114843496D01*
X208996961Y-114719981D01*
X209171647Y-114628657D01*
X209360745Y-114573003D01*
X209360796Y-114572998D01*
X209360814Y-114572993D01*
X209557049Y-114555135D01*
X209753014Y-114575731D01*
X209753014Y-114575731D01*
G37*
G36*
X89608113Y-112745202D02*
X89955822Y-112816577D01*
X90283047Y-112954129D01*
X90577320Y-113152619D01*
X90827440Y-113404491D01*
X91023870Y-113700141D01*
X91159137Y-114028324D01*
X91227972Y-114375966D01*
X91227972Y-114375983D01*
X91228078Y-114376520D01*
X91222417Y-114781951D01*
X91222295Y-114782487D01*
X91222295Y-114782500D01*
X91143779Y-115128089D01*
X90999404Y-115452361D01*
X90794792Y-115742416D01*
X90537738Y-115987206D01*
X90238041Y-116177400D01*
X89907103Y-116305762D01*
X89557530Y-116367402D01*
X89202655Y-116359967D01*
X88855971Y-116283744D01*
X88530700Y-116141637D01*
X88239225Y-115939057D01*
X87992648Y-115683719D01*
X87800363Y-115385352D01*
X87669696Y-115055321D01*
X87605618Y-114706187D01*
X87610573Y-114351266D01*
X87684374Y-114004061D01*
X87824208Y-113677804D01*
X88024747Y-113384924D01*
X88278359Y-113136569D01*
X88575374Y-112942208D01*
X88904488Y-112809237D01*
X89253162Y-112742724D01*
X89608113Y-112745202D01*
X89608113Y-112745202D01*
G37*
G36*
X132724000Y-113815000D02*
X131404000Y-113815000D01*
X131404000Y-112245000D01*
X132724000Y-112245000D01*
X132724000Y-113815000D01*
X132724000Y-113815000D01*
G37*
G36*
X130724000Y-113815000D02*
X129404000Y-113815000D01*
X129404000Y-112245000D01*
X130724000Y-112245000D01*
X130724000Y-113815000D01*
X130724000Y-113815000D01*
G37*
G36*
X173110000Y-113561000D02*
X171790000Y-113561000D01*
X171790000Y-111991000D01*
X173110000Y-111991000D01*
X173110000Y-113561000D01*
X173110000Y-113561000D01*
G37*
G36*
X171110000Y-113561000D02*
X169790000Y-113561000D01*
X169790000Y-111991000D01*
X171110000Y-111991000D01*
X171110000Y-113561000D01*
X171110000Y-113561000D01*
G37*
G36*
X194806000Y-112347000D02*
X190986000Y-112347000D01*
X190986000Y-111427000D01*
X194806000Y-111427000D01*
X194806000Y-112347000D01*
X194806000Y-112347000D01*
G37*
G36*
X202206000Y-112347000D02*
X198386000Y-112347000D01*
X198386000Y-111427000D01*
X202206000Y-111427000D01*
X202206000Y-112347000D01*
X202206000Y-112347000D01*
G37*
G36*
X126505000Y-111839000D02*
X122635000Y-111839000D01*
X122635000Y-110919000D01*
X126505000Y-110919000D01*
X126505000Y-111839000D01*
X126505000Y-111839000D01*
G37*
G36*
X133905000Y-111839000D02*
X130035000Y-111839000D01*
X130035000Y-110919000D01*
X133905000Y-110919000D01*
X133905000Y-111839000D01*
X133905000Y-111839000D01*
G37*
G36*
X194806000Y-111077000D02*
X190986000Y-111077000D01*
X190986000Y-110157000D01*
X194806000Y-110157000D01*
X194806000Y-111077000D01*
X194806000Y-111077000D01*
G37*
G36*
X202206000Y-111077000D02*
X198386000Y-111077000D01*
X198386000Y-110157000D01*
X202206000Y-110157000D01*
X202206000Y-111077000D01*
X202206000Y-111077000D01*
G37*
G36*
X126505000Y-110569000D02*
X122635000Y-110569000D01*
X122635000Y-109649000D01*
X126505000Y-109649000D01*
X126505000Y-110569000D01*
X126505000Y-110569000D01*
G37*
G36*
X133905000Y-110569000D02*
X130035000Y-110569000D01*
X130035000Y-109649000D01*
X133905000Y-109649000D01*
X133905000Y-110569000D01*
X133905000Y-110569000D01*
G37*
G36*
X194806000Y-109807000D02*
X190986000Y-109807000D01*
X190986000Y-108887000D01*
X194806000Y-108887000D01*
X194806000Y-109807000D01*
X194806000Y-109807000D01*
G37*
G36*
X202206000Y-109807000D02*
X198386000Y-109807000D01*
X198386000Y-108887000D01*
X202206000Y-108887000D01*
X202206000Y-109807000D01*
X202206000Y-109807000D01*
G37*
G36*
X133905000Y-109299000D02*
X130035000Y-109299000D01*
X130035000Y-108379000D01*
X133905000Y-108379000D01*
X133905000Y-109299000D01*
X133905000Y-109299000D01*
G37*
G36*
X126505000Y-109299000D02*
X122635000Y-109299000D01*
X122635000Y-108379000D01*
X126505000Y-108379000D01*
X126505000Y-109299000D01*
X126505000Y-109299000D01*
G37*
G36*
X194806000Y-108537000D02*
X190986000Y-108537000D01*
X190986000Y-107617000D01*
X194806000Y-107617000D01*
X194806000Y-108537000D01*
X194806000Y-108537000D01*
G37*
G36*
X202206000Y-108537000D02*
X198386000Y-108537000D01*
X198386000Y-107617000D01*
X202206000Y-107617000D01*
X202206000Y-108537000D01*
X202206000Y-108537000D01*
G37*
G36*
X126505000Y-108029000D02*
X122635000Y-108029000D01*
X122635000Y-107109000D01*
X126505000Y-107109000D01*
X126505000Y-108029000D01*
X126505000Y-108029000D01*
G37*
G36*
X133905000Y-108029000D02*
X130035000Y-108029000D01*
X130035000Y-107109000D01*
X133905000Y-107109000D01*
X133905000Y-108029000D01*
X133905000Y-108029000D01*
G37*
G36*
X202206000Y-107267000D02*
X198386000Y-107267000D01*
X198386000Y-106347000D01*
X202206000Y-106347000D01*
X202206000Y-107267000D01*
X202206000Y-107267000D01*
G37*
G36*
X194806000Y-107267000D02*
X190986000Y-107267000D01*
X190986000Y-106347000D01*
X194806000Y-106347000D01*
X194806000Y-107267000D01*
X194806000Y-107267000D01*
G37*
G36*
X208670000Y-106703000D02*
X207350000Y-106703000D01*
X207350000Y-105133000D01*
X208670000Y-105133000D01*
X208670000Y-106703000D01*
X208670000Y-106703000D01*
G37*
G36*
X206670000Y-106703000D02*
X205350000Y-106703000D01*
X205350000Y-105133000D01*
X206670000Y-105133000D01*
X206670000Y-106703000D01*
X206670000Y-106703000D01*
G37*
G36*
X202206000Y-105997000D02*
X198386000Y-105997000D01*
X198386000Y-105077000D01*
X202206000Y-105077000D01*
X202206000Y-105997000D01*
X202206000Y-105997000D01*
G37*
G36*
X194806000Y-105997000D02*
X190986000Y-105997000D01*
X190986000Y-105077000D01*
X194806000Y-105077000D01*
X194806000Y-105997000D01*
X194806000Y-105997000D01*
G37*
G36*
X130680000Y-105712000D02*
X129660000Y-105712000D01*
X129660000Y-104092000D01*
X130680000Y-104092000D01*
X130680000Y-105712000D01*
X130680000Y-105712000D01*
G37*
G36*
X126880000Y-105712000D02*
X125860000Y-105712000D01*
X125860000Y-104092000D01*
X126880000Y-104092000D01*
X126880000Y-105712000D01*
X126880000Y-105712000D01*
G37*
G36*
X128780000Y-105712000D02*
X127760000Y-105712000D01*
X127760000Y-104092000D01*
X128780000Y-104092000D01*
X128780000Y-105712000D01*
X128780000Y-105712000D01*
G37*
G36*
X194806000Y-104727000D02*
X190986000Y-104727000D01*
X190986000Y-103807000D01*
X194806000Y-103807000D01*
X194806000Y-104727000D01*
X194806000Y-104727000D01*
G37*
G36*
X202206000Y-104727000D02*
X198386000Y-104727000D01*
X198386000Y-103807000D01*
X202206000Y-103807000D01*
X202206000Y-104727000D01*
X202206000Y-104727000D01*
G37*
G36*
X206670000Y-104417000D02*
X205350000Y-104417000D01*
X205350000Y-102847000D01*
X206670000Y-102847000D01*
X206670000Y-104417000D01*
X206670000Y-104417000D01*
G37*
G36*
X208670000Y-104417000D02*
X207350000Y-104417000D01*
X207350000Y-102847000D01*
X208670000Y-102847000D01*
X208670000Y-104417000D01*
X208670000Y-104417000D01*
G37*
G36*
X128780000Y-103680000D02*
X127760000Y-103680000D01*
X127760000Y-102060000D01*
X128780000Y-102060000D01*
X128780000Y-103680000D01*
X128780000Y-103680000D01*
G37*
G36*
X126880000Y-103680000D02*
X125860000Y-103680000D01*
X125860000Y-102060000D01*
X126880000Y-102060000D01*
X126880000Y-103680000D01*
X126880000Y-103680000D01*
G37*
G36*
X130680000Y-103680000D02*
X129660000Y-103680000D01*
X129660000Y-102060000D01*
X130680000Y-102060000D01*
X130680000Y-103680000D01*
X130680000Y-103680000D01*
G37*
G36*
X89608113Y-100045202D02*
X89955822Y-100116577D01*
X90283047Y-100254129D01*
X90577320Y-100452619D01*
X90827440Y-100704491D01*
X91023870Y-101000141D01*
X91159137Y-101328324D01*
X91227972Y-101675966D01*
X91227972Y-101675983D01*
X91228078Y-101676520D01*
X91222417Y-102081951D01*
X91222295Y-102082487D01*
X91222295Y-102082500D01*
X91143779Y-102428089D01*
X90999404Y-102752361D01*
X90794792Y-103042416D01*
X90537738Y-103287206D01*
X90238041Y-103477400D01*
X89907103Y-103605762D01*
X89557530Y-103667402D01*
X89202655Y-103659967D01*
X88855971Y-103583744D01*
X88530700Y-103441637D01*
X88239225Y-103239057D01*
X87992648Y-102983719D01*
X87800363Y-102685352D01*
X87669696Y-102355321D01*
X87605618Y-102006187D01*
X87610573Y-101651266D01*
X87684374Y-101304061D01*
X87824208Y-100977804D01*
X88024747Y-100684924D01*
X88278359Y-100436569D01*
X88575374Y-100242208D01*
X88904488Y-100109237D01*
X89253162Y-100042724D01*
X89608113Y-100045202D01*
X89608113Y-100045202D01*
G37*
G36*
X202206000Y-103457000D02*
X198386000Y-103457000D01*
X198386000Y-102537000D01*
X202206000Y-102537000D01*
X202206000Y-103457000D01*
X202206000Y-103457000D01*
G37*
G36*
X194806000Y-103457000D02*
X190986000Y-103457000D01*
X190986000Y-102537000D01*
X194806000Y-102537000D01*
X194806000Y-103457000D01*
X194806000Y-103457000D01*
G37*
G36*
X183654455Y-101431058D02*
X183654459Y-101431058D01*
X183657698Y-101431081D01*
X183819646Y-101449247D01*
X183974981Y-101498522D01*
X184117787Y-101577030D01*
X184242625Y-101681781D01*
X184344738Y-101808785D01*
X184420239Y-101953203D01*
X184466250Y-102109537D01*
X184466255Y-102109588D01*
X184466260Y-102109606D01*
X184481023Y-102271826D01*
X184463995Y-102433827D01*
X184463991Y-102433838D01*
X184463985Y-102433900D01*
X184415796Y-102589576D01*
X184338286Y-102732926D01*
X184234410Y-102858492D01*
X184108122Y-102961489D01*
X183964234Y-103037996D01*
X183808226Y-103085098D01*
X183646040Y-103101000D01*
X183637843Y-103101000D01*
X183629545Y-103100942D01*
X183629541Y-103100942D01*
X183626302Y-103100919D01*
X183464354Y-103082753D01*
X183309019Y-103033478D01*
X183166213Y-102954970D01*
X183041375Y-102850219D01*
X182939262Y-102723215D01*
X182863761Y-102578797D01*
X182817750Y-102422463D01*
X182817745Y-102422412D01*
X182817740Y-102422394D01*
X182802977Y-102260174D01*
X182820005Y-102098173D01*
X182820009Y-102098162D01*
X182820015Y-102098100D01*
X182868204Y-101942424D01*
X182945714Y-101799074D01*
X183049590Y-101673508D01*
X183175878Y-101570511D01*
X183319766Y-101494004D01*
X183475774Y-101446902D01*
X183637960Y-101431000D01*
X183646157Y-101431000D01*
X183654455Y-101431058D01*
X183654455Y-101431058D01*
G37*
G36*
X185654455Y-101431058D02*
X185654459Y-101431058D01*
X185657698Y-101431081D01*
X185819646Y-101449247D01*
X185974981Y-101498522D01*
X186117787Y-101577030D01*
X186242625Y-101681781D01*
X186344738Y-101808785D01*
X186420239Y-101953203D01*
X186466250Y-102109537D01*
X186466255Y-102109588D01*
X186466260Y-102109606D01*
X186481023Y-102271826D01*
X186463995Y-102433827D01*
X186463991Y-102433838D01*
X186463985Y-102433900D01*
X186415796Y-102589576D01*
X186338286Y-102732926D01*
X186234410Y-102858492D01*
X186108122Y-102961489D01*
X185964234Y-103037996D01*
X185808226Y-103085098D01*
X185646040Y-103101000D01*
X185637843Y-103101000D01*
X185629545Y-103100942D01*
X185629541Y-103100942D01*
X185626302Y-103100919D01*
X185464354Y-103082753D01*
X185309019Y-103033478D01*
X185166213Y-102954970D01*
X185041375Y-102850219D01*
X184939262Y-102723215D01*
X184863761Y-102578797D01*
X184817750Y-102422463D01*
X184817745Y-102422412D01*
X184817740Y-102422394D01*
X184802977Y-102260174D01*
X184820005Y-102098173D01*
X184820009Y-102098162D01*
X184820015Y-102098100D01*
X184868204Y-101942424D01*
X184945714Y-101799074D01*
X185049590Y-101673508D01*
X185175878Y-101570511D01*
X185319766Y-101494004D01*
X185475774Y-101446902D01*
X185637960Y-101431000D01*
X185646157Y-101431000D01*
X185654455Y-101431058D01*
X185654455Y-101431058D01*
G37*
G36*
X197272000Y-101369000D02*
X195952000Y-101369000D01*
X195952000Y-99799000D01*
X197272000Y-99799000D01*
X197272000Y-101369000D01*
X197272000Y-101369000D01*
G37*
G36*
X193716000Y-101369000D02*
X192396000Y-101369000D01*
X192396000Y-99799000D01*
X193716000Y-99799000D01*
X193716000Y-101369000D01*
X193716000Y-101369000D01*
G37*
G36*
X199272000Y-101369000D02*
X197952000Y-101369000D01*
X197952000Y-99799000D01*
X199272000Y-99799000D01*
X199272000Y-101369000D01*
X199272000Y-101369000D01*
G37*
G36*
X195716000Y-101369000D02*
X194396000Y-101369000D01*
X194396000Y-99799000D01*
X195716000Y-99799000D01*
X195716000Y-101369000D01*
X195716000Y-101369000D01*
G37*
G36*
X208670000Y-101115000D02*
X207350000Y-101115000D01*
X207350000Y-99545000D01*
X208670000Y-99545000D01*
X208670000Y-101115000D01*
X208670000Y-101115000D01*
G37*
G36*
X206670000Y-101115000D02*
X205350000Y-101115000D01*
X205350000Y-99545000D01*
X206670000Y-99545000D01*
X206670000Y-101115000D01*
X206670000Y-101115000D01*
G37*
G36*
X183654455Y-99431058D02*
X183654459Y-99431058D01*
X183657698Y-99431081D01*
X183819646Y-99449247D01*
X183974981Y-99498522D01*
X184117787Y-99577030D01*
X184242625Y-99681781D01*
X184344738Y-99808785D01*
X184420239Y-99953203D01*
X184466250Y-100109537D01*
X184466255Y-100109588D01*
X184466260Y-100109606D01*
X184481023Y-100271826D01*
X184463995Y-100433827D01*
X184463991Y-100433838D01*
X184463985Y-100433900D01*
X184415796Y-100589576D01*
X184338286Y-100732926D01*
X184234410Y-100858492D01*
X184108122Y-100961489D01*
X183964234Y-101037996D01*
X183808226Y-101085098D01*
X183646040Y-101101000D01*
X183637843Y-101101000D01*
X183629545Y-101100942D01*
X183629541Y-101100942D01*
X183626302Y-101100919D01*
X183464354Y-101082753D01*
X183309019Y-101033478D01*
X183166213Y-100954970D01*
X183041375Y-100850219D01*
X182939262Y-100723215D01*
X182863761Y-100578797D01*
X182817750Y-100422463D01*
X182817745Y-100422412D01*
X182817740Y-100422394D01*
X182802977Y-100260174D01*
X182820005Y-100098173D01*
X182820009Y-100098162D01*
X182820015Y-100098100D01*
X182868204Y-99942424D01*
X182945714Y-99799074D01*
X183049590Y-99673508D01*
X183175878Y-99570511D01*
X183319766Y-99494004D01*
X183475774Y-99446902D01*
X183637960Y-99431000D01*
X183646157Y-99431000D01*
X183654455Y-99431058D01*
X183654455Y-99431058D01*
G37*
G36*
X185654455Y-99431058D02*
X185654459Y-99431058D01*
X185657698Y-99431081D01*
X185819646Y-99449247D01*
X185974981Y-99498522D01*
X186117787Y-99577030D01*
X186242625Y-99681781D01*
X186344738Y-99808785D01*
X186420239Y-99953203D01*
X186466250Y-100109537D01*
X186466255Y-100109588D01*
X186466260Y-100109606D01*
X186481023Y-100271826D01*
X186463995Y-100433827D01*
X186463991Y-100433838D01*
X186463985Y-100433900D01*
X186415796Y-100589576D01*
X186338286Y-100732926D01*
X186234410Y-100858492D01*
X186108122Y-100961489D01*
X185964234Y-101037996D01*
X185808226Y-101085098D01*
X185646040Y-101101000D01*
X185637843Y-101101000D01*
X185629545Y-101100942D01*
X185629541Y-101100942D01*
X185626302Y-101100919D01*
X185464354Y-101082753D01*
X185309019Y-101033478D01*
X185166213Y-100954970D01*
X185041375Y-100850219D01*
X184939262Y-100723215D01*
X184863761Y-100578797D01*
X184817750Y-100422463D01*
X184817745Y-100422412D01*
X184817740Y-100422394D01*
X184802977Y-100260174D01*
X184820005Y-100098173D01*
X184820009Y-100098162D01*
X184820015Y-100098100D01*
X184868204Y-99942424D01*
X184945714Y-99799074D01*
X185049590Y-99673508D01*
X185175878Y-99570511D01*
X185319766Y-99494004D01*
X185475774Y-99446902D01*
X185637960Y-99431000D01*
X185646157Y-99431000D01*
X185654455Y-99431058D01*
X185654455Y-99431058D01*
G37*
G36*
X142107840Y-97519769D02*
X142330682Y-97565512D01*
X142540396Y-97653667D01*
X142728989Y-97780875D01*
X142889289Y-97942297D01*
X143015177Y-98131774D01*
X143101868Y-98342103D01*
X143145944Y-98564702D01*
X143145944Y-98564719D01*
X143146050Y-98565256D01*
X143142422Y-98825090D01*
X143142300Y-98825626D01*
X143142300Y-98825639D01*
X143092026Y-99046925D01*
X142999498Y-99254746D01*
X142868363Y-99440640D01*
X142703625Y-99597518D01*
X142511551Y-99719412D01*
X142299459Y-99801678D01*
X142075421Y-99841182D01*
X141847990Y-99836417D01*
X141625804Y-99787566D01*
X141417343Y-99696492D01*
X141230542Y-99566662D01*
X141072514Y-99403019D01*
X140949281Y-99211801D01*
X140865538Y-99000290D01*
X140824472Y-98776534D01*
X140827647Y-98549072D01*
X140874945Y-98326554D01*
X140964564Y-98117457D01*
X141093085Y-97929758D01*
X141255622Y-97770590D01*
X141445973Y-97646027D01*
X141656898Y-97560808D01*
X141880358Y-97518181D01*
X142107840Y-97519769D01*
X142107840Y-97519769D01*
G37*
G36*
X137027840Y-97519769D02*
X137250682Y-97565512D01*
X137460396Y-97653667D01*
X137648989Y-97780875D01*
X137809289Y-97942297D01*
X137935177Y-98131774D01*
X138021868Y-98342103D01*
X138065944Y-98564702D01*
X138065944Y-98564719D01*
X138066050Y-98565256D01*
X138062422Y-98825090D01*
X138062300Y-98825626D01*
X138062300Y-98825639D01*
X138012026Y-99046925D01*
X137919498Y-99254746D01*
X137788363Y-99440640D01*
X137623625Y-99597518D01*
X137431551Y-99719412D01*
X137219459Y-99801678D01*
X136995421Y-99841182D01*
X136767990Y-99836417D01*
X136545804Y-99787566D01*
X136337343Y-99696492D01*
X136150542Y-99566662D01*
X135992514Y-99403019D01*
X135869281Y-99211801D01*
X135785538Y-99000290D01*
X135744472Y-98776534D01*
X135747647Y-98549072D01*
X135794945Y-98326554D01*
X135884564Y-98117457D01*
X136013085Y-97929758D01*
X136175622Y-97770590D01*
X136365973Y-97646027D01*
X136576898Y-97560808D01*
X136800358Y-97518181D01*
X137027840Y-97519769D01*
X137027840Y-97519769D01*
G37*
G36*
X139567840Y-97519769D02*
X139790682Y-97565512D01*
X140000396Y-97653667D01*
X140188989Y-97780875D01*
X140349289Y-97942297D01*
X140475177Y-98131774D01*
X140561868Y-98342103D01*
X140605944Y-98564702D01*
X140605944Y-98564719D01*
X140606050Y-98565256D01*
X140602422Y-98825090D01*
X140602300Y-98825626D01*
X140602300Y-98825639D01*
X140552026Y-99046925D01*
X140459498Y-99254746D01*
X140328363Y-99440640D01*
X140163625Y-99597518D01*
X139971551Y-99719412D01*
X139759459Y-99801678D01*
X139535421Y-99841182D01*
X139307990Y-99836417D01*
X139085804Y-99787566D01*
X138877343Y-99696492D01*
X138690542Y-99566662D01*
X138532514Y-99403019D01*
X138409281Y-99211801D01*
X138325538Y-99000290D01*
X138284472Y-98776534D01*
X138287647Y-98549072D01*
X138334945Y-98326554D01*
X138424564Y-98117457D01*
X138553085Y-97929758D01*
X138715622Y-97770590D01*
X138905973Y-97646027D01*
X139116898Y-97560808D01*
X139340358Y-97518181D01*
X139567840Y-97519769D01*
X139567840Y-97519769D01*
G37*
G36*
X190113840Y-97138769D02*
X190336682Y-97184512D01*
X190546396Y-97272667D01*
X190734989Y-97399875D01*
X190895289Y-97561297D01*
X191021177Y-97750774D01*
X191107868Y-97961103D01*
X191151944Y-98183702D01*
X191151944Y-98183719D01*
X191152050Y-98184256D01*
X191148422Y-98444090D01*
X191148300Y-98444626D01*
X191148300Y-98444639D01*
X191098026Y-98665925D01*
X191005498Y-98873746D01*
X190874363Y-99059640D01*
X190709625Y-99216518D01*
X190517551Y-99338412D01*
X190305459Y-99420678D01*
X190081421Y-99460182D01*
X189853990Y-99455417D01*
X189631804Y-99406566D01*
X189423343Y-99315492D01*
X189236542Y-99185662D01*
X189078514Y-99022019D01*
X188955281Y-98830801D01*
X188871538Y-98619290D01*
X188830472Y-98395534D01*
X188833647Y-98168072D01*
X188880945Y-97945554D01*
X188970564Y-97736457D01*
X189099085Y-97548758D01*
X189261622Y-97389590D01*
X189451973Y-97265027D01*
X189662898Y-97179808D01*
X189886358Y-97137181D01*
X190113840Y-97138769D01*
X190113840Y-97138769D01*
G37*
G36*
X192653840Y-97138769D02*
X192876682Y-97184512D01*
X193086396Y-97272667D01*
X193274989Y-97399875D01*
X193435289Y-97561297D01*
X193561177Y-97750774D01*
X193647868Y-97961103D01*
X193691944Y-98183702D01*
X193691944Y-98183719D01*
X193692050Y-98184256D01*
X193688422Y-98444090D01*
X193688300Y-98444626D01*
X193688300Y-98444639D01*
X193638026Y-98665925D01*
X193545498Y-98873746D01*
X193414363Y-99059640D01*
X193249625Y-99216518D01*
X193057551Y-99338412D01*
X192845459Y-99420678D01*
X192621421Y-99460182D01*
X192393990Y-99455417D01*
X192171804Y-99406566D01*
X191963343Y-99315492D01*
X191776542Y-99185662D01*
X191618514Y-99022019D01*
X191495281Y-98830801D01*
X191411538Y-98619290D01*
X191370472Y-98395534D01*
X191373647Y-98168072D01*
X191420945Y-97945554D01*
X191510564Y-97736457D01*
X191639085Y-97548758D01*
X191801622Y-97389590D01*
X191991973Y-97265027D01*
X192202898Y-97179808D01*
X192426358Y-97137181D01*
X192653840Y-97138769D01*
X192653840Y-97138769D01*
G37*
G36*
X195193840Y-97138769D02*
X195416682Y-97184512D01*
X195626396Y-97272667D01*
X195814989Y-97399875D01*
X195975289Y-97561297D01*
X196101177Y-97750774D01*
X196187868Y-97961103D01*
X196231944Y-98183702D01*
X196231944Y-98183719D01*
X196232050Y-98184256D01*
X196228422Y-98444090D01*
X196228300Y-98444626D01*
X196228300Y-98444639D01*
X196178026Y-98665925D01*
X196085498Y-98873746D01*
X195954363Y-99059640D01*
X195789625Y-99216518D01*
X195597551Y-99338412D01*
X195385459Y-99420678D01*
X195161421Y-99460182D01*
X194933990Y-99455417D01*
X194711804Y-99406566D01*
X194503343Y-99315492D01*
X194316542Y-99185662D01*
X194158514Y-99022019D01*
X194035281Y-98830801D01*
X193951538Y-98619290D01*
X193910472Y-98395534D01*
X193913647Y-98168072D01*
X193960945Y-97945554D01*
X194050564Y-97736457D01*
X194179085Y-97548758D01*
X194341622Y-97389590D01*
X194531973Y-97265027D01*
X194742898Y-97179808D01*
X194966358Y-97137181D01*
X195193840Y-97138769D01*
X195193840Y-97138769D01*
G37*
G36*
X185654455Y-97431058D02*
X185654459Y-97431058D01*
X185657698Y-97431081D01*
X185819646Y-97449247D01*
X185974981Y-97498522D01*
X186117787Y-97577030D01*
X186242625Y-97681781D01*
X186344738Y-97808785D01*
X186420239Y-97953203D01*
X186466250Y-98109537D01*
X186466255Y-98109588D01*
X186466260Y-98109606D01*
X186481023Y-98271826D01*
X186463995Y-98433827D01*
X186463991Y-98433838D01*
X186463985Y-98433900D01*
X186415796Y-98589576D01*
X186338286Y-98732926D01*
X186234410Y-98858492D01*
X186108122Y-98961489D01*
X185964234Y-99037996D01*
X185808226Y-99085098D01*
X185646040Y-99101000D01*
X185637843Y-99101000D01*
X185629545Y-99100942D01*
X185629541Y-99100942D01*
X185626302Y-99100919D01*
X185464354Y-99082753D01*
X185309019Y-99033478D01*
X185166213Y-98954970D01*
X185041375Y-98850219D01*
X184939262Y-98723215D01*
X184863761Y-98578797D01*
X184817750Y-98422463D01*
X184817745Y-98422412D01*
X184817740Y-98422394D01*
X184802977Y-98260174D01*
X184820005Y-98098173D01*
X184820009Y-98098162D01*
X184820015Y-98098100D01*
X184868204Y-97942424D01*
X184945714Y-97799074D01*
X185049590Y-97673508D01*
X185175878Y-97570511D01*
X185319766Y-97494004D01*
X185475774Y-97446902D01*
X185637960Y-97431000D01*
X185646157Y-97431000D01*
X185654455Y-97431058D01*
X185654455Y-97431058D01*
G37*
G36*
X183654455Y-97431058D02*
X183654459Y-97431058D01*
X183657698Y-97431081D01*
X183819646Y-97449247D01*
X183974981Y-97498522D01*
X184117787Y-97577030D01*
X184242625Y-97681781D01*
X184344738Y-97808785D01*
X184420239Y-97953203D01*
X184466250Y-98109537D01*
X184466255Y-98109588D01*
X184466260Y-98109606D01*
X184481023Y-98271826D01*
X184463995Y-98433827D01*
X184463991Y-98433838D01*
X184463985Y-98433900D01*
X184415796Y-98589576D01*
X184338286Y-98732926D01*
X184234410Y-98858492D01*
X184108122Y-98961489D01*
X183964234Y-99037996D01*
X183808226Y-99085098D01*
X183646040Y-99101000D01*
X183637843Y-99101000D01*
X183629545Y-99100942D01*
X183629541Y-99100942D01*
X183626302Y-99100919D01*
X183464354Y-99082753D01*
X183309019Y-99033478D01*
X183166213Y-98954970D01*
X183041375Y-98850219D01*
X182939262Y-98723215D01*
X182863761Y-98578797D01*
X182817750Y-98422463D01*
X182817745Y-98422412D01*
X182817740Y-98422394D01*
X182802977Y-98260174D01*
X182820005Y-98098173D01*
X182820009Y-98098162D01*
X182820015Y-98098100D01*
X182868204Y-97942424D01*
X182945714Y-97799074D01*
X183049590Y-97673508D01*
X183175878Y-97570511D01*
X183319766Y-97494004D01*
X183475774Y-97446902D01*
X183637960Y-97431000D01*
X183646157Y-97431000D01*
X183654455Y-97431058D01*
X183654455Y-97431058D01*
G37*
G36*
X208670000Y-98829000D02*
X207350000Y-98829000D01*
X207350000Y-97259000D01*
X208670000Y-97259000D01*
X208670000Y-98829000D01*
X208670000Y-98829000D01*
G37*
G36*
X206670000Y-98829000D02*
X205350000Y-98829000D01*
X205350000Y-97259000D01*
X206670000Y-97259000D01*
X206670000Y-98829000D01*
X206670000Y-98829000D01*
G37*
G36*
X181887000Y-98688000D02*
X178793000Y-98688000D01*
X178793000Y-97368000D01*
X181887000Y-97368000D01*
X181887000Y-98688000D01*
X181887000Y-98688000D01*
G37*
G36*
X185654455Y-95431058D02*
X185654459Y-95431058D01*
X185657698Y-95431081D01*
X185819646Y-95449247D01*
X185974981Y-95498522D01*
X186117787Y-95577030D01*
X186242625Y-95681781D01*
X186344738Y-95808785D01*
X186420239Y-95953203D01*
X186466250Y-96109537D01*
X186466255Y-96109588D01*
X186466260Y-96109606D01*
X186481023Y-96271826D01*
X186463995Y-96433827D01*
X186463991Y-96433838D01*
X186463985Y-96433900D01*
X186415796Y-96589576D01*
X186338286Y-96732926D01*
X186234410Y-96858492D01*
X186108122Y-96961489D01*
X185964234Y-97037996D01*
X185808226Y-97085098D01*
X185646040Y-97101000D01*
X185637843Y-97101000D01*
X185629545Y-97100942D01*
X185629541Y-97100942D01*
X185626302Y-97100919D01*
X185464354Y-97082753D01*
X185309019Y-97033478D01*
X185166213Y-96954970D01*
X185041375Y-96850219D01*
X184939262Y-96723215D01*
X184863761Y-96578797D01*
X184817750Y-96422463D01*
X184817745Y-96422412D01*
X184817740Y-96422394D01*
X184802977Y-96260174D01*
X184820005Y-96098173D01*
X184820009Y-96098162D01*
X184820015Y-96098100D01*
X184868204Y-95942424D01*
X184945714Y-95799074D01*
X185049590Y-95673508D01*
X185175878Y-95570511D01*
X185319766Y-95494004D01*
X185475774Y-95446902D01*
X185637960Y-95431000D01*
X185646157Y-95431000D01*
X185654455Y-95431058D01*
X185654455Y-95431058D01*
G37*
G36*
X184477000Y-97101000D02*
X182807000Y-97101000D01*
X182807000Y-95431000D01*
X184477000Y-95431000D01*
X184477000Y-97101000D01*
X184477000Y-97101000D01*
G37*
G36*
X181887000Y-96688000D02*
X178793000Y-96688000D01*
X178793000Y-95368000D01*
X181887000Y-95368000D01*
X181887000Y-96688000D01*
X181887000Y-96688000D01*
G37*
G36*
X206670000Y-95527000D02*
X205350000Y-95527000D01*
X205350000Y-93957000D01*
X206670000Y-93957000D01*
X206670000Y-95527000D01*
X206670000Y-95527000D01*
G37*
G36*
X208670000Y-95527000D02*
X207350000Y-95527000D01*
X207350000Y-93957000D01*
X208670000Y-93957000D01*
X208670000Y-95527000D01*
X208670000Y-95527000D01*
G37*
G36*
X122451000Y-94370000D02*
X120881000Y-94370000D01*
X120881000Y-93050000D01*
X122451000Y-93050000D01*
X122451000Y-94370000D01*
X122451000Y-94370000D01*
G37*
G36*
X116863000Y-94370000D02*
X115293000Y-94370000D01*
X115293000Y-93050000D01*
X116863000Y-93050000D01*
X116863000Y-94370000D01*
X116863000Y-94370000D01*
G37*
G36*
X111021000Y-94370000D02*
X109451000Y-94370000D01*
X109451000Y-93050000D01*
X111021000Y-93050000D01*
X111021000Y-94370000D01*
X111021000Y-94370000D01*
G37*
G36*
X181746000Y-94257000D02*
X180426000Y-94257000D01*
X180426000Y-92687000D01*
X181746000Y-92687000D01*
X181746000Y-94257000D01*
X181746000Y-94257000D01*
G37*
G36*
X179746000Y-94257000D02*
X178426000Y-94257000D01*
X178426000Y-92687000D01*
X179746000Y-92687000D01*
X179746000Y-94257000D01*
X179746000Y-94257000D01*
G37*
G36*
X206670000Y-93241000D02*
X205350000Y-93241000D01*
X205350000Y-91671000D01*
X206670000Y-91671000D01*
X206670000Y-93241000D01*
X206670000Y-93241000D01*
G37*
G36*
X208670000Y-93241000D02*
X207350000Y-93241000D01*
X207350000Y-91671000D01*
X208670000Y-91671000D01*
X208670000Y-93241000D01*
X208670000Y-93241000D01*
G37*
G36*
X184435000Y-92428000D02*
X173705000Y-92428000D01*
X173705000Y-81308000D01*
X184435000Y-81308000D01*
X184435000Y-92428000D01*
X184435000Y-92428000D01*
G37*
G36*
X122451000Y-92370000D02*
X120881000Y-92370000D01*
X120881000Y-91050000D01*
X122451000Y-91050000D01*
X122451000Y-92370000D01*
X122451000Y-92370000D01*
G37*
G36*
X111021000Y-92370000D02*
X109451000Y-92370000D01*
X109451000Y-91050000D01*
X111021000Y-91050000D01*
X111021000Y-92370000D01*
X111021000Y-92370000D01*
G37*
G36*
X116863000Y-92370000D02*
X115293000Y-92370000D01*
X115293000Y-91050000D01*
X116863000Y-91050000D01*
X116863000Y-92370000D01*
X116863000Y-92370000D01*
G37*
G36*
X190680000Y-90118000D02*
X185760000Y-90118000D01*
X185760000Y-88698000D01*
X190680000Y-88698000D01*
X190680000Y-90118000D01*
X190680000Y-90118000D01*
G37*
G36*
X207908000Y-89939000D02*
X206588000Y-89939000D01*
X206588000Y-88369000D01*
X207908000Y-88369000D01*
X207908000Y-89939000D01*
X207908000Y-89939000D01*
G37*
G36*
X205908000Y-89939000D02*
X204588000Y-89939000D01*
X204588000Y-88369000D01*
X205908000Y-88369000D01*
X205908000Y-89939000D01*
X205908000Y-89939000D01*
G37*
G36*
X192555000Y-89798000D02*
X190985000Y-89798000D01*
X190985000Y-88478000D01*
X192555000Y-88478000D01*
X192555000Y-89798000D01*
X192555000Y-89798000D01*
G37*
G36*
X194894000Y-89402000D02*
X193274000Y-89402000D01*
X193274000Y-87382000D01*
X194894000Y-87382000D01*
X194894000Y-89402000D01*
X194894000Y-89402000D01*
G37*
G36*
X198394000Y-89402000D02*
X196774000Y-89402000D01*
X196774000Y-87382000D01*
X198394000Y-87382000D01*
X198394000Y-89402000D01*
X198394000Y-89402000D01*
G37*
G36*
X192555000Y-87798000D02*
X190985000Y-87798000D01*
X190985000Y-86478000D01*
X192555000Y-86478000D01*
X192555000Y-87798000D01*
X192555000Y-87798000D01*
G37*
G36*
X190680000Y-87578000D02*
X185760000Y-87578000D01*
X185760000Y-86158000D01*
X190680000Y-86158000D01*
X190680000Y-87578000D01*
X190680000Y-87578000D01*
G37*
G36*
X209840000Y-86238000D02*
X206020000Y-86238000D01*
X206020000Y-82418000D01*
X209840000Y-82418000D01*
X209840000Y-86238000D01*
X209840000Y-86238000D01*
G37*
G36*
X203840000Y-86238000D02*
X200020000Y-86238000D01*
X200020000Y-82418000D01*
X203840000Y-82418000D01*
X203840000Y-86238000D01*
X203840000Y-86238000D01*
G37*
G36*
X199498000Y-85388000D02*
X196678000Y-85388000D01*
X196678000Y-83268000D01*
X199498000Y-83268000D01*
X199498000Y-85388000D01*
X199498000Y-85388000D01*
G37*
G36*
X195498000Y-85388000D02*
X192678000Y-85388000D01*
X192678000Y-83268000D01*
X195498000Y-83268000D01*
X195498000Y-85388000D01*
X195498000Y-85388000D01*
G37*
G36*
X190680000Y-85038000D02*
X185760000Y-85038000D01*
X185760000Y-83618000D01*
X190680000Y-83618000D01*
X190680000Y-85038000D01*
X190680000Y-85038000D01*
G37*
G36*
X111021000Y-84972000D02*
X109451000Y-84972000D01*
X109451000Y-83652000D01*
X111021000Y-83652000D01*
X111021000Y-84972000D01*
X111021000Y-84972000D01*
G37*
G36*
X122451000Y-84718000D02*
X120881000Y-84718000D01*
X120881000Y-83398000D01*
X122451000Y-83398000D01*
X122451000Y-84718000D01*
X122451000Y-84718000D01*
G37*
G36*
X116863000Y-84718000D02*
X115293000Y-84718000D01*
X115293000Y-83398000D01*
X116863000Y-83398000D01*
X116863000Y-84718000D01*
X116863000Y-84718000D01*
G37*
G36*
X189507000Y-83194000D02*
X187937000Y-83194000D01*
X187937000Y-81874000D01*
X189507000Y-81874000D01*
X189507000Y-83194000D01*
X189507000Y-83194000D01*
G37*
G36*
X111021000Y-82972000D02*
X109451000Y-82972000D01*
X109451000Y-81652000D01*
X111021000Y-81652000D01*
X111021000Y-82972000D01*
X111021000Y-82972000D01*
G37*
G36*
X122451000Y-82718000D02*
X120881000Y-82718000D01*
X120881000Y-81398000D01*
X122451000Y-81398000D01*
X122451000Y-82718000D01*
X122451000Y-82718000D01*
G37*
G36*
X116863000Y-82718000D02*
X115293000Y-82718000D01*
X115293000Y-81398000D01*
X116863000Y-81398000D01*
X116863000Y-82718000D01*
X116863000Y-82718000D01*
G37*
G36*
X206840000Y-81538000D02*
X203020000Y-81538000D01*
X203020000Y-77718000D01*
X206840000Y-77718000D01*
X206840000Y-81538000D01*
X206840000Y-81538000D01*
G37*
G36*
X189507000Y-81194000D02*
X187937000Y-81194000D01*
X187937000Y-79874000D01*
X189507000Y-79874000D01*
X189507000Y-81194000D01*
X189507000Y-81194000D01*
G37*
G36*
X202292000Y-80816000D02*
X199472000Y-80816000D01*
X199472000Y-78696000D01*
X202292000Y-78696000D01*
X202292000Y-80816000D01*
X202292000Y-80816000D01*
G37*
G36*
X198292000Y-80816000D02*
X195472000Y-80816000D01*
X195472000Y-78696000D01*
X198292000Y-78696000D01*
X198292000Y-80816000D01*
X198292000Y-80816000D01*
G37*
G36*
X127023000Y-80400000D02*
X125453000Y-80400000D01*
X125453000Y-79080000D01*
X127023000Y-79080000D01*
X127023000Y-80400000D01*
X127023000Y-80400000D01*
G37*
G36*
X130071000Y-80400000D02*
X128501000Y-80400000D01*
X128501000Y-79080000D01*
X130071000Y-79080000D01*
X130071000Y-80400000D01*
X130071000Y-80400000D01*
G37*
G36*
X130071000Y-78400000D02*
X128501000Y-78400000D01*
X128501000Y-77080000D01*
X130071000Y-77080000D01*
X130071000Y-78400000D01*
X130071000Y-78400000D01*
G37*
G36*
X127023000Y-78400000D02*
X125453000Y-78400000D01*
X125453000Y-77080000D01*
X127023000Y-77080000D01*
X127023000Y-78400000D01*
X127023000Y-78400000D01*
G37*
G36*
X199593014Y-73935731D02*
X199593029Y-73935736D01*
X199593089Y-73935742D01*
X199781391Y-73994031D01*
X199954785Y-74087785D01*
X200106666Y-74213432D01*
X200231250Y-74366188D01*
X200323791Y-74540232D01*
X200380765Y-74728936D01*
X200400000Y-74925113D01*
X200400000Y-74935004D01*
X200399925Y-74945746D01*
X200399902Y-74948989D01*
X200377929Y-75144878D01*
X200318327Y-75332768D01*
X200223365Y-75505504D01*
X200096660Y-75656504D01*
X199943039Y-75780019D01*
X199768353Y-75871343D01*
X199579255Y-75926997D01*
X199579204Y-75927002D01*
X199579186Y-75927007D01*
X199382951Y-75944865D01*
X199186986Y-75924269D01*
X199186971Y-75924264D01*
X199186911Y-75924258D01*
X198998609Y-75865969D01*
X198825215Y-75772215D01*
X198673334Y-75646568D01*
X198548750Y-75493812D01*
X198456209Y-75319768D01*
X198399235Y-75131064D01*
X198380000Y-74934887D01*
X198380000Y-74924996D01*
X198380075Y-74914254D01*
X198380075Y-74914250D01*
X198380098Y-74911011D01*
X198402071Y-74715122D01*
X198461673Y-74527232D01*
X198556635Y-74354496D01*
X198683340Y-74203496D01*
X198836961Y-74079981D01*
X199011647Y-73988657D01*
X199200745Y-73933003D01*
X199200796Y-73932998D01*
X199200814Y-73932993D01*
X199397049Y-73915135D01*
X199593014Y-73935731D01*
X199593014Y-73935731D01*
G37*
G36*
X197053014Y-73935731D02*
X197053029Y-73935736D01*
X197053089Y-73935742D01*
X197241391Y-73994031D01*
X197414785Y-74087785D01*
X197566666Y-74213432D01*
X197691250Y-74366188D01*
X197783791Y-74540232D01*
X197840765Y-74728936D01*
X197860000Y-74925113D01*
X197860000Y-74935004D01*
X197859925Y-74945746D01*
X197859902Y-74948989D01*
X197837929Y-75144878D01*
X197778327Y-75332768D01*
X197683365Y-75505504D01*
X197556660Y-75656504D01*
X197403039Y-75780019D01*
X197228353Y-75871343D01*
X197039255Y-75926997D01*
X197039204Y-75927002D01*
X197039186Y-75927007D01*
X196842951Y-75944865D01*
X196646986Y-75924269D01*
X196646971Y-75924264D01*
X196646911Y-75924258D01*
X196458609Y-75865969D01*
X196285215Y-75772215D01*
X196133334Y-75646568D01*
X196008750Y-75493812D01*
X195916209Y-75319768D01*
X195859235Y-75131064D01*
X195840000Y-74934887D01*
X195840000Y-74924996D01*
X195840075Y-74914254D01*
X195840075Y-74914250D01*
X195840098Y-74911011D01*
X195862071Y-74715122D01*
X195921673Y-74527232D01*
X196016635Y-74354496D01*
X196143340Y-74203496D01*
X196296961Y-74079981D01*
X196471647Y-73988657D01*
X196660745Y-73933003D01*
X196660796Y-73932998D01*
X196660814Y-73932993D01*
X196857049Y-73915135D01*
X197053014Y-73935731D01*
X197053014Y-73935731D01*
G37*
G36*
X194513014Y-73935731D02*
X194513029Y-73935736D01*
X194513089Y-73935742D01*
X194701391Y-73994031D01*
X194874785Y-74087785D01*
X195026666Y-74213432D01*
X195151250Y-74366188D01*
X195243791Y-74540232D01*
X195300765Y-74728936D01*
X195320000Y-74925113D01*
X195320000Y-74935004D01*
X195319925Y-74945746D01*
X195319902Y-74948989D01*
X195297929Y-75144878D01*
X195238327Y-75332768D01*
X195143365Y-75505504D01*
X195016660Y-75656504D01*
X194863039Y-75780019D01*
X194688353Y-75871343D01*
X194499255Y-75926997D01*
X194499204Y-75927002D01*
X194499186Y-75927007D01*
X194302951Y-75944865D01*
X194106986Y-75924269D01*
X194106971Y-75924264D01*
X194106911Y-75924258D01*
X193918609Y-75865969D01*
X193745215Y-75772215D01*
X193593334Y-75646568D01*
X193468750Y-75493812D01*
X193376209Y-75319768D01*
X193319235Y-75131064D01*
X193300000Y-74934887D01*
X193300000Y-74924996D01*
X193300075Y-74914254D01*
X193300075Y-74914250D01*
X193300098Y-74911011D01*
X193322071Y-74715122D01*
X193381673Y-74527232D01*
X193476635Y-74354496D01*
X193603340Y-74203496D01*
X193756961Y-74079981D01*
X193931647Y-73988657D01*
X194120745Y-73933003D01*
X194120796Y-73932998D01*
X194120814Y-73932993D01*
X194317049Y-73915135D01*
X194513014Y-73935731D01*
X194513014Y-73935731D01*
G37*
G36*
X191973014Y-73935731D02*
X191973029Y-73935736D01*
X191973089Y-73935742D01*
X192161391Y-73994031D01*
X192334785Y-74087785D01*
X192486666Y-74213432D01*
X192611250Y-74366188D01*
X192703791Y-74540232D01*
X192760765Y-74728936D01*
X192780000Y-74925113D01*
X192780000Y-74935004D01*
X192779925Y-74945746D01*
X192779902Y-74948989D01*
X192757929Y-75144878D01*
X192698327Y-75332768D01*
X192603365Y-75505504D01*
X192476660Y-75656504D01*
X192323039Y-75780019D01*
X192148353Y-75871343D01*
X191959255Y-75926997D01*
X191959204Y-75927002D01*
X191959186Y-75927007D01*
X191762951Y-75944865D01*
X191566986Y-75924269D01*
X191566971Y-75924264D01*
X191566911Y-75924258D01*
X191378609Y-75865969D01*
X191205215Y-75772215D01*
X191053334Y-75646568D01*
X190928750Y-75493812D01*
X190836209Y-75319768D01*
X190779235Y-75131064D01*
X190760000Y-74934887D01*
X190760000Y-74924996D01*
X190760075Y-74914254D01*
X190760075Y-74914250D01*
X190760098Y-74911011D01*
X190782071Y-74715122D01*
X190841673Y-74527232D01*
X190936635Y-74354496D01*
X191063340Y-74203496D01*
X191216961Y-74079981D01*
X191391647Y-73988657D01*
X191580745Y-73933003D01*
X191580796Y-73932998D01*
X191580814Y-73932993D01*
X191777049Y-73915135D01*
X191973014Y-73935731D01*
X191973014Y-73935731D01*
G37*
G36*
X189433014Y-73935731D02*
X189433029Y-73935736D01*
X189433089Y-73935742D01*
X189621391Y-73994031D01*
X189794785Y-74087785D01*
X189946666Y-74213432D01*
X190071250Y-74366188D01*
X190163791Y-74540232D01*
X190220765Y-74728936D01*
X190240000Y-74925113D01*
X190240000Y-74935004D01*
X190239925Y-74945746D01*
X190239902Y-74948989D01*
X190217929Y-75144878D01*
X190158327Y-75332768D01*
X190063365Y-75505504D01*
X189936660Y-75656504D01*
X189783039Y-75780019D01*
X189608353Y-75871343D01*
X189419255Y-75926997D01*
X189419204Y-75927002D01*
X189419186Y-75927007D01*
X189222951Y-75944865D01*
X189026986Y-75924269D01*
X189026971Y-75924264D01*
X189026911Y-75924258D01*
X188838609Y-75865969D01*
X188665215Y-75772215D01*
X188513334Y-75646568D01*
X188388750Y-75493812D01*
X188296209Y-75319768D01*
X188239235Y-75131064D01*
X188220000Y-74934887D01*
X188220000Y-74924996D01*
X188220075Y-74914254D01*
X188220075Y-74914250D01*
X188220098Y-74911011D01*
X188242071Y-74715122D01*
X188301673Y-74527232D01*
X188396635Y-74354496D01*
X188523340Y-74203496D01*
X188676961Y-74079981D01*
X188851647Y-73988657D01*
X189040745Y-73933003D01*
X189040796Y-73932998D01*
X189040814Y-73932993D01*
X189237049Y-73915135D01*
X189433014Y-73935731D01*
X189433014Y-73935731D01*
G37*
G36*
X123393014Y-73935731D02*
X123393029Y-73935736D01*
X123393089Y-73935742D01*
X123581391Y-73994031D01*
X123754785Y-74087785D01*
X123906666Y-74213432D01*
X124031250Y-74366188D01*
X124123791Y-74540232D01*
X124180765Y-74728936D01*
X124200000Y-74925113D01*
X124200000Y-74935004D01*
X124199925Y-74945746D01*
X124199902Y-74948989D01*
X124177929Y-75144878D01*
X124118327Y-75332768D01*
X124023365Y-75505504D01*
X123896660Y-75656504D01*
X123743039Y-75780019D01*
X123568353Y-75871343D01*
X123379255Y-75926997D01*
X123379204Y-75927002D01*
X123379186Y-75927007D01*
X123182951Y-75944865D01*
X122986986Y-75924269D01*
X122986971Y-75924264D01*
X122986911Y-75924258D01*
X122798609Y-75865969D01*
X122625215Y-75772215D01*
X122473334Y-75646568D01*
X122348750Y-75493812D01*
X122256209Y-75319768D01*
X122199235Y-75131064D01*
X122180000Y-74934887D01*
X122180000Y-74924996D01*
X122180075Y-74914254D01*
X122180075Y-74914250D01*
X122180098Y-74911011D01*
X122202071Y-74715122D01*
X122261673Y-74527232D01*
X122356635Y-74354496D01*
X122483340Y-74203496D01*
X122636961Y-74079981D01*
X122811647Y-73988657D01*
X123000745Y-73933003D01*
X123000796Y-73932998D01*
X123000814Y-73932993D01*
X123197049Y-73915135D01*
X123393014Y-73935731D01*
X123393014Y-73935731D01*
G37*
G36*
X202133014Y-73935731D02*
X202133029Y-73935736D01*
X202133089Y-73935742D01*
X202321391Y-73994031D01*
X202494785Y-74087785D01*
X202646666Y-74213432D01*
X202771250Y-74366188D01*
X202863791Y-74540232D01*
X202920765Y-74728936D01*
X202940000Y-74925113D01*
X202940000Y-74935004D01*
X202939925Y-74945746D01*
X202939902Y-74948989D01*
X202917929Y-75144878D01*
X202858327Y-75332768D01*
X202763365Y-75505504D01*
X202636660Y-75656504D01*
X202483039Y-75780019D01*
X202308353Y-75871343D01*
X202119255Y-75926997D01*
X202119204Y-75927002D01*
X202119186Y-75927007D01*
X201922951Y-75944865D01*
X201726986Y-75924269D01*
X201726971Y-75924264D01*
X201726911Y-75924258D01*
X201538609Y-75865969D01*
X201365215Y-75772215D01*
X201213334Y-75646568D01*
X201088750Y-75493812D01*
X200996209Y-75319768D01*
X200939235Y-75131064D01*
X200920000Y-74934887D01*
X200920000Y-74924996D01*
X200920075Y-74914254D01*
X200920075Y-74914250D01*
X200920098Y-74911011D01*
X200942071Y-74715122D01*
X201001673Y-74527232D01*
X201096635Y-74354496D01*
X201223340Y-74203496D01*
X201376961Y-74079981D01*
X201551647Y-73988657D01*
X201740745Y-73933003D01*
X201740796Y-73932998D01*
X201740814Y-73932993D01*
X201937049Y-73915135D01*
X202133014Y-73935731D01*
X202133014Y-73935731D01*
G37*
G36*
X204673014Y-73935731D02*
X204673029Y-73935736D01*
X204673089Y-73935742D01*
X204861391Y-73994031D01*
X205034785Y-74087785D01*
X205186666Y-74213432D01*
X205311250Y-74366188D01*
X205403791Y-74540232D01*
X205460765Y-74728936D01*
X205480000Y-74925113D01*
X205480000Y-74935004D01*
X205479925Y-74945746D01*
X205479902Y-74948989D01*
X205457929Y-75144878D01*
X205398327Y-75332768D01*
X205303365Y-75505504D01*
X205176660Y-75656504D01*
X205023039Y-75780019D01*
X204848353Y-75871343D01*
X204659255Y-75926997D01*
X204659204Y-75927002D01*
X204659186Y-75927007D01*
X204462951Y-75944865D01*
X204266986Y-75924269D01*
X204266971Y-75924264D01*
X204266911Y-75924258D01*
X204078609Y-75865969D01*
X203905215Y-75772215D01*
X203753334Y-75646568D01*
X203628750Y-75493812D01*
X203536209Y-75319768D01*
X203479235Y-75131064D01*
X203460000Y-74934887D01*
X203460000Y-74924996D01*
X203460075Y-74914254D01*
X203460075Y-74914250D01*
X203460098Y-74911011D01*
X203482071Y-74715122D01*
X203541673Y-74527232D01*
X203636635Y-74354496D01*
X203763340Y-74203496D01*
X203916961Y-74079981D01*
X204091647Y-73988657D01*
X204280745Y-73933003D01*
X204280796Y-73932998D01*
X204280814Y-73932993D01*
X204477049Y-73915135D01*
X204673014Y-73935731D01*
X204673014Y-73935731D01*
G37*
G36*
X207213014Y-73935731D02*
X207213029Y-73935736D01*
X207213089Y-73935742D01*
X207401391Y-73994031D01*
X207574785Y-74087785D01*
X207726666Y-74213432D01*
X207851250Y-74366188D01*
X207943791Y-74540232D01*
X208000765Y-74728936D01*
X208020000Y-74925113D01*
X208020000Y-74935004D01*
X208019925Y-74945746D01*
X208019902Y-74948989D01*
X207997929Y-75144878D01*
X207938327Y-75332768D01*
X207843365Y-75505504D01*
X207716660Y-75656504D01*
X207563039Y-75780019D01*
X207388353Y-75871343D01*
X207199255Y-75926997D01*
X207199204Y-75927002D01*
X207199186Y-75927007D01*
X207002951Y-75944865D01*
X206806986Y-75924269D01*
X206806971Y-75924264D01*
X206806911Y-75924258D01*
X206618609Y-75865969D01*
X206445215Y-75772215D01*
X206293334Y-75646568D01*
X206168750Y-75493812D01*
X206076209Y-75319768D01*
X206019235Y-75131064D01*
X206000000Y-74934887D01*
X206000000Y-74924996D01*
X206000075Y-74914254D01*
X206000075Y-74914250D01*
X206000098Y-74911011D01*
X206022071Y-74715122D01*
X206081673Y-74527232D01*
X206176635Y-74354496D01*
X206303340Y-74203496D01*
X206456961Y-74079981D01*
X206631647Y-73988657D01*
X206820745Y-73933003D01*
X206820796Y-73932998D01*
X206820814Y-73932993D01*
X207017049Y-73915135D01*
X207213014Y-73935731D01*
X207213014Y-73935731D01*
G37*
G36*
X141173014Y-73935731D02*
X141173029Y-73935736D01*
X141173089Y-73935742D01*
X141361391Y-73994031D01*
X141534785Y-74087785D01*
X141686666Y-74213432D01*
X141811250Y-74366188D01*
X141903791Y-74540232D01*
X141960765Y-74728936D01*
X141980000Y-74925113D01*
X141980000Y-74935004D01*
X141979925Y-74945746D01*
X141979902Y-74948989D01*
X141957929Y-75144878D01*
X141898327Y-75332768D01*
X141803365Y-75505504D01*
X141676660Y-75656504D01*
X141523039Y-75780019D01*
X141348353Y-75871343D01*
X141159255Y-75926997D01*
X141159204Y-75927002D01*
X141159186Y-75927007D01*
X140962951Y-75944865D01*
X140766986Y-75924269D01*
X140766971Y-75924264D01*
X140766911Y-75924258D01*
X140578609Y-75865969D01*
X140405215Y-75772215D01*
X140253334Y-75646568D01*
X140128750Y-75493812D01*
X140036209Y-75319768D01*
X139979235Y-75131064D01*
X139960000Y-74934887D01*
X139960000Y-74924996D01*
X139960075Y-74914254D01*
X139960075Y-74914250D01*
X139960098Y-74911011D01*
X139982071Y-74715122D01*
X140041673Y-74527232D01*
X140136635Y-74354496D01*
X140263340Y-74203496D01*
X140416961Y-74079981D01*
X140591647Y-73988657D01*
X140780745Y-73933003D01*
X140780796Y-73932998D01*
X140780814Y-73932993D01*
X140977049Y-73915135D01*
X141173014Y-73935731D01*
X141173014Y-73935731D01*
G37*
G36*
X138633014Y-73935731D02*
X138633029Y-73935736D01*
X138633089Y-73935742D01*
X138821391Y-73994031D01*
X138994785Y-74087785D01*
X139146666Y-74213432D01*
X139271250Y-74366188D01*
X139363791Y-74540232D01*
X139420765Y-74728936D01*
X139440000Y-74925113D01*
X139440000Y-74935004D01*
X139439925Y-74945746D01*
X139439902Y-74948989D01*
X139417929Y-75144878D01*
X139358327Y-75332768D01*
X139263365Y-75505504D01*
X139136660Y-75656504D01*
X138983039Y-75780019D01*
X138808353Y-75871343D01*
X138619255Y-75926997D01*
X138619204Y-75927002D01*
X138619186Y-75927007D01*
X138422951Y-75944865D01*
X138226986Y-75924269D01*
X138226971Y-75924264D01*
X138226911Y-75924258D01*
X138038609Y-75865969D01*
X137865215Y-75772215D01*
X137713334Y-75646568D01*
X137588750Y-75493812D01*
X137496209Y-75319768D01*
X137439235Y-75131064D01*
X137420000Y-74934887D01*
X137420000Y-74924996D01*
X137420075Y-74914254D01*
X137420075Y-74914250D01*
X137420098Y-74911011D01*
X137442071Y-74715122D01*
X137501673Y-74527232D01*
X137596635Y-74354496D01*
X137723340Y-74203496D01*
X137876961Y-74079981D01*
X138051647Y-73988657D01*
X138240745Y-73933003D01*
X138240796Y-73932998D01*
X138240814Y-73932993D01*
X138437049Y-73915135D01*
X138633014Y-73935731D01*
X138633014Y-73935731D01*
G37*
G36*
X136093014Y-73935731D02*
X136093029Y-73935736D01*
X136093089Y-73935742D01*
X136281391Y-73994031D01*
X136454785Y-74087785D01*
X136606666Y-74213432D01*
X136731250Y-74366188D01*
X136823791Y-74540232D01*
X136880765Y-74728936D01*
X136900000Y-74925113D01*
X136900000Y-74935004D01*
X136899925Y-74945746D01*
X136899902Y-74948989D01*
X136877929Y-75144878D01*
X136818327Y-75332768D01*
X136723365Y-75505504D01*
X136596660Y-75656504D01*
X136443039Y-75780019D01*
X136268353Y-75871343D01*
X136079255Y-75926997D01*
X136079204Y-75927002D01*
X136079186Y-75927007D01*
X135882951Y-75944865D01*
X135686986Y-75924269D01*
X135686971Y-75924264D01*
X135686911Y-75924258D01*
X135498609Y-75865969D01*
X135325215Y-75772215D01*
X135173334Y-75646568D01*
X135048750Y-75493812D01*
X134956209Y-75319768D01*
X134899235Y-75131064D01*
X134880000Y-74934887D01*
X134880000Y-74924996D01*
X134880075Y-74914254D01*
X134880075Y-74914250D01*
X134880098Y-74911011D01*
X134902071Y-74715122D01*
X134961673Y-74527232D01*
X135056635Y-74354496D01*
X135183340Y-74203496D01*
X135336961Y-74079981D01*
X135511647Y-73988657D01*
X135700745Y-73933003D01*
X135700796Y-73932998D01*
X135700814Y-73932993D01*
X135897049Y-73915135D01*
X136093014Y-73935731D01*
X136093014Y-73935731D01*
G37*
G36*
X133553014Y-73935731D02*
X133553029Y-73935736D01*
X133553089Y-73935742D01*
X133741391Y-73994031D01*
X133914785Y-74087785D01*
X134066666Y-74213432D01*
X134191250Y-74366188D01*
X134283791Y-74540232D01*
X134340765Y-74728936D01*
X134360000Y-74925113D01*
X134360000Y-74935004D01*
X134359925Y-74945746D01*
X134359902Y-74948989D01*
X134337929Y-75144878D01*
X134278327Y-75332768D01*
X134183365Y-75505504D01*
X134056660Y-75656504D01*
X133903039Y-75780019D01*
X133728353Y-75871343D01*
X133539255Y-75926997D01*
X133539204Y-75927002D01*
X133539186Y-75927007D01*
X133342951Y-75944865D01*
X133146986Y-75924269D01*
X133146971Y-75924264D01*
X133146911Y-75924258D01*
X132958609Y-75865969D01*
X132785215Y-75772215D01*
X132633334Y-75646568D01*
X132508750Y-75493812D01*
X132416209Y-75319768D01*
X132359235Y-75131064D01*
X132340000Y-74934887D01*
X132340000Y-74924996D01*
X132340075Y-74914254D01*
X132340075Y-74914250D01*
X132340098Y-74911011D01*
X132362071Y-74715122D01*
X132421673Y-74527232D01*
X132516635Y-74354496D01*
X132643340Y-74203496D01*
X132796961Y-74079981D01*
X132971647Y-73988657D01*
X133160745Y-73933003D01*
X133160796Y-73932998D01*
X133160814Y-73932993D01*
X133357049Y-73915135D01*
X133553014Y-73935731D01*
X133553014Y-73935731D01*
G37*
G36*
X125933014Y-73935731D02*
X125933029Y-73935736D01*
X125933089Y-73935742D01*
X126121391Y-73994031D01*
X126294785Y-74087785D01*
X126446666Y-74213432D01*
X126571250Y-74366188D01*
X126663791Y-74540232D01*
X126720765Y-74728936D01*
X126740000Y-74925113D01*
X126740000Y-74935004D01*
X126739925Y-74945746D01*
X126739902Y-74948989D01*
X126717929Y-75144878D01*
X126658327Y-75332768D01*
X126563365Y-75505504D01*
X126436660Y-75656504D01*
X126283039Y-75780019D01*
X126108353Y-75871343D01*
X125919255Y-75926997D01*
X125919204Y-75927002D01*
X125919186Y-75927007D01*
X125722951Y-75944865D01*
X125526986Y-75924269D01*
X125526971Y-75924264D01*
X125526911Y-75924258D01*
X125338609Y-75865969D01*
X125165215Y-75772215D01*
X125013334Y-75646568D01*
X124888750Y-75493812D01*
X124796209Y-75319768D01*
X124739235Y-75131064D01*
X124720000Y-74934887D01*
X124720000Y-74924996D01*
X124720075Y-74914254D01*
X124720075Y-74914250D01*
X124720098Y-74911011D01*
X124742071Y-74715122D01*
X124801673Y-74527232D01*
X124896635Y-74354496D01*
X125023340Y-74203496D01*
X125176961Y-74079981D01*
X125351647Y-73988657D01*
X125540745Y-73933003D01*
X125540796Y-73932998D01*
X125540814Y-73932993D01*
X125737049Y-73915135D01*
X125933014Y-73935731D01*
X125933014Y-73935731D01*
G37*
G36*
X128473014Y-73935731D02*
X128473029Y-73935736D01*
X128473089Y-73935742D01*
X128661391Y-73994031D01*
X128834785Y-74087785D01*
X128986666Y-74213432D01*
X129111250Y-74366188D01*
X129203791Y-74540232D01*
X129260765Y-74728936D01*
X129280000Y-74925113D01*
X129280000Y-74935004D01*
X129279925Y-74945746D01*
X129279902Y-74948989D01*
X129257929Y-75144878D01*
X129198327Y-75332768D01*
X129103365Y-75505504D01*
X128976660Y-75656504D01*
X128823039Y-75780019D01*
X128648353Y-75871343D01*
X128459255Y-75926997D01*
X128459204Y-75927002D01*
X128459186Y-75927007D01*
X128262951Y-75944865D01*
X128066986Y-75924269D01*
X128066971Y-75924264D01*
X128066911Y-75924258D01*
X127878609Y-75865969D01*
X127705215Y-75772215D01*
X127553334Y-75646568D01*
X127428750Y-75493812D01*
X127336209Y-75319768D01*
X127279235Y-75131064D01*
X127260000Y-74934887D01*
X127260000Y-74924996D01*
X127260075Y-74914254D01*
X127260075Y-74914250D01*
X127260098Y-74911011D01*
X127282071Y-74715122D01*
X127341673Y-74527232D01*
X127436635Y-74354496D01*
X127563340Y-74203496D01*
X127716961Y-74079981D01*
X127891647Y-73988657D01*
X128080745Y-73933003D01*
X128080796Y-73932998D01*
X128080814Y-73932993D01*
X128277049Y-73915135D01*
X128473014Y-73935731D01*
X128473014Y-73935731D01*
G37*
G36*
X131013014Y-73935731D02*
X131013029Y-73935736D01*
X131013089Y-73935742D01*
X131201391Y-73994031D01*
X131374785Y-74087785D01*
X131526666Y-74213432D01*
X131651250Y-74366188D01*
X131743791Y-74540232D01*
X131800765Y-74728936D01*
X131820000Y-74925113D01*
X131820000Y-74935004D01*
X131819925Y-74945746D01*
X131819902Y-74948989D01*
X131797929Y-75144878D01*
X131738327Y-75332768D01*
X131643365Y-75505504D01*
X131516660Y-75656504D01*
X131363039Y-75780019D01*
X131188353Y-75871343D01*
X130999255Y-75926997D01*
X130999204Y-75927002D01*
X130999186Y-75927007D01*
X130802951Y-75944865D01*
X130606986Y-75924269D01*
X130606971Y-75924264D01*
X130606911Y-75924258D01*
X130418609Y-75865969D01*
X130245215Y-75772215D01*
X130093334Y-75646568D01*
X129968750Y-75493812D01*
X129876209Y-75319768D01*
X129819235Y-75131064D01*
X129800000Y-74934887D01*
X129800000Y-74924996D01*
X129800075Y-74914254D01*
X129800075Y-74914250D01*
X129800098Y-74911011D01*
X129822071Y-74715122D01*
X129881673Y-74527232D01*
X129976635Y-74354496D01*
X130103340Y-74203496D01*
X130256961Y-74079981D01*
X130431647Y-73988657D01*
X130620745Y-73933003D01*
X130620796Y-73932998D01*
X130620814Y-73932993D01*
X130817049Y-73915135D01*
X131013014Y-73935731D01*
X131013014Y-73935731D01*
G37*
G36*
X186893014Y-73935731D02*
X186893029Y-73935736D01*
X186893089Y-73935742D01*
X187081391Y-73994031D01*
X187254785Y-74087785D01*
X187406666Y-74213432D01*
X187531250Y-74366188D01*
X187623791Y-74540232D01*
X187680765Y-74728936D01*
X187700000Y-74925113D01*
X187700000Y-74935004D01*
X187699925Y-74945746D01*
X187699902Y-74948989D01*
X187677929Y-75144878D01*
X187618327Y-75332768D01*
X187523365Y-75505504D01*
X187396660Y-75656504D01*
X187243039Y-75780019D01*
X187068353Y-75871343D01*
X186879255Y-75926997D01*
X186879204Y-75927002D01*
X186879186Y-75927007D01*
X186682951Y-75944865D01*
X186486986Y-75924269D01*
X186486971Y-75924264D01*
X186486911Y-75924258D01*
X186298609Y-75865969D01*
X186125215Y-75772215D01*
X185973334Y-75646568D01*
X185848750Y-75493812D01*
X185756209Y-75319768D01*
X185699235Y-75131064D01*
X185680000Y-74934887D01*
X185680000Y-74924996D01*
X185680075Y-74914254D01*
X185680075Y-74914250D01*
X185680098Y-74911011D01*
X185702071Y-74715122D01*
X185761673Y-74527232D01*
X185856635Y-74354496D01*
X185983340Y-74203496D01*
X186136961Y-74079981D01*
X186311647Y-73988657D01*
X186500745Y-73933003D01*
X186500796Y-73932998D01*
X186500814Y-73932993D01*
X186697049Y-73915135D01*
X186893014Y-73935731D01*
X186893014Y-73935731D01*
G37*
G36*
X143713014Y-73935731D02*
X143713029Y-73935736D01*
X143713089Y-73935742D01*
X143901391Y-73994031D01*
X144074785Y-74087785D01*
X144226666Y-74213432D01*
X144351250Y-74366188D01*
X144443791Y-74540232D01*
X144500765Y-74728936D01*
X144520000Y-74925113D01*
X144520000Y-74935004D01*
X144519925Y-74945746D01*
X144519902Y-74948989D01*
X144497929Y-75144878D01*
X144438327Y-75332768D01*
X144343365Y-75505504D01*
X144216660Y-75656504D01*
X144063039Y-75780019D01*
X143888353Y-75871343D01*
X143699255Y-75926997D01*
X143699204Y-75927002D01*
X143699186Y-75927007D01*
X143502951Y-75944865D01*
X143306986Y-75924269D01*
X143306971Y-75924264D01*
X143306911Y-75924258D01*
X143118609Y-75865969D01*
X142945215Y-75772215D01*
X142793334Y-75646568D01*
X142668750Y-75493812D01*
X142576209Y-75319768D01*
X142519235Y-75131064D01*
X142500000Y-74934887D01*
X142500000Y-74924996D01*
X142500075Y-74914254D01*
X142500075Y-74914250D01*
X142500098Y-74911011D01*
X142522071Y-74715122D01*
X142581673Y-74527232D01*
X142676635Y-74354496D01*
X142803340Y-74203496D01*
X142956961Y-74079981D01*
X143131647Y-73988657D01*
X143320745Y-73933003D01*
X143320796Y-73932998D01*
X143320814Y-73932993D01*
X143517049Y-73915135D01*
X143713014Y-73935731D01*
X143713014Y-73935731D01*
G37*
G36*
X147060000Y-75940000D02*
X145040000Y-75940000D01*
X145040000Y-73920000D01*
X147060000Y-73920000D01*
X147060000Y-75940000D01*
X147060000Y-75940000D01*
G37*
G36*
X210560000Y-75940000D02*
X208540000Y-75940000D01*
X208540000Y-73920000D01*
X210560000Y-73920000D01*
X210560000Y-75940000D01*
X210560000Y-75940000D01*
G37*
G36*
X162722000Y-75910000D02*
X159982000Y-75910000D01*
X159982000Y-74638000D01*
X159978833Y-74615713D01*
X159969582Y-74595190D01*
X159954979Y-74578057D01*
X159936182Y-74565670D01*
X159914678Y-74559011D01*
X159902000Y-74558000D01*
X158473000Y-74558000D01*
X158473000Y-73238000D01*
X159902000Y-73238000D01*
X159924287Y-73234833D01*
X159944810Y-73225582D01*
X159961943Y-73210979D01*
X159974330Y-73192182D01*
X159980989Y-73170678D01*
X159982000Y-73158000D01*
X159982000Y-72638000D01*
X159978833Y-72615713D01*
X159969582Y-72595190D01*
X159954979Y-72578057D01*
X159936182Y-72565670D01*
X159914678Y-72559011D01*
X159902000Y-72558000D01*
X158473000Y-72558000D01*
X158473000Y-71238000D01*
X159902000Y-71238000D01*
X159924287Y-71234833D01*
X159944810Y-71225582D01*
X159961943Y-71210979D01*
X159974330Y-71192182D01*
X159980989Y-71170678D01*
X159982000Y-71158000D01*
X159982000Y-70510000D01*
X162722000Y-70510000D01*
X162722000Y-75910000D01*
X162722000Y-75910000D01*
G37*
G36*
X181010000Y-75910000D02*
X178270000Y-75910000D01*
X178270000Y-74638000D01*
X178266833Y-74615713D01*
X178257582Y-74595190D01*
X178242979Y-74578057D01*
X178224182Y-74565670D01*
X178202678Y-74559011D01*
X178190000Y-74558000D01*
X176761000Y-74558000D01*
X176761000Y-73238000D01*
X178190000Y-73238000D01*
X178212287Y-73234833D01*
X178232810Y-73225582D01*
X178249943Y-73210979D01*
X178262330Y-73192182D01*
X178268989Y-73170678D01*
X178270000Y-73158000D01*
X178270000Y-72638000D01*
X178266833Y-72615713D01*
X178257582Y-72595190D01*
X178242979Y-72578057D01*
X178224182Y-72565670D01*
X178202678Y-72559011D01*
X178190000Y-72558000D01*
X176761000Y-72558000D01*
X176761000Y-71238000D01*
X178190000Y-71238000D01*
X178212287Y-71234833D01*
X178232810Y-71225582D01*
X178249943Y-71210979D01*
X178262330Y-71192182D01*
X178268989Y-71170678D01*
X178270000Y-71158000D01*
X178270000Y-70510000D01*
X181010000Y-70510000D01*
X181010000Y-75910000D01*
X181010000Y-75910000D01*
G37*
G36*
X172250000Y-75910000D02*
X169510000Y-75910000D01*
X169510000Y-70510000D01*
X172250000Y-70510000D01*
X172250000Y-75910000D01*
X172250000Y-75910000D01*
G37*
G36*
X153962000Y-75910000D02*
X151222000Y-75910000D01*
X151222000Y-70510000D01*
X153962000Y-70510000D01*
X153962000Y-75910000D01*
X153962000Y-75910000D01*
G37*
G36*
X186893014Y-71395731D02*
X186893029Y-71395736D01*
X186893089Y-71395742D01*
X187081391Y-71454031D01*
X187254785Y-71547785D01*
X187406666Y-71673432D01*
X187531250Y-71826188D01*
X187623791Y-72000232D01*
X187680765Y-72188936D01*
X187700000Y-72385113D01*
X187700000Y-72395004D01*
X187699925Y-72405746D01*
X187699902Y-72408989D01*
X187677929Y-72604878D01*
X187618327Y-72792768D01*
X187523365Y-72965504D01*
X187396660Y-73116504D01*
X187243039Y-73240019D01*
X187068353Y-73331343D01*
X186879255Y-73386997D01*
X186879204Y-73387002D01*
X186879186Y-73387007D01*
X186682951Y-73404865D01*
X186486986Y-73384269D01*
X186486971Y-73384264D01*
X186486911Y-73384258D01*
X186298609Y-73325969D01*
X186125215Y-73232215D01*
X185973334Y-73106568D01*
X185848750Y-72953812D01*
X185756209Y-72779768D01*
X185699235Y-72591064D01*
X185680000Y-72394887D01*
X185680000Y-72384996D01*
X185680075Y-72374254D01*
X185680075Y-72374250D01*
X185680098Y-72371011D01*
X185702071Y-72175122D01*
X185761673Y-71987232D01*
X185856635Y-71814496D01*
X185983340Y-71663496D01*
X186136961Y-71539981D01*
X186311647Y-71448657D01*
X186500745Y-71393003D01*
X186500796Y-71392998D01*
X186500814Y-71392993D01*
X186697049Y-71375135D01*
X186893014Y-71395731D01*
X186893014Y-71395731D01*
G37*
G36*
X209753014Y-71395731D02*
X209753029Y-71395736D01*
X209753089Y-71395742D01*
X209941391Y-71454031D01*
X210114785Y-71547785D01*
X210266666Y-71673432D01*
X210391250Y-71826188D01*
X210483791Y-72000232D01*
X210540765Y-72188936D01*
X210560000Y-72385113D01*
X210560000Y-72395004D01*
X210559925Y-72405746D01*
X210559902Y-72408989D01*
X210537929Y-72604878D01*
X210478327Y-72792768D01*
X210383365Y-72965504D01*
X210256660Y-73116504D01*
X210103039Y-73240019D01*
X209928353Y-73331343D01*
X209739255Y-73386997D01*
X209739204Y-73387002D01*
X209739186Y-73387007D01*
X209542951Y-73404865D01*
X209346986Y-73384269D01*
X209346971Y-73384264D01*
X209346911Y-73384258D01*
X209158609Y-73325969D01*
X208985215Y-73232215D01*
X208833334Y-73106568D01*
X208708750Y-72953812D01*
X208616209Y-72779768D01*
X208559235Y-72591064D01*
X208540000Y-72394887D01*
X208540000Y-72384996D01*
X208540075Y-72374254D01*
X208540075Y-72374250D01*
X208540098Y-72371011D01*
X208562071Y-72175122D01*
X208621673Y-71987232D01*
X208716635Y-71814496D01*
X208843340Y-71663496D01*
X208996961Y-71539981D01*
X209171647Y-71448657D01*
X209360745Y-71393003D01*
X209360796Y-71392998D01*
X209360814Y-71392993D01*
X209557049Y-71375135D01*
X209753014Y-71395731D01*
X209753014Y-71395731D01*
G37*
G36*
X207213014Y-71395731D02*
X207213029Y-71395736D01*
X207213089Y-71395742D01*
X207401391Y-71454031D01*
X207574785Y-71547785D01*
X207726666Y-71673432D01*
X207851250Y-71826188D01*
X207943791Y-72000232D01*
X208000765Y-72188936D01*
X208020000Y-72385113D01*
X208020000Y-72395004D01*
X208019925Y-72405746D01*
X208019902Y-72408989D01*
X207997929Y-72604878D01*
X207938327Y-72792768D01*
X207843365Y-72965504D01*
X207716660Y-73116504D01*
X207563039Y-73240019D01*
X207388353Y-73331343D01*
X207199255Y-73386997D01*
X207199204Y-73387002D01*
X207199186Y-73387007D01*
X207002951Y-73404865D01*
X206806986Y-73384269D01*
X206806971Y-73384264D01*
X206806911Y-73384258D01*
X206618609Y-73325969D01*
X206445215Y-73232215D01*
X206293334Y-73106568D01*
X206168750Y-72953812D01*
X206076209Y-72779768D01*
X206019235Y-72591064D01*
X206000000Y-72394887D01*
X206000000Y-72384996D01*
X206000075Y-72374254D01*
X206000075Y-72374250D01*
X206000098Y-72371011D01*
X206022071Y-72175122D01*
X206081673Y-71987232D01*
X206176635Y-71814496D01*
X206303340Y-71663496D01*
X206456961Y-71539981D01*
X206631647Y-71448657D01*
X206820745Y-71393003D01*
X206820796Y-71392998D01*
X206820814Y-71392993D01*
X207017049Y-71375135D01*
X207213014Y-71395731D01*
X207213014Y-71395731D01*
G37*
G36*
X191973014Y-71395731D02*
X191973029Y-71395736D01*
X191973089Y-71395742D01*
X192161391Y-71454031D01*
X192334785Y-71547785D01*
X192486666Y-71673432D01*
X192611250Y-71826188D01*
X192703791Y-72000232D01*
X192760765Y-72188936D01*
X192780000Y-72385113D01*
X192780000Y-72395004D01*
X192779925Y-72405746D01*
X192779902Y-72408989D01*
X192757929Y-72604878D01*
X192698327Y-72792768D01*
X192603365Y-72965504D01*
X192476660Y-73116504D01*
X192323039Y-73240019D01*
X192148353Y-73331343D01*
X191959255Y-73386997D01*
X191959204Y-73387002D01*
X191959186Y-73387007D01*
X191762951Y-73404865D01*
X191566986Y-73384269D01*
X191566971Y-73384264D01*
X191566911Y-73384258D01*
X191378609Y-73325969D01*
X191205215Y-73232215D01*
X191053334Y-73106568D01*
X190928750Y-72953812D01*
X190836209Y-72779768D01*
X190779235Y-72591064D01*
X190760000Y-72394887D01*
X190760000Y-72384996D01*
X190760075Y-72374254D01*
X190760075Y-72374250D01*
X190760098Y-72371011D01*
X190782071Y-72175122D01*
X190841673Y-71987232D01*
X190936635Y-71814496D01*
X191063340Y-71663496D01*
X191216961Y-71539981D01*
X191391647Y-71448657D01*
X191580745Y-71393003D01*
X191580796Y-71392998D01*
X191580814Y-71392993D01*
X191777049Y-71375135D01*
X191973014Y-71395731D01*
X191973014Y-71395731D01*
G37*
G36*
X204673014Y-71395731D02*
X204673029Y-71395736D01*
X204673089Y-71395742D01*
X204861391Y-71454031D01*
X205034785Y-71547785D01*
X205186666Y-71673432D01*
X205311250Y-71826188D01*
X205403791Y-72000232D01*
X205460765Y-72188936D01*
X205480000Y-72385113D01*
X205480000Y-72395004D01*
X205479925Y-72405746D01*
X205479902Y-72408989D01*
X205457929Y-72604878D01*
X205398327Y-72792768D01*
X205303365Y-72965504D01*
X205176660Y-73116504D01*
X205023039Y-73240019D01*
X204848353Y-73331343D01*
X204659255Y-73386997D01*
X204659204Y-73387002D01*
X204659186Y-73387007D01*
X204462951Y-73404865D01*
X204266986Y-73384269D01*
X204266971Y-73384264D01*
X204266911Y-73384258D01*
X204078609Y-73325969D01*
X203905215Y-73232215D01*
X203753334Y-73106568D01*
X203628750Y-72953812D01*
X203536209Y-72779768D01*
X203479235Y-72591064D01*
X203460000Y-72394887D01*
X203460000Y-72384996D01*
X203460075Y-72374254D01*
X203460075Y-72374250D01*
X203460098Y-72371011D01*
X203482071Y-72175122D01*
X203541673Y-71987232D01*
X203636635Y-71814496D01*
X203763340Y-71663496D01*
X203916961Y-71539981D01*
X204091647Y-71448657D01*
X204280745Y-71393003D01*
X204280796Y-71392998D01*
X204280814Y-71392993D01*
X204477049Y-71375135D01*
X204673014Y-71395731D01*
X204673014Y-71395731D01*
G37*
G36*
X202133014Y-71395731D02*
X202133029Y-71395736D01*
X202133089Y-71395742D01*
X202321391Y-71454031D01*
X202494785Y-71547785D01*
X202646666Y-71673432D01*
X202771250Y-71826188D01*
X202863791Y-72000232D01*
X202920765Y-72188936D01*
X202940000Y-72385113D01*
X202940000Y-72395004D01*
X202939925Y-72405746D01*
X202939902Y-72408989D01*
X202917929Y-72604878D01*
X202858327Y-72792768D01*
X202763365Y-72965504D01*
X202636660Y-73116504D01*
X202483039Y-73240019D01*
X202308353Y-73331343D01*
X202119255Y-73386997D01*
X202119204Y-73387002D01*
X202119186Y-73387007D01*
X201922951Y-73404865D01*
X201726986Y-73384269D01*
X201726971Y-73384264D01*
X201726911Y-73384258D01*
X201538609Y-73325969D01*
X201365215Y-73232215D01*
X201213334Y-73106568D01*
X201088750Y-72953812D01*
X200996209Y-72779768D01*
X200939235Y-72591064D01*
X200920000Y-72394887D01*
X200920000Y-72384996D01*
X200920075Y-72374254D01*
X200920075Y-72374250D01*
X200920098Y-72371011D01*
X200942071Y-72175122D01*
X201001673Y-71987232D01*
X201096635Y-71814496D01*
X201223340Y-71663496D01*
X201376961Y-71539981D01*
X201551647Y-71448657D01*
X201740745Y-71393003D01*
X201740796Y-71392998D01*
X201740814Y-71392993D01*
X201937049Y-71375135D01*
X202133014Y-71395731D01*
X202133014Y-71395731D01*
G37*
G36*
X199593014Y-71395731D02*
X199593029Y-71395736D01*
X199593089Y-71395742D01*
X199781391Y-71454031D01*
X199954785Y-71547785D01*
X200106666Y-71673432D01*
X200231250Y-71826188D01*
X200323791Y-72000232D01*
X200380765Y-72188936D01*
X200400000Y-72385113D01*
X200400000Y-72395004D01*
X200399925Y-72405746D01*
X200399902Y-72408989D01*
X200377929Y-72604878D01*
X200318327Y-72792768D01*
X200223365Y-72965504D01*
X200096660Y-73116504D01*
X199943039Y-73240019D01*
X199768353Y-73331343D01*
X199579255Y-73386997D01*
X199579204Y-73387002D01*
X199579186Y-73387007D01*
X199382951Y-73404865D01*
X199186986Y-73384269D01*
X199186971Y-73384264D01*
X199186911Y-73384258D01*
X198998609Y-73325969D01*
X198825215Y-73232215D01*
X198673334Y-73106568D01*
X198548750Y-72953812D01*
X198456209Y-72779768D01*
X198399235Y-72591064D01*
X198380000Y-72394887D01*
X198380000Y-72384996D01*
X198380075Y-72374254D01*
X198380075Y-72374250D01*
X198380098Y-72371011D01*
X198402071Y-72175122D01*
X198461673Y-71987232D01*
X198556635Y-71814496D01*
X198683340Y-71663496D01*
X198836961Y-71539981D01*
X199011647Y-71448657D01*
X199200745Y-71393003D01*
X199200796Y-71392998D01*
X199200814Y-71392993D01*
X199397049Y-71375135D01*
X199593014Y-71395731D01*
X199593014Y-71395731D01*
G37*
G36*
X197053014Y-71395731D02*
X197053029Y-71395736D01*
X197053089Y-71395742D01*
X197241391Y-71454031D01*
X197414785Y-71547785D01*
X197566666Y-71673432D01*
X197691250Y-71826188D01*
X197783791Y-72000232D01*
X197840765Y-72188936D01*
X197860000Y-72385113D01*
X197860000Y-72395004D01*
X197859925Y-72405746D01*
X197859902Y-72408989D01*
X197837929Y-72604878D01*
X197778327Y-72792768D01*
X197683365Y-72965504D01*
X197556660Y-73116504D01*
X197403039Y-73240019D01*
X197228353Y-73331343D01*
X197039255Y-73386997D01*
X197039204Y-73387002D01*
X197039186Y-73387007D01*
X196842951Y-73404865D01*
X196646986Y-73384269D01*
X196646971Y-73384264D01*
X196646911Y-73384258D01*
X196458609Y-73325969D01*
X196285215Y-73232215D01*
X196133334Y-73106568D01*
X196008750Y-72953812D01*
X195916209Y-72779768D01*
X195859235Y-72591064D01*
X195840000Y-72394887D01*
X195840000Y-72384996D01*
X195840075Y-72374254D01*
X195840075Y-72374250D01*
X195840098Y-72371011D01*
X195862071Y-72175122D01*
X195921673Y-71987232D01*
X196016635Y-71814496D01*
X196143340Y-71663496D01*
X196296961Y-71539981D01*
X196471647Y-71448657D01*
X196660745Y-71393003D01*
X196660796Y-71392998D01*
X196660814Y-71392993D01*
X196857049Y-71375135D01*
X197053014Y-71395731D01*
X197053014Y-71395731D01*
G37*
G36*
X194513014Y-71395731D02*
X194513029Y-71395736D01*
X194513089Y-71395742D01*
X194701391Y-71454031D01*
X194874785Y-71547785D01*
X195026666Y-71673432D01*
X195151250Y-71826188D01*
X195243791Y-72000232D01*
X195300765Y-72188936D01*
X195320000Y-72385113D01*
X195320000Y-72395004D01*
X195319925Y-72405746D01*
X195319902Y-72408989D01*
X195297929Y-72604878D01*
X195238327Y-72792768D01*
X195143365Y-72965504D01*
X195016660Y-73116504D01*
X194863039Y-73240019D01*
X194688353Y-73331343D01*
X194499255Y-73386997D01*
X194499204Y-73387002D01*
X194499186Y-73387007D01*
X194302951Y-73404865D01*
X194106986Y-73384269D01*
X194106971Y-73384264D01*
X194106911Y-73384258D01*
X193918609Y-73325969D01*
X193745215Y-73232215D01*
X193593334Y-73106568D01*
X193468750Y-72953812D01*
X193376209Y-72779768D01*
X193319235Y-72591064D01*
X193300000Y-72394887D01*
X193300000Y-72384996D01*
X193300075Y-72374254D01*
X193300075Y-72374250D01*
X193300098Y-72371011D01*
X193322071Y-72175122D01*
X193381673Y-71987232D01*
X193476635Y-71814496D01*
X193603340Y-71663496D01*
X193756961Y-71539981D01*
X193931647Y-71448657D01*
X194120745Y-71393003D01*
X194120796Y-71392998D01*
X194120814Y-71392993D01*
X194317049Y-71375135D01*
X194513014Y-71395731D01*
X194513014Y-71395731D01*
G37*
G36*
X146253014Y-71395731D02*
X146253029Y-71395736D01*
X146253089Y-71395742D01*
X146441391Y-71454031D01*
X146614785Y-71547785D01*
X146766666Y-71673432D01*
X146891250Y-71826188D01*
X146983791Y-72000232D01*
X147040765Y-72188936D01*
X147060000Y-72385113D01*
X147060000Y-72395004D01*
X147059925Y-72405746D01*
X147059902Y-72408989D01*
X147037929Y-72604878D01*
X146978327Y-72792768D01*
X146883365Y-72965504D01*
X146756660Y-73116504D01*
X146603039Y-73240019D01*
X146428353Y-73331343D01*
X146239255Y-73386997D01*
X146239204Y-73387002D01*
X146239186Y-73387007D01*
X146042951Y-73404865D01*
X145846986Y-73384269D01*
X145846971Y-73384264D01*
X145846911Y-73384258D01*
X145658609Y-73325969D01*
X145485215Y-73232215D01*
X145333334Y-73106568D01*
X145208750Y-72953812D01*
X145116209Y-72779768D01*
X145059235Y-72591064D01*
X145040000Y-72394887D01*
X145040000Y-72384996D01*
X145040075Y-72374254D01*
X145040075Y-72374250D01*
X145040098Y-72371011D01*
X145062071Y-72175122D01*
X145121673Y-71987232D01*
X145216635Y-71814496D01*
X145343340Y-71663496D01*
X145496961Y-71539981D01*
X145671647Y-71448657D01*
X145860745Y-71393003D01*
X145860796Y-71392998D01*
X145860814Y-71392993D01*
X146057049Y-71375135D01*
X146253014Y-71395731D01*
X146253014Y-71395731D01*
G37*
G36*
X138633014Y-71395731D02*
X138633029Y-71395736D01*
X138633089Y-71395742D01*
X138821391Y-71454031D01*
X138994785Y-71547785D01*
X139146666Y-71673432D01*
X139271250Y-71826188D01*
X139363791Y-72000232D01*
X139420765Y-72188936D01*
X139440000Y-72385113D01*
X139440000Y-72395004D01*
X139439925Y-72405746D01*
X139439902Y-72408989D01*
X139417929Y-72604878D01*
X139358327Y-72792768D01*
X139263365Y-72965504D01*
X139136660Y-73116504D01*
X138983039Y-73240019D01*
X138808353Y-73331343D01*
X138619255Y-73386997D01*
X138619204Y-73387002D01*
X138619186Y-73387007D01*
X138422951Y-73404865D01*
X138226986Y-73384269D01*
X138226971Y-73384264D01*
X138226911Y-73384258D01*
X138038609Y-73325969D01*
X137865215Y-73232215D01*
X137713334Y-73106568D01*
X137588750Y-72953812D01*
X137496209Y-72779768D01*
X137439235Y-72591064D01*
X137420000Y-72394887D01*
X137420000Y-72384996D01*
X137420075Y-72374254D01*
X137420075Y-72374250D01*
X137420098Y-72371011D01*
X137442071Y-72175122D01*
X137501673Y-71987232D01*
X137596635Y-71814496D01*
X137723340Y-71663496D01*
X137876961Y-71539981D01*
X138051647Y-71448657D01*
X138240745Y-71393003D01*
X138240796Y-71392998D01*
X138240814Y-71392993D01*
X138437049Y-71375135D01*
X138633014Y-71395731D01*
X138633014Y-71395731D01*
G37*
G36*
X141173014Y-71395731D02*
X141173029Y-71395736D01*
X141173089Y-71395742D01*
X141361391Y-71454031D01*
X141534785Y-71547785D01*
X141686666Y-71673432D01*
X141811250Y-71826188D01*
X141903791Y-72000232D01*
X141960765Y-72188936D01*
X141980000Y-72385113D01*
X141980000Y-72395004D01*
X141979925Y-72405746D01*
X141979902Y-72408989D01*
X141957929Y-72604878D01*
X141898327Y-72792768D01*
X141803365Y-72965504D01*
X141676660Y-73116504D01*
X141523039Y-73240019D01*
X141348353Y-73331343D01*
X141159255Y-73386997D01*
X141159204Y-73387002D01*
X141159186Y-73387007D01*
X140962951Y-73404865D01*
X140766986Y-73384269D01*
X140766971Y-73384264D01*
X140766911Y-73384258D01*
X140578609Y-73325969D01*
X140405215Y-73232215D01*
X140253334Y-73106568D01*
X140128750Y-72953812D01*
X140036209Y-72779768D01*
X139979235Y-72591064D01*
X139960000Y-72394887D01*
X139960000Y-72384996D01*
X139960075Y-72374254D01*
X139960075Y-72374250D01*
X139960098Y-72371011D01*
X139982071Y-72175122D01*
X140041673Y-71987232D01*
X140136635Y-71814496D01*
X140263340Y-71663496D01*
X140416961Y-71539981D01*
X140591647Y-71448657D01*
X140780745Y-71393003D01*
X140780796Y-71392998D01*
X140780814Y-71392993D01*
X140977049Y-71375135D01*
X141173014Y-71395731D01*
X141173014Y-71395731D01*
G37*
G36*
X143713014Y-71395731D02*
X143713029Y-71395736D01*
X143713089Y-71395742D01*
X143901391Y-71454031D01*
X144074785Y-71547785D01*
X144226666Y-71673432D01*
X144351250Y-71826188D01*
X144443791Y-72000232D01*
X144500765Y-72188936D01*
X144520000Y-72385113D01*
X144520000Y-72395004D01*
X144519925Y-72405746D01*
X144519902Y-72408989D01*
X144497929Y-72604878D01*
X144438327Y-72792768D01*
X144343365Y-72965504D01*
X144216660Y-73116504D01*
X144063039Y-73240019D01*
X143888353Y-73331343D01*
X143699255Y-73386997D01*
X143699204Y-73387002D01*
X143699186Y-73387007D01*
X143502951Y-73404865D01*
X143306986Y-73384269D01*
X143306971Y-73384264D01*
X143306911Y-73384258D01*
X143118609Y-73325969D01*
X142945215Y-73232215D01*
X142793334Y-73106568D01*
X142668750Y-72953812D01*
X142576209Y-72779768D01*
X142519235Y-72591064D01*
X142500000Y-72394887D01*
X142500000Y-72384996D01*
X142500075Y-72374254D01*
X142500075Y-72374250D01*
X142500098Y-72371011D01*
X142522071Y-72175122D01*
X142581673Y-71987232D01*
X142676635Y-71814496D01*
X142803340Y-71663496D01*
X142956961Y-71539981D01*
X143131647Y-71448657D01*
X143320745Y-71393003D01*
X143320796Y-71392998D01*
X143320814Y-71392993D01*
X143517049Y-71375135D01*
X143713014Y-71395731D01*
X143713014Y-71395731D01*
G37*
G36*
X123393014Y-71395731D02*
X123393029Y-71395736D01*
X123393089Y-71395742D01*
X123581391Y-71454031D01*
X123754785Y-71547785D01*
X123906666Y-71673432D01*
X124031250Y-71826188D01*
X124123791Y-72000232D01*
X124180765Y-72188936D01*
X124200000Y-72385113D01*
X124200000Y-72395004D01*
X124199925Y-72405746D01*
X124199902Y-72408989D01*
X124177929Y-72604878D01*
X124118327Y-72792768D01*
X124023365Y-72965504D01*
X123896660Y-73116504D01*
X123743039Y-73240019D01*
X123568353Y-73331343D01*
X123379255Y-73386997D01*
X123379204Y-73387002D01*
X123379186Y-73387007D01*
X123182951Y-73404865D01*
X122986986Y-73384269D01*
X122986971Y-73384264D01*
X122986911Y-73384258D01*
X122798609Y-73325969D01*
X122625215Y-73232215D01*
X122473334Y-73106568D01*
X122348750Y-72953812D01*
X122256209Y-72779768D01*
X122199235Y-72591064D01*
X122180000Y-72394887D01*
X122180000Y-72384996D01*
X122180075Y-72374254D01*
X122180075Y-72374250D01*
X122180098Y-72371011D01*
X122202071Y-72175122D01*
X122261673Y-71987232D01*
X122356635Y-71814496D01*
X122483340Y-71663496D01*
X122636961Y-71539981D01*
X122811647Y-71448657D01*
X123000745Y-71393003D01*
X123000796Y-71392998D01*
X123000814Y-71392993D01*
X123197049Y-71375135D01*
X123393014Y-71395731D01*
X123393014Y-71395731D01*
G37*
G36*
X131013014Y-71395731D02*
X131013029Y-71395736D01*
X131013089Y-71395742D01*
X131201391Y-71454031D01*
X131374785Y-71547785D01*
X131526666Y-71673432D01*
X131651250Y-71826188D01*
X131743791Y-72000232D01*
X131800765Y-72188936D01*
X131820000Y-72385113D01*
X131820000Y-72395004D01*
X131819925Y-72405746D01*
X131819902Y-72408989D01*
X131797929Y-72604878D01*
X131738327Y-72792768D01*
X131643365Y-72965504D01*
X131516660Y-73116504D01*
X131363039Y-73240019D01*
X131188353Y-73331343D01*
X130999255Y-73386997D01*
X130999204Y-73387002D01*
X130999186Y-73387007D01*
X130802951Y-73404865D01*
X130606986Y-73384269D01*
X130606971Y-73384264D01*
X130606911Y-73384258D01*
X130418609Y-73325969D01*
X130245215Y-73232215D01*
X130093334Y-73106568D01*
X129968750Y-72953812D01*
X129876209Y-72779768D01*
X129819235Y-72591064D01*
X129800000Y-72394887D01*
X129800000Y-72384996D01*
X129800075Y-72374254D01*
X129800075Y-72374250D01*
X129800098Y-72371011D01*
X129822071Y-72175122D01*
X129881673Y-71987232D01*
X129976635Y-71814496D01*
X130103340Y-71663496D01*
X130256961Y-71539981D01*
X130431647Y-71448657D01*
X130620745Y-71393003D01*
X130620796Y-71392998D01*
X130620814Y-71392993D01*
X130817049Y-71375135D01*
X131013014Y-71395731D01*
X131013014Y-71395731D01*
G37*
G36*
X128473014Y-71395731D02*
X128473029Y-71395736D01*
X128473089Y-71395742D01*
X128661391Y-71454031D01*
X128834785Y-71547785D01*
X128986666Y-71673432D01*
X129111250Y-71826188D01*
X129203791Y-72000232D01*
X129260765Y-72188936D01*
X129280000Y-72385113D01*
X129280000Y-72395004D01*
X129279925Y-72405746D01*
X129279902Y-72408989D01*
X129257929Y-72604878D01*
X129198327Y-72792768D01*
X129103365Y-72965504D01*
X128976660Y-73116504D01*
X128823039Y-73240019D01*
X128648353Y-73331343D01*
X128459255Y-73386997D01*
X128459204Y-73387002D01*
X128459186Y-73387007D01*
X128262951Y-73404865D01*
X128066986Y-73384269D01*
X128066971Y-73384264D01*
X128066911Y-73384258D01*
X127878609Y-73325969D01*
X127705215Y-73232215D01*
X127553334Y-73106568D01*
X127428750Y-72953812D01*
X127336209Y-72779768D01*
X127279235Y-72591064D01*
X127260000Y-72394887D01*
X127260000Y-72384996D01*
X127260075Y-72374254D01*
X127260075Y-72374250D01*
X127260098Y-72371011D01*
X127282071Y-72175122D01*
X127341673Y-71987232D01*
X127436635Y-71814496D01*
X127563340Y-71663496D01*
X127716961Y-71539981D01*
X127891647Y-71448657D01*
X128080745Y-71393003D01*
X128080796Y-71392998D01*
X128080814Y-71392993D01*
X128277049Y-71375135D01*
X128473014Y-71395731D01*
X128473014Y-71395731D01*
G37*
G36*
X136093014Y-71395731D02*
X136093029Y-71395736D01*
X136093089Y-71395742D01*
X136281391Y-71454031D01*
X136454785Y-71547785D01*
X136606666Y-71673432D01*
X136731250Y-71826188D01*
X136823791Y-72000232D01*
X136880765Y-72188936D01*
X136900000Y-72385113D01*
X136900000Y-72395004D01*
X136899925Y-72405746D01*
X136899902Y-72408989D01*
X136877929Y-72604878D01*
X136818327Y-72792768D01*
X136723365Y-72965504D01*
X136596660Y-73116504D01*
X136443039Y-73240019D01*
X136268353Y-73331343D01*
X136079255Y-73386997D01*
X136079204Y-73387002D01*
X136079186Y-73387007D01*
X135882951Y-73404865D01*
X135686986Y-73384269D01*
X135686971Y-73384264D01*
X135686911Y-73384258D01*
X135498609Y-73325969D01*
X135325215Y-73232215D01*
X135173334Y-73106568D01*
X135048750Y-72953812D01*
X134956209Y-72779768D01*
X134899235Y-72591064D01*
X134880000Y-72394887D01*
X134880000Y-72384996D01*
X134880075Y-72374254D01*
X134880075Y-72374250D01*
X134880098Y-72371011D01*
X134902071Y-72175122D01*
X134961673Y-71987232D01*
X135056635Y-71814496D01*
X135183340Y-71663496D01*
X135336961Y-71539981D01*
X135511647Y-71448657D01*
X135700745Y-71393003D01*
X135700796Y-71392998D01*
X135700814Y-71392993D01*
X135897049Y-71375135D01*
X136093014Y-71395731D01*
X136093014Y-71395731D01*
G37*
G36*
X125933014Y-71395731D02*
X125933029Y-71395736D01*
X125933089Y-71395742D01*
X126121391Y-71454031D01*
X126294785Y-71547785D01*
X126446666Y-71673432D01*
X126571250Y-71826188D01*
X126663791Y-72000232D01*
X126720765Y-72188936D01*
X126740000Y-72385113D01*
X126740000Y-72395004D01*
X126739925Y-72405746D01*
X126739902Y-72408989D01*
X126717929Y-72604878D01*
X126658327Y-72792768D01*
X126563365Y-72965504D01*
X126436660Y-73116504D01*
X126283039Y-73240019D01*
X126108353Y-73331343D01*
X125919255Y-73386997D01*
X125919204Y-73387002D01*
X125919186Y-73387007D01*
X125722951Y-73404865D01*
X125526986Y-73384269D01*
X125526971Y-73384264D01*
X125526911Y-73384258D01*
X125338609Y-73325969D01*
X125165215Y-73232215D01*
X125013334Y-73106568D01*
X124888750Y-72953812D01*
X124796209Y-72779768D01*
X124739235Y-72591064D01*
X124720000Y-72394887D01*
X124720000Y-72384996D01*
X124720075Y-72374254D01*
X124720075Y-72374250D01*
X124720098Y-72371011D01*
X124742071Y-72175122D01*
X124801673Y-71987232D01*
X124896635Y-71814496D01*
X125023340Y-71663496D01*
X125176961Y-71539981D01*
X125351647Y-71448657D01*
X125540745Y-71393003D01*
X125540796Y-71392998D01*
X125540814Y-71392993D01*
X125737049Y-71375135D01*
X125933014Y-71395731D01*
X125933014Y-71395731D01*
G37*
G36*
X133553014Y-71395731D02*
X133553029Y-71395736D01*
X133553089Y-71395742D01*
X133741391Y-71454031D01*
X133914785Y-71547785D01*
X134066666Y-71673432D01*
X134191250Y-71826188D01*
X134283791Y-72000232D01*
X134340765Y-72188936D01*
X134360000Y-72385113D01*
X134360000Y-72395004D01*
X134359925Y-72405746D01*
X134359902Y-72408989D01*
X134337929Y-72604878D01*
X134278327Y-72792768D01*
X134183365Y-72965504D01*
X134056660Y-73116504D01*
X133903039Y-73240019D01*
X133728353Y-73331343D01*
X133539255Y-73386997D01*
X133539204Y-73387002D01*
X133539186Y-73387007D01*
X133342951Y-73404865D01*
X133146986Y-73384269D01*
X133146971Y-73384264D01*
X133146911Y-73384258D01*
X132958609Y-73325969D01*
X132785215Y-73232215D01*
X132633334Y-73106568D01*
X132508750Y-72953812D01*
X132416209Y-72779768D01*
X132359235Y-72591064D01*
X132340000Y-72394887D01*
X132340000Y-72384996D01*
X132340075Y-72374254D01*
X132340075Y-72374250D01*
X132340098Y-72371011D01*
X132362071Y-72175122D01*
X132421673Y-71987232D01*
X132516635Y-71814496D01*
X132643340Y-71663496D01*
X132796961Y-71539981D01*
X132971647Y-71448657D01*
X133160745Y-71393003D01*
X133160796Y-71392998D01*
X133160814Y-71392993D01*
X133357049Y-71375135D01*
X133553014Y-71395731D01*
X133553014Y-71395731D01*
G37*
G36*
X189433014Y-71395731D02*
X189433029Y-71395736D01*
X189433089Y-71395742D01*
X189621391Y-71454031D01*
X189794785Y-71547785D01*
X189946666Y-71673432D01*
X190071250Y-71826188D01*
X190163791Y-72000232D01*
X190220765Y-72188936D01*
X190240000Y-72385113D01*
X190240000Y-72395004D01*
X190239925Y-72405746D01*
X190239902Y-72408989D01*
X190217929Y-72604878D01*
X190158327Y-72792768D01*
X190063365Y-72965504D01*
X189936660Y-73116504D01*
X189783039Y-73240019D01*
X189608353Y-73331343D01*
X189419255Y-73386997D01*
X189419204Y-73387002D01*
X189419186Y-73387007D01*
X189222951Y-73404865D01*
X189026986Y-73384269D01*
X189026971Y-73384264D01*
X189026911Y-73384258D01*
X188838609Y-73325969D01*
X188665215Y-73232215D01*
X188513334Y-73106568D01*
X188388750Y-72953812D01*
X188296209Y-72779768D01*
X188239235Y-72591064D01*
X188220000Y-72394887D01*
X188220000Y-72384996D01*
X188220075Y-72374254D01*
X188220075Y-72374250D01*
X188220098Y-72371011D01*
X188242071Y-72175122D01*
X188301673Y-71987232D01*
X188396635Y-71814496D01*
X188523340Y-71663496D01*
X188676961Y-71539981D01*
X188851647Y-71448657D01*
X189040745Y-71393003D01*
X189040796Y-71392998D01*
X189040814Y-71392993D01*
X189237049Y-71375135D01*
X189433014Y-71395731D01*
X189433014Y-71395731D01*
G37*
M02*
