G04 #@! TF.FileFunction,Legend,Top*
%FSLAX46Y46*%
G04 Gerber Fmt 4.6, Leading zero omitted, Abs format (unit mm)*
G04 Created by KiCad (PCBNEW 4.0.7) date 10/29/17 22:26:03*
%MOMM*%
%LPD*%
G01*
G04 APERTURE LIST*
%ADD10C,0.100000*%
%ADD11C,0.200000*%
%ADD12C,0.500000*%
%ADD13C,0.300000*%
%ADD14C,0.150000*%
%ADD15C,0.450000*%
%ADD16C,0.400000*%
%ADD17C,0.600000*%
%ADD18R,5.250000X0.810000*%
%ADD19C,3.620000*%
%ADD20R,4.220000X2.820000*%
%ADD21O,1.820000X6.320000*%
%ADD22R,3.870000X0.920000*%
%ADD23R,1.320000X3.820000*%
%ADD24R,1.670000X1.670000*%
%ADD25O,1.670000X1.670000*%
%ADD26R,3.820000X3.820000*%
%ADD27R,2.140000X2.520000*%
%ADD28R,4.320000X2.820000*%
%ADD29R,1.570000X1.320000*%
%ADD30R,1.320000X1.570000*%
%ADD31R,1.120000X1.220000*%
%ADD32R,2.610000X5.400000*%
%ADD33R,2.740000X5.400000*%
%ADD34R,2.320000X2.920000*%
%ADD35O,2.320000X2.920000*%
%ADD36O,2.240000X2.840000*%
%ADD37R,4.000000X1.590000*%
%ADD38R,3.320000X3.320000*%
%ADD39R,1.590000X4.000000*%
%ADD40C,3.320000*%
%ADD41C,2.320000*%
%ADD42R,2.020000X2.020000*%
%ADD43O,2.020000X2.020000*%
G04 APERTURE END LIST*
D10*
D11*
X207162400Y-106375200D02*
X206857600Y-106375200D01*
X207162400Y-106324400D02*
X207162400Y-106375200D01*
X207162400Y-105460800D02*
X207162400Y-106324400D01*
X206857600Y-105460800D02*
X207162400Y-105460800D01*
X207162400Y-104089200D02*
X206857600Y-104089200D01*
X207162400Y-103174800D02*
X207162400Y-104089200D01*
X206857600Y-103174800D02*
X207162400Y-103174800D01*
X207162400Y-100787200D02*
X206857600Y-100787200D01*
X207162400Y-99872800D02*
X207162400Y-100787200D01*
X206857600Y-99872800D02*
X207162400Y-99872800D01*
X207162400Y-98501200D02*
X206857600Y-98501200D01*
X207162400Y-97586800D02*
X207162400Y-98501200D01*
X206857600Y-97586800D02*
X207162400Y-97586800D01*
X207162400Y-95199200D02*
X206857600Y-95199200D01*
X207162400Y-94284800D02*
X207162400Y-95199200D01*
X206857600Y-94284800D02*
X207162400Y-94284800D01*
X207162400Y-92913200D02*
X206857600Y-92913200D01*
X207162400Y-91998800D02*
X207162400Y-92913200D01*
X206857600Y-91998800D02*
X207162400Y-91998800D01*
X180644800Y-96875600D02*
X180644800Y-97180400D01*
X181559200Y-96875600D02*
X180644800Y-96875600D01*
X181559200Y-97180400D02*
X181559200Y-96875600D01*
X206095600Y-89611200D02*
X206400400Y-89611200D01*
X206400400Y-90474800D02*
X206095600Y-90474800D01*
X206400400Y-89611200D02*
X206400400Y-90474800D01*
X192405000Y-78994000D02*
X191135000Y-78994000D01*
X193167000Y-79756000D02*
X192405000Y-78994000D01*
X193167000Y-81280000D02*
X193167000Y-79756000D01*
X183134000Y-113665000D02*
X183134000Y-112903000D01*
X183896000Y-114427000D02*
X183134000Y-113665000D01*
X184721500Y-114427000D02*
X183896000Y-114427000D01*
X193167000Y-88646000D02*
X193167000Y-87693500D01*
X192405000Y-89408000D02*
X193167000Y-88646000D01*
X191135000Y-89408000D02*
X192405000Y-89408000D01*
X199263000Y-82296000D02*
X199263000Y-83502500D01*
X197231000Y-82296000D02*
X199263000Y-82296000D01*
X197231000Y-82359500D02*
X197231000Y-82296000D01*
X197231000Y-83502500D02*
X197231000Y-82359500D01*
X165862000Y-70485000D02*
X165862000Y-71501000D01*
X163830000Y-70485000D02*
X165862000Y-70485000D01*
X163830000Y-71501000D02*
X163830000Y-70485000D01*
X184023000Y-70358000D02*
X184023000Y-71501000D01*
X183959500Y-70358000D02*
X184023000Y-70358000D01*
X181991000Y-70358000D02*
X183959500Y-70358000D01*
X181991000Y-70421500D02*
X181991000Y-70358000D01*
X181991000Y-71501000D02*
X181991000Y-70421500D01*
X183134000Y-104775000D02*
X183896000Y-104013000D01*
X183134000Y-105410000D02*
X183134000Y-104775000D01*
X183896000Y-104013000D02*
X184467500Y-104013000D01*
X155892500Y-117983000D02*
X155575000Y-117983000D01*
X155892500Y-117094000D02*
X155892500Y-117983000D01*
X155575000Y-117094000D02*
X155892500Y-117094000D01*
X127254000Y-113030000D02*
X128016000Y-113030000D01*
X127254000Y-110998000D02*
X127254000Y-113030000D01*
X128016000Y-110998000D02*
X127254000Y-110998000D01*
X128841500Y-78867000D02*
X128841500Y-78549500D01*
X129730500Y-78867000D02*
X128841500Y-78867000D01*
X129730500Y-78549500D02*
X129730500Y-78867000D01*
X125793500Y-78867000D02*
X125793500Y-78549500D01*
X126682500Y-78867000D02*
X125793500Y-78867000D01*
X126682500Y-78549500D02*
X126682500Y-78867000D01*
X91440000Y-122999500D02*
X92202000Y-122999500D01*
X91440000Y-120840500D02*
X91440000Y-122999500D01*
X92202000Y-120840500D02*
X91440000Y-120840500D01*
X110363000Y-120142000D02*
X110109000Y-120142000D01*
X110363000Y-121094500D02*
X110109000Y-121094500D01*
X110363000Y-120142000D02*
X110363000Y-121094500D01*
X143109715Y-83736571D02*
X142966857Y-83665143D01*
X142895429Y-83522286D01*
X142895429Y-82236571D01*
X143895429Y-83736571D02*
X143752571Y-83665143D01*
X143681143Y-83593714D01*
X143609714Y-83450857D01*
X143609714Y-83022286D01*
X143681143Y-82879429D01*
X143752571Y-82808000D01*
X143895429Y-82736571D01*
X144109714Y-82736571D01*
X144252571Y-82808000D01*
X144324000Y-82879429D01*
X144395429Y-83022286D01*
X144395429Y-83450857D01*
X144324000Y-83593714D01*
X144252571Y-83665143D01*
X144109714Y-83736571D01*
X143895429Y-83736571D01*
X145252572Y-83736571D02*
X145109714Y-83665143D01*
X145038286Y-83593714D01*
X144966857Y-83450857D01*
X144966857Y-83022286D01*
X145038286Y-82879429D01*
X145109714Y-82808000D01*
X145252572Y-82736571D01*
X145466857Y-82736571D01*
X145609714Y-82808000D01*
X145681143Y-82879429D01*
X145752572Y-83022286D01*
X145752572Y-83450857D01*
X145681143Y-83593714D01*
X145609714Y-83665143D01*
X145466857Y-83736571D01*
X145252572Y-83736571D01*
X146395429Y-82736571D02*
X146395429Y-84236571D01*
X146395429Y-82808000D02*
X146538286Y-82736571D01*
X146824000Y-82736571D01*
X146966857Y-82808000D01*
X147038286Y-82879429D01*
X147109715Y-83022286D01*
X147109715Y-83450857D01*
X147038286Y-83593714D01*
X146966857Y-83665143D01*
X146824000Y-83736571D01*
X146538286Y-83736571D01*
X146395429Y-83665143D01*
X147752572Y-83736571D02*
X147752572Y-82236571D01*
X147752572Y-82808000D02*
X147895429Y-82736571D01*
X148181143Y-82736571D01*
X148324000Y-82808000D01*
X148395429Y-82879429D01*
X148466858Y-83022286D01*
X148466858Y-83450857D01*
X148395429Y-83593714D01*
X148324000Y-83665143D01*
X148181143Y-83736571D01*
X147895429Y-83736571D01*
X147752572Y-83665143D01*
X149752572Y-83736571D02*
X149752572Y-82950857D01*
X149681143Y-82808000D01*
X149538286Y-82736571D01*
X149252572Y-82736571D01*
X149109715Y-82808000D01*
X149752572Y-83665143D02*
X149609715Y-83736571D01*
X149252572Y-83736571D01*
X149109715Y-83665143D01*
X149038286Y-83522286D01*
X149038286Y-83379429D01*
X149109715Y-83236571D01*
X149252572Y-83165143D01*
X149609715Y-83165143D01*
X149752572Y-83093714D01*
X151109715Y-83665143D02*
X150966858Y-83736571D01*
X150681144Y-83736571D01*
X150538286Y-83665143D01*
X150466858Y-83593714D01*
X150395429Y-83450857D01*
X150395429Y-83022286D01*
X150466858Y-82879429D01*
X150538286Y-82808000D01*
X150681144Y-82736571D01*
X150966858Y-82736571D01*
X151109715Y-82808000D01*
X151752572Y-83736571D02*
X151752572Y-82236571D01*
X151895429Y-83165143D02*
X152324000Y-83736571D01*
X152324000Y-82736571D02*
X151752572Y-83308000D01*
X142506000Y-81033714D02*
X142434571Y-81176571D01*
X142434571Y-81390857D01*
X142506000Y-81605142D01*
X142648857Y-81748000D01*
X142791714Y-81819428D01*
X143077429Y-81890857D01*
X143291714Y-81890857D01*
X143577429Y-81819428D01*
X143720286Y-81748000D01*
X143863143Y-81605142D01*
X143934571Y-81390857D01*
X143934571Y-81248000D01*
X143863143Y-81033714D01*
X143791714Y-80962285D01*
X143291714Y-80962285D01*
X143291714Y-81248000D01*
X143934571Y-80319428D02*
X142434571Y-80319428D01*
X142434571Y-79748000D01*
X142506000Y-79605142D01*
X142577429Y-79533714D01*
X142720286Y-79462285D01*
X142934571Y-79462285D01*
X143077429Y-79533714D01*
X143148857Y-79605142D01*
X143220286Y-79748000D01*
X143220286Y-80319428D01*
X143863143Y-78890857D02*
X143934571Y-78676571D01*
X143934571Y-78319428D01*
X143863143Y-78176571D01*
X143791714Y-78105142D01*
X143648857Y-78033714D01*
X143506000Y-78033714D01*
X143363143Y-78105142D01*
X143291714Y-78176571D01*
X143220286Y-78319428D01*
X143148857Y-78605142D01*
X143077429Y-78748000D01*
X143006000Y-78819428D01*
X142863143Y-78890857D01*
X142720286Y-78890857D01*
X142577429Y-78819428D01*
X142506000Y-78748000D01*
X142434571Y-78605142D01*
X142434571Y-78248000D01*
X142506000Y-78033714D01*
X142577429Y-77462286D02*
X142506000Y-77390857D01*
X142434571Y-77248000D01*
X142434571Y-76890857D01*
X142506000Y-76748000D01*
X142577429Y-76676571D01*
X142720286Y-76605143D01*
X142863143Y-76605143D01*
X143077429Y-76676571D01*
X143934571Y-77533714D01*
X143934571Y-76605143D01*
X143331500Y-88907714D02*
X143260071Y-89050571D01*
X143260071Y-89264857D01*
X143331500Y-89479142D01*
X143474357Y-89622000D01*
X143617214Y-89693428D01*
X143902929Y-89764857D01*
X144117214Y-89764857D01*
X144402929Y-89693428D01*
X144545786Y-89622000D01*
X144688643Y-89479142D01*
X144760071Y-89264857D01*
X144760071Y-89122000D01*
X144688643Y-88907714D01*
X144617214Y-88836285D01*
X144117214Y-88836285D01*
X144117214Y-89122000D01*
X144760071Y-88193428D02*
X143260071Y-88193428D01*
X143260071Y-87622000D01*
X143331500Y-87479142D01*
X143402929Y-87407714D01*
X143545786Y-87336285D01*
X143760071Y-87336285D01*
X143902929Y-87407714D01*
X143974357Y-87479142D01*
X144045786Y-87622000D01*
X144045786Y-88193428D01*
X144688643Y-86764857D02*
X144760071Y-86550571D01*
X144760071Y-86193428D01*
X144688643Y-86050571D01*
X144617214Y-85979142D01*
X144474357Y-85907714D01*
X144331500Y-85907714D01*
X144188643Y-85979142D01*
X144117214Y-86050571D01*
X144045786Y-86193428D01*
X143974357Y-86479142D01*
X143902929Y-86622000D01*
X143831500Y-86693428D01*
X143688643Y-86764857D01*
X143545786Y-86764857D01*
X143402929Y-86693428D01*
X143331500Y-86622000D01*
X143260071Y-86479142D01*
X143260071Y-86122000D01*
X143331500Y-85907714D01*
X144760071Y-84479143D02*
X144760071Y-85336286D01*
X144760071Y-84907714D02*
X143260071Y-84907714D01*
X143474357Y-85050571D01*
X143617214Y-85193429D01*
X143688643Y-85336286D01*
D12*
X210756500Y-111760000D02*
X189801500Y-111760000D01*
X208851500Y-113665000D02*
X210756500Y-111760000D01*
X208851500Y-109855000D02*
X208851500Y-113665000D01*
X210756500Y-111760000D02*
X208851500Y-109855000D01*
D13*
X194631467Y-113031600D02*
X194831467Y-113098267D01*
X194898134Y-113164933D01*
X194964800Y-113298267D01*
X194964800Y-113498267D01*
X194898134Y-113631600D01*
X194831467Y-113698267D01*
X194698134Y-113764933D01*
X194164800Y-113764933D01*
X194164800Y-112364933D01*
X194631467Y-112364933D01*
X194764800Y-112431600D01*
X194831467Y-112498267D01*
X194898134Y-112631600D01*
X194898134Y-112764933D01*
X194831467Y-112898267D01*
X194764800Y-112964933D01*
X194631467Y-113031600D01*
X194164800Y-113031600D01*
X195764800Y-113764933D02*
X195631467Y-113698267D01*
X195564800Y-113631600D01*
X195498134Y-113498267D01*
X195498134Y-113098267D01*
X195564800Y-112964933D01*
X195631467Y-112898267D01*
X195764800Y-112831600D01*
X195964800Y-112831600D01*
X196098134Y-112898267D01*
X196164800Y-112964933D01*
X196231467Y-113098267D01*
X196231467Y-113498267D01*
X196164800Y-113631600D01*
X196098134Y-113698267D01*
X195964800Y-113764933D01*
X195764800Y-113764933D01*
X197031467Y-113764933D02*
X196898134Y-113698267D01*
X196831467Y-113631600D01*
X196764801Y-113498267D01*
X196764801Y-113098267D01*
X196831467Y-112964933D01*
X196898134Y-112898267D01*
X197031467Y-112831600D01*
X197231467Y-112831600D01*
X197364801Y-112898267D01*
X197431467Y-112964933D01*
X197498134Y-113098267D01*
X197498134Y-113498267D01*
X197431467Y-113631600D01*
X197364801Y-113698267D01*
X197231467Y-113764933D01*
X197031467Y-113764933D01*
X198031468Y-113698267D02*
X198164801Y-113764933D01*
X198431468Y-113764933D01*
X198564801Y-113698267D01*
X198631468Y-113564933D01*
X198631468Y-113498267D01*
X198564801Y-113364933D01*
X198431468Y-113298267D01*
X198231468Y-113298267D01*
X198098134Y-113231600D01*
X198031468Y-113098267D01*
X198031468Y-113031600D01*
X198098134Y-112898267D01*
X198231468Y-112831600D01*
X198431468Y-112831600D01*
X198564801Y-112898267D01*
X199031467Y-112831600D02*
X199564801Y-112831600D01*
X199231467Y-112364933D02*
X199231467Y-113564933D01*
X199298134Y-113698267D01*
X199431467Y-113764933D01*
X199564801Y-113764933D01*
X200564801Y-113698267D02*
X200431467Y-113764933D01*
X200164801Y-113764933D01*
X200031467Y-113698267D01*
X199964801Y-113564933D01*
X199964801Y-113031600D01*
X200031467Y-112898267D01*
X200164801Y-112831600D01*
X200431467Y-112831600D01*
X200564801Y-112898267D01*
X200631467Y-113031600D01*
X200631467Y-113164933D01*
X199964801Y-113298267D01*
X201231467Y-113764933D02*
X201231467Y-112831600D01*
X201231467Y-113098267D02*
X201298134Y-112964933D01*
X201364801Y-112898267D01*
X201498134Y-112831600D01*
X201631467Y-112831600D01*
X202098134Y-113764933D02*
X202098134Y-112364933D01*
X202631468Y-112364933D01*
X202764801Y-112431600D01*
X202831468Y-112498267D01*
X202898134Y-112631600D01*
X202898134Y-112831600D01*
X202831468Y-112964933D01*
X202764801Y-113031600D01*
X202631468Y-113098267D01*
X202098134Y-113098267D01*
X204098134Y-113764933D02*
X204098134Y-113031600D01*
X204031468Y-112898267D01*
X203898134Y-112831600D01*
X203631468Y-112831600D01*
X203498134Y-112898267D01*
X204098134Y-113698267D02*
X203964801Y-113764933D01*
X203631468Y-113764933D01*
X203498134Y-113698267D01*
X203431468Y-113564933D01*
X203431468Y-113431600D01*
X203498134Y-113298267D01*
X203631468Y-113231600D01*
X203964801Y-113231600D01*
X204098134Y-113164933D01*
X205364801Y-113698267D02*
X205231468Y-113764933D01*
X204964801Y-113764933D01*
X204831468Y-113698267D01*
X204764801Y-113631600D01*
X204698135Y-113498267D01*
X204698135Y-113098267D01*
X204764801Y-112964933D01*
X204831468Y-112898267D01*
X204964801Y-112831600D01*
X205231468Y-112831600D01*
X205364801Y-112898267D01*
X205964801Y-113764933D02*
X205964801Y-112364933D01*
X206098135Y-113231600D02*
X206498135Y-113764933D01*
X206498135Y-112831600D02*
X205964801Y-113364933D01*
X207831468Y-113764933D02*
X207031468Y-113764933D01*
X207431468Y-113764933D02*
X207431468Y-112364933D01*
X207298134Y-112564933D01*
X207164801Y-112698267D01*
X207031468Y-112764933D01*
D11*
X189170571Y-103685742D02*
X189170571Y-102757171D01*
X189742000Y-103257171D01*
X189742000Y-103042885D01*
X189813429Y-102900028D01*
X189884857Y-102828599D01*
X190027714Y-102757171D01*
X190384857Y-102757171D01*
X190527714Y-102828599D01*
X190599143Y-102900028D01*
X190670571Y-103042885D01*
X190670571Y-103471457D01*
X190599143Y-103614314D01*
X190527714Y-103685742D01*
X189170571Y-102328600D02*
X190670571Y-101828600D01*
X189170571Y-101328600D01*
X189170571Y-100971457D02*
X189170571Y-100042886D01*
X189742000Y-100542886D01*
X189742000Y-100328600D01*
X189813429Y-100185743D01*
X189884857Y-100114314D01*
X190027714Y-100042886D01*
X190384857Y-100042886D01*
X190527714Y-100114314D01*
X190599143Y-100185743D01*
X190670571Y-100328600D01*
X190670571Y-100757172D01*
X190599143Y-100900029D01*
X190527714Y-100971457D01*
X194250571Y-102114313D02*
X194250571Y-102828599D01*
X194964857Y-102900028D01*
X194893429Y-102828599D01*
X194822000Y-102685742D01*
X194822000Y-102328599D01*
X194893429Y-102185742D01*
X194964857Y-102114313D01*
X195107714Y-102042885D01*
X195464857Y-102042885D01*
X195607714Y-102114313D01*
X195679143Y-102185742D01*
X195750571Y-102328599D01*
X195750571Y-102685742D01*
X195679143Y-102828599D01*
X195607714Y-102900028D01*
X194250571Y-101614314D02*
X195750571Y-101114314D01*
X194250571Y-100614314D01*
X136219500Y-95702214D02*
X136148071Y-95845071D01*
X136148071Y-96059357D01*
X136219500Y-96273642D01*
X136362357Y-96416500D01*
X136505214Y-96487928D01*
X136790929Y-96559357D01*
X137005214Y-96559357D01*
X137290929Y-96487928D01*
X137433786Y-96416500D01*
X137576643Y-96273642D01*
X137648071Y-96059357D01*
X137648071Y-95916500D01*
X137576643Y-95702214D01*
X137505214Y-95630785D01*
X137005214Y-95630785D01*
X137005214Y-95916500D01*
X137648071Y-94987928D02*
X136148071Y-94987928D01*
X136148071Y-94416500D01*
X136219500Y-94273642D01*
X136290929Y-94202214D01*
X136433786Y-94130785D01*
X136648071Y-94130785D01*
X136790929Y-94202214D01*
X136862357Y-94273642D01*
X136933786Y-94416500D01*
X136933786Y-94987928D01*
X137576643Y-93559357D02*
X137648071Y-93345071D01*
X137648071Y-92987928D01*
X137576643Y-92845071D01*
X137505214Y-92773642D01*
X137362357Y-92702214D01*
X137219500Y-92702214D01*
X137076643Y-92773642D01*
X137005214Y-92845071D01*
X136933786Y-92987928D01*
X136862357Y-93273642D01*
X136790929Y-93416500D01*
X136719500Y-93487928D01*
X136576643Y-93559357D01*
X136433786Y-93559357D01*
X136290929Y-93487928D01*
X136219500Y-93416500D01*
X136148071Y-93273642D01*
X136148071Y-92916500D01*
X136219500Y-92702214D01*
X136290929Y-92130786D02*
X136219500Y-92059357D01*
X136148071Y-91916500D01*
X136148071Y-91559357D01*
X136219500Y-91416500D01*
X136290929Y-91345071D01*
X136433786Y-91273643D01*
X136576643Y-91273643D01*
X136790929Y-91345071D01*
X137648071Y-92202214D01*
X137648071Y-91273643D01*
X142672500Y-95702214D02*
X142743929Y-95845071D01*
X142743929Y-96059357D01*
X142672500Y-96273642D01*
X142529643Y-96416500D01*
X142386786Y-96487928D01*
X142101071Y-96559357D01*
X141886786Y-96559357D01*
X141601071Y-96487928D01*
X141458214Y-96416500D01*
X141315357Y-96273642D01*
X141243929Y-96059357D01*
X141243929Y-95916500D01*
X141315357Y-95702214D01*
X141386786Y-95630785D01*
X141886786Y-95630785D01*
X141886786Y-95916500D01*
X141243929Y-94987928D02*
X142743929Y-94987928D01*
X142743929Y-94416500D01*
X142672500Y-94273642D01*
X142601071Y-94202214D01*
X142458214Y-94130785D01*
X142243929Y-94130785D01*
X142101071Y-94202214D01*
X142029643Y-94273642D01*
X141958214Y-94416500D01*
X141958214Y-94987928D01*
X141315357Y-93559357D02*
X141243929Y-93345071D01*
X141243929Y-92987928D01*
X141315357Y-92845071D01*
X141386786Y-92773642D01*
X141529643Y-92702214D01*
X141672500Y-92702214D01*
X141815357Y-92773642D01*
X141886786Y-92845071D01*
X141958214Y-92987928D01*
X142029643Y-93273642D01*
X142101071Y-93416500D01*
X142172500Y-93487928D01*
X142315357Y-93559357D01*
X142458214Y-93559357D01*
X142601071Y-93487928D01*
X142672500Y-93416500D01*
X142743929Y-93273642D01*
X142743929Y-92916500D01*
X142672500Y-92702214D01*
X141243929Y-91273643D02*
X141243929Y-92130786D01*
X141243929Y-91702214D02*
X142743929Y-91702214D01*
X142529643Y-91845071D01*
X142386786Y-91987929D01*
X142315357Y-92130786D01*
D14*
X96443800Y-111760000D02*
X96189800Y-111760000D01*
D13*
X96697800Y-111760000D02*
X96189800Y-111506000D01*
X96189800Y-111506000D02*
X96189800Y-112014000D01*
X96189800Y-112014000D02*
X96697800Y-111760000D01*
D11*
X100076000Y-116586000D02*
X100076000Y-114554000D01*
X100076000Y-116586000D02*
X98044000Y-116586000D01*
X98044000Y-99822000D02*
X100076000Y-99822000D01*
X100076000Y-99822000D02*
X100076000Y-101854000D01*
D13*
X155702000Y-103505000D02*
X156210000Y-104394000D01*
X156210000Y-104394000D02*
X156718000Y-103505000D01*
D15*
X155956000Y-103632000D02*
X156210000Y-104140000D01*
X156210000Y-104140000D02*
X156464000Y-103632000D01*
X156464000Y-103632000D02*
X155956000Y-103632000D01*
D14*
X156972000Y-103378000D02*
X155448000Y-103378000D01*
X155448000Y-103378000D02*
X156210000Y-104648000D01*
X156210000Y-104648000D02*
X156972000Y-103378000D01*
D11*
X170688000Y-89408000D02*
X171704000Y-89408000D01*
X172212000Y-90932000D02*
X172212000Y-89916000D01*
X172212000Y-89916000D02*
X171704000Y-89408000D01*
X152908000Y-89408000D02*
X154178000Y-89408000D01*
X152908000Y-89408000D02*
X152908000Y-108712000D01*
X152908000Y-108712000D02*
X154178000Y-108712000D01*
X172212000Y-90932000D02*
X172212000Y-108712000D01*
X172212000Y-108712000D02*
X170688000Y-108712000D01*
D16*
X121031000Y-85979000D02*
X121285000Y-86360000D01*
X121285000Y-86360000D02*
X120777000Y-86360000D01*
X120777000Y-86360000D02*
X121031000Y-85979000D01*
X121031000Y-85979000D02*
X121031000Y-86233000D01*
X125095000Y-94615000D02*
X125476000Y-94869000D01*
X125476000Y-94869000D02*
X125476000Y-94361000D01*
X125476000Y-94361000D02*
X125095000Y-94615000D01*
X125095000Y-94615000D02*
X125349000Y-94615000D01*
D14*
X126238000Y-101346000D02*
X125730000Y-101346000D01*
D17*
X126238000Y-101346000D02*
G75*
G03X126238000Y-101346000I-254000J0D01*
G01*
D11*
X127508000Y-109474000D02*
X127508000Y-101346000D01*
X112776000Y-109474000D02*
X112776000Y-101092000D01*
X127508000Y-111252000D02*
X127508000Y-109474000D01*
X127508000Y-111252000D02*
X125730000Y-111252000D01*
X127508000Y-99568000D02*
X127508000Y-101346000D01*
X127508000Y-99568000D02*
X125730000Y-99568000D01*
X112776000Y-99568000D02*
X114554000Y-99568000D01*
X112776000Y-99568000D02*
X112776000Y-101346000D01*
X114554000Y-111252000D02*
X112776000Y-111252000D01*
X112776000Y-111252000D02*
X112776000Y-109474000D01*
D16*
X107315000Y-84963000D02*
X106934000Y-85217000D01*
X106934000Y-85217000D02*
X106934000Y-84709000D01*
X106934000Y-84709000D02*
X107315000Y-84963000D01*
X107315000Y-84963000D02*
X107061000Y-84963000D01*
X107315000Y-94615000D02*
X106934000Y-94869000D01*
X106934000Y-94869000D02*
X106934000Y-94361000D01*
X106934000Y-94361000D02*
X107315000Y-94615000D01*
X107315000Y-94615000D02*
X107061000Y-94615000D01*
D11*
X100917477Y-115466881D02*
X100917477Y-116181167D01*
X100869857Y-116324024D01*
X100774619Y-116419262D01*
X100631762Y-116466881D01*
X100536524Y-116466881D01*
X101917477Y-116466881D02*
X101346048Y-116466881D01*
X101631762Y-116466881D02*
X101631762Y-115466881D01*
X101536524Y-115609738D01*
X101441286Y-115704976D01*
X101346048Y-115752595D01*
X102488905Y-115895452D02*
X102393667Y-115847833D01*
X102346048Y-115800214D01*
X102298429Y-115704976D01*
X102298429Y-115657357D01*
X102346048Y-115562119D01*
X102393667Y-115514500D01*
X102488905Y-115466881D01*
X102679382Y-115466881D01*
X102774620Y-115514500D01*
X102822239Y-115562119D01*
X102869858Y-115657357D01*
X102869858Y-115704976D01*
X102822239Y-115800214D01*
X102774620Y-115847833D01*
X102679382Y-115895452D01*
X102488905Y-115895452D01*
X102393667Y-115943071D01*
X102346048Y-115990690D01*
X102298429Y-116085929D01*
X102298429Y-116276405D01*
X102346048Y-116371643D01*
X102393667Y-116419262D01*
X102488905Y-116466881D01*
X102679382Y-116466881D01*
X102774620Y-116419262D01*
X102822239Y-116371643D01*
X102869858Y-116276405D01*
X102869858Y-116085929D01*
X102822239Y-115990690D01*
X102774620Y-115943071D01*
X102679382Y-115895452D01*
X172807381Y-99821905D02*
X173616905Y-99821905D01*
X173712143Y-99774286D01*
X173759762Y-99726667D01*
X173807381Y-99631429D01*
X173807381Y-99440952D01*
X173759762Y-99345714D01*
X173712143Y-99298095D01*
X173616905Y-99250476D01*
X172807381Y-99250476D01*
X173140714Y-98345714D02*
X173807381Y-98345714D01*
X172759762Y-98583810D02*
X173474048Y-98821905D01*
X173474048Y-98202857D01*
X167330381Y-99702857D02*
X167330381Y-100179048D01*
X166330381Y-100179048D01*
X166758952Y-99226667D02*
X166711333Y-99321905D01*
X166663714Y-99369524D01*
X166568476Y-99417143D01*
X166520857Y-99417143D01*
X166425619Y-99369524D01*
X166378000Y-99321905D01*
X166330381Y-99226667D01*
X166330381Y-99036190D01*
X166378000Y-98940952D01*
X166425619Y-98893333D01*
X166520857Y-98845714D01*
X166568476Y-98845714D01*
X166663714Y-98893333D01*
X166711333Y-98940952D01*
X166758952Y-99036190D01*
X166758952Y-99226667D01*
X166806571Y-99321905D01*
X166854190Y-99369524D01*
X166949429Y-99417143D01*
X167139905Y-99417143D01*
X167235143Y-99369524D01*
X167282762Y-99321905D01*
X167330381Y-99226667D01*
X167330381Y-99036190D01*
X167282762Y-98940952D01*
X167235143Y-98893333D01*
X167139905Y-98845714D01*
X166949429Y-98845714D01*
X166854190Y-98893333D01*
X166806571Y-98940952D01*
X166758952Y-99036190D01*
X166330381Y-97988571D02*
X166330381Y-98179048D01*
X166378000Y-98274286D01*
X166425619Y-98321905D01*
X166568476Y-98417143D01*
X166758952Y-98464762D01*
X167139905Y-98464762D01*
X167235143Y-98417143D01*
X167282762Y-98369524D01*
X167330381Y-98274286D01*
X167330381Y-98083809D01*
X167282762Y-97988571D01*
X167235143Y-97940952D01*
X167139905Y-97893333D01*
X166901810Y-97893333D01*
X166806571Y-97940952D01*
X166758952Y-97988571D01*
X166711333Y-98083809D01*
X166711333Y-98274286D01*
X166758952Y-98369524D01*
X166806571Y-98417143D01*
X166901810Y-98464762D01*
X121158095Y-78128881D02*
X121158095Y-78938405D01*
X121205714Y-79033643D01*
X121253333Y-79081262D01*
X121348571Y-79128881D01*
X121539048Y-79128881D01*
X121634286Y-79081262D01*
X121681905Y-79033643D01*
X121729524Y-78938405D01*
X121729524Y-78128881D01*
X122110476Y-78128881D02*
X122777143Y-78128881D01*
X122348571Y-79128881D01*
X121031095Y-96353381D02*
X121031095Y-97162905D01*
X121078714Y-97258143D01*
X121126333Y-97305762D01*
X121221571Y-97353381D01*
X121412048Y-97353381D01*
X121507286Y-97305762D01*
X121554905Y-97258143D01*
X121602524Y-97162905D01*
X121602524Y-96353381D01*
X122507286Y-96353381D02*
X122316809Y-96353381D01*
X122221571Y-96401000D01*
X122173952Y-96448619D01*
X122078714Y-96591476D01*
X122031095Y-96781952D01*
X122031095Y-97162905D01*
X122078714Y-97258143D01*
X122126333Y-97305762D01*
X122221571Y-97353381D01*
X122412048Y-97353381D01*
X122507286Y-97305762D01*
X122554905Y-97258143D01*
X122602524Y-97162905D01*
X122602524Y-96924810D01*
X122554905Y-96829571D01*
X122507286Y-96781952D01*
X122412048Y-96734333D01*
X122221571Y-96734333D01*
X122126333Y-96781952D01*
X122078714Y-96829571D01*
X122031095Y-96924810D01*
X110958381Y-106171905D02*
X111767905Y-106171905D01*
X111863143Y-106124286D01*
X111910762Y-106076667D01*
X111958381Y-105981429D01*
X111958381Y-105790952D01*
X111910762Y-105695714D01*
X111863143Y-105648095D01*
X111767905Y-105600476D01*
X110958381Y-105600476D01*
X110958381Y-104648095D02*
X110958381Y-105124286D01*
X111434571Y-105171905D01*
X111386952Y-105124286D01*
X111339333Y-105029048D01*
X111339333Y-104790952D01*
X111386952Y-104695714D01*
X111434571Y-104648095D01*
X111529810Y-104600476D01*
X111767905Y-104600476D01*
X111863143Y-104648095D01*
X111910762Y-104695714D01*
X111958381Y-104790952D01*
X111958381Y-105029048D01*
X111910762Y-105124286D01*
X111863143Y-105171905D01*
X186977400Y-102620343D02*
X186929781Y-102715581D01*
X186929781Y-102858438D01*
X186977400Y-103001296D01*
X187072638Y-103096534D01*
X187167876Y-103144153D01*
X187358352Y-103191772D01*
X187501210Y-103191772D01*
X187691686Y-103144153D01*
X187786924Y-103096534D01*
X187882162Y-103001296D01*
X187929781Y-102858438D01*
X187929781Y-102763200D01*
X187882162Y-102620343D01*
X187834543Y-102572724D01*
X187501210Y-102572724D01*
X187501210Y-102763200D01*
X187929781Y-102144153D02*
X186929781Y-102144153D01*
X186929781Y-101763200D01*
X186977400Y-101667962D01*
X187025019Y-101620343D01*
X187120257Y-101572724D01*
X187263114Y-101572724D01*
X187358352Y-101620343D01*
X187405971Y-101667962D01*
X187453590Y-101763200D01*
X187453590Y-102144153D01*
X187882162Y-101191772D02*
X187929781Y-101048915D01*
X187929781Y-100810819D01*
X187882162Y-100715581D01*
X187834543Y-100667962D01*
X187739305Y-100620343D01*
X187644067Y-100620343D01*
X187548829Y-100667962D01*
X187501210Y-100715581D01*
X187453590Y-100810819D01*
X187405971Y-101001296D01*
X187358352Y-101096534D01*
X187310733Y-101144153D01*
X187215495Y-101191772D01*
X187120257Y-101191772D01*
X187025019Y-101144153D01*
X186977400Y-101096534D01*
X186929781Y-101001296D01*
X186929781Y-100763200D01*
X186977400Y-100620343D01*
X187025019Y-100239391D02*
X186977400Y-100191772D01*
X186929781Y-100096534D01*
X186929781Y-99858438D01*
X186977400Y-99763200D01*
X187025019Y-99715581D01*
X187120257Y-99667962D01*
X187215495Y-99667962D01*
X187358352Y-99715581D01*
X187929781Y-100287010D01*
X187929781Y-99667962D01*
X187882162Y-98048914D02*
X187929781Y-98144152D01*
X187929781Y-98334629D01*
X187882162Y-98429867D01*
X187834543Y-98477486D01*
X187739305Y-98525105D01*
X187453590Y-98525105D01*
X187358352Y-98477486D01*
X187310733Y-98429867D01*
X187263114Y-98334629D01*
X187263114Y-98144152D01*
X187310733Y-98048914D01*
X187929781Y-97477486D02*
X187882162Y-97572724D01*
X187834543Y-97620343D01*
X187739305Y-97667962D01*
X187453590Y-97667962D01*
X187358352Y-97620343D01*
X187310733Y-97572724D01*
X187263114Y-97477486D01*
X187263114Y-97334628D01*
X187310733Y-97239390D01*
X187358352Y-97191771D01*
X187453590Y-97144152D01*
X187739305Y-97144152D01*
X187834543Y-97191771D01*
X187882162Y-97239390D01*
X187929781Y-97334628D01*
X187929781Y-97477486D01*
X187263114Y-96715581D02*
X187929781Y-96715581D01*
X187358352Y-96715581D02*
X187310733Y-96667962D01*
X187263114Y-96572724D01*
X187263114Y-96429866D01*
X187310733Y-96334628D01*
X187405971Y-96287009D01*
X187929781Y-96287009D01*
X187263114Y-95810819D02*
X187929781Y-95810819D01*
X187358352Y-95810819D02*
X187310733Y-95763200D01*
X187263114Y-95667962D01*
X187263114Y-95525104D01*
X187310733Y-95429866D01*
X187405971Y-95382247D01*
X187929781Y-95382247D01*
X135532834Y-104592381D02*
X135056643Y-104592381D01*
X135056643Y-103592381D01*
X136389977Y-104592381D02*
X135818548Y-104592381D01*
X136104262Y-104592381D02*
X136104262Y-103592381D01*
X136009024Y-103735238D01*
X135913786Y-103830476D01*
X135818548Y-103878095D01*
X181760834Y-105322643D02*
X181713215Y-105370262D01*
X181570358Y-105417881D01*
X181475120Y-105417881D01*
X181332262Y-105370262D01*
X181237024Y-105275024D01*
X181189405Y-105179786D01*
X181141786Y-104989310D01*
X181141786Y-104846452D01*
X181189405Y-104655976D01*
X181237024Y-104560738D01*
X181332262Y-104465500D01*
X181475120Y-104417881D01*
X181570358Y-104417881D01*
X181713215Y-104465500D01*
X181760834Y-104513119D01*
X182141786Y-104513119D02*
X182189405Y-104465500D01*
X182284643Y-104417881D01*
X182522739Y-104417881D01*
X182617977Y-104465500D01*
X182665596Y-104513119D01*
X182713215Y-104608357D01*
X182713215Y-104703595D01*
X182665596Y-104846452D01*
X182094167Y-105417881D01*
X182713215Y-105417881D01*
X184594548Y-111704429D02*
X185356453Y-111704429D01*
X184975501Y-112085381D02*
X184975501Y-111323476D01*
X177582534Y-97385143D02*
X177534915Y-97432762D01*
X177392058Y-97480381D01*
X177296820Y-97480381D01*
X177153962Y-97432762D01*
X177058724Y-97337524D01*
X177011105Y-97242286D01*
X176963486Y-97051810D01*
X176963486Y-96908952D01*
X177011105Y-96718476D01*
X177058724Y-96623238D01*
X177153962Y-96528000D01*
X177296820Y-96480381D01*
X177392058Y-96480381D01*
X177534915Y-96528000D01*
X177582534Y-96575619D01*
X178153962Y-96908952D02*
X178058724Y-96861333D01*
X178011105Y-96813714D01*
X177963486Y-96718476D01*
X177963486Y-96670857D01*
X178011105Y-96575619D01*
X178058724Y-96528000D01*
X178153962Y-96480381D01*
X178344439Y-96480381D01*
X178439677Y-96528000D01*
X178487296Y-96575619D01*
X178534915Y-96670857D01*
X178534915Y-96718476D01*
X178487296Y-96813714D01*
X178439677Y-96861333D01*
X178344439Y-96908952D01*
X178153962Y-96908952D01*
X178058724Y-96956571D01*
X178011105Y-97004190D01*
X177963486Y-97099429D01*
X177963486Y-97289905D01*
X178011105Y-97385143D01*
X178058724Y-97432762D01*
X178153962Y-97480381D01*
X178344439Y-97480381D01*
X178439677Y-97432762D01*
X178487296Y-97385143D01*
X178534915Y-97289905D01*
X178534915Y-97099429D01*
X178487296Y-97004190D01*
X178439677Y-96956571D01*
X178344439Y-96908952D01*
X131691143Y-99925143D02*
X131643524Y-99972762D01*
X131500667Y-100020381D01*
X131405429Y-100020381D01*
X131262571Y-99972762D01*
X131167333Y-99877524D01*
X131119714Y-99782286D01*
X131072095Y-99591810D01*
X131072095Y-99448952D01*
X131119714Y-99258476D01*
X131167333Y-99163238D01*
X131262571Y-99068000D01*
X131405429Y-99020381D01*
X131500667Y-99020381D01*
X131643524Y-99068000D01*
X131691143Y-99115619D01*
X132643524Y-100020381D02*
X132072095Y-100020381D01*
X132357809Y-100020381D02*
X132357809Y-99020381D01*
X132262571Y-99163238D01*
X132167333Y-99258476D01*
X132072095Y-99306095D01*
X133500667Y-99020381D02*
X133310190Y-99020381D01*
X133214952Y-99068000D01*
X133167333Y-99115619D01*
X133072095Y-99258476D01*
X133024476Y-99448952D01*
X133024476Y-99829905D01*
X133072095Y-99925143D01*
X133119714Y-99972762D01*
X133214952Y-100020381D01*
X133405429Y-100020381D01*
X133500667Y-99972762D01*
X133548286Y-99925143D01*
X133595905Y-99829905D01*
X133595905Y-99591810D01*
X133548286Y-99496571D01*
X133500667Y-99448952D01*
X133405429Y-99401333D01*
X133214952Y-99401333D01*
X133119714Y-99448952D01*
X133072095Y-99496571D01*
X133024476Y-99591810D01*
X109577143Y-118244857D02*
X109624762Y-118292476D01*
X109672381Y-118435333D01*
X109672381Y-118530571D01*
X109624762Y-118673429D01*
X109529524Y-118768667D01*
X109434286Y-118816286D01*
X109243810Y-118863905D01*
X109100952Y-118863905D01*
X108910476Y-118816286D01*
X108815238Y-118768667D01*
X108720000Y-118673429D01*
X108672381Y-118530571D01*
X108672381Y-118435333D01*
X108720000Y-118292476D01*
X108767619Y-118244857D01*
X108767619Y-117863905D02*
X108720000Y-117816286D01*
X108672381Y-117721048D01*
X108672381Y-117482952D01*
X108720000Y-117387714D01*
X108767619Y-117340095D01*
X108862857Y-117292476D01*
X108958095Y-117292476D01*
X109100952Y-117340095D01*
X109672381Y-117911524D01*
X109672381Y-117292476D01*
X109672381Y-116340095D02*
X109672381Y-116911524D01*
X109672381Y-116625810D02*
X108672381Y-116625810D01*
X108815238Y-116721048D01*
X108910476Y-116816286D01*
X108958095Y-116911524D01*
X126690381Y-84788190D02*
X125690381Y-84788190D01*
X126642762Y-84788190D02*
X126690381Y-84883428D01*
X126690381Y-85073905D01*
X126642762Y-85169143D01*
X126595143Y-85216762D01*
X126499905Y-85264381D01*
X126214190Y-85264381D01*
X126118952Y-85216762D01*
X126071333Y-85169143D01*
X126023714Y-85073905D01*
X126023714Y-84883428D01*
X126071333Y-84788190D01*
X126690381Y-84312000D02*
X126023714Y-84312000D01*
X125690381Y-84312000D02*
X125738000Y-84359619D01*
X125785619Y-84312000D01*
X125738000Y-84264381D01*
X125690381Y-84312000D01*
X125785619Y-84312000D01*
X126690381Y-83835810D02*
X126023714Y-83835810D01*
X126214190Y-83835810D02*
X126118952Y-83788191D01*
X126071333Y-83740572D01*
X126023714Y-83645334D01*
X126023714Y-83550095D01*
X126642762Y-82835809D02*
X126690381Y-82931047D01*
X126690381Y-83121524D01*
X126642762Y-83216762D01*
X126547524Y-83264381D01*
X126166571Y-83264381D01*
X126071333Y-83216762D01*
X126023714Y-83121524D01*
X126023714Y-82931047D01*
X126071333Y-82835809D01*
X126166571Y-82788190D01*
X126261810Y-82788190D01*
X126357048Y-83264381D01*
X126642762Y-81931047D02*
X126690381Y-82026285D01*
X126690381Y-82216762D01*
X126642762Y-82312000D01*
X126595143Y-82359619D01*
X126499905Y-82407238D01*
X126214190Y-82407238D01*
X126118952Y-82359619D01*
X126071333Y-82312000D01*
X126023714Y-82216762D01*
X126023714Y-82026285D01*
X126071333Y-81931047D01*
X126023714Y-81645333D02*
X126023714Y-81264381D01*
X125690381Y-81502476D02*
X126547524Y-81502476D01*
X126642762Y-81454857D01*
X126690381Y-81359619D01*
X126690381Y-81264381D01*
X129071714Y-87820096D02*
X129071714Y-87439144D01*
X129738381Y-87677239D02*
X128881238Y-87677239D01*
X128786000Y-87629620D01*
X128738381Y-87534382D01*
X128738381Y-87439144D01*
X129690762Y-86724857D02*
X129738381Y-86820095D01*
X129738381Y-87010572D01*
X129690762Y-87105810D01*
X129595524Y-87153429D01*
X129214571Y-87153429D01*
X129119333Y-87105810D01*
X129071714Y-87010572D01*
X129071714Y-86820095D01*
X129119333Y-86724857D01*
X129214571Y-86677238D01*
X129309810Y-86677238D01*
X129405048Y-87153429D01*
X129690762Y-85867714D02*
X129738381Y-85962952D01*
X129738381Y-86153429D01*
X129690762Y-86248667D01*
X129595524Y-86296286D01*
X129214571Y-86296286D01*
X129119333Y-86248667D01*
X129071714Y-86153429D01*
X129071714Y-85962952D01*
X129119333Y-85867714D01*
X129214571Y-85820095D01*
X129309810Y-85820095D01*
X129405048Y-86296286D01*
X129738381Y-84962952D02*
X128738381Y-84962952D01*
X129690762Y-84962952D02*
X129738381Y-85058190D01*
X129738381Y-85248667D01*
X129690762Y-85343905D01*
X129643143Y-85391524D01*
X129547905Y-85439143D01*
X129262190Y-85439143D01*
X129166952Y-85391524D01*
X129119333Y-85343905D01*
X129071714Y-85248667D01*
X129071714Y-85058190D01*
X129119333Y-84962952D01*
X129738381Y-84486762D02*
X128738381Y-84486762D01*
X129119333Y-84486762D02*
X129071714Y-84391524D01*
X129071714Y-84201047D01*
X129119333Y-84105809D01*
X129166952Y-84058190D01*
X129262190Y-84010571D01*
X129547905Y-84010571D01*
X129643143Y-84058190D01*
X129690762Y-84105809D01*
X129738381Y-84201047D01*
X129738381Y-84391524D01*
X129690762Y-84486762D01*
X129738381Y-83153428D02*
X129214571Y-83153428D01*
X129119333Y-83201047D01*
X129071714Y-83296285D01*
X129071714Y-83486762D01*
X129119333Y-83582000D01*
X129690762Y-83153428D02*
X129738381Y-83248666D01*
X129738381Y-83486762D01*
X129690762Y-83582000D01*
X129595524Y-83629619D01*
X129500286Y-83629619D01*
X129405048Y-83582000D01*
X129357429Y-83486762D01*
X129357429Y-83248666D01*
X129309810Y-83153428D01*
X129690762Y-82248666D02*
X129738381Y-82343904D01*
X129738381Y-82534381D01*
X129690762Y-82629619D01*
X129643143Y-82677238D01*
X129547905Y-82724857D01*
X129262190Y-82724857D01*
X129166952Y-82677238D01*
X129119333Y-82629619D01*
X129071714Y-82534381D01*
X129071714Y-82343904D01*
X129119333Y-82248666D01*
X129738381Y-81820095D02*
X128738381Y-81820095D01*
X129357429Y-81724857D02*
X129738381Y-81439142D01*
X129071714Y-81439142D02*
X129452667Y-81820095D01*
X199814133Y-106370381D02*
X199718895Y-106322762D01*
X199671276Y-106227524D01*
X199671276Y-105370381D01*
X200195086Y-106370381D02*
X200195086Y-105703714D01*
X200195086Y-105370381D02*
X200147467Y-105418000D01*
X200195086Y-105465619D01*
X200242705Y-105418000D01*
X200195086Y-105370381D01*
X200195086Y-105465619D01*
X200671276Y-105703714D02*
X200671276Y-106370381D01*
X200671276Y-105798952D02*
X200718895Y-105751333D01*
X200814133Y-105703714D01*
X200956991Y-105703714D01*
X201052229Y-105751333D01*
X201099848Y-105846571D01*
X201099848Y-106370381D01*
X201956991Y-106322762D02*
X201861753Y-106370381D01*
X201671276Y-106370381D01*
X201576038Y-106322762D01*
X201528419Y-106227524D01*
X201528419Y-105846571D01*
X201576038Y-105751333D01*
X201671276Y-105703714D01*
X201861753Y-105703714D01*
X201956991Y-105751333D01*
X202004610Y-105846571D01*
X202004610Y-105941810D01*
X201528419Y-106037048D01*
X203052229Y-105370381D02*
X203623658Y-105370381D01*
X203337943Y-106370381D02*
X203337943Y-105370381D01*
X203861753Y-106370381D02*
X204385563Y-105703714D01*
X203861753Y-105703714D02*
X204385563Y-106370381D01*
X199695085Y-104084381D02*
X199599847Y-104036762D01*
X199552228Y-103941524D01*
X199552228Y-103084381D01*
X200076038Y-104084381D02*
X200076038Y-103417714D01*
X200076038Y-103084381D02*
X200028419Y-103132000D01*
X200076038Y-103179619D01*
X200123657Y-103132000D01*
X200076038Y-103084381D01*
X200076038Y-103179619D01*
X200552228Y-103417714D02*
X200552228Y-104084381D01*
X200552228Y-103512952D02*
X200599847Y-103465333D01*
X200695085Y-103417714D01*
X200837943Y-103417714D01*
X200933181Y-103465333D01*
X200980800Y-103560571D01*
X200980800Y-104084381D01*
X201837943Y-104036762D02*
X201742705Y-104084381D01*
X201552228Y-104084381D01*
X201456990Y-104036762D01*
X201409371Y-103941524D01*
X201409371Y-103560571D01*
X201456990Y-103465333D01*
X201552228Y-103417714D01*
X201742705Y-103417714D01*
X201837943Y-103465333D01*
X201885562Y-103560571D01*
X201885562Y-103655810D01*
X201409371Y-103751048D01*
X203647467Y-104084381D02*
X203314133Y-103608190D01*
X203076038Y-104084381D02*
X203076038Y-103084381D01*
X203456991Y-103084381D01*
X203552229Y-103132000D01*
X203599848Y-103179619D01*
X203647467Y-103274857D01*
X203647467Y-103417714D01*
X203599848Y-103512952D01*
X203552229Y-103560571D01*
X203456991Y-103608190D01*
X203076038Y-103608190D01*
X203980800Y-104084381D02*
X204504610Y-103417714D01*
X203980800Y-103417714D02*
X204504610Y-104084381D01*
X199623657Y-99830000D02*
X199528419Y-99782381D01*
X199385562Y-99782381D01*
X199242704Y-99830000D01*
X199147466Y-99925238D01*
X199099847Y-100020476D01*
X199052228Y-100210952D01*
X199052228Y-100353810D01*
X199099847Y-100544286D01*
X199147466Y-100639524D01*
X199242704Y-100734762D01*
X199385562Y-100782381D01*
X199480800Y-100782381D01*
X199623657Y-100734762D01*
X199671276Y-100687143D01*
X199671276Y-100353810D01*
X199480800Y-100353810D01*
X200099847Y-100782381D02*
X200099847Y-99782381D01*
X200480800Y-99782381D01*
X200576038Y-99830000D01*
X200623657Y-99877619D01*
X200671276Y-99972857D01*
X200671276Y-100115714D01*
X200623657Y-100210952D01*
X200576038Y-100258571D01*
X200480800Y-100306190D01*
X200099847Y-100306190D01*
X201052228Y-100734762D02*
X201195085Y-100782381D01*
X201433181Y-100782381D01*
X201528419Y-100734762D01*
X201576038Y-100687143D01*
X201623657Y-100591905D01*
X201623657Y-100496667D01*
X201576038Y-100401429D01*
X201528419Y-100353810D01*
X201433181Y-100306190D01*
X201242704Y-100258571D01*
X201147466Y-100210952D01*
X201099847Y-100163333D01*
X201052228Y-100068095D01*
X201052228Y-99972857D01*
X201099847Y-99877619D01*
X201147466Y-99830000D01*
X201242704Y-99782381D01*
X201480800Y-99782381D01*
X201623657Y-99830000D01*
X202576038Y-100782381D02*
X202004609Y-100782381D01*
X202290323Y-100782381D02*
X202290323Y-99782381D01*
X202195085Y-99925238D01*
X202099847Y-100020476D01*
X202004609Y-100068095D01*
X203623657Y-99782381D02*
X204195086Y-99782381D01*
X203909371Y-100782381D02*
X203909371Y-99782381D01*
X204433181Y-100782381D02*
X204956991Y-100115714D01*
X204433181Y-100115714D02*
X204956991Y-100782381D01*
X199504610Y-97544000D02*
X199409372Y-97496381D01*
X199266515Y-97496381D01*
X199123657Y-97544000D01*
X199028419Y-97639238D01*
X198980800Y-97734476D01*
X198933181Y-97924952D01*
X198933181Y-98067810D01*
X198980800Y-98258286D01*
X199028419Y-98353524D01*
X199123657Y-98448762D01*
X199266515Y-98496381D01*
X199361753Y-98496381D01*
X199504610Y-98448762D01*
X199552229Y-98401143D01*
X199552229Y-98067810D01*
X199361753Y-98067810D01*
X199980800Y-98496381D02*
X199980800Y-97496381D01*
X200361753Y-97496381D01*
X200456991Y-97544000D01*
X200504610Y-97591619D01*
X200552229Y-97686857D01*
X200552229Y-97829714D01*
X200504610Y-97924952D01*
X200456991Y-97972571D01*
X200361753Y-98020190D01*
X199980800Y-98020190D01*
X200933181Y-98448762D02*
X201076038Y-98496381D01*
X201314134Y-98496381D01*
X201409372Y-98448762D01*
X201456991Y-98401143D01*
X201504610Y-98305905D01*
X201504610Y-98210667D01*
X201456991Y-98115429D01*
X201409372Y-98067810D01*
X201314134Y-98020190D01*
X201123657Y-97972571D01*
X201028419Y-97924952D01*
X200980800Y-97877333D01*
X200933181Y-97782095D01*
X200933181Y-97686857D01*
X200980800Y-97591619D01*
X201028419Y-97544000D01*
X201123657Y-97496381D01*
X201361753Y-97496381D01*
X201504610Y-97544000D01*
X202456991Y-98496381D02*
X201885562Y-98496381D01*
X202171276Y-98496381D02*
X202171276Y-97496381D01*
X202076038Y-97639238D01*
X201980800Y-97734476D01*
X201885562Y-97782095D01*
X204218896Y-98496381D02*
X203885562Y-98020190D01*
X203647467Y-98496381D02*
X203647467Y-97496381D01*
X204028420Y-97496381D01*
X204123658Y-97544000D01*
X204171277Y-97591619D01*
X204218896Y-97686857D01*
X204218896Y-97829714D01*
X204171277Y-97924952D01*
X204123658Y-97972571D01*
X204028420Y-98020190D01*
X203647467Y-98020190D01*
X204552229Y-98496381D02*
X205076039Y-97829714D01*
X204552229Y-97829714D02*
X205076039Y-98496381D01*
X199623657Y-94242000D02*
X199528419Y-94194381D01*
X199385562Y-94194381D01*
X199242704Y-94242000D01*
X199147466Y-94337238D01*
X199099847Y-94432476D01*
X199052228Y-94622952D01*
X199052228Y-94765810D01*
X199099847Y-94956286D01*
X199147466Y-95051524D01*
X199242704Y-95146762D01*
X199385562Y-95194381D01*
X199480800Y-95194381D01*
X199623657Y-95146762D01*
X199671276Y-95099143D01*
X199671276Y-94765810D01*
X199480800Y-94765810D01*
X200099847Y-95194381D02*
X200099847Y-94194381D01*
X200480800Y-94194381D01*
X200576038Y-94242000D01*
X200623657Y-94289619D01*
X200671276Y-94384857D01*
X200671276Y-94527714D01*
X200623657Y-94622952D01*
X200576038Y-94670571D01*
X200480800Y-94718190D01*
X200099847Y-94718190D01*
X201052228Y-95146762D02*
X201195085Y-95194381D01*
X201433181Y-95194381D01*
X201528419Y-95146762D01*
X201576038Y-95099143D01*
X201623657Y-95003905D01*
X201623657Y-94908667D01*
X201576038Y-94813429D01*
X201528419Y-94765810D01*
X201433181Y-94718190D01*
X201242704Y-94670571D01*
X201147466Y-94622952D01*
X201099847Y-94575333D01*
X201052228Y-94480095D01*
X201052228Y-94384857D01*
X201099847Y-94289619D01*
X201147466Y-94242000D01*
X201242704Y-94194381D01*
X201480800Y-94194381D01*
X201623657Y-94242000D01*
X202004609Y-94289619D02*
X202052228Y-94242000D01*
X202147466Y-94194381D01*
X202385562Y-94194381D01*
X202480800Y-94242000D01*
X202528419Y-94289619D01*
X202576038Y-94384857D01*
X202576038Y-94480095D01*
X202528419Y-94622952D01*
X201956990Y-95194381D01*
X202576038Y-95194381D01*
X203623657Y-94194381D02*
X204195086Y-94194381D01*
X203909371Y-95194381D02*
X203909371Y-94194381D01*
X204433181Y-95194381D02*
X204956991Y-94527714D01*
X204433181Y-94527714D02*
X204956991Y-95194381D01*
X199504610Y-91956000D02*
X199409372Y-91908381D01*
X199266515Y-91908381D01*
X199123657Y-91956000D01*
X199028419Y-92051238D01*
X198980800Y-92146476D01*
X198933181Y-92336952D01*
X198933181Y-92479810D01*
X198980800Y-92670286D01*
X199028419Y-92765524D01*
X199123657Y-92860762D01*
X199266515Y-92908381D01*
X199361753Y-92908381D01*
X199504610Y-92860762D01*
X199552229Y-92813143D01*
X199552229Y-92479810D01*
X199361753Y-92479810D01*
X199980800Y-92908381D02*
X199980800Y-91908381D01*
X200361753Y-91908381D01*
X200456991Y-91956000D01*
X200504610Y-92003619D01*
X200552229Y-92098857D01*
X200552229Y-92241714D01*
X200504610Y-92336952D01*
X200456991Y-92384571D01*
X200361753Y-92432190D01*
X199980800Y-92432190D01*
X200933181Y-92860762D02*
X201076038Y-92908381D01*
X201314134Y-92908381D01*
X201409372Y-92860762D01*
X201456991Y-92813143D01*
X201504610Y-92717905D01*
X201504610Y-92622667D01*
X201456991Y-92527429D01*
X201409372Y-92479810D01*
X201314134Y-92432190D01*
X201123657Y-92384571D01*
X201028419Y-92336952D01*
X200980800Y-92289333D01*
X200933181Y-92194095D01*
X200933181Y-92098857D01*
X200980800Y-92003619D01*
X201028419Y-91956000D01*
X201123657Y-91908381D01*
X201361753Y-91908381D01*
X201504610Y-91956000D01*
X201885562Y-92003619D02*
X201933181Y-91956000D01*
X202028419Y-91908381D01*
X202266515Y-91908381D01*
X202361753Y-91956000D01*
X202409372Y-92003619D01*
X202456991Y-92098857D01*
X202456991Y-92194095D01*
X202409372Y-92336952D01*
X201837943Y-92908381D01*
X202456991Y-92908381D01*
X204218896Y-92908381D02*
X203885562Y-92432190D01*
X203647467Y-92908381D02*
X203647467Y-91908381D01*
X204028420Y-91908381D01*
X204123658Y-91956000D01*
X204171277Y-92003619D01*
X204218896Y-92098857D01*
X204218896Y-92241714D01*
X204171277Y-92336952D01*
X204123658Y-92384571D01*
X204028420Y-92432190D01*
X203647467Y-92432190D01*
X204552229Y-92908381D02*
X205076039Y-92241714D01*
X204552229Y-92241714D02*
X205076039Y-92908381D01*
X202755524Y-89495381D02*
X202279333Y-89495381D01*
X202231714Y-89971571D01*
X202279333Y-89923952D01*
X202374571Y-89876333D01*
X202612667Y-89876333D01*
X202707905Y-89923952D01*
X202755524Y-89971571D01*
X202803143Y-90066810D01*
X202803143Y-90304905D01*
X202755524Y-90400143D01*
X202707905Y-90447762D01*
X202612667Y-90495381D01*
X202374571Y-90495381D01*
X202279333Y-90447762D01*
X202231714Y-90400143D01*
X203088857Y-89495381D02*
X203422190Y-90495381D01*
X203755524Y-89495381D01*
X157702405Y-116990881D02*
X158321453Y-116990881D01*
X157988119Y-117371833D01*
X158130977Y-117371833D01*
X158226215Y-117419452D01*
X158273834Y-117467071D01*
X158321453Y-117562310D01*
X158321453Y-117800405D01*
X158273834Y-117895643D01*
X158226215Y-117943262D01*
X158130977Y-117990881D01*
X157845262Y-117990881D01*
X157750024Y-117943262D01*
X157702405Y-117895643D01*
X158607167Y-116990881D02*
X158940500Y-117990881D01*
X159273834Y-116990881D01*
X159511929Y-116990881D02*
X160130977Y-116990881D01*
X159797643Y-117371833D01*
X159940501Y-117371833D01*
X160035739Y-117419452D01*
X160083358Y-117467071D01*
X160130977Y-117562310D01*
X160130977Y-117800405D01*
X160083358Y-117895643D01*
X160035739Y-117943262D01*
X159940501Y-117990881D01*
X159654786Y-117990881D01*
X159559548Y-117943262D01*
X159511929Y-117895643D01*
X180678200Y-93427181D02*
X180630581Y-93522419D01*
X180630581Y-93665276D01*
X180678200Y-93808134D01*
X180773438Y-93903372D01*
X180868676Y-93950991D01*
X181059152Y-93998610D01*
X181202010Y-93998610D01*
X181392486Y-93950991D01*
X181487724Y-93903372D01*
X181582962Y-93808134D01*
X181630581Y-93665276D01*
X181630581Y-93570038D01*
X181582962Y-93427181D01*
X181535343Y-93379562D01*
X181202010Y-93379562D01*
X181202010Y-93570038D01*
X181630581Y-92950991D02*
X180630581Y-92950991D01*
X180630581Y-92570038D01*
X180678200Y-92474800D01*
X180725819Y-92427181D01*
X180821057Y-92379562D01*
X180963914Y-92379562D01*
X181059152Y-92427181D01*
X181106771Y-92474800D01*
X181154390Y-92570038D01*
X181154390Y-92950991D01*
X181582962Y-91998610D02*
X181630581Y-91855753D01*
X181630581Y-91617657D01*
X181582962Y-91522419D01*
X181535343Y-91474800D01*
X181440105Y-91427181D01*
X181344867Y-91427181D01*
X181249629Y-91474800D01*
X181202010Y-91522419D01*
X181154390Y-91617657D01*
X181106771Y-91808134D01*
X181059152Y-91903372D01*
X181011533Y-91950991D01*
X180916295Y-91998610D01*
X180821057Y-91998610D01*
X180725819Y-91950991D01*
X180678200Y-91903372D01*
X180630581Y-91808134D01*
X180630581Y-91570038D01*
X180678200Y-91427181D01*
X180725819Y-91046229D02*
X180678200Y-90998610D01*
X180630581Y-90903372D01*
X180630581Y-90665276D01*
X180678200Y-90570038D01*
X180725819Y-90522419D01*
X180821057Y-90474800D01*
X180916295Y-90474800D01*
X181059152Y-90522419D01*
X181630581Y-91093848D01*
X181630581Y-90474800D01*
X180630581Y-89379562D02*
X180630581Y-88760514D01*
X181011533Y-89093848D01*
X181011533Y-88950990D01*
X181059152Y-88855752D01*
X181106771Y-88808133D01*
X181202010Y-88760514D01*
X181440105Y-88760514D01*
X181535343Y-88808133D01*
X181582962Y-88855752D01*
X181630581Y-88950990D01*
X181630581Y-89236705D01*
X181582962Y-89331943D01*
X181535343Y-89379562D01*
X180630581Y-88474800D02*
X181630581Y-88141467D01*
X180630581Y-87808133D01*
X180630581Y-87570038D02*
X180630581Y-86950990D01*
X181011533Y-87284324D01*
X181011533Y-87141466D01*
X181059152Y-87046228D01*
X181106771Y-86998609D01*
X181202010Y-86950990D01*
X181440105Y-86950990D01*
X181535343Y-86998609D01*
X181582962Y-87046228D01*
X181630581Y-87141466D01*
X181630581Y-87427181D01*
X181582962Y-87522419D01*
X181535343Y-87570038D01*
X170275619Y-114244500D02*
X170180381Y-114196881D01*
X170037524Y-114196881D01*
X169894666Y-114244500D01*
X169799428Y-114339738D01*
X169751809Y-114434976D01*
X169704190Y-114625452D01*
X169704190Y-114768310D01*
X169751809Y-114958786D01*
X169799428Y-115054024D01*
X169894666Y-115149262D01*
X170037524Y-115196881D01*
X170132762Y-115196881D01*
X170275619Y-115149262D01*
X170323238Y-115101643D01*
X170323238Y-114768310D01*
X170132762Y-114768310D01*
X170751809Y-115196881D02*
X170751809Y-114196881D01*
X171132762Y-114196881D01*
X171228000Y-114244500D01*
X171275619Y-114292119D01*
X171323238Y-114387357D01*
X171323238Y-114530214D01*
X171275619Y-114625452D01*
X171228000Y-114673071D01*
X171132762Y-114720690D01*
X170751809Y-114720690D01*
X171704190Y-115149262D02*
X171847047Y-115196881D01*
X172085143Y-115196881D01*
X172180381Y-115149262D01*
X172228000Y-115101643D01*
X172275619Y-115006405D01*
X172275619Y-114911167D01*
X172228000Y-114815929D01*
X172180381Y-114768310D01*
X172085143Y-114720690D01*
X171894666Y-114673071D01*
X171799428Y-114625452D01*
X171751809Y-114577833D01*
X171704190Y-114482595D01*
X171704190Y-114387357D01*
X171751809Y-114292119D01*
X171799428Y-114244500D01*
X171894666Y-114196881D01*
X172132762Y-114196881D01*
X172275619Y-114244500D01*
X173228000Y-115196881D02*
X172656571Y-115196881D01*
X172942285Y-115196881D02*
X172942285Y-114196881D01*
X172847047Y-114339738D01*
X172751809Y-114434976D01*
X172656571Y-114482595D01*
X174323238Y-114196881D02*
X174942286Y-114196881D01*
X174608952Y-114577833D01*
X174751810Y-114577833D01*
X174847048Y-114625452D01*
X174894667Y-114673071D01*
X174942286Y-114768310D01*
X174942286Y-115006405D01*
X174894667Y-115101643D01*
X174847048Y-115149262D01*
X174751810Y-115196881D01*
X174466095Y-115196881D01*
X174370857Y-115149262D01*
X174323238Y-115101643D01*
X175228000Y-114196881D02*
X175561333Y-115196881D01*
X175894667Y-114196881D01*
X176132762Y-114196881D02*
X176751810Y-114196881D01*
X176418476Y-114577833D01*
X176561334Y-114577833D01*
X176656572Y-114625452D01*
X176704191Y-114673071D01*
X176751810Y-114768310D01*
X176751810Y-115006405D01*
X176704191Y-115101643D01*
X176656572Y-115149262D01*
X176561334Y-115196881D01*
X176275619Y-115196881D01*
X176180381Y-115149262D01*
X176132762Y-115101643D01*
X106489524Y-120102381D02*
X106013333Y-120102381D01*
X105965714Y-120578571D01*
X106013333Y-120530952D01*
X106108571Y-120483333D01*
X106346667Y-120483333D01*
X106441905Y-120530952D01*
X106489524Y-120578571D01*
X106537143Y-120673810D01*
X106537143Y-120911905D01*
X106489524Y-121007143D01*
X106441905Y-121054762D01*
X106346667Y-121102381D01*
X106108571Y-121102381D01*
X106013333Y-121054762D01*
X105965714Y-121007143D01*
X106822857Y-120102381D02*
X107156190Y-121102381D01*
X107489524Y-120102381D01*
X171950143Y-82557881D02*
X171616809Y-82081690D01*
X171378714Y-82557881D02*
X171378714Y-81557881D01*
X171759667Y-81557881D01*
X171854905Y-81605500D01*
X171902524Y-81653119D01*
X171950143Y-81748357D01*
X171950143Y-81891214D01*
X171902524Y-81986452D01*
X171854905Y-82034071D01*
X171759667Y-82081690D01*
X171378714Y-82081690D01*
X172902524Y-82557881D02*
X172331095Y-82557881D01*
X172616809Y-82557881D02*
X172616809Y-81557881D01*
X172521571Y-81700738D01*
X172426333Y-81795976D01*
X172331095Y-81843595D01*
X173807286Y-81557881D02*
X173331095Y-81557881D01*
X173283476Y-82034071D01*
X173331095Y-81986452D01*
X173426333Y-81938833D01*
X173664429Y-81938833D01*
X173759667Y-81986452D01*
X173807286Y-82034071D01*
X173854905Y-82129310D01*
X173854905Y-82367405D01*
X173807286Y-82462643D01*
X173759667Y-82510262D01*
X173664429Y-82557881D01*
X173426333Y-82557881D01*
X173331095Y-82510262D01*
X173283476Y-82462643D01*
X161028143Y-82557881D02*
X160694809Y-82081690D01*
X160456714Y-82557881D02*
X160456714Y-81557881D01*
X160837667Y-81557881D01*
X160932905Y-81605500D01*
X160980524Y-81653119D01*
X161028143Y-81748357D01*
X161028143Y-81891214D01*
X160980524Y-81986452D01*
X160932905Y-82034071D01*
X160837667Y-82081690D01*
X160456714Y-82081690D01*
X161980524Y-82557881D02*
X161409095Y-82557881D01*
X161694809Y-82557881D02*
X161694809Y-81557881D01*
X161599571Y-81700738D01*
X161504333Y-81795976D01*
X161409095Y-81843595D01*
X162313857Y-81557881D02*
X162980524Y-81557881D01*
X162551952Y-82557881D01*
X104767143Y-122880381D02*
X104433809Y-122404190D01*
X104195714Y-122880381D02*
X104195714Y-121880381D01*
X104576667Y-121880381D01*
X104671905Y-121928000D01*
X104719524Y-121975619D01*
X104767143Y-122070857D01*
X104767143Y-122213714D01*
X104719524Y-122308952D01*
X104671905Y-122356571D01*
X104576667Y-122404190D01*
X104195714Y-122404190D01*
X105719524Y-122880381D02*
X105148095Y-122880381D01*
X105433809Y-122880381D02*
X105433809Y-121880381D01*
X105338571Y-122023238D01*
X105243333Y-122118476D01*
X105148095Y-122166095D01*
X106195714Y-122880381D02*
X106386190Y-122880381D01*
X106481429Y-122832762D01*
X106529048Y-122785143D01*
X106624286Y-122642286D01*
X106671905Y-122451810D01*
X106671905Y-122070857D01*
X106624286Y-121975619D01*
X106576667Y-121928000D01*
X106481429Y-121880381D01*
X106290952Y-121880381D01*
X106195714Y-121928000D01*
X106148095Y-121975619D01*
X106100476Y-122070857D01*
X106100476Y-122308952D01*
X106148095Y-122404190D01*
X106195714Y-122451810D01*
X106290952Y-122499429D01*
X106481429Y-122499429D01*
X106576667Y-122451810D01*
X106624286Y-122404190D01*
X106671905Y-122308952D01*
X96464381Y-94622857D02*
X95988190Y-94956191D01*
X96464381Y-95194286D02*
X95464381Y-95194286D01*
X95464381Y-94813333D01*
X95512000Y-94718095D01*
X95559619Y-94670476D01*
X95654857Y-94622857D01*
X95797714Y-94622857D01*
X95892952Y-94670476D01*
X95940571Y-94718095D01*
X95988190Y-94813333D01*
X95988190Y-95194286D01*
X95559619Y-94241905D02*
X95512000Y-94194286D01*
X95464381Y-94099048D01*
X95464381Y-93860952D01*
X95512000Y-93765714D01*
X95559619Y-93718095D01*
X95654857Y-93670476D01*
X95750095Y-93670476D01*
X95892952Y-93718095D01*
X96464381Y-94289524D01*
X96464381Y-93670476D01*
X95464381Y-93051429D02*
X95464381Y-92956190D01*
X95512000Y-92860952D01*
X95559619Y-92813333D01*
X95654857Y-92765714D01*
X95845333Y-92718095D01*
X96083429Y-92718095D01*
X96273905Y-92765714D01*
X96369143Y-92813333D01*
X96416762Y-92860952D01*
X96464381Y-92956190D01*
X96464381Y-93051429D01*
X96416762Y-93146667D01*
X96369143Y-93194286D01*
X96273905Y-93241905D01*
X96083429Y-93289524D01*
X95845333Y-93289524D01*
X95654857Y-93241905D01*
X95559619Y-93194286D01*
X95512000Y-93146667D01*
X95464381Y-93051429D01*
X96464381Y-84970857D02*
X95988190Y-85304191D01*
X96464381Y-85542286D02*
X95464381Y-85542286D01*
X95464381Y-85161333D01*
X95512000Y-85066095D01*
X95559619Y-85018476D01*
X95654857Y-84970857D01*
X95797714Y-84970857D01*
X95892952Y-85018476D01*
X95940571Y-85066095D01*
X95988190Y-85161333D01*
X95988190Y-85542286D01*
X95559619Y-84589905D02*
X95512000Y-84542286D01*
X95464381Y-84447048D01*
X95464381Y-84208952D01*
X95512000Y-84113714D01*
X95559619Y-84066095D01*
X95654857Y-84018476D01*
X95750095Y-84018476D01*
X95892952Y-84066095D01*
X96464381Y-84637524D01*
X96464381Y-84018476D01*
X96464381Y-83066095D02*
X96464381Y-83637524D01*
X96464381Y-83351810D02*
X95464381Y-83351810D01*
X95607238Y-83447048D01*
X95702476Y-83542286D01*
X95750095Y-83637524D01*
X155225762Y-80049619D02*
X155130524Y-80002000D01*
X155035286Y-79906762D01*
X154892429Y-79763905D01*
X154797190Y-79716286D01*
X154701952Y-79716286D01*
X154749571Y-79954381D02*
X154654333Y-79906762D01*
X154559095Y-79811524D01*
X154511476Y-79621048D01*
X154511476Y-79287714D01*
X154559095Y-79097238D01*
X154654333Y-79002000D01*
X154749571Y-78954381D01*
X154940048Y-78954381D01*
X155035286Y-79002000D01*
X155130524Y-79097238D01*
X155178143Y-79287714D01*
X155178143Y-79621048D01*
X155130524Y-79811524D01*
X155035286Y-79906762D01*
X154940048Y-79954381D01*
X154749571Y-79954381D01*
X155559095Y-79049619D02*
X155606714Y-79002000D01*
X155701952Y-78954381D01*
X155940048Y-78954381D01*
X156035286Y-79002000D01*
X156082905Y-79049619D01*
X156130524Y-79144857D01*
X156130524Y-79240095D01*
X156082905Y-79382952D01*
X155511476Y-79954381D01*
X156130524Y-79954381D01*
X178784262Y-80049619D02*
X178689024Y-80002000D01*
X178593786Y-79906762D01*
X178450929Y-79763905D01*
X178355690Y-79716286D01*
X178260452Y-79716286D01*
X178308071Y-79954381D02*
X178212833Y-79906762D01*
X178117595Y-79811524D01*
X178069976Y-79621048D01*
X178069976Y-79287714D01*
X178117595Y-79097238D01*
X178212833Y-79002000D01*
X178308071Y-78954381D01*
X178498548Y-78954381D01*
X178593786Y-79002000D01*
X178689024Y-79097238D01*
X178736643Y-79287714D01*
X178736643Y-79621048D01*
X178689024Y-79811524D01*
X178593786Y-79906762D01*
X178498548Y-79954381D01*
X178308071Y-79954381D01*
X179689024Y-79954381D02*
X179117595Y-79954381D01*
X179403309Y-79954381D02*
X179403309Y-78954381D01*
X179308071Y-79097238D01*
X179212833Y-79192476D01*
X179117595Y-79240095D01*
X168917881Y-78183905D02*
X167917881Y-78183905D01*
X167917881Y-77802952D01*
X167965500Y-77707714D01*
X168013119Y-77660095D01*
X168108357Y-77612476D01*
X168251214Y-77612476D01*
X168346452Y-77660095D01*
X168394071Y-77707714D01*
X168441690Y-77802952D01*
X168441690Y-78183905D01*
X168917881Y-77183905D02*
X167917881Y-77183905D01*
X167917881Y-76802952D01*
X167965500Y-76707714D01*
X168013119Y-76660095D01*
X168108357Y-76612476D01*
X168251214Y-76612476D01*
X168346452Y-76660095D01*
X168394071Y-76707714D01*
X168441690Y-76802952D01*
X168441690Y-77183905D01*
X168870262Y-76231524D02*
X168917881Y-76088667D01*
X168917881Y-75850571D01*
X168870262Y-75755333D01*
X168822643Y-75707714D01*
X168727405Y-75660095D01*
X168632167Y-75660095D01*
X168536929Y-75707714D01*
X168489310Y-75755333D01*
X168441690Y-75850571D01*
X168394071Y-76041048D01*
X168346452Y-76136286D01*
X168298833Y-76183905D01*
X168203595Y-76231524D01*
X168108357Y-76231524D01*
X168013119Y-76183905D01*
X167965500Y-76136286D01*
X167917881Y-76041048D01*
X167917881Y-75802952D01*
X167965500Y-75660095D01*
X168917881Y-74041047D02*
X167917881Y-74041047D01*
X168870262Y-74041047D02*
X168917881Y-74136285D01*
X168917881Y-74326762D01*
X168870262Y-74422000D01*
X168822643Y-74469619D01*
X168727405Y-74517238D01*
X168441690Y-74517238D01*
X168346452Y-74469619D01*
X168298833Y-74422000D01*
X168251214Y-74326762D01*
X168251214Y-74136285D01*
X168298833Y-74041047D01*
X168917881Y-73564857D02*
X168251214Y-73564857D01*
X167917881Y-73564857D02*
X167965500Y-73612476D01*
X168013119Y-73564857D01*
X167965500Y-73517238D01*
X167917881Y-73564857D01*
X168013119Y-73564857D01*
X168917881Y-73088667D02*
X168251214Y-73088667D01*
X168441690Y-73088667D02*
X168346452Y-73041048D01*
X168298833Y-72993429D01*
X168251214Y-72898191D01*
X168251214Y-72802952D01*
X168870262Y-72088666D02*
X168917881Y-72183904D01*
X168917881Y-72374381D01*
X168870262Y-72469619D01*
X168775024Y-72517238D01*
X168394071Y-72517238D01*
X168298833Y-72469619D01*
X168251214Y-72374381D01*
X168251214Y-72183904D01*
X168298833Y-72088666D01*
X168394071Y-72041047D01*
X168489310Y-72041047D01*
X168584548Y-72517238D01*
X168870262Y-71183904D02*
X168917881Y-71279142D01*
X168917881Y-71469619D01*
X168870262Y-71564857D01*
X168822643Y-71612476D01*
X168727405Y-71660095D01*
X168441690Y-71660095D01*
X168346452Y-71612476D01*
X168298833Y-71564857D01*
X168251214Y-71469619D01*
X168251214Y-71279142D01*
X168298833Y-71183904D01*
X168251214Y-70898190D02*
X168251214Y-70517238D01*
X167917881Y-70755333D02*
X168775024Y-70755333D01*
X168870262Y-70707714D01*
X168917881Y-70612476D01*
X168917881Y-70517238D01*
X150566381Y-80390382D02*
X149566381Y-80390382D01*
X149566381Y-80009429D01*
X149614000Y-79914191D01*
X149661619Y-79866572D01*
X149756857Y-79818953D01*
X149899714Y-79818953D01*
X149994952Y-79866572D01*
X150042571Y-79914191D01*
X150090190Y-80009429D01*
X150090190Y-80390382D01*
X150566381Y-79390382D02*
X149566381Y-79390382D01*
X149566381Y-79009429D01*
X149614000Y-78914191D01*
X149661619Y-78866572D01*
X149756857Y-78818953D01*
X149899714Y-78818953D01*
X149994952Y-78866572D01*
X150042571Y-78914191D01*
X150090190Y-79009429D01*
X150090190Y-79390382D01*
X150518762Y-78438001D02*
X150566381Y-78295144D01*
X150566381Y-78057048D01*
X150518762Y-77961810D01*
X150471143Y-77914191D01*
X150375905Y-77866572D01*
X150280667Y-77866572D01*
X150185429Y-77914191D01*
X150137810Y-77961810D01*
X150090190Y-78057048D01*
X150042571Y-78247525D01*
X149994952Y-78342763D01*
X149947333Y-78390382D01*
X149852095Y-78438001D01*
X149756857Y-78438001D01*
X149661619Y-78390382D01*
X149614000Y-78342763D01*
X149566381Y-78247525D01*
X149566381Y-78009429D01*
X149614000Y-77866572D01*
X149899714Y-76818953D02*
X149899714Y-76438001D01*
X150566381Y-76676096D02*
X149709238Y-76676096D01*
X149614000Y-76628477D01*
X149566381Y-76533239D01*
X149566381Y-76438001D01*
X150518762Y-75723714D02*
X150566381Y-75818952D01*
X150566381Y-76009429D01*
X150518762Y-76104667D01*
X150423524Y-76152286D01*
X150042571Y-76152286D01*
X149947333Y-76104667D01*
X149899714Y-76009429D01*
X149899714Y-75818952D01*
X149947333Y-75723714D01*
X150042571Y-75676095D01*
X150137810Y-75676095D01*
X150233048Y-76152286D01*
X150518762Y-74866571D02*
X150566381Y-74961809D01*
X150566381Y-75152286D01*
X150518762Y-75247524D01*
X150423524Y-75295143D01*
X150042571Y-75295143D01*
X149947333Y-75247524D01*
X149899714Y-75152286D01*
X149899714Y-74961809D01*
X149947333Y-74866571D01*
X150042571Y-74818952D01*
X150137810Y-74818952D01*
X150233048Y-75295143D01*
X150566381Y-73961809D02*
X149566381Y-73961809D01*
X150518762Y-73961809D02*
X150566381Y-74057047D01*
X150566381Y-74247524D01*
X150518762Y-74342762D01*
X150471143Y-74390381D01*
X150375905Y-74438000D01*
X150090190Y-74438000D01*
X149994952Y-74390381D01*
X149947333Y-74342762D01*
X149899714Y-74247524D01*
X149899714Y-74057047D01*
X149947333Y-73961809D01*
X150566381Y-73485619D02*
X149566381Y-73485619D01*
X149947333Y-73485619D02*
X149899714Y-73390381D01*
X149899714Y-73199904D01*
X149947333Y-73104666D01*
X149994952Y-73057047D01*
X150090190Y-73009428D01*
X150375905Y-73009428D01*
X150471143Y-73057047D01*
X150518762Y-73104666D01*
X150566381Y-73199904D01*
X150566381Y-73390381D01*
X150518762Y-73485619D01*
X150566381Y-72152285D02*
X150042571Y-72152285D01*
X149947333Y-72199904D01*
X149899714Y-72295142D01*
X149899714Y-72485619D01*
X149947333Y-72580857D01*
X150518762Y-72152285D02*
X150566381Y-72247523D01*
X150566381Y-72485619D01*
X150518762Y-72580857D01*
X150423524Y-72628476D01*
X150328286Y-72628476D01*
X150233048Y-72580857D01*
X150185429Y-72485619D01*
X150185429Y-72247523D01*
X150137810Y-72152285D01*
X150518762Y-71247523D02*
X150566381Y-71342761D01*
X150566381Y-71533238D01*
X150518762Y-71628476D01*
X150471143Y-71676095D01*
X150375905Y-71723714D01*
X150090190Y-71723714D01*
X149994952Y-71676095D01*
X149947333Y-71628476D01*
X149899714Y-71533238D01*
X149899714Y-71342761D01*
X149947333Y-71247523D01*
X150566381Y-70818952D02*
X149566381Y-70818952D01*
X150185429Y-70723714D02*
X150566381Y-70437999D01*
X149899714Y-70437999D02*
X150280667Y-70818952D01*
X176935238Y-118181500D02*
X176840000Y-118133881D01*
X176697143Y-118133881D01*
X176554285Y-118181500D01*
X176459047Y-118276738D01*
X176411428Y-118371976D01*
X176363809Y-118562452D01*
X176363809Y-118705310D01*
X176411428Y-118895786D01*
X176459047Y-118991024D01*
X176554285Y-119086262D01*
X176697143Y-119133881D01*
X176792381Y-119133881D01*
X176935238Y-119086262D01*
X176982857Y-119038643D01*
X176982857Y-118705310D01*
X176792381Y-118705310D01*
X177411428Y-119133881D02*
X177411428Y-118133881D01*
X177792381Y-118133881D01*
X177887619Y-118181500D01*
X177935238Y-118229119D01*
X177982857Y-118324357D01*
X177982857Y-118467214D01*
X177935238Y-118562452D01*
X177887619Y-118610071D01*
X177792381Y-118657690D01*
X177411428Y-118657690D01*
X178363809Y-119086262D02*
X178506666Y-119133881D01*
X178744762Y-119133881D01*
X178840000Y-119086262D01*
X178887619Y-119038643D01*
X178935238Y-118943405D01*
X178935238Y-118848167D01*
X178887619Y-118752929D01*
X178840000Y-118705310D01*
X178744762Y-118657690D01*
X178554285Y-118610071D01*
X178459047Y-118562452D01*
X178411428Y-118514833D01*
X178363809Y-118419595D01*
X178363809Y-118324357D01*
X178411428Y-118229119D01*
X178459047Y-118181500D01*
X178554285Y-118133881D01*
X178792381Y-118133881D01*
X178935238Y-118181500D01*
X179887619Y-119133881D02*
X179316190Y-119133881D01*
X179601904Y-119133881D02*
X179601904Y-118133881D01*
X179506666Y-118276738D01*
X179411428Y-118371976D01*
X179316190Y-118419595D01*
X181078095Y-118133881D02*
X181078095Y-118943405D01*
X181125714Y-119038643D01*
X181173333Y-119086262D01*
X181268571Y-119133881D01*
X181459048Y-119133881D01*
X181554286Y-119086262D01*
X181601905Y-119038643D01*
X181649524Y-118943405D01*
X181649524Y-118133881D01*
X182078095Y-118848167D02*
X182554286Y-118848167D01*
X181982857Y-119133881D02*
X182316190Y-118133881D01*
X182649524Y-119133881D01*
X183554286Y-119133881D02*
X183220952Y-118657690D01*
X182982857Y-119133881D02*
X182982857Y-118133881D01*
X183363810Y-118133881D01*
X183459048Y-118181500D01*
X183506667Y-118229119D01*
X183554286Y-118324357D01*
X183554286Y-118467214D01*
X183506667Y-118562452D01*
X183459048Y-118610071D01*
X183363810Y-118657690D01*
X182982857Y-118657690D01*
X183840000Y-118133881D02*
X184411429Y-118133881D01*
X184125714Y-119133881D02*
X184125714Y-118133881D01*
X164425714Y-119133881D02*
X164330476Y-119086262D01*
X164282857Y-118991024D01*
X164282857Y-118133881D01*
X164806667Y-119133881D02*
X164806667Y-118467214D01*
X164806667Y-118133881D02*
X164759048Y-118181500D01*
X164806667Y-118229119D01*
X164854286Y-118181500D01*
X164806667Y-118133881D01*
X164806667Y-118229119D01*
X165282857Y-118467214D02*
X165282857Y-119133881D01*
X165282857Y-118562452D02*
X165330476Y-118514833D01*
X165425714Y-118467214D01*
X165568572Y-118467214D01*
X165663810Y-118514833D01*
X165711429Y-118610071D01*
X165711429Y-119133881D01*
X166568572Y-119086262D02*
X166473334Y-119133881D01*
X166282857Y-119133881D01*
X166187619Y-119086262D01*
X166140000Y-118991024D01*
X166140000Y-118610071D01*
X166187619Y-118514833D01*
X166282857Y-118467214D01*
X166473334Y-118467214D01*
X166568572Y-118514833D01*
X166616191Y-118610071D01*
X166616191Y-118705310D01*
X166140000Y-118800548D01*
X167806667Y-118133881D02*
X167806667Y-118943405D01*
X167854286Y-119038643D01*
X167901905Y-119086262D01*
X167997143Y-119133881D01*
X168187620Y-119133881D01*
X168282858Y-119086262D01*
X168330477Y-119038643D01*
X168378096Y-118943405D01*
X168378096Y-118133881D01*
X168806667Y-118848167D02*
X169282858Y-118848167D01*
X168711429Y-119133881D02*
X169044762Y-118133881D01*
X169378096Y-119133881D01*
X170282858Y-119133881D02*
X169949524Y-118657690D01*
X169711429Y-119133881D02*
X169711429Y-118133881D01*
X170092382Y-118133881D01*
X170187620Y-118181500D01*
X170235239Y-118229119D01*
X170282858Y-118324357D01*
X170282858Y-118467214D01*
X170235239Y-118562452D01*
X170187620Y-118610071D01*
X170092382Y-118657690D01*
X169711429Y-118657690D01*
X170568572Y-118133881D02*
X171140001Y-118133881D01*
X170854286Y-119133881D02*
X170854286Y-118133881D01*
X146201238Y-124722000D02*
X146106000Y-124674381D01*
X145963143Y-124674381D01*
X145820285Y-124722000D01*
X145725047Y-124817238D01*
X145677428Y-124912476D01*
X145629809Y-125102952D01*
X145629809Y-125245810D01*
X145677428Y-125436286D01*
X145725047Y-125531524D01*
X145820285Y-125626762D01*
X145963143Y-125674381D01*
X146058381Y-125674381D01*
X146201238Y-125626762D01*
X146248857Y-125579143D01*
X146248857Y-125245810D01*
X146058381Y-125245810D01*
X146677428Y-125674381D02*
X146677428Y-124674381D01*
X147058381Y-124674381D01*
X147153619Y-124722000D01*
X147201238Y-124769619D01*
X147248857Y-124864857D01*
X147248857Y-125007714D01*
X147201238Y-125102952D01*
X147153619Y-125150571D01*
X147058381Y-125198190D01*
X146677428Y-125198190D01*
X147629809Y-125626762D02*
X147772666Y-125674381D01*
X148010762Y-125674381D01*
X148106000Y-125626762D01*
X148153619Y-125579143D01*
X148201238Y-125483905D01*
X148201238Y-125388667D01*
X148153619Y-125293429D01*
X148106000Y-125245810D01*
X148010762Y-125198190D01*
X147820285Y-125150571D01*
X147725047Y-125102952D01*
X147677428Y-125055333D01*
X147629809Y-124960095D01*
X147629809Y-124864857D01*
X147677428Y-124769619D01*
X147725047Y-124722000D01*
X147820285Y-124674381D01*
X148058381Y-124674381D01*
X148201238Y-124722000D01*
X148582190Y-124769619D02*
X148629809Y-124722000D01*
X148725047Y-124674381D01*
X148963143Y-124674381D01*
X149058381Y-124722000D01*
X149106000Y-124769619D01*
X149153619Y-124864857D01*
X149153619Y-124960095D01*
X149106000Y-125102952D01*
X148534571Y-125674381D01*
X149153619Y-125674381D01*
X150344095Y-124674381D02*
X150344095Y-125483905D01*
X150391714Y-125579143D01*
X150439333Y-125626762D01*
X150534571Y-125674381D01*
X150725048Y-125674381D01*
X150820286Y-125626762D01*
X150867905Y-125579143D01*
X150915524Y-125483905D01*
X150915524Y-124674381D01*
X151344095Y-125388667D02*
X151820286Y-125388667D01*
X151248857Y-125674381D02*
X151582190Y-124674381D01*
X151915524Y-125674381D01*
X152820286Y-125674381D02*
X152486952Y-125198190D01*
X152248857Y-125674381D02*
X152248857Y-124674381D01*
X152629810Y-124674381D01*
X152725048Y-124722000D01*
X152772667Y-124769619D01*
X152820286Y-124864857D01*
X152820286Y-125007714D01*
X152772667Y-125102952D01*
X152725048Y-125150571D01*
X152629810Y-125198190D01*
X152248857Y-125198190D01*
X153106000Y-124674381D02*
X153677429Y-124674381D01*
X153391714Y-125674381D02*
X153391714Y-124674381D01*
X133294381Y-123912190D02*
X132294381Y-123912190D01*
X132389619Y-123483619D02*
X132342000Y-123436000D01*
X132294381Y-123340762D01*
X132294381Y-123102666D01*
X132342000Y-123007428D01*
X132389619Y-122959809D01*
X132484857Y-122912190D01*
X132580095Y-122912190D01*
X132722952Y-122959809D01*
X133294381Y-123531238D01*
X133294381Y-122912190D01*
X133199143Y-121912190D02*
X133246762Y-121959809D01*
X133294381Y-122102666D01*
X133294381Y-122197904D01*
X133246762Y-122340762D01*
X133151524Y-122436000D01*
X133056286Y-122483619D01*
X132865810Y-122531238D01*
X132722952Y-122531238D01*
X132532476Y-122483619D01*
X132437238Y-122436000D01*
X132342000Y-122340762D01*
X132294381Y-122197904D01*
X132294381Y-122102666D01*
X132342000Y-121959809D01*
X132389619Y-121912190D01*
X181621134Y-80443343D02*
X181573515Y-80490962D01*
X181430658Y-80538581D01*
X181335420Y-80538581D01*
X181192562Y-80490962D01*
X181097324Y-80395724D01*
X181049705Y-80300486D01*
X181002086Y-80110010D01*
X181002086Y-79967152D01*
X181049705Y-79776676D01*
X181097324Y-79681438D01*
X181192562Y-79586200D01*
X181335420Y-79538581D01*
X181430658Y-79538581D01*
X181573515Y-79586200D01*
X181621134Y-79633819D01*
X182525896Y-79538581D02*
X182049705Y-79538581D01*
X182002086Y-80014771D01*
X182049705Y-79967152D01*
X182144943Y-79919533D01*
X182383039Y-79919533D01*
X182478277Y-79967152D01*
X182525896Y-80014771D01*
X182573515Y-80110010D01*
X182573515Y-80348105D01*
X182525896Y-80443343D01*
X182478277Y-80490962D01*
X182383039Y-80538581D01*
X182144943Y-80538581D01*
X182049705Y-80490962D01*
X182002086Y-80443343D01*
X191643048Y-87066429D02*
X192404953Y-87066429D01*
X192024001Y-87447381D02*
X192024001Y-86685476D01*
X105664095Y-86010381D02*
X105664095Y-86819905D01*
X105711714Y-86915143D01*
X105759333Y-86962762D01*
X105854571Y-87010381D01*
X106045048Y-87010381D01*
X106140286Y-86962762D01*
X106187905Y-86915143D01*
X106235524Y-86819905D01*
X106235524Y-86010381D01*
X106759333Y-87010381D02*
X106949809Y-87010381D01*
X107045048Y-86962762D01*
X107092667Y-86915143D01*
X107187905Y-86772286D01*
X107235524Y-86581810D01*
X107235524Y-86200857D01*
X107187905Y-86105619D01*
X107140286Y-86058000D01*
X107045048Y-86010381D01*
X106854571Y-86010381D01*
X106759333Y-86058000D01*
X106711714Y-86105619D01*
X106664095Y-86200857D01*
X106664095Y-86438952D01*
X106711714Y-86534190D01*
X106759333Y-86581810D01*
X106854571Y-86629429D01*
X107045048Y-86629429D01*
X107140286Y-86581810D01*
X107187905Y-86534190D01*
X107235524Y-86438952D01*
X105664095Y-95662381D02*
X105664095Y-96471905D01*
X105711714Y-96567143D01*
X105759333Y-96614762D01*
X105854571Y-96662381D01*
X106045048Y-96662381D01*
X106140286Y-96614762D01*
X106187905Y-96567143D01*
X106235524Y-96471905D01*
X106235524Y-95662381D01*
X106854571Y-96090952D02*
X106759333Y-96043333D01*
X106711714Y-95995714D01*
X106664095Y-95900476D01*
X106664095Y-95852857D01*
X106711714Y-95757619D01*
X106759333Y-95710000D01*
X106854571Y-95662381D01*
X107045048Y-95662381D01*
X107140286Y-95710000D01*
X107187905Y-95757619D01*
X107235524Y-95852857D01*
X107235524Y-95900476D01*
X107187905Y-95995714D01*
X107140286Y-96043333D01*
X107045048Y-96090952D01*
X106854571Y-96090952D01*
X106759333Y-96138571D01*
X106711714Y-96186190D01*
X106664095Y-96281429D01*
X106664095Y-96471905D01*
X106711714Y-96567143D01*
X106759333Y-96614762D01*
X106854571Y-96662381D01*
X107045048Y-96662381D01*
X107140286Y-96614762D01*
X107187905Y-96567143D01*
X107235524Y-96471905D01*
X107235524Y-96281429D01*
X107187905Y-96186190D01*
X107140286Y-96138571D01*
X107045048Y-96090952D01*
X131199357Y-109799381D02*
X131199357Y-108799381D01*
X131437452Y-108799381D01*
X131580310Y-108847000D01*
X131675548Y-108942238D01*
X131723167Y-109037476D01*
X131770786Y-109227952D01*
X131770786Y-109370810D01*
X131723167Y-109561286D01*
X131675548Y-109656524D01*
X131580310Y-109751762D01*
X131437452Y-109799381D01*
X131199357Y-109799381D01*
X132770786Y-109704143D02*
X132723167Y-109751762D01*
X132580310Y-109799381D01*
X132485072Y-109799381D01*
X132342214Y-109751762D01*
X132246976Y-109656524D01*
X132199357Y-109561286D01*
X132151738Y-109370810D01*
X132151738Y-109227952D01*
X132199357Y-109037476D01*
X132246976Y-108942238D01*
X132342214Y-108847000D01*
X132485072Y-108799381D01*
X132580310Y-108799381D01*
X132723167Y-108847000D01*
X132770786Y-108894619D01*
X133913643Y-108751762D02*
X133056500Y-110037476D01*
X134246976Y-109799381D02*
X134246976Y-108799381D01*
X134485071Y-108799381D01*
X134627929Y-108847000D01*
X134723167Y-108942238D01*
X134770786Y-109037476D01*
X134818405Y-109227952D01*
X134818405Y-109370810D01*
X134770786Y-109561286D01*
X134723167Y-109656524D01*
X134627929Y-109751762D01*
X134485071Y-109799381D01*
X134246976Y-109799381D01*
X135818405Y-109704143D02*
X135770786Y-109751762D01*
X135627929Y-109799381D01*
X135532691Y-109799381D01*
X135389833Y-109751762D01*
X135294595Y-109656524D01*
X135246976Y-109561286D01*
X135199357Y-109370810D01*
X135199357Y-109227952D01*
X135246976Y-109037476D01*
X135294595Y-108942238D01*
X135389833Y-108847000D01*
X135532691Y-108799381D01*
X135627929Y-108799381D01*
X135770786Y-108847000D01*
X135818405Y-108894619D01*
X137008881Y-109799381D02*
X137008881Y-109132714D01*
X137008881Y-108799381D02*
X136961262Y-108847000D01*
X137008881Y-108894619D01*
X137056500Y-108847000D01*
X137008881Y-108799381D01*
X137008881Y-108894619D01*
X137485071Y-109132714D02*
X137485071Y-109799381D01*
X137485071Y-109227952D02*
X137532690Y-109180333D01*
X137627928Y-109132714D01*
X137770786Y-109132714D01*
X137866024Y-109180333D01*
X137913643Y-109275571D01*
X137913643Y-109799381D01*
X111847334Y-114752381D02*
X111371143Y-114752381D01*
X111371143Y-113752381D01*
X112133048Y-113847619D02*
X112180667Y-113800000D01*
X112275905Y-113752381D01*
X112514001Y-113752381D01*
X112609239Y-113800000D01*
X112656858Y-113847619D01*
X112704477Y-113942857D01*
X112704477Y-114038095D01*
X112656858Y-114180952D01*
X112085429Y-114752381D01*
X112704477Y-114752381D01*
X108974381Y-124928381D02*
X108498190Y-124928381D01*
X108450571Y-125404571D01*
X108498190Y-125356952D01*
X108593428Y-125309333D01*
X108831524Y-125309333D01*
X108926762Y-125356952D01*
X108974381Y-125404571D01*
X109022000Y-125499810D01*
X109022000Y-125737905D01*
X108974381Y-125833143D01*
X108926762Y-125880762D01*
X108831524Y-125928381D01*
X108593428Y-125928381D01*
X108498190Y-125880762D01*
X108450571Y-125833143D01*
X109307714Y-124928381D02*
X109641047Y-125928381D01*
X109974381Y-124928381D01*
X111069619Y-125928381D02*
X111069619Y-125261714D01*
X111069619Y-124928381D02*
X111022000Y-124976000D01*
X111069619Y-125023619D01*
X111117238Y-124976000D01*
X111069619Y-124928381D01*
X111069619Y-125023619D01*
X111498190Y-125880762D02*
X111593428Y-125928381D01*
X111783904Y-125928381D01*
X111879143Y-125880762D01*
X111926762Y-125785524D01*
X111926762Y-125737905D01*
X111879143Y-125642667D01*
X111783904Y-125595048D01*
X111641047Y-125595048D01*
X111545809Y-125547429D01*
X111498190Y-125452190D01*
X111498190Y-125404571D01*
X111545809Y-125309333D01*
X111641047Y-125261714D01*
X111783904Y-125261714D01*
X111879143Y-125309333D01*
X112498190Y-125928381D02*
X112402952Y-125880762D01*
X112355333Y-125833143D01*
X112307714Y-125737905D01*
X112307714Y-125452190D01*
X112355333Y-125356952D01*
X112402952Y-125309333D01*
X112498190Y-125261714D01*
X112641048Y-125261714D01*
X112736286Y-125309333D01*
X112783905Y-125356952D01*
X112831524Y-125452190D01*
X112831524Y-125737905D01*
X112783905Y-125833143D01*
X112736286Y-125880762D01*
X112641048Y-125928381D01*
X112498190Y-125928381D01*
X113402952Y-125928381D02*
X113307714Y-125880762D01*
X113260095Y-125785524D01*
X113260095Y-124928381D01*
X114212477Y-125928381D02*
X114212477Y-125404571D01*
X114164858Y-125309333D01*
X114069620Y-125261714D01*
X113879143Y-125261714D01*
X113783905Y-125309333D01*
X114212477Y-125880762D02*
X114117239Y-125928381D01*
X113879143Y-125928381D01*
X113783905Y-125880762D01*
X113736286Y-125785524D01*
X113736286Y-125690286D01*
X113783905Y-125595048D01*
X113879143Y-125547429D01*
X114117239Y-125547429D01*
X114212477Y-125499810D01*
X114545810Y-125261714D02*
X114926762Y-125261714D01*
X114688667Y-124928381D02*
X114688667Y-125785524D01*
X114736286Y-125880762D01*
X114831524Y-125928381D01*
X114926762Y-125928381D01*
X115641049Y-125880762D02*
X115545811Y-125928381D01*
X115355334Y-125928381D01*
X115260096Y-125880762D01*
X115212477Y-125785524D01*
X115212477Y-125404571D01*
X115260096Y-125309333D01*
X115355334Y-125261714D01*
X115545811Y-125261714D01*
X115641049Y-125309333D01*
X115688668Y-125404571D01*
X115688668Y-125499810D01*
X115212477Y-125595048D01*
X116545811Y-125928381D02*
X116545811Y-124928381D01*
X116545811Y-125880762D02*
X116450573Y-125928381D01*
X116260096Y-125928381D01*
X116164858Y-125880762D01*
X116117239Y-125833143D01*
X116069620Y-125737905D01*
X116069620Y-125452190D01*
X116117239Y-125356952D01*
X116164858Y-125309333D01*
X116260096Y-125261714D01*
X116450573Y-125261714D01*
X116545811Y-125309333D01*
X191524096Y-92924381D02*
X191047905Y-92924381D01*
X191000286Y-93400571D01*
X191047905Y-93352952D01*
X191143143Y-93305333D01*
X191381239Y-93305333D01*
X191476477Y-93352952D01*
X191524096Y-93400571D01*
X191571715Y-93495810D01*
X191571715Y-93733905D01*
X191524096Y-93829143D01*
X191476477Y-93876762D01*
X191381239Y-93924381D01*
X191143143Y-93924381D01*
X191047905Y-93876762D01*
X191000286Y-93829143D01*
X191857429Y-92924381D02*
X192190762Y-93924381D01*
X192524096Y-92924381D01*
X193619334Y-93924381D02*
X193619334Y-93257714D01*
X193619334Y-92924381D02*
X193571715Y-92972000D01*
X193619334Y-93019619D01*
X193666953Y-92972000D01*
X193619334Y-92924381D01*
X193619334Y-93019619D01*
X194095524Y-93257714D02*
X194095524Y-93924381D01*
X194095524Y-93352952D02*
X194143143Y-93305333D01*
X194238381Y-93257714D01*
X194381239Y-93257714D01*
X194476477Y-93305333D01*
X194524096Y-93400571D01*
X194524096Y-93924381D01*
X147852143Y-117625881D02*
X148471191Y-117625881D01*
X148137857Y-118006833D01*
X148280715Y-118006833D01*
X148375953Y-118054452D01*
X148423572Y-118102071D01*
X148471191Y-118197310D01*
X148471191Y-118435405D01*
X148423572Y-118530643D01*
X148375953Y-118578262D01*
X148280715Y-118625881D01*
X147995000Y-118625881D01*
X147899762Y-118578262D01*
X147852143Y-118530643D01*
X148804524Y-117959214D02*
X149042619Y-118625881D01*
X149280715Y-117959214D01*
X149566429Y-117625881D02*
X150185477Y-117625881D01*
X149852143Y-118006833D01*
X149995001Y-118006833D01*
X150090239Y-118054452D01*
X150137858Y-118102071D01*
X150185477Y-118197310D01*
X150185477Y-118435405D01*
X150137858Y-118530643D01*
X150090239Y-118578262D01*
X149995001Y-118625881D01*
X149709286Y-118625881D01*
X149614048Y-118578262D01*
X149566429Y-118530643D01*
X152137858Y-118625881D02*
X152137858Y-117959214D01*
X152137858Y-117625881D02*
X152090239Y-117673500D01*
X152137858Y-117721119D01*
X152185477Y-117673500D01*
X152137858Y-117625881D01*
X152137858Y-117721119D01*
X152614048Y-117959214D02*
X152614048Y-118625881D01*
X152614048Y-118054452D02*
X152661667Y-118006833D01*
X152756905Y-117959214D01*
X152899763Y-117959214D01*
X152995001Y-118006833D01*
X153042620Y-118102071D01*
X153042620Y-118625881D01*
X143470381Y-111489905D02*
X143470381Y-111966096D01*
X143946571Y-112013715D01*
X143898952Y-111966096D01*
X143851333Y-111870858D01*
X143851333Y-111632762D01*
X143898952Y-111537524D01*
X143946571Y-111489905D01*
X144041810Y-111442286D01*
X144279905Y-111442286D01*
X144375143Y-111489905D01*
X144422762Y-111537524D01*
X144470381Y-111632762D01*
X144470381Y-111870858D01*
X144422762Y-111966096D01*
X144375143Y-112013715D01*
X143470381Y-111156572D02*
X144470381Y-110823239D01*
X143470381Y-110489905D01*
X144470381Y-109251810D02*
X144422762Y-109347048D01*
X144375143Y-109394667D01*
X144279905Y-109442286D01*
X143994190Y-109442286D01*
X143898952Y-109394667D01*
X143851333Y-109347048D01*
X143803714Y-109251810D01*
X143803714Y-109108952D01*
X143851333Y-109013714D01*
X143898952Y-108966095D01*
X143994190Y-108918476D01*
X144279905Y-108918476D01*
X144375143Y-108966095D01*
X144422762Y-109013714D01*
X144470381Y-109108952D01*
X144470381Y-109251810D01*
X143803714Y-108061333D02*
X144470381Y-108061333D01*
X143803714Y-108489905D02*
X144327524Y-108489905D01*
X144422762Y-108442286D01*
X144470381Y-108347048D01*
X144470381Y-108204190D01*
X144422762Y-108108952D01*
X144375143Y-108061333D01*
X143803714Y-107728000D02*
X143803714Y-107347048D01*
X143470381Y-107585143D02*
X144327524Y-107585143D01*
X144422762Y-107537524D01*
X144470381Y-107442286D01*
X144470381Y-107347048D01*
X92718381Y-123658381D02*
X92242190Y-123658381D01*
X92194571Y-124134571D01*
X92242190Y-124086952D01*
X92337428Y-124039333D01*
X92575524Y-124039333D01*
X92670762Y-124086952D01*
X92718381Y-124134571D01*
X92766000Y-124229810D01*
X92766000Y-124467905D01*
X92718381Y-124563143D01*
X92670762Y-124610762D01*
X92575524Y-124658381D01*
X92337428Y-124658381D01*
X92242190Y-124610762D01*
X92194571Y-124563143D01*
X93051714Y-123658381D02*
X93385047Y-124658381D01*
X93718381Y-123658381D01*
X94813619Y-124658381D02*
X94813619Y-123991714D01*
X94813619Y-123658381D02*
X94766000Y-123706000D01*
X94813619Y-123753619D01*
X94861238Y-123706000D01*
X94813619Y-123658381D01*
X94813619Y-123753619D01*
X95242190Y-124610762D02*
X95337428Y-124658381D01*
X95527904Y-124658381D01*
X95623143Y-124610762D01*
X95670762Y-124515524D01*
X95670762Y-124467905D01*
X95623143Y-124372667D01*
X95527904Y-124325048D01*
X95385047Y-124325048D01*
X95289809Y-124277429D01*
X95242190Y-124182190D01*
X95242190Y-124134571D01*
X95289809Y-124039333D01*
X95385047Y-123991714D01*
X95527904Y-123991714D01*
X95623143Y-124039333D01*
X96242190Y-124658381D02*
X96146952Y-124610762D01*
X96099333Y-124563143D01*
X96051714Y-124467905D01*
X96051714Y-124182190D01*
X96099333Y-124086952D01*
X96146952Y-124039333D01*
X96242190Y-123991714D01*
X96385048Y-123991714D01*
X96480286Y-124039333D01*
X96527905Y-124086952D01*
X96575524Y-124182190D01*
X96575524Y-124467905D01*
X96527905Y-124563143D01*
X96480286Y-124610762D01*
X96385048Y-124658381D01*
X96242190Y-124658381D01*
X97146952Y-124658381D02*
X97051714Y-124610762D01*
X97004095Y-124515524D01*
X97004095Y-123658381D01*
X97956477Y-124658381D02*
X97956477Y-124134571D01*
X97908858Y-124039333D01*
X97813620Y-123991714D01*
X97623143Y-123991714D01*
X97527905Y-124039333D01*
X97956477Y-124610762D02*
X97861239Y-124658381D01*
X97623143Y-124658381D01*
X97527905Y-124610762D01*
X97480286Y-124515524D01*
X97480286Y-124420286D01*
X97527905Y-124325048D01*
X97623143Y-124277429D01*
X97861239Y-124277429D01*
X97956477Y-124229810D01*
X98289810Y-123991714D02*
X98670762Y-123991714D01*
X98432667Y-123658381D02*
X98432667Y-124515524D01*
X98480286Y-124610762D01*
X98575524Y-124658381D01*
X98670762Y-124658381D01*
X99385049Y-124610762D02*
X99289811Y-124658381D01*
X99099334Y-124658381D01*
X99004096Y-124610762D01*
X98956477Y-124515524D01*
X98956477Y-124134571D01*
X99004096Y-124039333D01*
X99099334Y-123991714D01*
X99289811Y-123991714D01*
X99385049Y-124039333D01*
X99432668Y-124134571D01*
X99432668Y-124229810D01*
X98956477Y-124325048D01*
X100289811Y-124658381D02*
X100289811Y-123658381D01*
X100289811Y-124610762D02*
X100194573Y-124658381D01*
X100004096Y-124658381D01*
X99908858Y-124610762D01*
X99861239Y-124563143D01*
X99813620Y-124467905D01*
X99813620Y-124182190D01*
X99861239Y-124086952D01*
X99908858Y-124039333D01*
X100004096Y-123991714D01*
X100194573Y-123991714D01*
X100289811Y-124039333D01*
X135064786Y-114053881D02*
X135064786Y-113053881D01*
X135302881Y-113053881D01*
X135445739Y-113101500D01*
X135540977Y-113196738D01*
X135588596Y-113291976D01*
X135636215Y-113482452D01*
X135636215Y-113625310D01*
X135588596Y-113815786D01*
X135540977Y-113911024D01*
X135445739Y-114006262D01*
X135302881Y-114053881D01*
X135064786Y-114053881D01*
X136636215Y-113958643D02*
X136588596Y-114006262D01*
X136445739Y-114053881D01*
X136350501Y-114053881D01*
X136207643Y-114006262D01*
X136112405Y-113911024D01*
X136064786Y-113815786D01*
X136017167Y-113625310D01*
X136017167Y-113482452D01*
X136064786Y-113291976D01*
X136112405Y-113196738D01*
X136207643Y-113101500D01*
X136350501Y-113053881D01*
X136445739Y-113053881D01*
X136588596Y-113101500D01*
X136636215Y-113149119D01*
X137779072Y-113006262D02*
X136921929Y-114291976D01*
X138112405Y-114053881D02*
X138112405Y-113053881D01*
X138350500Y-113053881D01*
X138493358Y-113101500D01*
X138588596Y-113196738D01*
X138636215Y-113291976D01*
X138683834Y-113482452D01*
X138683834Y-113625310D01*
X138636215Y-113815786D01*
X138588596Y-113911024D01*
X138493358Y-114006262D01*
X138350500Y-114053881D01*
X138112405Y-114053881D01*
X139683834Y-113958643D02*
X139636215Y-114006262D01*
X139493358Y-114053881D01*
X139398120Y-114053881D01*
X139255262Y-114006262D01*
X139160024Y-113911024D01*
X139112405Y-113815786D01*
X139064786Y-113625310D01*
X139064786Y-113482452D01*
X139112405Y-113291976D01*
X139160024Y-113196738D01*
X139255262Y-113101500D01*
X139398120Y-113053881D01*
X139493358Y-113053881D01*
X139636215Y-113101500D01*
X139683834Y-113149119D01*
X195603881Y-86931476D02*
X195603881Y-87407667D01*
X196080071Y-87455286D01*
X196032452Y-87407667D01*
X195984833Y-87312429D01*
X195984833Y-87074333D01*
X196032452Y-86979095D01*
X196080071Y-86931476D01*
X196175310Y-86883857D01*
X196413405Y-86883857D01*
X196508643Y-86931476D01*
X196556262Y-86979095D01*
X196603881Y-87074333D01*
X196603881Y-87312429D01*
X196556262Y-87407667D01*
X196508643Y-87455286D01*
X195603881Y-86598143D02*
X196603881Y-86264810D01*
X195603881Y-85931476D01*
X196278667Y-78938381D02*
X196278667Y-77938381D01*
X196659620Y-77938381D01*
X196754858Y-77986000D01*
X196802477Y-78033619D01*
X196850096Y-78128857D01*
X196850096Y-78271714D01*
X196802477Y-78366952D01*
X196754858Y-78414571D01*
X196659620Y-78462190D01*
X196278667Y-78462190D01*
X197183429Y-77938381D02*
X197421524Y-78938381D01*
X197612001Y-78224095D01*
X197802477Y-78938381D01*
X198040572Y-77938381D01*
X198992953Y-78938381D02*
X198659619Y-78462190D01*
X198421524Y-78938381D02*
X198421524Y-77938381D01*
X198802477Y-77938381D01*
X198897715Y-77986000D01*
X198945334Y-78033619D01*
X198992953Y-78128857D01*
X198992953Y-78271714D01*
X198945334Y-78366952D01*
X198897715Y-78414571D01*
X198802477Y-78462190D01*
X198421524Y-78462190D01*
X132112380Y-88590381D02*
X132112380Y-87590381D01*
X132493333Y-87590381D01*
X132588571Y-87638000D01*
X132636190Y-87685619D01*
X132683809Y-87780857D01*
X132683809Y-87923714D01*
X132636190Y-88018952D01*
X132588571Y-88066571D01*
X132493333Y-88114190D01*
X132112380Y-88114190D01*
X133112380Y-88590381D02*
X133112380Y-87590381D01*
X133493333Y-87590381D01*
X133588571Y-87638000D01*
X133636190Y-87685619D01*
X133683809Y-87780857D01*
X133683809Y-87923714D01*
X133636190Y-88018952D01*
X133588571Y-88066571D01*
X133493333Y-88114190D01*
X133112380Y-88114190D01*
X134064761Y-88542762D02*
X134207618Y-88590381D01*
X134445714Y-88590381D01*
X134540952Y-88542762D01*
X134588571Y-88495143D01*
X134636190Y-88399905D01*
X134636190Y-88304667D01*
X134588571Y-88209429D01*
X134540952Y-88161810D01*
X134445714Y-88114190D01*
X134255237Y-88066571D01*
X134159999Y-88018952D01*
X134112380Y-87971333D01*
X134064761Y-87876095D01*
X134064761Y-87780857D01*
X134112380Y-87685619D01*
X134159999Y-87638000D01*
X134255237Y-87590381D01*
X134493333Y-87590381D01*
X134636190Y-87638000D01*
X135779047Y-88542762D02*
X135874285Y-88590381D01*
X136064761Y-88590381D01*
X136160000Y-88542762D01*
X136207619Y-88447524D01*
X136207619Y-88399905D01*
X136160000Y-88304667D01*
X136064761Y-88257048D01*
X135921904Y-88257048D01*
X135826666Y-88209429D01*
X135779047Y-88114190D01*
X135779047Y-88066571D01*
X135826666Y-87971333D01*
X135921904Y-87923714D01*
X136064761Y-87923714D01*
X136160000Y-87971333D01*
X137017143Y-88542762D02*
X136921905Y-88590381D01*
X136731428Y-88590381D01*
X136636190Y-88542762D01*
X136588571Y-88447524D01*
X136588571Y-88066571D01*
X136636190Y-87971333D01*
X136731428Y-87923714D01*
X136921905Y-87923714D01*
X137017143Y-87971333D01*
X137064762Y-88066571D01*
X137064762Y-88161810D01*
X136588571Y-88257048D01*
X137636190Y-88590381D02*
X137540952Y-88542762D01*
X137493333Y-88447524D01*
X137493333Y-87590381D01*
X138398096Y-88542762D02*
X138302858Y-88590381D01*
X138112381Y-88590381D01*
X138017143Y-88542762D01*
X137969524Y-88447524D01*
X137969524Y-88066571D01*
X138017143Y-87971333D01*
X138112381Y-87923714D01*
X138302858Y-87923714D01*
X138398096Y-87971333D01*
X138445715Y-88066571D01*
X138445715Y-88161810D01*
X137969524Y-88257048D01*
X139302858Y-88542762D02*
X139207620Y-88590381D01*
X139017143Y-88590381D01*
X138921905Y-88542762D01*
X138874286Y-88495143D01*
X138826667Y-88399905D01*
X138826667Y-88114190D01*
X138874286Y-88018952D01*
X138921905Y-87971333D01*
X139017143Y-87923714D01*
X139207620Y-87923714D01*
X139302858Y-87971333D01*
X140160001Y-88542762D02*
X140064763Y-88590381D01*
X139874286Y-88590381D01*
X139779048Y-88542762D01*
X139731429Y-88495143D01*
X139683810Y-88399905D01*
X139683810Y-88114190D01*
X139731429Y-88018952D01*
X139779048Y-87971333D01*
X139874286Y-87923714D01*
X140064763Y-87923714D01*
X140160001Y-87971333D01*
X140445715Y-87923714D02*
X140826667Y-87923714D01*
X140588572Y-87590381D02*
X140588572Y-88447524D01*
X140636191Y-88542762D01*
X140731429Y-88590381D01*
X140826667Y-88590381D01*
X141302858Y-88590381D02*
X141207620Y-88542762D01*
X141160001Y-88495143D01*
X141112382Y-88399905D01*
X141112382Y-88114190D01*
X141160001Y-88018952D01*
X141207620Y-87971333D01*
X141302858Y-87923714D01*
X141445716Y-87923714D01*
X141540954Y-87971333D01*
X141588573Y-88018952D01*
X141636192Y-88114190D01*
X141636192Y-88399905D01*
X141588573Y-88495143D01*
X141540954Y-88542762D01*
X141445716Y-88590381D01*
X141302858Y-88590381D01*
X142064763Y-88590381D02*
X142064763Y-87923714D01*
X142064763Y-88114190D02*
X142112382Y-88018952D01*
X142160001Y-87971333D01*
X142255239Y-87923714D01*
X142350478Y-87923714D01*
X184769595Y-77477881D02*
X184769595Y-76477881D01*
X185150548Y-76477881D01*
X185245786Y-76525500D01*
X185293405Y-76573119D01*
X185341024Y-76668357D01*
X185341024Y-76811214D01*
X185293405Y-76906452D01*
X185245786Y-76954071D01*
X185150548Y-77001690D01*
X184769595Y-77001690D01*
X185769595Y-77477881D02*
X185769595Y-76477881D01*
X186150548Y-76477881D01*
X186245786Y-76525500D01*
X186293405Y-76573119D01*
X186341024Y-76668357D01*
X186341024Y-76811214D01*
X186293405Y-76906452D01*
X186245786Y-76954071D01*
X186150548Y-77001690D01*
X185769595Y-77001690D01*
X186721976Y-77430262D02*
X186864833Y-77477881D01*
X187102929Y-77477881D01*
X187198167Y-77430262D01*
X187245786Y-77382643D01*
X187293405Y-77287405D01*
X187293405Y-77192167D01*
X187245786Y-77096929D01*
X187198167Y-77049310D01*
X187102929Y-77001690D01*
X186912452Y-76954071D01*
X186817214Y-76906452D01*
X186769595Y-76858833D01*
X186721976Y-76763595D01*
X186721976Y-76668357D01*
X186769595Y-76573119D01*
X186817214Y-76525500D01*
X186912452Y-76477881D01*
X187150548Y-76477881D01*
X187293405Y-76525500D01*
X188912453Y-77477881D02*
X188912453Y-76477881D01*
X188912453Y-77430262D02*
X188817215Y-77477881D01*
X188626738Y-77477881D01*
X188531500Y-77430262D01*
X188483881Y-77382643D01*
X188436262Y-77287405D01*
X188436262Y-77001690D01*
X188483881Y-76906452D01*
X188531500Y-76858833D01*
X188626738Y-76811214D01*
X188817215Y-76811214D01*
X188912453Y-76858833D01*
X189388643Y-77477881D02*
X189388643Y-76811214D01*
X189388643Y-76477881D02*
X189341024Y-76525500D01*
X189388643Y-76573119D01*
X189436262Y-76525500D01*
X189388643Y-76477881D01*
X189388643Y-76573119D01*
X189864833Y-77477881D02*
X189864833Y-76811214D01*
X189864833Y-77001690D02*
X189912452Y-76906452D01*
X189960071Y-76858833D01*
X190055309Y-76811214D01*
X190150548Y-76811214D01*
X190864834Y-77430262D02*
X190769596Y-77477881D01*
X190579119Y-77477881D01*
X190483881Y-77430262D01*
X190436262Y-77335024D01*
X190436262Y-76954071D01*
X190483881Y-76858833D01*
X190579119Y-76811214D01*
X190769596Y-76811214D01*
X190864834Y-76858833D01*
X190912453Y-76954071D01*
X190912453Y-77049310D01*
X190436262Y-77144548D01*
X191769596Y-77430262D02*
X191674358Y-77477881D01*
X191483881Y-77477881D01*
X191388643Y-77430262D01*
X191341024Y-77382643D01*
X191293405Y-77287405D01*
X191293405Y-77001690D01*
X191341024Y-76906452D01*
X191388643Y-76858833D01*
X191483881Y-76811214D01*
X191674358Y-76811214D01*
X191769596Y-76858833D01*
X192055310Y-76811214D02*
X192436262Y-76811214D01*
X192198167Y-76477881D02*
X192198167Y-77335024D01*
X192245786Y-77430262D01*
X192341024Y-77477881D01*
X192436262Y-77477881D01*
D16*
X197612286Y-122452000D02*
X197326572Y-122309143D01*
X196898001Y-122309143D01*
X196469429Y-122452000D01*
X196183715Y-122737714D01*
X196040858Y-123023429D01*
X195898001Y-123594857D01*
X195898001Y-124023429D01*
X196040858Y-124594857D01*
X196183715Y-124880571D01*
X196469429Y-125166286D01*
X196898001Y-125309143D01*
X197183715Y-125309143D01*
X197612286Y-125166286D01*
X197755143Y-125023429D01*
X197755143Y-124023429D01*
X197183715Y-124023429D01*
X199040858Y-125309143D02*
X199040858Y-122309143D01*
X200755143Y-125309143D01*
X200755143Y-122309143D01*
X202183715Y-125309143D02*
X202183715Y-122309143D01*
X202898000Y-122309143D01*
X203326572Y-122452000D01*
X203612286Y-122737714D01*
X203755143Y-123023429D01*
X203898000Y-123594857D01*
X203898000Y-124023429D01*
X203755143Y-124594857D01*
X203612286Y-124880571D01*
X203326572Y-125166286D01*
X202898000Y-125309143D01*
X202183715Y-125309143D01*
D11*
X189373428Y-95816800D02*
X189278190Y-95769181D01*
X189135333Y-95769181D01*
X188992475Y-95816800D01*
X188897237Y-95912038D01*
X188849618Y-96007276D01*
X188801999Y-96197752D01*
X188801999Y-96340610D01*
X188849618Y-96531086D01*
X188897237Y-96626324D01*
X188992475Y-96721562D01*
X189135333Y-96769181D01*
X189230571Y-96769181D01*
X189373428Y-96721562D01*
X189421047Y-96673943D01*
X189421047Y-96340610D01*
X189230571Y-96340610D01*
X189849618Y-96769181D02*
X189849618Y-95769181D01*
X190230571Y-95769181D01*
X190325809Y-95816800D01*
X190373428Y-95864419D01*
X190421047Y-95959657D01*
X190421047Y-96102514D01*
X190373428Y-96197752D01*
X190325809Y-96245371D01*
X190230571Y-96292990D01*
X189849618Y-96292990D01*
X190801999Y-96721562D02*
X190944856Y-96769181D01*
X191182952Y-96769181D01*
X191278190Y-96721562D01*
X191325809Y-96673943D01*
X191373428Y-96578705D01*
X191373428Y-96483467D01*
X191325809Y-96388229D01*
X191278190Y-96340610D01*
X191182952Y-96292990D01*
X190992475Y-96245371D01*
X190897237Y-96197752D01*
X190849618Y-96150133D01*
X190801999Y-96054895D01*
X190801999Y-95959657D01*
X190849618Y-95864419D01*
X190897237Y-95816800D01*
X190992475Y-95769181D01*
X191230571Y-95769181D01*
X191373428Y-95816800D01*
X191754380Y-95864419D02*
X191801999Y-95816800D01*
X191897237Y-95769181D01*
X192135333Y-95769181D01*
X192230571Y-95816800D01*
X192278190Y-95864419D01*
X192325809Y-95959657D01*
X192325809Y-96054895D01*
X192278190Y-96197752D01*
X191706761Y-96769181D01*
X192325809Y-96769181D01*
X193944857Y-96769181D02*
X193944857Y-96245371D01*
X193897238Y-96150133D01*
X193802000Y-96102514D01*
X193611523Y-96102514D01*
X193516285Y-96150133D01*
X193944857Y-96721562D02*
X193849619Y-96769181D01*
X193611523Y-96769181D01*
X193516285Y-96721562D01*
X193468666Y-96626324D01*
X193468666Y-96531086D01*
X193516285Y-96435848D01*
X193611523Y-96388229D01*
X193849619Y-96388229D01*
X193944857Y-96340610D01*
X194421047Y-96102514D02*
X194421047Y-96769181D01*
X194421047Y-96197752D02*
X194468666Y-96150133D01*
X194563904Y-96102514D01*
X194706762Y-96102514D01*
X194802000Y-96150133D01*
X194849619Y-96245371D01*
X194849619Y-96769181D01*
X195182952Y-96102514D02*
X195563904Y-96102514D01*
X195325809Y-95769181D02*
X195325809Y-96626324D01*
X195373428Y-96721562D01*
X195468666Y-96769181D01*
X195563904Y-96769181D01*
X196659143Y-96102514D02*
X196659143Y-97102514D01*
X196659143Y-96150133D02*
X196754381Y-96102514D01*
X196944858Y-96102514D01*
X197040096Y-96150133D01*
X197087715Y-96197752D01*
X197135334Y-96292990D01*
X197135334Y-96578705D01*
X197087715Y-96673943D01*
X197040096Y-96721562D01*
X196944858Y-96769181D01*
X196754381Y-96769181D01*
X196659143Y-96721562D01*
X197468667Y-96102514D02*
X197659143Y-96769181D01*
X197849620Y-96292990D01*
X198040096Y-96769181D01*
X198230572Y-96102514D01*
X198611524Y-96769181D02*
X198611524Y-96102514D01*
X198611524Y-96292990D02*
X198659143Y-96197752D01*
X198706762Y-96150133D01*
X198802000Y-96102514D01*
X198897239Y-96102514D01*
X135350761Y-100719000D02*
X135255523Y-100671381D01*
X135112666Y-100671381D01*
X134969808Y-100719000D01*
X134874570Y-100814238D01*
X134826951Y-100909476D01*
X134779332Y-101099952D01*
X134779332Y-101242810D01*
X134826951Y-101433286D01*
X134874570Y-101528524D01*
X134969808Y-101623762D01*
X135112666Y-101671381D01*
X135207904Y-101671381D01*
X135350761Y-101623762D01*
X135398380Y-101576143D01*
X135398380Y-101242810D01*
X135207904Y-101242810D01*
X135826951Y-101671381D02*
X135826951Y-100671381D01*
X136207904Y-100671381D01*
X136303142Y-100719000D01*
X136350761Y-100766619D01*
X136398380Y-100861857D01*
X136398380Y-101004714D01*
X136350761Y-101099952D01*
X136303142Y-101147571D01*
X136207904Y-101195190D01*
X135826951Y-101195190D01*
X136779332Y-101623762D02*
X136922189Y-101671381D01*
X137160285Y-101671381D01*
X137255523Y-101623762D01*
X137303142Y-101576143D01*
X137350761Y-101480905D01*
X137350761Y-101385667D01*
X137303142Y-101290429D01*
X137255523Y-101242810D01*
X137160285Y-101195190D01*
X136969808Y-101147571D01*
X136874570Y-101099952D01*
X136826951Y-101052333D01*
X136779332Y-100957095D01*
X136779332Y-100861857D01*
X136826951Y-100766619D01*
X136874570Y-100719000D01*
X136969808Y-100671381D01*
X137207904Y-100671381D01*
X137350761Y-100719000D01*
X138493618Y-101623762D02*
X138588856Y-101671381D01*
X138779332Y-101671381D01*
X138874571Y-101623762D01*
X138922190Y-101528524D01*
X138922190Y-101480905D01*
X138874571Y-101385667D01*
X138779332Y-101338048D01*
X138636475Y-101338048D01*
X138541237Y-101290429D01*
X138493618Y-101195190D01*
X138493618Y-101147571D01*
X138541237Y-101052333D01*
X138636475Y-101004714D01*
X138779332Y-101004714D01*
X138874571Y-101052333D01*
X139731714Y-101623762D02*
X139636476Y-101671381D01*
X139445999Y-101671381D01*
X139350761Y-101623762D01*
X139303142Y-101528524D01*
X139303142Y-101147571D01*
X139350761Y-101052333D01*
X139445999Y-101004714D01*
X139636476Y-101004714D01*
X139731714Y-101052333D01*
X139779333Y-101147571D01*
X139779333Y-101242810D01*
X139303142Y-101338048D01*
X140350761Y-101671381D02*
X140255523Y-101623762D01*
X140207904Y-101528524D01*
X140207904Y-100671381D01*
X141112667Y-101623762D02*
X141017429Y-101671381D01*
X140826952Y-101671381D01*
X140731714Y-101623762D01*
X140684095Y-101528524D01*
X140684095Y-101147571D01*
X140731714Y-101052333D01*
X140826952Y-101004714D01*
X141017429Y-101004714D01*
X141112667Y-101052333D01*
X141160286Y-101147571D01*
X141160286Y-101242810D01*
X140684095Y-101338048D01*
X142017429Y-101623762D02*
X141922191Y-101671381D01*
X141731714Y-101671381D01*
X141636476Y-101623762D01*
X141588857Y-101576143D01*
X141541238Y-101480905D01*
X141541238Y-101195190D01*
X141588857Y-101099952D01*
X141636476Y-101052333D01*
X141731714Y-101004714D01*
X141922191Y-101004714D01*
X142017429Y-101052333D01*
X142303143Y-101004714D02*
X142684095Y-101004714D01*
X142446000Y-100671381D02*
X142446000Y-101528524D01*
X142493619Y-101623762D01*
X142588857Y-101671381D01*
X142684095Y-101671381D01*
X143160286Y-101671381D02*
X143065048Y-101623762D01*
X143017429Y-101576143D01*
X142969810Y-101480905D01*
X142969810Y-101195190D01*
X143017429Y-101099952D01*
X143065048Y-101052333D01*
X143160286Y-101004714D01*
X143303144Y-101004714D01*
X143398382Y-101052333D01*
X143446001Y-101099952D01*
X143493620Y-101195190D01*
X143493620Y-101480905D01*
X143446001Y-101576143D01*
X143398382Y-101623762D01*
X143303144Y-101671381D01*
X143160286Y-101671381D01*
X143922191Y-101671381D02*
X143922191Y-101004714D01*
X143922191Y-101195190D02*
X143969810Y-101099952D01*
X144017429Y-101052333D01*
X144112667Y-101004714D01*
X144207906Y-101004714D01*
%LPC*%
D18*
X100398000Y-107694000D03*
D19*
X89418000Y-101854000D03*
X89418000Y-114554000D03*
D20*
X89418000Y-99544000D03*
X89418000Y-116864000D03*
D18*
X100398000Y-108714000D03*
X100398000Y-109734000D03*
X100398000Y-106674000D03*
X100398000Y-110754000D03*
X100398000Y-105654000D03*
X100398000Y-104634000D03*
X100398000Y-111774000D03*
D21*
X156210000Y-108560000D03*
X158750000Y-108560000D03*
X161290000Y-108560000D03*
X163830000Y-108560000D03*
X166370000Y-108560000D03*
X168910000Y-108560000D03*
X168910000Y-89560000D03*
X166370000Y-89560000D03*
X163830000Y-89560000D03*
X161290000Y-89560000D03*
X158750000Y-89560000D03*
X156210000Y-89560000D03*
D22*
X122572000Y-84963000D03*
X122572000Y-83693000D03*
X122572000Y-82423000D03*
X122572000Y-81153000D03*
X115172000Y-81153000D03*
X115172000Y-82423000D03*
X115172000Y-83693000D03*
X115172000Y-84963000D03*
X122572000Y-94615000D03*
X122572000Y-93345000D03*
X122572000Y-92075000D03*
X122572000Y-90805000D03*
X115172000Y-90805000D03*
X115172000Y-92075000D03*
X115172000Y-93345000D03*
X115172000Y-94615000D03*
D23*
X123952000Y-110710000D03*
X116332000Y-110710000D03*
X123952000Y-100110000D03*
X121412000Y-100110000D03*
X116332000Y-100110000D03*
D24*
X183642000Y-96266000D03*
D25*
X185642000Y-96266000D03*
X183642000Y-98266000D03*
X185642000Y-98266000D03*
X183642000Y-100266000D03*
X185642000Y-100266000D03*
X183642000Y-102266000D03*
X185642000Y-102266000D03*
D26*
X201930000Y-84328000D03*
X207930000Y-84328000D03*
X204930000Y-79628000D03*
D27*
X131034000Y-104140000D03*
X133634000Y-104140000D03*
D28*
X184341000Y-109220000D03*
X192341000Y-109220000D03*
D29*
X179578000Y-98028000D03*
X179578000Y-96028000D03*
D30*
X163560000Y-110363000D03*
X161560000Y-110363000D03*
X163560000Y-112014000D03*
X161560000Y-112014000D03*
X163560000Y-113792000D03*
X161560000Y-113792000D03*
X133334000Y-101092000D03*
X131334000Y-101092000D03*
D29*
X111506000Y-119110000D03*
X111506000Y-117110000D03*
X126238000Y-79740000D03*
X126238000Y-77740000D03*
X129286000Y-79740000D03*
X129286000Y-77740000D03*
D30*
X208010000Y-105918000D03*
X206010000Y-105918000D03*
X208010000Y-103632000D03*
X206010000Y-103632000D03*
X208010000Y-100330000D03*
X206010000Y-100330000D03*
X208010000Y-98044000D03*
X206010000Y-98044000D03*
X208010000Y-94742000D03*
X206010000Y-94742000D03*
X208010000Y-92456000D03*
X206010000Y-92456000D03*
X207248000Y-90043000D03*
X205248000Y-90043000D03*
X156765500Y-117538500D03*
X154765500Y-117538500D03*
D29*
X181102000Y-96028000D03*
X181102000Y-98028000D03*
D30*
X168005000Y-114808000D03*
X166005000Y-114808000D03*
X111236000Y-120650000D03*
X109236000Y-120650000D03*
X173593000Y-80518000D03*
X171593000Y-80518000D03*
X160671000Y-80518000D03*
X162671000Y-80518000D03*
X106410000Y-124714000D03*
X104410000Y-124714000D03*
D29*
X98298000Y-94980000D03*
X98298000Y-92980000D03*
X98298000Y-85328000D03*
X98298000Y-83328000D03*
D31*
X158938000Y-78502000D03*
X157038000Y-78502000D03*
X157988000Y-80502000D03*
X177226000Y-78502000D03*
X175326000Y-78502000D03*
X176276000Y-80502000D03*
D32*
X175260000Y-73210000D03*
D33*
X179640000Y-73210000D03*
X170880000Y-73210000D03*
D32*
X156972000Y-73210000D03*
D33*
X161352000Y-73210000D03*
X152592000Y-73210000D03*
D34*
X184150000Y-122936000D03*
D35*
X181610000Y-122936000D03*
X179070000Y-122936000D03*
X176530000Y-122936000D03*
D34*
X171450000Y-122936000D03*
D35*
X168910000Y-122936000D03*
X166370000Y-122936000D03*
X163830000Y-122936000D03*
D34*
X143510000Y-122936000D03*
D35*
X140970000Y-122936000D03*
X138430000Y-122936000D03*
X135890000Y-122936000D03*
D34*
X130048000Y-122936000D03*
D36*
X127508000Y-122936000D03*
D35*
X124968000Y-122936000D03*
X122428000Y-122936000D03*
D28*
X191960000Y-84201000D03*
X183960000Y-84201000D03*
D22*
X110126000Y-84963000D03*
X110126000Y-83693000D03*
X110126000Y-82423000D03*
X110126000Y-81153000D03*
X102726000Y-81153000D03*
X102726000Y-82423000D03*
X102726000Y-83693000D03*
X102726000Y-84963000D03*
X110126000Y-94615000D03*
X110126000Y-93345000D03*
X110126000Y-92075000D03*
X110126000Y-90805000D03*
X102726000Y-90805000D03*
X102726000Y-92075000D03*
X102726000Y-93345000D03*
X102726000Y-94615000D03*
D37*
X134432000Y-107188000D03*
X138872000Y-107188000D03*
D38*
X115062000Y-118994000D03*
X115062000Y-115194000D03*
D37*
X110302000Y-123190000D03*
X114742000Y-123190000D03*
X194752000Y-91186000D03*
X190312000Y-91186000D03*
X153985000Y-120396000D03*
X149545000Y-120396000D03*
D39*
X141732000Y-107508000D03*
X141732000Y-111948000D03*
D37*
X94046000Y-121920000D03*
X98486000Y-121920000D03*
X129606000Y-112014000D03*
X134046000Y-112014000D03*
D39*
X198247000Y-88961000D03*
X198247000Y-84521000D03*
D37*
X195392000Y-80772000D03*
X199832000Y-80772000D03*
D39*
X164846000Y-77150000D03*
X164846000Y-72710000D03*
D37*
X134940000Y-80518000D03*
X134940000Y-83058000D03*
X139380000Y-80518000D03*
X139380000Y-83058000D03*
X134940000Y-85598000D03*
X139380000Y-85598000D03*
D39*
X183007000Y-77023000D03*
X183007000Y-72583000D03*
D40*
X207898000Y-123952000D03*
X191898000Y-123952000D03*
D41*
X189992000Y-98298000D03*
X192532000Y-98298000D03*
X195072000Y-98298000D03*
X141986000Y-98679000D03*
X139446000Y-98679000D03*
X136906000Y-98679000D03*
D42*
X209550000Y-74930000D03*
D43*
X209550000Y-72390000D03*
X207010000Y-74930000D03*
X207010000Y-72390000D03*
X204470000Y-74930000D03*
X204470000Y-72390000D03*
X201930000Y-74930000D03*
X201930000Y-72390000D03*
X199390000Y-74930000D03*
X199390000Y-72390000D03*
X196850000Y-74930000D03*
X196850000Y-72390000D03*
X194310000Y-74930000D03*
X194310000Y-72390000D03*
X191770000Y-74930000D03*
X191770000Y-72390000D03*
X189230000Y-74930000D03*
X189230000Y-72390000D03*
X186690000Y-74930000D03*
X186690000Y-72390000D03*
D42*
X209550000Y-118110000D03*
D43*
X209550000Y-115570000D03*
X207010000Y-118110000D03*
X207010000Y-115570000D03*
X204470000Y-118110000D03*
X204470000Y-115570000D03*
X201930000Y-118110000D03*
X201930000Y-115570000D03*
X199390000Y-118110000D03*
X199390000Y-115570000D03*
X196850000Y-118110000D03*
X196850000Y-115570000D03*
X194310000Y-118110000D03*
X194310000Y-115570000D03*
X191770000Y-118110000D03*
X191770000Y-115570000D03*
X189230000Y-118110000D03*
X189230000Y-115570000D03*
X186690000Y-118110000D03*
X186690000Y-115570000D03*
D42*
X146050000Y-118110000D03*
D43*
X146050000Y-115570000D03*
X143510000Y-118110000D03*
X143510000Y-115570000D03*
X140970000Y-118110000D03*
X140970000Y-115570000D03*
X138430000Y-118110000D03*
X138430000Y-115570000D03*
X135890000Y-118110000D03*
X135890000Y-115570000D03*
X133350000Y-118110000D03*
X133350000Y-115570000D03*
X130810000Y-118110000D03*
X130810000Y-115570000D03*
X128270000Y-118110000D03*
X128270000Y-115570000D03*
X125730000Y-118110000D03*
X125730000Y-115570000D03*
X123190000Y-118110000D03*
X123190000Y-115570000D03*
D42*
X146050000Y-74930000D03*
D43*
X146050000Y-72390000D03*
X143510000Y-74930000D03*
X143510000Y-72390000D03*
X140970000Y-74930000D03*
X140970000Y-72390000D03*
X138430000Y-74930000D03*
X138430000Y-72390000D03*
X135890000Y-74930000D03*
X135890000Y-72390000D03*
X133350000Y-74930000D03*
X133350000Y-72390000D03*
X130810000Y-74930000D03*
X130810000Y-72390000D03*
X128270000Y-74930000D03*
X128270000Y-72390000D03*
X125730000Y-74930000D03*
X125730000Y-72390000D03*
X123190000Y-74930000D03*
X123190000Y-72390000D03*
M02*
