G04 #@! TF.FileFunction,Legend,Bot*
%FSLAX46Y46*%
G04 Gerber Fmt 4.6, Leading zero omitted, Abs format (unit mm)*
G04 Created by KiCad (PCBNEW 4.0.7) date 10/29/17 22:26:03*
%MOMM*%
%LPD*%
G01*
G04 APERTURE LIST*
%ADD10C,0.100000*%
%ADD11C,0.200000*%
%ADD12C,0.300000*%
%ADD13C,0.500000*%
%ADD14C,0.400000*%
%ADD15C,0.150000*%
%ADD16C,3.620000*%
%ADD17R,1.620000X2.020000*%
%ADD18R,1.670000X1.670000*%
%ADD19O,1.670000X1.670000*%
%ADD20R,3.820000X3.820000*%
%ADD21R,1.320000X1.570000*%
%ADD22R,1.570000X1.320000*%
%ADD23R,2.740000X5.400000*%
%ADD24R,2.320000X2.920000*%
%ADD25O,2.320000X2.920000*%
%ADD26O,2.240000X2.840000*%
%ADD27R,2.820000X2.120000*%
%ADD28R,3.870000X0.920000*%
%ADD29R,3.820000X0.920000*%
%ADD30R,4.920000X1.420000*%
%ADD31R,10.730000X11.120000*%
%ADD32C,3.320000*%
%ADD33C,2.320000*%
%ADD34R,2.020000X2.020000*%
%ADD35O,2.020000X2.020000*%
%ADD36R,1.020000X1.620000*%
G04 APERTURE END LIST*
D10*
D11*
X210100171Y-79899430D02*
X210100171Y-79613716D01*
X210171600Y-79470859D01*
X210243029Y-79399430D01*
X210457314Y-79256573D01*
X210743029Y-79185144D01*
X211314457Y-79185144D01*
X211457314Y-79256573D01*
X211528743Y-79328001D01*
X211600171Y-79470859D01*
X211600171Y-79756573D01*
X211528743Y-79899430D01*
X211457314Y-79970859D01*
X211314457Y-80042287D01*
X210957314Y-80042287D01*
X210814457Y-79970859D01*
X210743029Y-79899430D01*
X210671600Y-79756573D01*
X210671600Y-79470859D01*
X210743029Y-79328001D01*
X210814457Y-79256573D01*
X210957314Y-79185144D01*
X211457314Y-80685144D02*
X211528743Y-80756572D01*
X211600171Y-80685144D01*
X211528743Y-80613715D01*
X211457314Y-80685144D01*
X211600171Y-80685144D01*
X210100171Y-82113716D02*
X210100171Y-81399430D01*
X210814457Y-81328001D01*
X210743029Y-81399430D01*
X210671600Y-81542287D01*
X210671600Y-81899430D01*
X210743029Y-82042287D01*
X210814457Y-82113716D01*
X210957314Y-82185144D01*
X211314457Y-82185144D01*
X211457314Y-82113716D01*
X211528743Y-82042287D01*
X211600171Y-81899430D01*
X211600171Y-81542287D01*
X211528743Y-81399430D01*
X211457314Y-81328001D01*
X210100171Y-82613715D02*
X211600171Y-83113715D01*
X210100171Y-83613715D01*
X211028743Y-84113715D02*
X211028743Y-85256572D01*
X210243029Y-85899429D02*
X210171600Y-85970858D01*
X210100171Y-86113715D01*
X210100171Y-86470858D01*
X210171600Y-86613715D01*
X210243029Y-86685144D01*
X210385886Y-86756572D01*
X210528743Y-86756572D01*
X210743029Y-86685144D01*
X211600171Y-85828001D01*
X211600171Y-86756572D01*
X210100171Y-87685143D02*
X210100171Y-87828000D01*
X210171600Y-87970857D01*
X210243029Y-88042286D01*
X210385886Y-88113715D01*
X210671600Y-88185143D01*
X211028743Y-88185143D01*
X211314457Y-88113715D01*
X211457314Y-88042286D01*
X211528743Y-87970857D01*
X211600171Y-87828000D01*
X211600171Y-87685143D01*
X211528743Y-87542286D01*
X211457314Y-87470857D01*
X211314457Y-87399429D01*
X211028743Y-87328000D01*
X210671600Y-87328000D01*
X210385886Y-87399429D01*
X210243029Y-87470857D01*
X210171600Y-87542286D01*
X210100171Y-87685143D01*
X210100171Y-88613714D02*
X211600171Y-89113714D01*
X210100171Y-89613714D01*
X192278000Y-86055200D02*
X194564000Y-86055200D01*
X192278000Y-82600800D02*
X192278000Y-86055200D01*
X194564000Y-82600800D02*
X192278000Y-82600800D01*
X192938400Y-89662000D02*
X194056000Y-89662000D01*
X192938400Y-87122000D02*
X192938400Y-89662000D01*
X194056000Y-87122000D02*
X192938400Y-87122000D01*
X194970400Y-81280000D02*
X196291200Y-81280000D01*
X194970400Y-81229200D02*
X194970400Y-81280000D01*
X194970400Y-78232000D02*
X194970400Y-81229200D01*
X196291200Y-78232000D02*
X194970400Y-78232000D01*
D12*
X129734285Y-100856171D02*
X129734285Y-99356171D01*
X129091428Y-99499029D02*
X129019999Y-99427600D01*
X128877142Y-99356171D01*
X128519999Y-99356171D01*
X128377142Y-99427600D01*
X128305713Y-99499029D01*
X128234285Y-99641886D01*
X128234285Y-99784743D01*
X128305713Y-99999029D01*
X129162856Y-100856171D01*
X128234285Y-100856171D01*
X126734285Y-100713314D02*
X126805714Y-100784743D01*
X127020000Y-100856171D01*
X127162857Y-100856171D01*
X127377142Y-100784743D01*
X127520000Y-100641886D01*
X127591428Y-100499029D01*
X127662857Y-100213314D01*
X127662857Y-99999029D01*
X127591428Y-99713314D01*
X127520000Y-99570457D01*
X127377142Y-99427600D01*
X127162857Y-99356171D01*
X127020000Y-99356171D01*
X126805714Y-99427600D01*
X126734285Y-99499029D01*
X131295828Y-104564571D02*
X132152971Y-104564571D01*
X131724399Y-104564571D02*
X131724399Y-103064571D01*
X131867256Y-103278857D01*
X132010114Y-103421714D01*
X132152971Y-103493143D01*
X124744172Y-103064571D02*
X124887029Y-103064571D01*
X125029886Y-103136000D01*
X125101315Y-103207429D01*
X125172744Y-103350286D01*
X125244172Y-103636000D01*
X125244172Y-103993143D01*
X125172744Y-104278857D01*
X125101315Y-104421714D01*
X125029886Y-104493143D01*
X124887029Y-104564571D01*
X124744172Y-104564571D01*
X124601315Y-104493143D01*
X124529886Y-104421714D01*
X124458458Y-104278857D01*
X124387029Y-103993143D01*
X124387029Y-103636000D01*
X124458458Y-103350286D01*
X124529886Y-103207429D01*
X124601315Y-103136000D01*
X124744172Y-103064571D01*
D13*
X99705000Y-123460000D02*
X99705000Y-125460000D01*
D14*
X127381000Y-111379000D02*
X127762000Y-111633000D01*
X127762000Y-111633000D02*
X127762000Y-111125000D01*
X127762000Y-111125000D02*
X127381000Y-111379000D01*
X127381000Y-111379000D02*
X127635000Y-111379000D01*
X195707000Y-111887000D02*
X196088000Y-112141000D01*
X196088000Y-112141000D02*
X196088000Y-111633000D01*
X196088000Y-111633000D02*
X195707000Y-111887000D01*
X195707000Y-111887000D02*
X195961000Y-111887000D01*
D11*
X97734286Y-122981981D02*
X97734286Y-121981981D01*
X97496191Y-121981981D01*
X97353333Y-122029600D01*
X97258095Y-122124838D01*
X97210476Y-122220076D01*
X97162857Y-122410552D01*
X97162857Y-122553410D01*
X97210476Y-122743886D01*
X97258095Y-122839124D01*
X97353333Y-122934362D01*
X97496191Y-122981981D01*
X97734286Y-122981981D01*
X96210476Y-122981981D02*
X96781905Y-122981981D01*
X96496191Y-122981981D02*
X96496191Y-121981981D01*
X96591429Y-122124838D01*
X96686667Y-122220076D01*
X96781905Y-122267695D01*
X95353333Y-121981981D02*
X95543810Y-121981981D01*
X95639048Y-122029600D01*
X95686667Y-122077219D01*
X95781905Y-122220076D01*
X95829524Y-122410552D01*
X95829524Y-122791505D01*
X95781905Y-122886743D01*
X95734286Y-122934362D01*
X95639048Y-122981981D01*
X95448571Y-122981981D01*
X95353333Y-122934362D01*
X95305714Y-122886743D01*
X95258095Y-122791505D01*
X95258095Y-122553410D01*
X95305714Y-122458171D01*
X95353333Y-122410552D01*
X95448571Y-122362933D01*
X95639048Y-122362933D01*
X95734286Y-122410552D01*
X95781905Y-122458171D01*
X95829524Y-122553410D01*
X134024666Y-113387143D02*
X134072285Y-113434762D01*
X134215142Y-113482381D01*
X134310380Y-113482381D01*
X134453238Y-113434762D01*
X134548476Y-113339524D01*
X134596095Y-113244286D01*
X134643714Y-113053810D01*
X134643714Y-112910952D01*
X134596095Y-112720476D01*
X134548476Y-112625238D01*
X134453238Y-112530000D01*
X134310380Y-112482381D01*
X134215142Y-112482381D01*
X134072285Y-112530000D01*
X134024666Y-112577619D01*
X133072285Y-113482381D02*
X133643714Y-113482381D01*
X133358000Y-113482381D02*
X133358000Y-112482381D01*
X133453238Y-112625238D01*
X133548476Y-112720476D01*
X133643714Y-112768095D01*
X188888666Y-79300343D02*
X188936285Y-79347962D01*
X189079142Y-79395581D01*
X189174380Y-79395581D01*
X189317238Y-79347962D01*
X189412476Y-79252724D01*
X189460095Y-79157486D01*
X189507714Y-78967010D01*
X189507714Y-78824152D01*
X189460095Y-78633676D01*
X189412476Y-78538438D01*
X189317238Y-78443200D01*
X189174380Y-78395581D01*
X189079142Y-78395581D01*
X188936285Y-78443200D01*
X188888666Y-78490819D01*
X188555333Y-78395581D02*
X187936285Y-78395581D01*
X188269619Y-78776533D01*
X188126761Y-78776533D01*
X188031523Y-78824152D01*
X187983904Y-78871771D01*
X187936285Y-78967010D01*
X187936285Y-79205105D01*
X187983904Y-79300343D01*
X188031523Y-79347962D01*
X188126761Y-79395581D01*
X188412476Y-79395581D01*
X188507714Y-79347962D01*
X188555333Y-79300343D01*
X191936666Y-91035143D02*
X191984285Y-91082762D01*
X192127142Y-91130381D01*
X192222380Y-91130381D01*
X192365238Y-91082762D01*
X192460476Y-90987524D01*
X192508095Y-90892286D01*
X192555714Y-90701810D01*
X192555714Y-90558952D01*
X192508095Y-90368476D01*
X192460476Y-90273238D01*
X192365238Y-90178000D01*
X192222380Y-90130381D01*
X192127142Y-90130381D01*
X191984285Y-90178000D01*
X191936666Y-90225619D01*
X191079523Y-90463714D02*
X191079523Y-91130381D01*
X191317619Y-90082762D02*
X191555714Y-90797048D01*
X190936666Y-90797048D01*
X178207943Y-96861334D02*
X178255562Y-96813715D01*
X178303181Y-96670858D01*
X178303181Y-96575620D01*
X178255562Y-96432762D01*
X178160324Y-96337524D01*
X178065086Y-96289905D01*
X177874610Y-96242286D01*
X177731752Y-96242286D01*
X177541276Y-96289905D01*
X177446038Y-96337524D01*
X177350800Y-96432762D01*
X177303181Y-96575620D01*
X177303181Y-96670858D01*
X177350800Y-96813715D01*
X177398419Y-96861334D01*
X178303181Y-97337524D02*
X178303181Y-97528000D01*
X178255562Y-97623239D01*
X178207943Y-97670858D01*
X178065086Y-97766096D01*
X177874610Y-97813715D01*
X177493657Y-97813715D01*
X177398419Y-97766096D01*
X177350800Y-97718477D01*
X177303181Y-97623239D01*
X177303181Y-97432762D01*
X177350800Y-97337524D01*
X177398419Y-97289905D01*
X177493657Y-97242286D01*
X177731752Y-97242286D01*
X177826990Y-97289905D01*
X177874610Y-97337524D01*
X177922229Y-97432762D01*
X177922229Y-97623239D01*
X177874610Y-97718477D01*
X177826990Y-97766096D01*
X177731752Y-97813715D01*
X181509943Y-99687143D02*
X181557562Y-99639524D01*
X181605181Y-99496667D01*
X181605181Y-99401429D01*
X181557562Y-99258571D01*
X181462324Y-99163333D01*
X181367086Y-99115714D01*
X181176610Y-99068095D01*
X181033752Y-99068095D01*
X180843276Y-99115714D01*
X180748038Y-99163333D01*
X180652800Y-99258571D01*
X180605181Y-99401429D01*
X180605181Y-99496667D01*
X180652800Y-99639524D01*
X180700419Y-99687143D01*
X181605181Y-100639524D02*
X181605181Y-100068095D01*
X181605181Y-100353809D02*
X180605181Y-100353809D01*
X180748038Y-100258571D01*
X180843276Y-100163333D01*
X180890895Y-100068095D01*
X180605181Y-101258571D02*
X180605181Y-101353810D01*
X180652800Y-101449048D01*
X180700419Y-101496667D01*
X180795657Y-101544286D01*
X180986133Y-101591905D01*
X181224229Y-101591905D01*
X181414705Y-101544286D01*
X181509943Y-101496667D01*
X181557562Y-101449048D01*
X181605181Y-101353810D01*
X181605181Y-101258571D01*
X181557562Y-101163333D01*
X181509943Y-101115714D01*
X181414705Y-101068095D01*
X181224229Y-101020476D01*
X180986133Y-101020476D01*
X180795657Y-101068095D01*
X180700419Y-101115714D01*
X180652800Y-101163333D01*
X180605181Y-101258571D01*
X201506057Y-100941143D02*
X201553676Y-100988762D01*
X201696533Y-101036381D01*
X201791771Y-101036381D01*
X201934629Y-100988762D01*
X202029867Y-100893524D01*
X202077486Y-100798286D01*
X202125105Y-100607810D01*
X202125105Y-100464952D01*
X202077486Y-100274476D01*
X202029867Y-100179238D01*
X201934629Y-100084000D01*
X201791771Y-100036381D01*
X201696533Y-100036381D01*
X201553676Y-100084000D01*
X201506057Y-100131619D01*
X200553676Y-101036381D02*
X201125105Y-101036381D01*
X200839391Y-101036381D02*
X200839391Y-100036381D01*
X200934629Y-100179238D01*
X201029867Y-100274476D01*
X201125105Y-100322095D01*
X199601295Y-101036381D02*
X200172724Y-101036381D01*
X199887010Y-101036381D02*
X199887010Y-100036381D01*
X199982248Y-100179238D01*
X200077486Y-100274476D01*
X200172724Y-100322095D01*
X191295257Y-100890343D02*
X191342876Y-100937962D01*
X191485733Y-100985581D01*
X191580971Y-100985581D01*
X191723829Y-100937962D01*
X191819067Y-100842724D01*
X191866686Y-100747486D01*
X191914305Y-100557010D01*
X191914305Y-100414152D01*
X191866686Y-100223676D01*
X191819067Y-100128438D01*
X191723829Y-100033200D01*
X191580971Y-99985581D01*
X191485733Y-99985581D01*
X191342876Y-100033200D01*
X191295257Y-100080819D01*
X190342876Y-100985581D02*
X190914305Y-100985581D01*
X190628591Y-100985581D02*
X190628591Y-99985581D01*
X190723829Y-100128438D01*
X190819067Y-100223676D01*
X190914305Y-100271295D01*
X189961924Y-100080819D02*
X189914305Y-100033200D01*
X189819067Y-99985581D01*
X189580971Y-99985581D01*
X189485733Y-100033200D01*
X189438114Y-100080819D01*
X189390495Y-100176057D01*
X189390495Y-100271295D01*
X189438114Y-100414152D01*
X190009543Y-100985581D01*
X189390495Y-100985581D01*
X123699543Y-92067143D02*
X123747162Y-92019524D01*
X123794781Y-91876667D01*
X123794781Y-91781429D01*
X123747162Y-91638571D01*
X123651924Y-91543333D01*
X123556686Y-91495714D01*
X123366210Y-91448095D01*
X123223352Y-91448095D01*
X123032876Y-91495714D01*
X122937638Y-91543333D01*
X122842400Y-91638571D01*
X122794781Y-91781429D01*
X122794781Y-91876667D01*
X122842400Y-92019524D01*
X122890019Y-92067143D01*
X123794781Y-93019524D02*
X123794781Y-92448095D01*
X123794781Y-92733809D02*
X122794781Y-92733809D01*
X122937638Y-92638571D01*
X123032876Y-92543333D01*
X123080495Y-92448095D01*
X122794781Y-93352857D02*
X122794781Y-94019524D01*
X123794781Y-93590952D01*
X123699543Y-82415143D02*
X123747162Y-82367524D01*
X123794781Y-82224667D01*
X123794781Y-82129429D01*
X123747162Y-81986571D01*
X123651924Y-81891333D01*
X123556686Y-81843714D01*
X123366210Y-81796095D01*
X123223352Y-81796095D01*
X123032876Y-81843714D01*
X122937638Y-81891333D01*
X122842400Y-81986571D01*
X122794781Y-82129429D01*
X122794781Y-82224667D01*
X122842400Y-82367524D01*
X122890019Y-82415143D01*
X123794781Y-83367524D02*
X123794781Y-82796095D01*
X123794781Y-83081809D02*
X122794781Y-83081809D01*
X122937638Y-82986571D01*
X123032876Y-82891333D01*
X123080495Y-82796095D01*
X123223352Y-83938952D02*
X123175733Y-83843714D01*
X123128114Y-83796095D01*
X123032876Y-83748476D01*
X122985257Y-83748476D01*
X122890019Y-83796095D01*
X122842400Y-83843714D01*
X122794781Y-83938952D01*
X122794781Y-84129429D01*
X122842400Y-84224667D01*
X122890019Y-84272286D01*
X122985257Y-84319905D01*
X123032876Y-84319905D01*
X123128114Y-84272286D01*
X123175733Y-84224667D01*
X123223352Y-84129429D01*
X123223352Y-83938952D01*
X123270971Y-83843714D01*
X123318590Y-83796095D01*
X123413829Y-83748476D01*
X123604305Y-83748476D01*
X123699543Y-83796095D01*
X123747162Y-83843714D01*
X123794781Y-83938952D01*
X123794781Y-84129429D01*
X123747162Y-84224667D01*
X123699543Y-84272286D01*
X123604305Y-84319905D01*
X123413829Y-84319905D01*
X123318590Y-84272286D01*
X123270971Y-84224667D01*
X123223352Y-84129429D01*
X114758743Y-92067143D02*
X114806362Y-92019524D01*
X114853981Y-91876667D01*
X114853981Y-91781429D01*
X114806362Y-91638571D01*
X114711124Y-91543333D01*
X114615886Y-91495714D01*
X114425410Y-91448095D01*
X114282552Y-91448095D01*
X114092076Y-91495714D01*
X113996838Y-91543333D01*
X113901600Y-91638571D01*
X113853981Y-91781429D01*
X113853981Y-91876667D01*
X113901600Y-92019524D01*
X113949219Y-92067143D01*
X114853981Y-93019524D02*
X114853981Y-92448095D01*
X114853981Y-92733809D02*
X113853981Y-92733809D01*
X113996838Y-92638571D01*
X114092076Y-92543333D01*
X114139695Y-92448095D01*
X114853981Y-93495714D02*
X114853981Y-93686190D01*
X114806362Y-93781429D01*
X114758743Y-93829048D01*
X114615886Y-93924286D01*
X114425410Y-93971905D01*
X114044457Y-93971905D01*
X113949219Y-93924286D01*
X113901600Y-93876667D01*
X113853981Y-93781429D01*
X113853981Y-93590952D01*
X113901600Y-93495714D01*
X113949219Y-93448095D01*
X114044457Y-93400476D01*
X114282552Y-93400476D01*
X114377790Y-93448095D01*
X114425410Y-93495714D01*
X114473029Y-93590952D01*
X114473029Y-93781429D01*
X114425410Y-93876667D01*
X114377790Y-93924286D01*
X114282552Y-93971905D01*
X114758743Y-82465943D02*
X114806362Y-82418324D01*
X114853981Y-82275467D01*
X114853981Y-82180229D01*
X114806362Y-82037371D01*
X114711124Y-81942133D01*
X114615886Y-81894514D01*
X114425410Y-81846895D01*
X114282552Y-81846895D01*
X114092076Y-81894514D01*
X113996838Y-81942133D01*
X113901600Y-82037371D01*
X113853981Y-82180229D01*
X113853981Y-82275467D01*
X113901600Y-82418324D01*
X113949219Y-82465943D01*
X113949219Y-82846895D02*
X113901600Y-82894514D01*
X113853981Y-82989752D01*
X113853981Y-83227848D01*
X113901600Y-83323086D01*
X113949219Y-83370705D01*
X114044457Y-83418324D01*
X114139695Y-83418324D01*
X114282552Y-83370705D01*
X114853981Y-82799276D01*
X114853981Y-83418324D01*
X113853981Y-84037371D02*
X113853981Y-84132610D01*
X113901600Y-84227848D01*
X113949219Y-84275467D01*
X114044457Y-84323086D01*
X114234933Y-84370705D01*
X114473029Y-84370705D01*
X114663505Y-84323086D01*
X114758743Y-84275467D01*
X114806362Y-84227848D01*
X114853981Y-84132610D01*
X114853981Y-84037371D01*
X114806362Y-83942133D01*
X114758743Y-83894514D01*
X114663505Y-83846895D01*
X114473029Y-83799276D01*
X114234933Y-83799276D01*
X114044457Y-83846895D01*
X113949219Y-83894514D01*
X113901600Y-83942133D01*
X113853981Y-84037371D01*
X109018343Y-92067143D02*
X109065962Y-92019524D01*
X109113581Y-91876667D01*
X109113581Y-91781429D01*
X109065962Y-91638571D01*
X108970724Y-91543333D01*
X108875486Y-91495714D01*
X108685010Y-91448095D01*
X108542152Y-91448095D01*
X108351676Y-91495714D01*
X108256438Y-91543333D01*
X108161200Y-91638571D01*
X108113581Y-91781429D01*
X108113581Y-91876667D01*
X108161200Y-92019524D01*
X108208819Y-92067143D01*
X108208819Y-92448095D02*
X108161200Y-92495714D01*
X108113581Y-92590952D01*
X108113581Y-92829048D01*
X108161200Y-92924286D01*
X108208819Y-92971905D01*
X108304057Y-93019524D01*
X108399295Y-93019524D01*
X108542152Y-92971905D01*
X109113581Y-92400476D01*
X109113581Y-93019524D01*
X108208819Y-93400476D02*
X108161200Y-93448095D01*
X108113581Y-93543333D01*
X108113581Y-93781429D01*
X108161200Y-93876667D01*
X108208819Y-93924286D01*
X108304057Y-93971905D01*
X108399295Y-93971905D01*
X108542152Y-93924286D01*
X109113581Y-93352857D01*
X109113581Y-93971905D01*
X108916743Y-82719943D02*
X108964362Y-82672324D01*
X109011981Y-82529467D01*
X109011981Y-82434229D01*
X108964362Y-82291371D01*
X108869124Y-82196133D01*
X108773886Y-82148514D01*
X108583410Y-82100895D01*
X108440552Y-82100895D01*
X108250076Y-82148514D01*
X108154838Y-82196133D01*
X108059600Y-82291371D01*
X108011981Y-82434229D01*
X108011981Y-82529467D01*
X108059600Y-82672324D01*
X108107219Y-82719943D01*
X108107219Y-83100895D02*
X108059600Y-83148514D01*
X108011981Y-83243752D01*
X108011981Y-83481848D01*
X108059600Y-83577086D01*
X108107219Y-83624705D01*
X108202457Y-83672324D01*
X108297695Y-83672324D01*
X108440552Y-83624705D01*
X109011981Y-83053276D01*
X109011981Y-83672324D01*
X108011981Y-84005657D02*
X108011981Y-84624705D01*
X108392933Y-84291371D01*
X108392933Y-84434229D01*
X108440552Y-84529467D01*
X108488171Y-84577086D01*
X108583410Y-84624705D01*
X108821505Y-84624705D01*
X108916743Y-84577086D01*
X108964362Y-84529467D01*
X109011981Y-84434229D01*
X109011981Y-84148514D01*
X108964362Y-84053276D01*
X108916743Y-84005657D01*
X124931466Y-125775981D02*
X125264800Y-125299790D01*
X125502895Y-125775981D02*
X125502895Y-124775981D01*
X125121942Y-124775981D01*
X125026704Y-124823600D01*
X124979085Y-124871219D01*
X124931466Y-124966457D01*
X124931466Y-125109314D01*
X124979085Y-125204552D01*
X125026704Y-125252171D01*
X125121942Y-125299790D01*
X125502895Y-125299790D01*
X123979085Y-125775981D02*
X124550514Y-125775981D01*
X124264800Y-125775981D02*
X124264800Y-124775981D01*
X124360038Y-124918838D01*
X124455276Y-125014076D01*
X124550514Y-125061695D01*
X132957866Y-125877581D02*
X133291200Y-125401390D01*
X133529295Y-125877581D02*
X133529295Y-124877581D01*
X133148342Y-124877581D01*
X133053104Y-124925200D01*
X133005485Y-124972819D01*
X132957866Y-125068057D01*
X132957866Y-125210914D01*
X133005485Y-125306152D01*
X133053104Y-125353771D01*
X133148342Y-125401390D01*
X133529295Y-125401390D01*
X132576914Y-124972819D02*
X132529295Y-124925200D01*
X132434057Y-124877581D01*
X132195961Y-124877581D01*
X132100723Y-124925200D01*
X132053104Y-124972819D01*
X132005485Y-125068057D01*
X132005485Y-125163295D01*
X132053104Y-125306152D01*
X132624533Y-125877581D01*
X132005485Y-125877581D01*
D15*
X125013981Y-78573334D02*
X124537790Y-78240000D01*
X125013981Y-78001905D02*
X124013981Y-78001905D01*
X124013981Y-78382858D01*
X124061600Y-78478096D01*
X124109219Y-78525715D01*
X124204457Y-78573334D01*
X124347314Y-78573334D01*
X124442552Y-78525715D01*
X124490171Y-78478096D01*
X124537790Y-78382858D01*
X124537790Y-78001905D01*
X124013981Y-78906667D02*
X124013981Y-79525715D01*
X124394933Y-79192381D01*
X124394933Y-79335239D01*
X124442552Y-79430477D01*
X124490171Y-79478096D01*
X124585410Y-79525715D01*
X124823505Y-79525715D01*
X124918743Y-79478096D01*
X124966362Y-79430477D01*
X125013981Y-79335239D01*
X125013981Y-79049524D01*
X124966362Y-78954286D01*
X124918743Y-78906667D01*
X131567181Y-78573334D02*
X131090990Y-78240000D01*
X131567181Y-78001905D02*
X130567181Y-78001905D01*
X130567181Y-78382858D01*
X130614800Y-78478096D01*
X130662419Y-78525715D01*
X130757657Y-78573334D01*
X130900514Y-78573334D01*
X130995752Y-78525715D01*
X131043371Y-78478096D01*
X131090990Y-78382858D01*
X131090990Y-78001905D01*
X130900514Y-79430477D02*
X131567181Y-79430477D01*
X130519562Y-79192381D02*
X131233848Y-78954286D01*
X131233848Y-79573334D01*
D11*
X210123066Y-106370381D02*
X210456400Y-105894190D01*
X210694495Y-106370381D02*
X210694495Y-105370381D01*
X210313542Y-105370381D01*
X210218304Y-105418000D01*
X210170685Y-105465619D01*
X210123066Y-105560857D01*
X210123066Y-105703714D01*
X210170685Y-105798952D01*
X210218304Y-105846571D01*
X210313542Y-105894190D01*
X210694495Y-105894190D01*
X209218304Y-105370381D02*
X209694495Y-105370381D01*
X209742114Y-105846571D01*
X209694495Y-105798952D01*
X209599257Y-105751333D01*
X209361161Y-105751333D01*
X209265923Y-105798952D01*
X209218304Y-105846571D01*
X209170685Y-105941810D01*
X209170685Y-106179905D01*
X209218304Y-106275143D01*
X209265923Y-106322762D01*
X209361161Y-106370381D01*
X209599257Y-106370381D01*
X209694495Y-106322762D01*
X209742114Y-106275143D01*
X210123066Y-104135181D02*
X210456400Y-103658990D01*
X210694495Y-104135181D02*
X210694495Y-103135181D01*
X210313542Y-103135181D01*
X210218304Y-103182800D01*
X210170685Y-103230419D01*
X210123066Y-103325657D01*
X210123066Y-103468514D01*
X210170685Y-103563752D01*
X210218304Y-103611371D01*
X210313542Y-103658990D01*
X210694495Y-103658990D01*
X209265923Y-103135181D02*
X209456400Y-103135181D01*
X209551638Y-103182800D01*
X209599257Y-103230419D01*
X209694495Y-103373276D01*
X209742114Y-103563752D01*
X209742114Y-103944705D01*
X209694495Y-104039943D01*
X209646876Y-104087562D01*
X209551638Y-104135181D01*
X209361161Y-104135181D01*
X209265923Y-104087562D01*
X209218304Y-104039943D01*
X209170685Y-103944705D01*
X209170685Y-103706610D01*
X209218304Y-103611371D01*
X209265923Y-103563752D01*
X209361161Y-103516133D01*
X209551638Y-103516133D01*
X209646876Y-103563752D01*
X209694495Y-103611371D01*
X209742114Y-103706610D01*
X210123066Y-100782381D02*
X210456400Y-100306190D01*
X210694495Y-100782381D02*
X210694495Y-99782381D01*
X210313542Y-99782381D01*
X210218304Y-99830000D01*
X210170685Y-99877619D01*
X210123066Y-99972857D01*
X210123066Y-100115714D01*
X210170685Y-100210952D01*
X210218304Y-100258571D01*
X210313542Y-100306190D01*
X210694495Y-100306190D01*
X209789733Y-99782381D02*
X209123066Y-99782381D01*
X209551638Y-100782381D01*
X210123066Y-98496381D02*
X210456400Y-98020190D01*
X210694495Y-98496381D02*
X210694495Y-97496381D01*
X210313542Y-97496381D01*
X210218304Y-97544000D01*
X210170685Y-97591619D01*
X210123066Y-97686857D01*
X210123066Y-97829714D01*
X210170685Y-97924952D01*
X210218304Y-97972571D01*
X210313542Y-98020190D01*
X210694495Y-98020190D01*
X209551638Y-97924952D02*
X209646876Y-97877333D01*
X209694495Y-97829714D01*
X209742114Y-97734476D01*
X209742114Y-97686857D01*
X209694495Y-97591619D01*
X209646876Y-97544000D01*
X209551638Y-97496381D01*
X209361161Y-97496381D01*
X209265923Y-97544000D01*
X209218304Y-97591619D01*
X209170685Y-97686857D01*
X209170685Y-97734476D01*
X209218304Y-97829714D01*
X209265923Y-97877333D01*
X209361161Y-97924952D01*
X209551638Y-97924952D01*
X209646876Y-97972571D01*
X209694495Y-98020190D01*
X209742114Y-98115429D01*
X209742114Y-98305905D01*
X209694495Y-98401143D01*
X209646876Y-98448762D01*
X209551638Y-98496381D01*
X209361161Y-98496381D01*
X209265923Y-98448762D01*
X209218304Y-98401143D01*
X209170685Y-98305905D01*
X209170685Y-98115429D01*
X209218304Y-98020190D01*
X209265923Y-97972571D01*
X209361161Y-97924952D01*
X210123066Y-95245181D02*
X210456400Y-94768990D01*
X210694495Y-95245181D02*
X210694495Y-94245181D01*
X210313542Y-94245181D01*
X210218304Y-94292800D01*
X210170685Y-94340419D01*
X210123066Y-94435657D01*
X210123066Y-94578514D01*
X210170685Y-94673752D01*
X210218304Y-94721371D01*
X210313542Y-94768990D01*
X210694495Y-94768990D01*
X209646876Y-95245181D02*
X209456400Y-95245181D01*
X209361161Y-95197562D01*
X209313542Y-95149943D01*
X209218304Y-95007086D01*
X209170685Y-94816610D01*
X209170685Y-94435657D01*
X209218304Y-94340419D01*
X209265923Y-94292800D01*
X209361161Y-94245181D01*
X209551638Y-94245181D01*
X209646876Y-94292800D01*
X209694495Y-94340419D01*
X209742114Y-94435657D01*
X209742114Y-94673752D01*
X209694495Y-94768990D01*
X209646876Y-94816610D01*
X209551638Y-94864229D01*
X209361161Y-94864229D01*
X209265923Y-94816610D01*
X209218304Y-94768990D01*
X209170685Y-94673752D01*
X203842857Y-92908381D02*
X204176191Y-92432190D01*
X204414286Y-92908381D02*
X204414286Y-91908381D01*
X204033333Y-91908381D01*
X203938095Y-91956000D01*
X203890476Y-92003619D01*
X203842857Y-92098857D01*
X203842857Y-92241714D01*
X203890476Y-92336952D01*
X203938095Y-92384571D01*
X204033333Y-92432190D01*
X204414286Y-92432190D01*
X202890476Y-92908381D02*
X203461905Y-92908381D01*
X203176191Y-92908381D02*
X203176191Y-91908381D01*
X203271429Y-92051238D01*
X203366667Y-92146476D01*
X203461905Y-92194095D01*
X202271429Y-91908381D02*
X202176190Y-91908381D01*
X202080952Y-91956000D01*
X202033333Y-92003619D01*
X201985714Y-92098857D01*
X201938095Y-92289333D01*
X201938095Y-92527429D01*
X201985714Y-92717905D01*
X202033333Y-92813143D01*
X202080952Y-92860762D01*
X202176190Y-92908381D01*
X202271429Y-92908381D01*
X202366667Y-92860762D01*
X202414286Y-92813143D01*
X202461905Y-92717905D01*
X202509524Y-92527429D01*
X202509524Y-92289333D01*
X202461905Y-92098857D01*
X202414286Y-92003619D01*
X202366667Y-91956000D01*
X202271429Y-91908381D01*
X203080857Y-89606381D02*
X203414191Y-89130190D01*
X203652286Y-89606381D02*
X203652286Y-88606381D01*
X203271333Y-88606381D01*
X203176095Y-88654000D01*
X203128476Y-88701619D01*
X203080857Y-88796857D01*
X203080857Y-88939714D01*
X203128476Y-89034952D01*
X203176095Y-89082571D01*
X203271333Y-89130190D01*
X203652286Y-89130190D01*
X202128476Y-89606381D02*
X202699905Y-89606381D01*
X202414191Y-89606381D02*
X202414191Y-88606381D01*
X202509429Y-88749238D01*
X202604667Y-88844476D01*
X202699905Y-88892095D01*
X201176095Y-89606381D02*
X201747524Y-89606381D01*
X201461810Y-89606381D02*
X201461810Y-88606381D01*
X201557048Y-88749238D01*
X201652286Y-88844476D01*
X201747524Y-88892095D01*
X156395657Y-116225581D02*
X156728991Y-115749390D01*
X156967086Y-116225581D02*
X156967086Y-115225581D01*
X156586133Y-115225581D01*
X156490895Y-115273200D01*
X156443276Y-115320819D01*
X156395657Y-115416057D01*
X156395657Y-115558914D01*
X156443276Y-115654152D01*
X156490895Y-115701771D01*
X156586133Y-115749390D01*
X156967086Y-115749390D01*
X155443276Y-116225581D02*
X156014705Y-116225581D01*
X155728991Y-116225581D02*
X155728991Y-115225581D01*
X155824229Y-115368438D01*
X155919467Y-115463676D01*
X156014705Y-115511295D01*
X155062324Y-115320819D02*
X155014705Y-115273200D01*
X154919467Y-115225581D01*
X154681371Y-115225581D01*
X154586133Y-115273200D01*
X154538514Y-115320819D01*
X154490895Y-115416057D01*
X154490895Y-115511295D01*
X154538514Y-115654152D01*
X155109943Y-116225581D01*
X154490895Y-116225581D01*
X177376057Y-93975181D02*
X177709391Y-93498990D01*
X177947486Y-93975181D02*
X177947486Y-92975181D01*
X177566533Y-92975181D01*
X177471295Y-93022800D01*
X177423676Y-93070419D01*
X177376057Y-93165657D01*
X177376057Y-93308514D01*
X177423676Y-93403752D01*
X177471295Y-93451371D01*
X177566533Y-93498990D01*
X177947486Y-93498990D01*
X176423676Y-93975181D02*
X176995105Y-93975181D01*
X176709391Y-93975181D02*
X176709391Y-92975181D01*
X176804629Y-93118038D01*
X176899867Y-93213276D01*
X176995105Y-93260895D01*
X176090343Y-92975181D02*
X175471295Y-92975181D01*
X175804629Y-93356133D01*
X175661771Y-93356133D01*
X175566533Y-93403752D01*
X175518914Y-93451371D01*
X175471295Y-93546610D01*
X175471295Y-93784705D01*
X175518914Y-93879943D01*
X175566533Y-93927562D01*
X175661771Y-93975181D01*
X175947486Y-93975181D01*
X176042724Y-93927562D01*
X176090343Y-93879943D01*
X172092857Y-111551981D02*
X172426191Y-111075790D01*
X172664286Y-111551981D02*
X172664286Y-110551981D01*
X172283333Y-110551981D01*
X172188095Y-110599600D01*
X172140476Y-110647219D01*
X172092857Y-110742457D01*
X172092857Y-110885314D01*
X172140476Y-110980552D01*
X172188095Y-111028171D01*
X172283333Y-111075790D01*
X172664286Y-111075790D01*
X171140476Y-111551981D02*
X171711905Y-111551981D01*
X171426191Y-111551981D02*
X171426191Y-110551981D01*
X171521429Y-110694838D01*
X171616667Y-110790076D01*
X171711905Y-110837695D01*
X170283333Y-110885314D02*
X170283333Y-111551981D01*
X170521429Y-110504362D02*
X170759524Y-111218648D01*
X170140476Y-111218648D01*
X175750457Y-73350381D02*
X176083791Y-72874190D01*
X176321886Y-73350381D02*
X176321886Y-72350381D01*
X175940933Y-72350381D01*
X175845695Y-72398000D01*
X175798076Y-72445619D01*
X175750457Y-72540857D01*
X175750457Y-72683714D01*
X175798076Y-72778952D01*
X175845695Y-72826571D01*
X175940933Y-72874190D01*
X176321886Y-72874190D01*
X174798076Y-73350381D02*
X175369505Y-73350381D01*
X175083791Y-73350381D02*
X175083791Y-72350381D01*
X175179029Y-72493238D01*
X175274267Y-72588476D01*
X175369505Y-72636095D01*
X173940933Y-72350381D02*
X174131410Y-72350381D01*
X174226648Y-72398000D01*
X174274267Y-72445619D01*
X174369505Y-72588476D01*
X174417124Y-72778952D01*
X174417124Y-73159905D01*
X174369505Y-73255143D01*
X174321886Y-73302762D01*
X174226648Y-73350381D01*
X174036171Y-73350381D01*
X173940933Y-73302762D01*
X173893314Y-73255143D01*
X173845695Y-73159905D01*
X173845695Y-72921810D01*
X173893314Y-72826571D01*
X173940933Y-72778952D01*
X174036171Y-72731333D01*
X174226648Y-72731333D01*
X174321886Y-72778952D01*
X174369505Y-72826571D01*
X174417124Y-72921810D01*
X157411657Y-73350381D02*
X157744991Y-72874190D01*
X157983086Y-73350381D02*
X157983086Y-72350381D01*
X157602133Y-72350381D01*
X157506895Y-72398000D01*
X157459276Y-72445619D01*
X157411657Y-72540857D01*
X157411657Y-72683714D01*
X157459276Y-72778952D01*
X157506895Y-72826571D01*
X157602133Y-72874190D01*
X157983086Y-72874190D01*
X156459276Y-73350381D02*
X157030705Y-73350381D01*
X156744991Y-73350381D02*
X156744991Y-72350381D01*
X156840229Y-72493238D01*
X156935467Y-72588476D01*
X157030705Y-72636095D01*
X155887848Y-72778952D02*
X155983086Y-72731333D01*
X156030705Y-72683714D01*
X156078324Y-72588476D01*
X156078324Y-72540857D01*
X156030705Y-72445619D01*
X155983086Y-72398000D01*
X155887848Y-72350381D01*
X155697371Y-72350381D01*
X155602133Y-72398000D01*
X155554514Y-72445619D01*
X155506895Y-72540857D01*
X155506895Y-72588476D01*
X155554514Y-72683714D01*
X155602133Y-72731333D01*
X155697371Y-72778952D01*
X155887848Y-72778952D01*
X155983086Y-72826571D01*
X156030705Y-72874190D01*
X156078324Y-72969429D01*
X156078324Y-73159905D01*
X156030705Y-73255143D01*
X155983086Y-73302762D01*
X155887848Y-73350381D01*
X155697371Y-73350381D01*
X155602133Y-73302762D01*
X155554514Y-73255143D01*
X155506895Y-73159905D01*
X155506895Y-72969429D01*
X155554514Y-72874190D01*
X155602133Y-72826571D01*
X155697371Y-72778952D01*
X110878857Y-119425981D02*
X111212191Y-118949790D01*
X111450286Y-119425981D02*
X111450286Y-118425981D01*
X111069333Y-118425981D01*
X110974095Y-118473600D01*
X110926476Y-118521219D01*
X110878857Y-118616457D01*
X110878857Y-118759314D01*
X110926476Y-118854552D01*
X110974095Y-118902171D01*
X111069333Y-118949790D01*
X111450286Y-118949790D01*
X110497905Y-118521219D02*
X110450286Y-118473600D01*
X110355048Y-118425981D01*
X110116952Y-118425981D01*
X110021714Y-118473600D01*
X109974095Y-118521219D01*
X109926476Y-118616457D01*
X109926476Y-118711695D01*
X109974095Y-118854552D01*
X110545524Y-119425981D01*
X109926476Y-119425981D01*
X109545524Y-118521219D02*
X109497905Y-118473600D01*
X109402667Y-118425981D01*
X109164571Y-118425981D01*
X109069333Y-118473600D01*
X109021714Y-118521219D01*
X108974095Y-118616457D01*
X108974095Y-118711695D01*
X109021714Y-118854552D01*
X109593143Y-119425981D01*
X108974095Y-119425981D01*
X199620095Y-77922381D02*
X199620095Y-76922381D01*
X199382000Y-76922381D01*
X199239142Y-76970000D01*
X199143904Y-77065238D01*
X199096285Y-77160476D01*
X199048666Y-77350952D01*
X199048666Y-77493810D01*
X199096285Y-77684286D01*
X199143904Y-77779524D01*
X199239142Y-77874762D01*
X199382000Y-77922381D01*
X199620095Y-77922381D01*
X198572476Y-77922381D02*
X198382000Y-77922381D01*
X198286761Y-77874762D01*
X198239142Y-77827143D01*
X198143904Y-77684286D01*
X198096285Y-77493810D01*
X198096285Y-77112857D01*
X198143904Y-77017619D01*
X198191523Y-76970000D01*
X198286761Y-76922381D01*
X198477238Y-76922381D01*
X198572476Y-76970000D01*
X198620095Y-77017619D01*
X198667714Y-77112857D01*
X198667714Y-77350952D01*
X198620095Y-77446190D01*
X198572476Y-77493810D01*
X198477238Y-77541429D01*
X198286761Y-77541429D01*
X198191523Y-77493810D01*
X198143904Y-77446190D01*
X198096285Y-77350952D01*
X196997486Y-90876381D02*
X196997486Y-89876381D01*
X196759391Y-89876381D01*
X196616533Y-89924000D01*
X196521295Y-90019238D01*
X196473676Y-90114476D01*
X196426057Y-90304952D01*
X196426057Y-90447810D01*
X196473676Y-90638286D01*
X196521295Y-90733524D01*
X196616533Y-90828762D01*
X196759391Y-90876381D01*
X196997486Y-90876381D01*
X195473676Y-90876381D02*
X196045105Y-90876381D01*
X195759391Y-90876381D02*
X195759391Y-89876381D01*
X195854629Y-90019238D01*
X195949867Y-90114476D01*
X196045105Y-90162095D01*
X194521295Y-90876381D02*
X195092724Y-90876381D01*
X194807010Y-90876381D02*
X194807010Y-89876381D01*
X194902248Y-90019238D01*
X194997486Y-90114476D01*
X195092724Y-90162095D01*
X194508286Y-82189581D02*
X194508286Y-81189581D01*
X194270191Y-81189581D01*
X194127333Y-81237200D01*
X194032095Y-81332438D01*
X193984476Y-81427676D01*
X193936857Y-81618152D01*
X193936857Y-81761010D01*
X193984476Y-81951486D01*
X194032095Y-82046724D01*
X194127333Y-82141962D01*
X194270191Y-82189581D01*
X194508286Y-82189581D01*
X192984476Y-82189581D02*
X193555905Y-82189581D01*
X193270191Y-82189581D02*
X193270191Y-81189581D01*
X193365429Y-81332438D01*
X193460667Y-81427676D01*
X193555905Y-81475295D01*
X192365429Y-81189581D02*
X192270190Y-81189581D01*
X192174952Y-81237200D01*
X192127333Y-81284819D01*
X192079714Y-81380057D01*
X192032095Y-81570533D01*
X192032095Y-81808629D01*
X192079714Y-81999105D01*
X192127333Y-82094343D01*
X192174952Y-82141962D01*
X192270190Y-82189581D01*
X192365429Y-82189581D01*
X192460667Y-82141962D01*
X192508286Y-82094343D01*
X192555905Y-81999105D01*
X192603524Y-81808629D01*
X192603524Y-81570533D01*
X192555905Y-81380057D01*
X192508286Y-81284819D01*
X192460667Y-81237200D01*
X192365429Y-81189581D01*
X129031905Y-112426381D02*
X129031905Y-113235905D01*
X128984286Y-113331143D01*
X128936667Y-113378762D01*
X128841429Y-113426381D01*
X128650952Y-113426381D01*
X128555714Y-113378762D01*
X128508095Y-113331143D01*
X128460476Y-113235905D01*
X128460476Y-112426381D01*
X128031905Y-112521619D02*
X127984286Y-112474000D01*
X127889048Y-112426381D01*
X127650952Y-112426381D01*
X127555714Y-112474000D01*
X127508095Y-112521619D01*
X127460476Y-112616857D01*
X127460476Y-112712095D01*
X127508095Y-112854952D01*
X128079524Y-113426381D01*
X127460476Y-113426381D01*
X197357905Y-112787181D02*
X197357905Y-113596705D01*
X197310286Y-113691943D01*
X197262667Y-113739562D01*
X197167429Y-113787181D01*
X196976952Y-113787181D01*
X196881714Y-113739562D01*
X196834095Y-113691943D01*
X196786476Y-113596705D01*
X196786476Y-112787181D01*
X195786476Y-113787181D02*
X196357905Y-113787181D01*
X196072191Y-113787181D02*
X196072191Y-112787181D01*
X196167429Y-112930038D01*
X196262667Y-113025276D01*
X196357905Y-113072895D01*
X172273981Y-86106095D02*
X173083505Y-86106095D01*
X173178743Y-86153714D01*
X173226362Y-86201333D01*
X173273981Y-86296571D01*
X173273981Y-86487048D01*
X173226362Y-86582286D01*
X173178743Y-86629905D01*
X173083505Y-86677524D01*
X172273981Y-86677524D01*
X172273981Y-87058476D02*
X172273981Y-87677524D01*
X172654933Y-87344190D01*
X172654933Y-87487048D01*
X172702552Y-87582286D01*
X172750171Y-87629905D01*
X172845410Y-87677524D01*
X173083505Y-87677524D01*
X173178743Y-87629905D01*
X173226362Y-87582286D01*
X173273981Y-87487048D01*
X173273981Y-87201333D01*
X173226362Y-87106095D01*
X173178743Y-87058476D01*
D15*
X132489486Y-105729067D02*
X132013295Y-105729067D01*
X132584724Y-106014781D02*
X132251391Y-105014781D01*
X131918057Y-106014781D01*
X131394248Y-105014781D02*
X131299009Y-105014781D01*
X131203771Y-105062400D01*
X131156152Y-105110019D01*
X131108533Y-105205257D01*
X131060914Y-105395733D01*
X131060914Y-105633829D01*
X131108533Y-105824305D01*
X131156152Y-105919543D01*
X131203771Y-105967162D01*
X131299009Y-106014781D01*
X131394248Y-106014781D01*
X131489486Y-105967162D01*
X131537105Y-105919543D01*
X131584724Y-105824305D01*
X131632343Y-105633829D01*
X131632343Y-105395733D01*
X131584724Y-105205257D01*
X131537105Y-105110019D01*
X131489486Y-105062400D01*
X131394248Y-105014781D01*
X132438686Y-102325467D02*
X131962495Y-102325467D01*
X132533924Y-102611181D02*
X132200591Y-101611181D01*
X131867257Y-102611181D01*
X131010114Y-102611181D02*
X131581543Y-102611181D01*
X131295829Y-102611181D02*
X131295829Y-101611181D01*
X131391067Y-101754038D01*
X131486305Y-101849276D01*
X131581543Y-101896895D01*
%LPC*%
D16*
X89418000Y-101854000D03*
X89418000Y-114554000D03*
D17*
X98270000Y-124460000D03*
X94770000Y-124460000D03*
D18*
X183642000Y-96266000D03*
D19*
X185642000Y-96266000D03*
X183642000Y-98266000D03*
X185642000Y-98266000D03*
X183642000Y-100266000D03*
X185642000Y-100266000D03*
X183642000Y-102266000D03*
X185642000Y-102266000D03*
D20*
X201930000Y-84328000D03*
X207930000Y-84328000D03*
X204930000Y-79628000D03*
D21*
X132064000Y-113030000D03*
X130064000Y-113030000D03*
D22*
X188722000Y-82534000D03*
X188722000Y-80534000D03*
X191770000Y-89138000D03*
X191770000Y-87138000D03*
X179578000Y-98028000D03*
X179578000Y-96028000D03*
X181102000Y-98028000D03*
X181102000Y-96028000D03*
D21*
X196612000Y-100584000D03*
X198612000Y-100584000D03*
X195056000Y-100584000D03*
X193056000Y-100584000D03*
D22*
X121666000Y-93710000D03*
X121666000Y-91710000D03*
X121666000Y-84058000D03*
X121666000Y-82058000D03*
X116078000Y-93710000D03*
X116078000Y-91710000D03*
X116078000Y-84058000D03*
X116078000Y-82058000D03*
X110236000Y-93710000D03*
X110236000Y-91710000D03*
X110236000Y-84312000D03*
X110236000Y-82312000D03*
D21*
X128508000Y-125323600D03*
X126508000Y-125323600D03*
D22*
X132842000Y-123936000D03*
X132842000Y-121936000D03*
X126238000Y-79740000D03*
X126238000Y-77740000D03*
X129286000Y-79740000D03*
X129286000Y-77740000D03*
D21*
X208010000Y-105918000D03*
X206010000Y-105918000D03*
X208010000Y-103632000D03*
X206010000Y-103632000D03*
X208010000Y-100330000D03*
X206010000Y-100330000D03*
X208010000Y-98044000D03*
X206010000Y-98044000D03*
X208010000Y-94742000D03*
X206010000Y-94742000D03*
X208010000Y-92456000D03*
X206010000Y-92456000D03*
X207248000Y-89154000D03*
X205248000Y-89154000D03*
X156765500Y-117538500D03*
X154765500Y-117538500D03*
X181086000Y-93472000D03*
X179086000Y-93472000D03*
X170450000Y-112776000D03*
X172450000Y-112776000D03*
D22*
X177546000Y-73898000D03*
X177546000Y-71898000D03*
X159258000Y-73898000D03*
X159258000Y-71898000D03*
D21*
X111236000Y-120650000D03*
X109236000Y-120650000D03*
D23*
X179640000Y-73210000D03*
X170880000Y-73210000D03*
X161352000Y-73210000D03*
X152592000Y-73210000D03*
D24*
X184150000Y-122936000D03*
D25*
X181610000Y-122936000D03*
X179070000Y-122936000D03*
X176530000Y-122936000D03*
D24*
X171450000Y-122936000D03*
D25*
X168910000Y-122936000D03*
X166370000Y-122936000D03*
X163830000Y-122936000D03*
D24*
X143510000Y-122936000D03*
D25*
X140970000Y-122936000D03*
X138430000Y-122936000D03*
X135890000Y-122936000D03*
D24*
X130048000Y-122936000D03*
D26*
X127508000Y-122936000D03*
D25*
X124968000Y-122936000D03*
X122428000Y-122936000D03*
D27*
X196882000Y-79756000D03*
X200882000Y-79756000D03*
D17*
X194084000Y-88392000D03*
X197584000Y-88392000D03*
D27*
X194088000Y-84328000D03*
X198088000Y-84328000D03*
D28*
X124570000Y-111379000D03*
X124570000Y-110109000D03*
X124570000Y-108839000D03*
X124570000Y-107569000D03*
X131970000Y-107569000D03*
X131970000Y-108839000D03*
X131970000Y-110109000D03*
X131970000Y-111379000D03*
D29*
X192896000Y-111887000D03*
X192896000Y-110617000D03*
X192896000Y-109347000D03*
X192896000Y-108077000D03*
X192896000Y-106807000D03*
X192896000Y-105537000D03*
X192896000Y-104267000D03*
X192896000Y-102997000D03*
X200296000Y-102997000D03*
X200296000Y-104267000D03*
X200296000Y-105537000D03*
X200296000Y-106807000D03*
X200296000Y-108077000D03*
X200296000Y-109347000D03*
X200296000Y-110617000D03*
X200296000Y-111887000D03*
D30*
X188220000Y-84328000D03*
X188220000Y-86868000D03*
X188220000Y-89408000D03*
D31*
X179070000Y-86868000D03*
D32*
X207898000Y-123952000D03*
X191898000Y-123952000D03*
D33*
X189992000Y-98298000D03*
X192532000Y-98298000D03*
X195072000Y-98298000D03*
X141986000Y-98679000D03*
X139446000Y-98679000D03*
X136906000Y-98679000D03*
D34*
X209550000Y-74930000D03*
D35*
X209550000Y-72390000D03*
X207010000Y-74930000D03*
X207010000Y-72390000D03*
X204470000Y-74930000D03*
X204470000Y-72390000D03*
X201930000Y-74930000D03*
X201930000Y-72390000D03*
X199390000Y-74930000D03*
X199390000Y-72390000D03*
X196850000Y-74930000D03*
X196850000Y-72390000D03*
X194310000Y-74930000D03*
X194310000Y-72390000D03*
X191770000Y-74930000D03*
X191770000Y-72390000D03*
X189230000Y-74930000D03*
X189230000Y-72390000D03*
X186690000Y-74930000D03*
X186690000Y-72390000D03*
D34*
X209550000Y-118110000D03*
D35*
X209550000Y-115570000D03*
X207010000Y-118110000D03*
X207010000Y-115570000D03*
X204470000Y-118110000D03*
X204470000Y-115570000D03*
X201930000Y-118110000D03*
X201930000Y-115570000D03*
X199390000Y-118110000D03*
X199390000Y-115570000D03*
X196850000Y-118110000D03*
X196850000Y-115570000D03*
X194310000Y-118110000D03*
X194310000Y-115570000D03*
X191770000Y-118110000D03*
X191770000Y-115570000D03*
X189230000Y-118110000D03*
X189230000Y-115570000D03*
X186690000Y-118110000D03*
X186690000Y-115570000D03*
D34*
X146050000Y-118110000D03*
D35*
X146050000Y-115570000D03*
X143510000Y-118110000D03*
X143510000Y-115570000D03*
X140970000Y-118110000D03*
X140970000Y-115570000D03*
X138430000Y-118110000D03*
X138430000Y-115570000D03*
X135890000Y-118110000D03*
X135890000Y-115570000D03*
X133350000Y-118110000D03*
X133350000Y-115570000D03*
X130810000Y-118110000D03*
X130810000Y-115570000D03*
X128270000Y-118110000D03*
X128270000Y-115570000D03*
X125730000Y-118110000D03*
X125730000Y-115570000D03*
X123190000Y-118110000D03*
X123190000Y-115570000D03*
D34*
X146050000Y-74930000D03*
D35*
X146050000Y-72390000D03*
X143510000Y-74930000D03*
X143510000Y-72390000D03*
X140970000Y-74930000D03*
X140970000Y-72390000D03*
X138430000Y-74930000D03*
X138430000Y-72390000D03*
X135890000Y-74930000D03*
X135890000Y-72390000D03*
X133350000Y-74930000D03*
X133350000Y-72390000D03*
X130810000Y-74930000D03*
X130810000Y-72390000D03*
X128270000Y-74930000D03*
X128270000Y-72390000D03*
X125730000Y-74930000D03*
X125730000Y-72390000D03*
X123190000Y-74930000D03*
X123190000Y-72390000D03*
D36*
X126370000Y-104902000D03*
X128270000Y-104902000D03*
X130170000Y-104902000D03*
X126370000Y-102870000D03*
X128270000Y-102870000D03*
X130170000Y-102870000D03*
M02*
