G04 #@! TF.FileFunction,Copper,L1,Top,Mixed*
%FSLAX46Y46*%
G04 Gerber Fmt 4.6, Leading zero omitted, Abs format (unit mm)*
G04 Created by KiCad (PCBNEW 4.0.7) date 10/24/17 18:43:56*
%MOMM*%
%LPD*%
G01*
G04 APERTURE LIST*
%ADD10C,0.100000*%
%ADD11R,1.350000X1.350000*%
%ADD12O,1.350000X1.350000*%
%ADD13O,1.500000X6.000000*%
%ADD14C,3.000000*%
%ADD15R,3.500000X3.500000*%
%ADD16R,5.050000X0.610000*%
%ADD17R,3.900000X2.500000*%
%ADD18R,1.820000X2.200000*%
%ADD19R,4.000000X2.500000*%
%ADD20R,1.250000X1.000000*%
%ADD21R,1.000000X1.250000*%
%ADD22R,0.800000X0.900000*%
%ADD23R,2.290000X5.080000*%
%ADD24R,2.420000X5.080000*%
%ADD25C,1.200000*%
%ADD26R,0.460000X0.890000*%
%ADD27R,2.000000X2.600000*%
%ADD28O,2.000000X2.600000*%
%ADD29R,3.550000X0.600000*%
%ADD30R,3.680000X1.270000*%
%ADD31R,3.000000X3.000000*%
%ADD32R,1.270000X3.680000*%
%ADD33R,22.000000X4.000000*%
%ADD34R,1.000000X3.500000*%
%ADD35C,2.000000*%
%ADD36R,1.700000X1.700000*%
%ADD37O,1.700000X1.700000*%
%ADD38C,2.700000*%
%ADD39C,1.500000*%
%ADD40C,0.250000*%
%ADD41C,1.000000*%
%ADD42C,0.500000*%
%ADD43C,3.000000*%
%ADD44C,0.750000*%
%ADD45C,0.900000*%
%ADD46C,0.800000*%
G04 APERTURE END LIST*
D10*
D11*
X183642000Y-96266000D03*
D12*
X185642000Y-96266000D03*
X183642000Y-98266000D03*
X185642000Y-98266000D03*
X183642000Y-100266000D03*
X185642000Y-100266000D03*
X183642000Y-102266000D03*
X185642000Y-102266000D03*
D13*
X156210000Y-108560000D03*
X158750000Y-108560000D03*
X161290000Y-108560000D03*
X163830000Y-108560000D03*
X166370000Y-108560000D03*
X168910000Y-108560000D03*
X168910000Y-89560000D03*
X166370000Y-89560000D03*
X163830000Y-89560000D03*
X161290000Y-89560000D03*
X158750000Y-89560000D03*
X156210000Y-89560000D03*
D14*
X161930000Y-99660000D03*
D15*
X201930000Y-84328000D03*
X207930000Y-84328000D03*
X204930000Y-79628000D03*
D16*
X100398000Y-107694000D03*
D17*
X89418000Y-99544000D03*
X89418000Y-116864000D03*
D16*
X100398000Y-108714000D03*
X100398000Y-109734000D03*
X100398000Y-106674000D03*
X100398000Y-110754000D03*
X100398000Y-105654000D03*
X100398000Y-104634000D03*
X100398000Y-111774000D03*
D18*
X131034000Y-104140000D03*
X133634000Y-104140000D03*
D19*
X184341000Y-109220000D03*
X192341000Y-109220000D03*
D20*
X179578000Y-98028000D03*
X179578000Y-96028000D03*
D21*
X163560000Y-110363000D03*
X161560000Y-110363000D03*
X163560000Y-112014000D03*
X161560000Y-112014000D03*
X163560000Y-113792000D03*
X161560000Y-113792000D03*
X133334000Y-101092000D03*
X131334000Y-101092000D03*
D20*
X111506000Y-119110000D03*
X111506000Y-117110000D03*
X126238000Y-79740000D03*
X126238000Y-77740000D03*
X129286000Y-79740000D03*
X129286000Y-77740000D03*
D21*
X208010000Y-105918000D03*
X206010000Y-105918000D03*
X208010000Y-103632000D03*
X206010000Y-103632000D03*
X208010000Y-100330000D03*
X206010000Y-100330000D03*
X208010000Y-98044000D03*
X206010000Y-98044000D03*
X208010000Y-94742000D03*
X206010000Y-94742000D03*
X208010000Y-92456000D03*
X206010000Y-92456000D03*
X207248000Y-90043000D03*
X205248000Y-90043000D03*
X156765500Y-117538500D03*
X154765500Y-117538500D03*
D20*
X181102000Y-96028000D03*
X181102000Y-98028000D03*
D21*
X168005000Y-114808000D03*
X166005000Y-114808000D03*
X111236000Y-120650000D03*
X109236000Y-120650000D03*
X173593000Y-80518000D03*
X171593000Y-80518000D03*
X160671000Y-80518000D03*
X162671000Y-80518000D03*
X106410000Y-124714000D03*
X104410000Y-124714000D03*
D20*
X98298000Y-94980000D03*
X98298000Y-92980000D03*
X98298000Y-85328000D03*
X98298000Y-83328000D03*
D22*
X158938000Y-78502000D03*
X157038000Y-78502000D03*
X157988000Y-80502000D03*
X177226000Y-78502000D03*
X175326000Y-78502000D03*
X176276000Y-80502000D03*
D23*
X175260000Y-73210000D03*
D24*
X179640000Y-73210000D03*
X170880000Y-73210000D03*
D25*
X179640000Y-76650000D03*
X170880000Y-76650000D03*
D26*
X179640000Y-76200000D03*
X170880000Y-76200000D03*
D23*
X156972000Y-73210000D03*
D24*
X161352000Y-73210000D03*
X152592000Y-73210000D03*
D25*
X161352000Y-76650000D03*
X152592000Y-76650000D03*
D26*
X161352000Y-76200000D03*
X152592000Y-76200000D03*
D27*
X184150000Y-122936000D03*
D28*
X181610000Y-122936000D03*
X179070000Y-122936000D03*
X176530000Y-122936000D03*
D27*
X171450000Y-122936000D03*
D28*
X168910000Y-122936000D03*
X166370000Y-122936000D03*
X163830000Y-122936000D03*
D27*
X143510000Y-122936000D03*
D28*
X140970000Y-122936000D03*
X138430000Y-122936000D03*
X135890000Y-122936000D03*
D27*
X130048000Y-122936000D03*
D28*
X127508000Y-122936000D03*
X124968000Y-122936000D03*
X122428000Y-122936000D03*
D19*
X191960000Y-84201000D03*
X183960000Y-84201000D03*
D29*
X110126000Y-84963000D03*
X110126000Y-83693000D03*
X110126000Y-82423000D03*
X110126000Y-81153000D03*
X102726000Y-81153000D03*
X102726000Y-82423000D03*
X102726000Y-83693000D03*
X102726000Y-84963000D03*
X110126000Y-94615000D03*
X110126000Y-93345000D03*
X110126000Y-92075000D03*
X110126000Y-90805000D03*
X102726000Y-90805000D03*
X102726000Y-92075000D03*
X102726000Y-93345000D03*
X102726000Y-94615000D03*
X122572000Y-84963000D03*
X122572000Y-83693000D03*
X122572000Y-82423000D03*
X122572000Y-81153000D03*
X115172000Y-81153000D03*
X115172000Y-82423000D03*
X115172000Y-83693000D03*
X115172000Y-84963000D03*
X122572000Y-94615000D03*
X122572000Y-93345000D03*
X122572000Y-92075000D03*
X122572000Y-90805000D03*
X115172000Y-90805000D03*
X115172000Y-92075000D03*
X115172000Y-93345000D03*
X115172000Y-94615000D03*
D30*
X134432000Y-107188000D03*
X138872000Y-107188000D03*
D31*
X115062000Y-118994000D03*
X115062000Y-115194000D03*
D30*
X110302000Y-123190000D03*
X114742000Y-123190000D03*
X194752000Y-91186000D03*
X190312000Y-91186000D03*
X153985000Y-120396000D03*
X149545000Y-120396000D03*
D32*
X141732000Y-107508000D03*
X141732000Y-111948000D03*
D30*
X94046000Y-121920000D03*
X98486000Y-121920000D03*
X129606000Y-112014000D03*
X134046000Y-112014000D03*
D32*
X198247000Y-88961000D03*
X198247000Y-84521000D03*
D30*
X195392000Y-80772000D03*
X199832000Y-80772000D03*
D32*
X164846000Y-77150000D03*
X164846000Y-72710000D03*
D30*
X134940000Y-80518000D03*
X134940000Y-83058000D03*
X139380000Y-80518000D03*
X139380000Y-83058000D03*
X134940000Y-85598000D03*
X139380000Y-85598000D03*
D32*
X183007000Y-77023000D03*
X183007000Y-72583000D03*
D33*
X199898000Y-123952000D03*
D14*
X207898000Y-123952000D03*
X191898000Y-123952000D03*
D34*
X123952000Y-110710000D03*
X116332000Y-110710000D03*
X123952000Y-100110000D03*
X121412000Y-100110000D03*
X116332000Y-100110000D03*
D35*
X189992000Y-98298000D03*
X192532000Y-98298000D03*
X195072000Y-98298000D03*
X141986000Y-98679000D03*
X139446000Y-98679000D03*
X136906000Y-98679000D03*
D36*
X209550000Y-74930000D03*
D37*
X209550000Y-72390000D03*
X207010000Y-74930000D03*
X207010000Y-72390000D03*
X204470000Y-74930000D03*
X204470000Y-72390000D03*
X201930000Y-74930000D03*
X201930000Y-72390000D03*
X199390000Y-74930000D03*
X199390000Y-72390000D03*
X196850000Y-74930000D03*
X196850000Y-72390000D03*
X194310000Y-74930000D03*
X194310000Y-72390000D03*
X191770000Y-74930000D03*
X191770000Y-72390000D03*
X189230000Y-74930000D03*
X189230000Y-72390000D03*
X186690000Y-74930000D03*
X186690000Y-72390000D03*
D36*
X209550000Y-118110000D03*
D37*
X209550000Y-115570000D03*
X207010000Y-118110000D03*
X207010000Y-115570000D03*
X204470000Y-118110000D03*
X204470000Y-115570000D03*
X201930000Y-118110000D03*
X201930000Y-115570000D03*
X199390000Y-118110000D03*
X199390000Y-115570000D03*
X196850000Y-118110000D03*
X196850000Y-115570000D03*
X194310000Y-118110000D03*
X194310000Y-115570000D03*
X191770000Y-118110000D03*
X191770000Y-115570000D03*
X189230000Y-118110000D03*
X189230000Y-115570000D03*
X186690000Y-118110000D03*
X186690000Y-115570000D03*
D36*
X146050000Y-118110000D03*
D37*
X146050000Y-115570000D03*
X143510000Y-118110000D03*
X143510000Y-115570000D03*
X140970000Y-118110000D03*
X140970000Y-115570000D03*
X138430000Y-118110000D03*
X138430000Y-115570000D03*
X135890000Y-118110000D03*
X135890000Y-115570000D03*
X133350000Y-118110000D03*
X133350000Y-115570000D03*
X130810000Y-118110000D03*
X130810000Y-115570000D03*
X128270000Y-118110000D03*
X128270000Y-115570000D03*
X125730000Y-118110000D03*
X125730000Y-115570000D03*
X123190000Y-118110000D03*
X123190000Y-115570000D03*
D36*
X146050000Y-74930000D03*
D37*
X146050000Y-72390000D03*
X143510000Y-74930000D03*
X143510000Y-72390000D03*
X140970000Y-74930000D03*
X140970000Y-72390000D03*
X138430000Y-74930000D03*
X138430000Y-72390000D03*
X135890000Y-74930000D03*
X135890000Y-72390000D03*
X133350000Y-74930000D03*
X133350000Y-72390000D03*
X130810000Y-74930000D03*
X130810000Y-72390000D03*
X128270000Y-74930000D03*
X128270000Y-72390000D03*
X125730000Y-74930000D03*
X125730000Y-72390000D03*
X123190000Y-74930000D03*
X123190000Y-72390000D03*
D25*
X145161000Y-109728000D03*
X136398000Y-109728000D03*
X139952253Y-104646253D03*
X150812500Y-118618000D03*
X180975000Y-110617000D03*
D38*
X127254000Y-95758000D03*
X123190000Y-95758000D03*
X123190000Y-86106000D03*
D25*
X146812000Y-92202000D03*
X143129000Y-93789500D03*
X127063500Y-85661500D03*
X142811500Y-87884000D03*
X178498500Y-100774500D03*
X146812000Y-98171000D03*
X146812000Y-86804500D03*
X131953000Y-77724000D03*
X131191000Y-82296000D03*
X128905000Y-110299500D03*
X148082000Y-80835500D03*
X139065000Y-111506000D03*
X129984500Y-95758000D03*
X188468000Y-110934500D03*
X185928000Y-105791000D03*
X178816000Y-106299000D03*
X182118000Y-88392000D03*
X191643000Y-78105000D03*
D38*
X123190000Y-80010000D03*
X123190000Y-89662000D03*
D25*
X130302000Y-125730000D03*
X122936000Y-113538000D03*
X125984000Y-112776000D03*
D38*
X125984000Y-100076000D03*
D25*
X196342000Y-94234000D03*
X179578000Y-94742000D03*
X195707000Y-84328000D03*
D38*
X190500000Y-93472000D03*
X186436000Y-91694000D03*
D25*
X149034500Y-115887500D03*
X142938500Y-107505500D03*
X204089000Y-90678000D03*
D38*
X198120000Y-98298000D03*
D25*
X188722000Y-95250000D03*
X165481000Y-113284000D03*
D38*
X99314000Y-119126000D03*
X110236000Y-86106000D03*
X110236000Y-95758000D03*
X114808000Y-95758000D03*
X114808000Y-86106000D03*
X114808000Y-80010000D03*
X110236000Y-80010000D03*
D25*
X100330000Y-113665000D03*
X111252000Y-110744000D03*
X114046000Y-101092000D03*
X114046000Y-103632000D03*
X114046000Y-105410000D03*
X114300000Y-73660000D03*
X106680000Y-76200000D03*
X106426000Y-83058000D03*
X106426000Y-80010000D03*
X114300000Y-76200000D03*
X101600000Y-73660000D03*
X112014000Y-98044000D03*
X114046000Y-98552000D03*
X88138000Y-96520000D03*
X88138000Y-81534000D03*
X93980000Y-73660000D03*
X88138000Y-90424000D03*
X93980000Y-112522000D03*
X90805000Y-107315000D03*
X93980000Y-117475000D03*
X94996000Y-81534000D03*
X95504000Y-90932000D03*
X97790000Y-115316000D03*
X100838000Y-96774000D03*
X101092000Y-102362000D03*
X90170000Y-121920000D03*
X101600000Y-76200000D03*
X110490000Y-88900000D03*
D38*
X114808000Y-89662000D03*
D25*
X127508000Y-79756000D03*
X127762000Y-78232000D03*
X205994000Y-111760000D03*
X204470000Y-109982000D03*
X205486000Y-101854000D03*
X203962000Y-101854000D03*
X203962000Y-96266000D03*
X202438000Y-96266000D03*
X207264000Y-88011000D03*
X156210000Y-118808500D03*
X181102000Y-94488000D03*
X169164000Y-114808000D03*
D38*
X102870000Y-124460000D03*
D25*
X112522000Y-120650000D03*
X193040000Y-119634000D03*
X169164000Y-119634000D03*
X124714000Y-91948000D03*
X190500000Y-116840000D03*
X166370000Y-119634000D03*
X124714000Y-93472000D03*
X152082500Y-123190000D03*
X184150000Y-116332000D03*
X196850000Y-106680000D03*
X150622000Y-123190000D03*
X182626000Y-116332000D03*
X157734000Y-122745500D03*
X156210000Y-111569500D03*
X195580000Y-120396000D03*
X185928000Y-121158000D03*
X158750000Y-123825000D03*
X158750000Y-111569500D03*
X181102000Y-120650000D03*
X198120000Y-116840000D03*
D38*
X138938000Y-77724000D03*
D25*
X161290000Y-86487000D03*
X177546000Y-76708000D03*
X159258000Y-76708000D03*
X99880259Y-90422959D03*
X95504000Y-109474000D03*
X98833741Y-91469477D03*
X95504000Y-106919000D03*
D39*
X139952253Y-104646253D02*
X139952253Y-99185253D01*
X139952253Y-99185253D02*
X139446000Y-98679000D01*
D40*
X136398000Y-109728000D02*
X145161000Y-109728000D01*
D39*
X133350000Y-98552000D02*
X139444253Y-104646253D01*
X139444253Y-104646253D02*
X139952253Y-104646253D01*
X127254000Y-95758000D02*
X130048000Y-98552000D01*
X130048000Y-98552000D02*
X133350000Y-98552000D01*
X153985000Y-120396000D02*
X153985000Y-120540998D01*
X153985000Y-120540998D02*
X153985000Y-120396000D01*
D40*
X153985000Y-120396000D02*
X153985000Y-118319000D01*
X153985000Y-118319000D02*
X154765500Y-117538500D01*
D39*
X153985000Y-120396000D02*
X152207000Y-118618000D01*
X152207000Y-118618000D02*
X150812500Y-118618000D01*
X180975000Y-110617000D02*
X182372000Y-109220000D01*
X182372000Y-109220000D02*
X184341000Y-109220000D01*
X183261000Y-109220000D02*
X184341000Y-109220000D01*
X123190000Y-95758000D02*
X127254000Y-95758000D01*
X127254000Y-90170000D02*
X123190000Y-86106000D01*
X127254000Y-95758000D02*
X127254000Y-90170000D01*
X171450000Y-122936000D02*
X173990000Y-125476000D01*
X182626000Y-125476000D02*
X184150000Y-123952000D01*
X173990000Y-125476000D02*
X182626000Y-125476000D01*
X184150000Y-123952000D02*
X184150000Y-122936000D01*
X130048000Y-122936000D02*
X132588000Y-125476000D01*
X141732000Y-125476000D02*
X143510000Y-123698000D01*
X132588000Y-125476000D02*
X141732000Y-125476000D01*
X143510000Y-123698000D02*
X143510000Y-122936000D01*
D41*
X123190000Y-95233000D02*
X123190000Y-95758000D01*
X123190000Y-95233000D02*
X122572000Y-94615000D01*
X122572000Y-84963000D02*
X123190000Y-85581000D01*
X123190000Y-85581000D02*
X123190000Y-86106000D01*
D39*
X161290000Y-108560000D02*
X161290000Y-100300000D01*
X161290000Y-100300000D02*
X161930000Y-99660000D01*
D40*
X161560000Y-112014000D02*
X161560000Y-108830000D01*
X161560000Y-108830000D02*
X161290000Y-108560000D01*
X161560000Y-113792000D02*
X161560000Y-112014000D01*
X185928000Y-105791000D02*
X188468000Y-108331000D01*
X188468000Y-108331000D02*
X188468000Y-110934500D01*
X156108000Y-89662000D02*
X153924000Y-89535000D01*
X156210000Y-89560000D02*
X156108000Y-89662000D01*
X192341000Y-109220000D02*
X189357000Y-109220000D01*
X189357000Y-109220000D02*
X185928000Y-105791000D01*
X183960000Y-84201000D02*
X183960000Y-86550000D01*
X183960000Y-86550000D02*
X182118000Y-88392000D01*
X183960000Y-84201000D02*
X179197000Y-84201000D01*
D41*
X199832000Y-80772000D02*
X198247000Y-82357000D01*
X198247000Y-82357000D02*
X198247000Y-84521000D01*
X208010000Y-105918000D02*
X209804000Y-105918000D01*
X209804000Y-105918000D02*
X209931000Y-105791000D01*
X208010000Y-103632000D02*
X209804000Y-103632000D01*
X209804000Y-103632000D02*
X209931000Y-103505000D01*
X208010000Y-100330000D02*
X209677000Y-100330000D01*
X209677000Y-100330000D02*
X209804000Y-100457000D01*
X208010000Y-98044000D02*
X209677000Y-98044000D01*
X209677000Y-98044000D02*
X209804000Y-98171000D01*
X208010000Y-94742000D02*
X209677000Y-94742000D01*
X208010000Y-92456000D02*
X209931000Y-92456000D01*
D39*
X207010000Y-113792000D02*
X208010000Y-112792000D01*
X207010000Y-115570000D02*
X207010000Y-113792000D01*
X208010000Y-112792000D02*
X208010000Y-112538000D01*
D41*
X208010000Y-103886000D02*
X208010000Y-103632000D01*
D39*
X176530000Y-122936000D02*
X174498000Y-122936000D01*
D41*
X123190000Y-80535000D02*
X123190000Y-80010000D01*
X123190000Y-80535000D02*
X122572000Y-81153000D01*
X123190000Y-90187000D02*
X122572000Y-90805000D01*
X123190000Y-90187000D02*
X123190000Y-89662000D01*
D39*
X122428000Y-125476000D02*
X122428000Y-122936000D01*
X130302000Y-125730000D02*
X130048000Y-125476000D01*
X130048000Y-125476000D02*
X124206000Y-125476000D01*
X124206000Y-125476000D02*
X122428000Y-125476000D01*
X146050000Y-72390000D02*
X148463000Y-72390000D01*
X146050000Y-72390000D02*
X148463000Y-72390000D01*
D42*
X129606000Y-112014000D02*
X126619000Y-112014000D01*
D40*
X125222000Y-113538000D02*
X122936000Y-113538000D01*
X125984000Y-112776000D02*
X125222000Y-113538000D01*
D42*
X125984000Y-112649000D02*
X125984000Y-112776000D01*
X126619000Y-112014000D02*
X125984000Y-112649000D01*
D39*
X122428000Y-122936000D02*
X122428000Y-120396000D01*
X135890000Y-122936000D02*
X133604000Y-122936000D01*
D40*
X152592000Y-76650000D02*
X152592000Y-73210000D01*
X161352000Y-76650000D02*
X161352000Y-73210000D01*
X179640000Y-76650000D02*
X179640000Y-73210000D01*
X170880000Y-76650000D02*
X170880000Y-73210000D01*
X202946000Y-123952000D02*
X199898000Y-123952000D01*
X125950000Y-100110000D02*
X125984000Y-100076000D01*
X123952000Y-100110000D02*
X125950000Y-100110000D01*
D41*
X161352000Y-73210000D02*
X161852000Y-72710000D01*
X161852000Y-72710000D02*
X164846000Y-72710000D01*
X179578000Y-96028000D02*
X179578000Y-94742000D01*
D40*
X206248000Y-123952000D02*
X199898000Y-123952000D01*
D41*
X208010000Y-84408000D02*
X207930000Y-84328000D01*
X208010000Y-84408000D02*
X207930000Y-84328000D01*
D40*
X204930000Y-78534000D02*
X204930000Y-79628000D01*
D43*
X204548000Y-80010000D02*
X204930000Y-79628000D01*
D41*
X195707000Y-84328000D02*
X195707000Y-81087000D01*
X195707000Y-81087000D02*
X195392000Y-80772000D01*
D43*
X190500000Y-91374000D02*
X190500000Y-93472000D01*
X190500000Y-91374000D02*
X190312000Y-91186000D01*
X186436000Y-91694000D02*
X189804000Y-91694000D01*
X189804000Y-91694000D02*
X190312000Y-91186000D01*
D39*
X149034500Y-115887500D02*
X159702500Y-115887500D01*
X159702500Y-115887500D02*
X160299996Y-116484996D01*
X160299996Y-116484996D02*
X164401500Y-116484996D01*
D44*
X164401500Y-116484996D02*
X164776500Y-116859996D01*
X164776500Y-116859996D02*
X165735000Y-116859996D01*
D39*
X141732000Y-107508000D02*
X142936000Y-107508000D01*
X142936000Y-107508000D02*
X142938500Y-107505500D01*
D44*
X167856496Y-116459000D02*
X167455500Y-116859996D01*
X167455500Y-116859996D02*
X165735000Y-116859996D01*
D39*
X180213000Y-116459000D02*
X167856496Y-116459000D01*
X183134000Y-113538000D02*
X180213000Y-116459000D01*
X141732000Y-107508000D02*
X141412000Y-107188000D01*
X141412000Y-107188000D02*
X138872000Y-107188000D01*
D41*
X179070000Y-79883000D02*
X185547000Y-79883000D01*
X185547000Y-79883000D02*
X187452000Y-81788000D01*
X171593000Y-80518000D02*
X171593000Y-81677000D01*
X171593000Y-81677000D02*
X171958000Y-82042000D01*
X171958000Y-82042000D02*
X176911000Y-82042000D01*
X176911000Y-82042000D02*
X179070000Y-79883000D01*
X162671000Y-80518000D02*
X171593000Y-80518000D01*
X204089000Y-90678000D02*
X204724000Y-90043000D01*
X204724000Y-90043000D02*
X205248000Y-90043000D01*
X197231000Y-90678000D02*
X196723000Y-91186000D01*
X204089000Y-90678000D02*
X197231000Y-90678000D01*
D39*
X185928000Y-113538000D02*
X183134000Y-113538000D01*
X200660000Y-112268000D02*
X200660000Y-98298000D01*
X199390000Y-113538000D02*
X200660000Y-112268000D01*
X185928000Y-113538000D02*
X199390000Y-113538000D01*
X198120000Y-98298000D02*
X200660000Y-98298000D01*
X200660000Y-98298000D02*
X200660000Y-91694000D01*
X200660000Y-91694000D02*
X200152000Y-91186000D01*
X200152000Y-91186000D02*
X196723000Y-91186000D01*
X196723000Y-91186000D02*
X194752000Y-91186000D01*
D41*
X181102000Y-98028000D02*
X179578000Y-98028000D01*
D40*
X182372000Y-94488000D02*
X182372000Y-98266000D01*
X182626000Y-94234000D02*
X182372000Y-94488000D01*
X187706000Y-94234000D02*
X182626000Y-94234000D01*
X188722000Y-95250000D02*
X187706000Y-94234000D01*
D41*
X181102000Y-98028000D02*
X181340000Y-98266000D01*
X181340000Y-98266000D02*
X182372000Y-98266000D01*
X182372000Y-98266000D02*
X183642000Y-98266000D01*
D40*
X136652000Y-106172000D02*
X136652000Y-108077000D01*
X136652000Y-108077000D02*
X136525000Y-108204000D01*
X136525000Y-108204000D02*
X135509000Y-108204000D01*
X135509000Y-108204000D02*
X135382000Y-108331000D01*
X135382000Y-108331000D02*
X135382000Y-110553500D01*
X135382000Y-110553500D02*
X135572500Y-110744000D01*
X135572500Y-110744000D02*
X135826500Y-110744000D01*
X135826500Y-110744000D02*
X136525000Y-111442500D01*
X136525000Y-111442500D02*
X136525000Y-112656998D01*
X136652000Y-106172000D02*
X136761002Y-106062998D01*
X136761002Y-106062998D02*
X140126502Y-106062998D01*
X140126502Y-106062998D02*
X141986000Y-104203500D01*
X141986000Y-104203500D02*
X141986000Y-98679000D01*
D41*
X166386000Y-112776000D02*
X166386000Y-108576000D01*
X166386000Y-108576000D02*
X166370000Y-108560000D01*
D40*
X166005000Y-114808000D02*
X164989000Y-113792000D01*
X164989000Y-113792000D02*
X163560000Y-113792000D01*
D41*
X163560000Y-113792000D02*
X163560000Y-112014000D01*
D40*
X136525000Y-112656998D02*
X135389998Y-113792000D01*
X135389998Y-113792000D02*
X132588000Y-113792000D01*
X130810000Y-115570000D02*
X132588000Y-113792000D01*
X98486000Y-119954000D02*
X98486000Y-121920000D01*
X98486000Y-119954000D02*
X99314000Y-119126000D01*
X107950000Y-123190000D02*
X110302000Y-123190000D01*
X106426000Y-121666000D02*
X107950000Y-123190000D01*
X98740000Y-121666000D02*
X106426000Y-121666000D01*
X98486000Y-121920000D02*
X98740000Y-121666000D01*
D41*
X110126000Y-84963000D02*
X110236000Y-85073000D01*
X110236000Y-85073000D02*
X110236000Y-86106000D01*
X110126000Y-94615000D02*
X110236000Y-94725000D01*
X110236000Y-94725000D02*
X110236000Y-95758000D01*
X106410000Y-124714000D02*
X108778000Y-124714000D01*
X108778000Y-124714000D02*
X110302000Y-123190000D01*
X114808000Y-94979000D02*
X115172000Y-94615000D01*
X114808000Y-95758000D02*
X114808000Y-94979000D01*
X114808000Y-86106000D02*
X114808000Y-85327000D01*
X114808000Y-85327000D02*
X115172000Y-84963000D01*
X114808000Y-80789000D02*
X115172000Y-81153000D01*
X114808000Y-80010000D02*
X114808000Y-80789000D01*
X110126000Y-81153000D02*
X110236000Y-81043000D01*
X110236000Y-81043000D02*
X110236000Y-80010000D01*
D40*
X116332000Y-100110000D02*
X115223000Y-100110000D01*
X114046000Y-98933000D02*
X114046000Y-98552000D01*
X115223000Y-100110000D02*
X114046000Y-98933000D01*
X114046000Y-105410000D02*
X114046000Y-103632000D01*
X114046000Y-103632000D02*
X114046000Y-101092000D01*
X114046000Y-101092000D02*
X114046000Y-98552000D01*
D41*
X114808000Y-90441000D02*
X115172000Y-90805000D01*
X114808000Y-89662000D02*
X114808000Y-90441000D01*
X111506000Y-119110000D02*
X114946000Y-119110000D01*
X114946000Y-119110000D02*
X115062000Y-118994000D01*
D43*
X115062000Y-118994000D02*
X115062000Y-122870000D01*
X115062000Y-122870000D02*
X114742000Y-123190000D01*
D40*
X126238000Y-79740000D02*
X127492000Y-79740000D01*
X127492000Y-79740000D02*
X127508000Y-79756000D01*
X125730000Y-72390000D02*
X124460000Y-73660000D01*
X124460000Y-75962000D02*
X126238000Y-77740000D01*
X124460000Y-73660000D02*
X124460000Y-75962000D01*
X127762000Y-78232000D02*
X129270000Y-79740000D01*
X129270000Y-79740000D02*
X129286000Y-79740000D01*
X128270000Y-72390000D02*
X127000000Y-73660000D01*
X127000000Y-75454000D02*
X129286000Y-77740000D01*
X127000000Y-73660000D02*
X127000000Y-75454000D01*
X206010000Y-105918000D02*
X206010000Y-111744000D01*
X206010000Y-111744000D02*
X205994000Y-111760000D01*
X206010000Y-103632000D02*
X204724000Y-103632000D01*
X204470000Y-103886000D02*
X204470000Y-109982000D01*
X204724000Y-103632000D02*
X204470000Y-103886000D01*
X205486000Y-100854000D02*
X206010000Y-100330000D01*
X205486000Y-101854000D02*
X205486000Y-100854000D01*
X203962000Y-100092000D02*
X206010000Y-98044000D01*
X203962000Y-101854000D02*
X203962000Y-100092000D01*
X205486000Y-94742000D02*
X206010000Y-94742000D01*
X203962000Y-96266000D02*
X205486000Y-94742000D01*
X202692000Y-92456000D02*
X206010000Y-92456000D01*
X202438000Y-92710000D02*
X202692000Y-92456000D01*
X202438000Y-96266000D02*
X202438000Y-92710000D01*
D41*
X207248000Y-90043000D02*
X207248000Y-88027000D01*
X207248000Y-88027000D02*
X207264000Y-88011000D01*
D40*
X156765500Y-117538500D02*
X156765500Y-118253000D01*
X156765500Y-118253000D02*
X156210000Y-118808500D01*
D41*
X181102000Y-96028000D02*
X181102000Y-94488000D01*
D40*
X168005000Y-114808000D02*
X169164000Y-114808000D01*
D41*
X103124000Y-124714000D02*
X104410000Y-124714000D01*
X103124000Y-124714000D02*
X102870000Y-124460000D01*
D42*
X112522000Y-120650000D02*
X111236000Y-120650000D01*
X125730000Y-118110000D02*
X125730000Y-121158000D01*
X125730000Y-121158000D02*
X127508000Y-122936000D01*
X123190000Y-118110000D02*
X124968000Y-119888000D01*
X124968000Y-119888000D02*
X124968000Y-122936000D01*
D40*
X135890000Y-118110000D02*
X138430000Y-118110000D01*
X169164000Y-119634000D02*
X193040000Y-119634000D01*
X124587000Y-92075000D02*
X122572000Y-92075000D01*
X124714000Y-91948000D02*
X124587000Y-92075000D01*
X138430000Y-118110000D02*
X138430000Y-119634000D01*
X166116000Y-125730000D02*
X168910000Y-122936000D01*
X149352000Y-125730000D02*
X166116000Y-125730000D01*
X148082000Y-124460000D02*
X149352000Y-125730000D01*
X144780000Y-121158000D02*
X148082000Y-124460000D01*
X139954000Y-121158000D02*
X144780000Y-121158000D01*
X138430000Y-119634000D02*
X139954000Y-121158000D01*
X185166000Y-116840000D02*
X190500000Y-116840000D01*
X183388000Y-118618000D02*
X185166000Y-116840000D01*
X167386000Y-118618000D02*
X183388000Y-118618000D01*
X166370000Y-119634000D02*
X167386000Y-118618000D01*
X124587000Y-93345000D02*
X122572000Y-93345000D01*
X124714000Y-93472000D02*
X124587000Y-93345000D01*
X140970000Y-118110000D02*
X140970000Y-120142000D01*
X164076002Y-125229998D02*
X166370000Y-122936000D01*
X149613998Y-125229998D02*
X164076002Y-125229998D01*
X145034000Y-120650000D02*
X149613998Y-125229998D01*
X141478000Y-120650000D02*
X145034000Y-120650000D01*
X140970000Y-120142000D02*
X141478000Y-120650000D01*
X152082500Y-123190000D02*
X153098500Y-122174000D01*
X153098500Y-122174000D02*
X155964610Y-122174000D01*
X155964610Y-122174000D02*
X159266610Y-118872000D01*
X159266610Y-118872000D02*
X160083500Y-118872000D01*
X160083500Y-118872000D02*
X161544000Y-118872000D01*
X181610000Y-118110000D02*
X182372000Y-118110000D01*
X166370000Y-118110000D02*
X181610000Y-118110000D01*
X165608000Y-118872000D02*
X166370000Y-118110000D01*
X161544000Y-118872000D02*
X165608000Y-118872000D01*
X182372000Y-118110000D02*
X184150000Y-116332000D01*
X185642000Y-96266000D02*
X186944000Y-96266000D01*
X186944000Y-96266000D02*
X188214000Y-97536000D01*
X188214000Y-97536000D02*
X188214000Y-99822000D01*
X188214000Y-99822000D02*
X188468000Y-100076000D01*
X188468000Y-100076000D02*
X196596000Y-100076000D01*
X196596000Y-100076000D02*
X196850000Y-100330000D01*
X196850000Y-100330000D02*
X196850000Y-106680000D01*
X136652000Y-120396000D02*
X138430000Y-120396000D01*
X124460000Y-114300000D02*
X128778000Y-114300000D01*
X128778000Y-114300000D02*
X129540000Y-115062000D01*
X129540000Y-115062000D02*
X129540000Y-119634000D01*
X129540000Y-119634000D02*
X130302000Y-120396000D01*
X130302000Y-120396000D02*
X136652000Y-120396000D01*
X123190000Y-115570000D02*
X124460000Y-114300000D01*
X138430000Y-120396000D02*
X140970000Y-122936000D01*
X176276000Y-117602000D02*
X167838498Y-117602000D01*
X167838498Y-117602000D02*
X167830500Y-117609998D01*
X167830500Y-117609998D02*
X159821502Y-117609998D01*
X159821502Y-117609998D02*
X156908500Y-120523000D01*
X150622000Y-123190000D02*
X152146000Y-121666000D01*
X152146000Y-121666000D02*
X155765500Y-121666000D01*
X155765500Y-121666000D02*
X156908500Y-120523000D01*
X176276000Y-117602000D02*
X181356000Y-117602000D01*
X181356000Y-117602000D02*
X182626000Y-116332000D01*
X134620000Y-120904000D02*
X136398000Y-120904000D01*
X127000000Y-116840000D02*
X127000000Y-119888000D01*
X127000000Y-119888000D02*
X128016000Y-120904000D01*
X128016000Y-120904000D02*
X134620000Y-120904000D01*
X125730000Y-115570000D02*
X127000000Y-116840000D01*
X136398000Y-120904000D02*
X138430000Y-122936000D01*
X156972000Y-124206000D02*
X157734000Y-123444000D01*
X157734000Y-123444000D02*
X157734000Y-122745500D01*
X150114000Y-124206000D02*
X156972000Y-124206000D01*
X156972000Y-124206000D02*
X160528000Y-120650000D01*
X160528000Y-120650000D02*
X160909000Y-120650000D01*
X160909000Y-120650000D02*
X179324000Y-120650000D01*
X156210000Y-108560000D02*
X156210000Y-111569500D01*
X194818000Y-121158000D02*
X195580000Y-120396000D01*
X192278000Y-121158000D02*
X194818000Y-121158000D01*
X191754004Y-120634004D02*
X192278000Y-121158000D01*
X186451996Y-120634004D02*
X191754004Y-120634004D01*
X185928000Y-121158000D02*
X186451996Y-120634004D01*
X146304000Y-120396000D02*
X150114000Y-124206000D01*
X134620000Y-114300000D02*
X141732000Y-114300000D01*
X141732000Y-114300000D02*
X142240000Y-114808000D01*
X142240000Y-114808000D02*
X142240000Y-116332000D01*
X142240000Y-116332000D02*
X142748000Y-116840000D01*
X142748000Y-116840000D02*
X144526000Y-116840000D01*
X144526000Y-116840000D02*
X144780000Y-117094000D01*
X144780000Y-117094000D02*
X144780000Y-119380000D01*
X144780000Y-119380000D02*
X145034000Y-119634000D01*
X145034000Y-119634000D02*
X145542000Y-119634000D01*
X145542000Y-119634000D02*
X146304000Y-120396000D01*
X133350000Y-115570000D02*
X134620000Y-114300000D01*
X179324000Y-120650000D02*
X181610000Y-122936000D01*
X158750000Y-123825000D02*
X158750000Y-124206000D01*
X158750000Y-124206000D02*
X158750000Y-124714000D01*
X158750000Y-108560000D02*
X158750000Y-111569500D01*
X158750000Y-108560000D02*
X158750000Y-111569500D01*
X192532000Y-120650000D02*
X193548000Y-120650000D01*
X181102000Y-120650000D02*
X181617998Y-120134002D01*
X181617998Y-120134002D02*
X192016002Y-120134002D01*
X192016002Y-120134002D02*
X192532000Y-120650000D01*
X198120000Y-119126000D02*
X198120000Y-116840000D01*
X197866000Y-119380000D02*
X198120000Y-119126000D01*
X194818000Y-119380000D02*
X197866000Y-119380000D01*
X193548000Y-120650000D02*
X194818000Y-119380000D01*
X145796000Y-120650000D02*
X149860000Y-124714000D01*
X137160000Y-116840000D02*
X141986000Y-116840000D01*
X141986000Y-116840000D02*
X142240000Y-117094000D01*
X142240000Y-117094000D02*
X142240000Y-119895998D01*
X142240000Y-119895998D02*
X142486002Y-120142000D01*
X142486002Y-120142000D02*
X145288000Y-120142000D01*
X145288000Y-120142000D02*
X145796000Y-120650000D01*
X135890000Y-115570000D02*
X137160000Y-116840000D01*
X177292000Y-121158000D02*
X179070000Y-122936000D01*
X162560000Y-121158000D02*
X177292000Y-121158000D01*
X162306000Y-121412000D02*
X162560000Y-121158000D01*
X162306000Y-124460000D02*
X162306000Y-121412000D01*
X162052000Y-124714000D02*
X162306000Y-124460000D01*
X149860000Y-124714000D02*
X158750000Y-124714000D01*
X158750000Y-124714000D02*
X162052000Y-124714000D01*
X143918445Y-81887555D02*
X144199890Y-82169000D01*
X144199890Y-82169000D02*
X160782000Y-82169000D01*
X160782000Y-82169000D02*
X161036000Y-81915000D01*
X143691890Y-81661000D02*
X143918445Y-81887555D01*
X143918445Y-81887555D02*
X143945890Y-81915000D01*
X161036000Y-81915000D02*
X161290000Y-81661000D01*
X141505445Y-79474555D02*
X137160000Y-79474555D01*
X173736000Y-79502000D02*
X161798000Y-79502000D01*
X161798000Y-79502000D02*
X161671000Y-79629000D01*
X161671000Y-79629000D02*
X161671000Y-81280000D01*
X161671000Y-81280000D02*
X161290000Y-81661000D01*
X143691890Y-81661000D02*
X141505445Y-79474555D01*
X141505445Y-79474555D02*
X141505445Y-79502000D01*
D42*
X183007000Y-77023000D02*
X181528000Y-78502000D01*
X181528000Y-78502000D02*
X177226000Y-78502000D01*
D40*
X141478000Y-79502000D02*
X141505445Y-79502000D01*
X176276000Y-79502000D02*
X173736000Y-79502000D01*
X177226000Y-78552000D02*
X176276000Y-79502000D01*
X177226000Y-78502000D02*
X177226000Y-78552000D01*
X138430000Y-74930000D02*
X137160000Y-76200000D01*
X137160000Y-76200000D02*
X137160000Y-79474555D01*
X137160000Y-79474555D02*
X137160000Y-79502000D01*
X137160000Y-81788000D02*
X138430000Y-83058000D01*
X137160000Y-79502000D02*
X137160000Y-81788000D01*
X138430000Y-83058000D02*
X139380000Y-83058000D01*
X138430000Y-74930000D02*
X137160000Y-73660000D01*
X129159000Y-82423000D02*
X122572000Y-82423000D01*
X134620000Y-76962000D02*
X129159000Y-82423000D01*
X134620000Y-73914000D02*
X134620000Y-76962000D01*
X134874000Y-73660000D02*
X134620000Y-73914000D01*
X137160000Y-73660000D02*
X134874000Y-73660000D01*
D44*
X164846000Y-77404000D02*
X163748000Y-78502000D01*
X163748000Y-78502000D02*
X158938000Y-78502000D01*
X164846000Y-77404000D02*
X164846000Y-77150000D01*
D40*
X151130000Y-79502000D02*
X142240000Y-79502000D01*
X142240000Y-79502000D02*
X140462000Y-77724000D01*
X140462000Y-77724000D02*
X138938000Y-77724000D01*
X158938000Y-78502000D02*
X158938000Y-79060000D01*
X158496000Y-79502000D02*
X151130000Y-79502000D01*
X158938000Y-79060000D02*
X158496000Y-79502000D01*
X122572000Y-83693000D02*
X134305000Y-83693000D01*
X134305000Y-83693000D02*
X134940000Y-83058000D01*
X135890000Y-74930000D02*
X135890000Y-79248000D01*
X132842000Y-83058000D02*
X134940000Y-83058000D01*
X132588000Y-82804000D02*
X132842000Y-83058000D01*
X132588000Y-79756000D02*
X132588000Y-82804000D01*
X132842000Y-79502000D02*
X132588000Y-79756000D01*
X135636000Y-79502000D02*
X132842000Y-79502000D01*
X135890000Y-79248000D02*
X135636000Y-79502000D01*
X178308000Y-84836000D02*
X178308000Y-98552000D01*
X178308000Y-98552000D02*
X179070000Y-99314000D01*
X179070000Y-99314000D02*
X182118000Y-99314000D01*
X182118000Y-99314000D02*
X182372000Y-99568000D01*
X182372000Y-99568000D02*
X182372000Y-102616000D01*
X182372000Y-102616000D02*
X183134000Y-103378000D01*
X183134000Y-103378000D02*
X186182000Y-103378000D01*
X186182000Y-103378000D02*
X186944000Y-102616000D01*
X186944000Y-102616000D02*
X186944000Y-99568000D01*
X186944000Y-99568000D02*
X185642000Y-98266000D01*
X177546000Y-83058000D02*
X177800000Y-83058000D01*
X177800000Y-83058000D02*
X178308000Y-83566000D01*
X178308000Y-83566000D02*
X178308000Y-84836000D01*
X139380000Y-80518000D02*
X141732000Y-80518000D01*
X141732000Y-80518000D02*
X144018000Y-82804000D01*
X144018000Y-82804000D02*
X171450000Y-82804000D01*
X171450000Y-82804000D02*
X171704000Y-83058000D01*
X171704000Y-83058000D02*
X177546000Y-83058000D01*
X139380000Y-80518000D02*
X139954000Y-80518000D01*
X146685000Y-114046000D02*
X146685000Y-99885500D01*
X146685000Y-99885500D02*
X145478500Y-98679000D01*
X145478500Y-98679000D02*
X145478500Y-86296500D01*
X145478500Y-86296500D02*
X144780000Y-85598000D01*
X147320000Y-114681000D02*
X146685000Y-114046000D01*
X144780000Y-85598000D02*
X144272000Y-85598000D01*
X144272000Y-85598000D02*
X139380000Y-85598000D01*
X168910000Y-108560000D02*
X168910000Y-111760000D01*
X168910000Y-111760000D02*
X167005000Y-113665000D01*
X167005000Y-113665000D02*
X167005000Y-115697000D01*
X167005000Y-115697000D02*
X166751000Y-115951000D01*
X166751000Y-115951000D02*
X165481000Y-115951000D01*
X165481000Y-115951000D02*
X164719000Y-115189000D01*
X164719000Y-115189000D02*
X160655000Y-115189000D01*
X160655000Y-115189000D02*
X160147000Y-114681000D01*
X160147000Y-114681000D02*
X147320000Y-114681000D01*
X161290000Y-89560000D02*
X161290000Y-86487000D01*
X161290000Y-89560000D02*
X161290000Y-87122000D01*
D39*
X146050000Y-115570000D02*
X146050000Y-115379500D01*
X146050000Y-115379500D02*
X142618500Y-111948000D01*
X142618500Y-111948000D02*
X141732000Y-111948000D01*
X146050000Y-118110000D02*
X148336000Y-120396000D01*
X148336000Y-120396000D02*
X149545000Y-120396000D01*
D40*
X192532000Y-98298000D02*
X192532000Y-97028000D01*
X183642000Y-94996000D02*
X183642000Y-96266000D01*
X183896000Y-94742000D02*
X183642000Y-94996000D01*
X187452000Y-94742000D02*
X183896000Y-94742000D01*
X187706000Y-94996000D02*
X187452000Y-94742000D01*
X187706000Y-96266000D02*
X187706000Y-94996000D01*
X187960000Y-96520000D02*
X187706000Y-96266000D01*
X192024000Y-96520000D02*
X187960000Y-96520000D01*
X192532000Y-97028000D02*
X192024000Y-96520000D01*
D41*
X175326000Y-78502000D02*
X175260000Y-78436000D01*
X175260000Y-78436000D02*
X175260000Y-73210000D01*
X177546000Y-76708000D02*
X175260000Y-76708000D01*
D39*
X175260000Y-73210000D02*
X175260000Y-76708000D01*
D41*
X156972000Y-78436000D02*
X156972000Y-73210000D01*
X157038000Y-78502000D02*
X156972000Y-78436000D01*
X159258000Y-76708000D02*
X157038000Y-76708000D01*
D39*
X157038000Y-76708000D02*
X157038000Y-73276000D01*
X157038000Y-73276000D02*
X156972000Y-73210000D01*
D41*
X122174000Y-104140000D02*
X131046500Y-104140000D01*
X121412000Y-100110000D02*
X121412000Y-103378000D01*
X121412000Y-103378000D02*
X122174000Y-104140000D01*
X116332000Y-110710000D02*
X115062000Y-110710000D01*
D43*
X115062000Y-115194000D02*
X115062000Y-110710000D01*
X115062000Y-110710000D02*
X115062000Y-108966000D01*
D41*
X173593000Y-80518000D02*
X173609000Y-80502000D01*
X173609000Y-80502000D02*
X176276000Y-80502000D01*
X157988000Y-80502000D02*
X158004000Y-80518000D01*
X158004000Y-80518000D02*
X160671000Y-80518000D01*
X115172000Y-92075000D02*
X110126000Y-92075000D01*
X110126000Y-93345000D02*
X115172000Y-93345000D01*
X115172000Y-82423000D02*
X110126000Y-82423000D01*
X115172000Y-83693000D02*
X110126000Y-83693000D01*
X133634000Y-104140000D02*
X133634000Y-101516998D01*
X133634000Y-101516998D02*
X133209002Y-101092000D01*
X133209002Y-101092000D02*
X133334000Y-101092000D01*
D39*
X134046000Y-112014000D02*
X134046000Y-107574000D01*
X134046000Y-107574000D02*
X134432000Y-107188000D01*
X133621500Y-104140000D02*
X133621500Y-106377500D01*
X133621500Y-106377500D02*
X134432000Y-107188000D01*
D42*
X100398000Y-107694000D02*
X103712000Y-107694000D01*
D45*
X99917305Y-100158000D02*
X102117614Y-100158000D01*
X96792612Y-93390000D02*
X97763000Y-93390000D01*
X95997495Y-96238190D02*
X99917305Y-100158000D01*
X96792612Y-93390000D02*
X95997495Y-94185117D01*
X95997495Y-94185117D02*
X95997495Y-96238190D01*
X102117614Y-100158000D02*
X105074000Y-103114386D01*
X105074000Y-103114386D02*
X105074000Y-107188000D01*
X105074000Y-107188000D02*
X104140000Y-108122000D01*
D42*
X103712000Y-107694000D02*
X104140000Y-108122000D01*
D45*
X98173000Y-92980000D02*
X97763000Y-93390000D01*
X102726000Y-93345000D02*
X100063500Y-93345000D01*
X100063500Y-93345000D02*
X100018500Y-93390000D01*
X100018500Y-93390000D02*
X99497705Y-93390000D01*
X99497705Y-93390000D02*
X99087705Y-92980000D01*
X99087705Y-92980000D02*
X98298000Y-92980000D01*
D46*
X98298000Y-92980000D02*
X98173000Y-92980000D01*
D42*
X100398000Y-108714000D02*
X102999000Y-108714000D01*
D45*
X104628772Y-109302000D02*
X104140000Y-109302000D01*
X106254000Y-107676772D02*
X104628772Y-109302000D01*
X106254000Y-102625614D02*
X106254000Y-107676772D01*
X97177495Y-95749418D02*
X100406077Y-98978000D01*
X97177495Y-94673889D02*
X97177495Y-95749418D01*
X97281384Y-94570000D02*
X97177495Y-94673889D01*
X102606386Y-98978000D02*
X106254000Y-102625614D01*
X97281384Y-94570000D02*
X97763000Y-94570000D01*
X100406077Y-98978000D02*
X102606386Y-98978000D01*
D42*
X103587000Y-109302000D02*
X104140000Y-109302000D01*
X102999000Y-108714000D02*
X103587000Y-109302000D01*
D45*
X98173000Y-94980000D02*
X97763000Y-94570000D01*
X102726000Y-94615000D02*
X100063500Y-94615000D01*
X100063500Y-94615000D02*
X100018500Y-94570000D01*
X100018500Y-94570000D02*
X99645500Y-94570000D01*
X99645500Y-94570000D02*
X99235500Y-94980000D01*
X99235500Y-94980000D02*
X98298000Y-94980000D01*
D46*
X98298000Y-94980000D02*
X98173000Y-94980000D01*
D45*
X102726000Y-90805000D02*
X101251000Y-90805000D01*
X101251000Y-90805000D02*
X101206000Y-90850000D01*
X100052822Y-90649999D02*
X99982637Y-90649999D01*
X101206000Y-90850000D02*
X100252823Y-90850000D01*
X100252823Y-90850000D02*
X100052822Y-90649999D01*
X99982637Y-90649999D02*
X99880259Y-90547621D01*
X99880259Y-90547621D02*
X99880259Y-90422959D01*
D42*
X95764000Y-109734000D02*
X95504000Y-109474000D01*
X100398000Y-109734000D02*
X95764000Y-109734000D01*
D45*
X101251000Y-92075000D02*
X101206000Y-92030000D01*
X101206000Y-92030000D02*
X99764064Y-92030000D01*
X99564054Y-91829990D02*
X99406386Y-91829990D01*
X102726000Y-92075000D02*
X101251000Y-92075000D01*
X99406386Y-91829990D02*
X99045873Y-91469477D01*
X99045873Y-91469477D02*
X98833741Y-91469477D01*
X99764064Y-92030000D02*
X99564054Y-91829990D01*
D42*
X95749000Y-106674000D02*
X95504000Y-106919000D01*
X100398000Y-106674000D02*
X95749000Y-106674000D01*
X100398000Y-110754000D02*
X103876000Y-110754000D01*
X103886000Y-110744000D02*
X103886000Y-110712654D01*
X103876000Y-110754000D02*
X103886000Y-110744000D01*
D45*
X105673614Y-87712000D02*
X105836000Y-87874386D01*
X95506228Y-86927414D02*
X96290814Y-87712000D01*
X96783614Y-83738000D02*
X95506228Y-85015386D01*
X105836000Y-87874386D02*
X105836000Y-96510386D01*
X97763000Y-83738000D02*
X96783614Y-83738000D01*
X96290814Y-87712000D02*
X105673614Y-87712000D01*
X95506228Y-85015386D02*
X95506228Y-86927414D01*
X105836000Y-96510386D02*
X110154000Y-100828386D01*
X110154000Y-100828386D02*
X110154000Y-106181614D01*
X110154000Y-106181614D02*
X105622960Y-110712654D01*
X105622960Y-110712654D02*
X103886000Y-110712654D01*
X103886000Y-110712654D02*
X103545147Y-110712654D01*
X98298000Y-83328000D02*
X98173000Y-83328000D01*
X98173000Y-83328000D02*
X97763000Y-83738000D01*
X102726000Y-83693000D02*
X100063500Y-83693000D01*
X100063500Y-83693000D02*
X100018500Y-83738000D01*
X100018500Y-83738000D02*
X99645500Y-83738000D01*
X99645500Y-83738000D02*
X99235500Y-83328000D01*
X99235500Y-83328000D02*
X98298000Y-83328000D01*
D42*
X96266000Y-105283000D02*
X96266000Y-105238000D01*
X97282000Y-105283000D02*
X96266000Y-105283000D01*
X97653000Y-105654000D02*
X97282000Y-105283000D01*
X100398000Y-105654000D02*
X97653000Y-105654000D01*
D45*
X96266000Y-105238000D02*
X96728998Y-105238000D01*
X102680999Y-81198001D02*
X101336387Y-81198001D01*
X90498778Y-79608836D02*
X90498778Y-95905164D01*
X102726000Y-81153000D02*
X102680999Y-81198001D01*
X92719614Y-77388000D02*
X90498778Y-79608836D01*
X101336387Y-81198001D02*
X97526386Y-77388000D01*
X94751614Y-105238000D02*
X96266000Y-105238000D01*
X97526386Y-77388000D02*
X92719614Y-77388000D01*
X90498778Y-95905164D02*
X93136000Y-98542386D01*
X93136000Y-103622386D02*
X94751614Y-105238000D01*
X93136000Y-98542386D02*
X93136000Y-103622386D01*
D44*
X96728998Y-105259998D02*
X96728998Y-105238000D01*
D42*
X96728998Y-104058000D02*
X97327000Y-104058000D01*
D45*
X91676000Y-84604000D02*
X91677253Y-84615126D01*
X91694825Y-91843091D02*
X91704305Y-91849048D01*
X91677253Y-86492873D02*
X91676000Y-86504000D01*
X97037614Y-78568000D02*
X93208386Y-78568000D01*
X91771048Y-82825694D02*
X91765091Y-82835174D01*
X91680951Y-90082305D02*
X91677253Y-90092873D01*
X92171822Y-88254000D02*
X92259901Y-88263924D01*
X102680999Y-82377999D02*
X100847613Y-82377999D01*
X100847613Y-82377999D02*
X97037614Y-78568000D01*
X92171822Y-84654000D02*
X92259901Y-84663924D01*
X91714873Y-82855253D02*
X91704305Y-82858951D01*
X91676000Y-82904000D02*
X91676000Y-84604000D01*
X91694825Y-84643091D02*
X91704305Y-84649048D01*
X92259901Y-90044075D02*
X92171822Y-90054000D01*
X91694825Y-88243091D02*
X91704305Y-88249048D01*
X91686908Y-88235174D02*
X91694825Y-88243091D01*
X91726000Y-88254000D02*
X92171822Y-88254000D01*
X93208386Y-78568000D02*
X91776000Y-80000386D01*
X91776000Y-80000386D02*
X91776000Y-82804000D01*
X91726000Y-91854000D02*
X92171822Y-91854000D01*
X91686908Y-82872825D02*
X91680951Y-82882305D01*
X91686908Y-86472825D02*
X91680951Y-86482305D01*
X91776000Y-82804000D02*
X91774746Y-82815126D01*
X92557720Y-89746256D02*
X92528446Y-89829918D01*
X92557720Y-84961743D02*
X92567644Y-85049822D01*
X92557720Y-92161743D02*
X92567644Y-92249822D01*
X92259901Y-88263924D02*
X92343563Y-88293198D01*
X92567644Y-86058178D02*
X92557720Y-86146256D01*
X91774746Y-82815126D02*
X91771048Y-82825694D01*
X91765091Y-82835174D02*
X91757174Y-82843091D01*
X91686908Y-90072825D02*
X91680951Y-90082305D01*
X91757174Y-82843091D02*
X91747694Y-82849048D01*
X92557720Y-88561743D02*
X92567644Y-88649822D01*
X91747694Y-82849048D02*
X91737126Y-82852746D01*
X91726000Y-84654000D02*
X92171822Y-84654000D01*
X92343563Y-86414801D02*
X92259901Y-86444075D01*
X91704305Y-82858951D02*
X91694825Y-82864908D01*
X91677253Y-84615126D02*
X91680951Y-84625694D01*
X91737126Y-82852746D02*
X91714873Y-82855253D01*
X92259901Y-86444075D02*
X92171822Y-86454000D01*
X91694825Y-82864908D02*
X91686908Y-82872825D01*
X92259901Y-93644075D02*
X92083744Y-93663924D01*
X91704305Y-88249048D02*
X91714873Y-88252746D01*
X91680951Y-82882305D02*
X91677253Y-82892873D01*
X92418613Y-86367644D02*
X92343563Y-86414801D01*
X92343563Y-88293198D02*
X92418613Y-88340355D01*
X91704305Y-86458951D02*
X91694825Y-86464908D01*
X92528446Y-86229918D02*
X92481289Y-86304968D01*
X91686908Y-84635174D02*
X91694825Y-84643091D01*
X91677253Y-82892873D02*
X91676000Y-82904000D01*
X91680951Y-84625694D02*
X91686908Y-84635174D01*
X91677253Y-91815126D02*
X91680951Y-91825694D01*
X91704305Y-84649048D02*
X91714873Y-84652746D01*
X91676000Y-86504000D02*
X91676000Y-88204000D01*
X91785925Y-93961743D02*
X91776000Y-94049822D01*
X94316000Y-103133614D02*
X95240386Y-104058000D01*
X91714873Y-84652746D02*
X91726000Y-84654000D01*
X92418613Y-84740355D02*
X92481289Y-84803031D01*
X92259901Y-84663924D02*
X92343563Y-84693198D01*
X92343563Y-84693198D02*
X92418613Y-84740355D01*
X91714873Y-88252746D02*
X91726000Y-88254000D01*
X92481289Y-84803031D02*
X92528446Y-84878081D01*
X92528446Y-84878081D02*
X92557720Y-84961743D01*
X92481289Y-89904968D02*
X92418613Y-89967644D01*
X91677253Y-90092873D02*
X91676000Y-90104000D01*
X92567644Y-85049822D02*
X92567644Y-86058178D01*
X92528446Y-92078081D02*
X92557720Y-92161743D01*
X92557720Y-86146256D02*
X92528446Y-86229918D01*
X92481289Y-86304968D02*
X92418613Y-86367644D01*
X92171822Y-86454000D02*
X91726000Y-86454000D01*
X91686908Y-91835174D02*
X91694825Y-91843091D01*
X91726000Y-86454000D02*
X91714873Y-86455253D01*
X91714873Y-86455253D02*
X91704305Y-86458951D01*
X91694825Y-86464908D02*
X91686908Y-86472825D01*
X95240386Y-104058000D02*
X96728998Y-104058000D01*
X91680951Y-86482305D02*
X91677253Y-86492873D01*
X91676000Y-88204000D02*
X91677253Y-88215126D01*
X91677253Y-88215126D02*
X91680951Y-88225694D01*
X92343563Y-91893198D02*
X92418613Y-91940355D01*
X91925032Y-93740355D02*
X91862356Y-93803031D01*
X91680951Y-88225694D02*
X91686908Y-88235174D01*
X92418613Y-88340355D02*
X92481289Y-88403031D01*
X92481289Y-88403031D02*
X92528446Y-88478081D01*
X91714873Y-90055253D02*
X91704305Y-90058951D01*
X92567644Y-93258178D02*
X92557720Y-93346256D01*
X92528446Y-88478081D02*
X92557720Y-88561743D01*
X92567644Y-88649822D02*
X92567644Y-89658178D01*
X91694825Y-90064908D02*
X91686908Y-90072825D01*
X92567644Y-89658178D02*
X92557720Y-89746256D01*
X92528446Y-89829918D02*
X92481289Y-89904968D01*
X92418613Y-89967644D02*
X92343563Y-90014801D01*
X92343563Y-90014801D02*
X92259901Y-90044075D01*
X92171822Y-90054000D02*
X91726000Y-90054000D01*
X91676000Y-90104000D02*
X91676000Y-91804000D01*
X91726000Y-90054000D02*
X91714873Y-90055253D01*
X91704305Y-90058951D02*
X91694825Y-90064908D01*
X91676000Y-91804000D02*
X91677253Y-91815126D01*
X91680951Y-91825694D02*
X91686908Y-91835174D01*
X91704305Y-91849048D02*
X91714873Y-91852746D01*
X91714873Y-91852746D02*
X91726000Y-91854000D01*
X92171822Y-91854000D02*
X92259901Y-91863924D01*
X92259901Y-91863924D02*
X92343563Y-91893198D01*
X92418613Y-91940355D02*
X92481289Y-92003031D01*
X92481289Y-92003031D02*
X92528446Y-92078081D01*
X92567644Y-92249822D02*
X92567644Y-93258178D01*
X92557720Y-93346256D02*
X92528446Y-93429918D01*
X92528446Y-93429918D02*
X92481289Y-93504968D01*
X91815199Y-93878081D02*
X91785925Y-93961743D01*
X92481289Y-93504968D02*
X92418613Y-93567644D01*
X92418613Y-93567644D02*
X92343563Y-93614801D01*
X92343563Y-93614801D02*
X92259901Y-93644075D01*
X92083744Y-93663924D02*
X92000082Y-93693198D01*
X92000082Y-93693198D02*
X91925032Y-93740355D01*
X91862356Y-93803031D02*
X91815199Y-93878081D01*
X91776000Y-94049822D02*
X91776000Y-95513614D01*
X91776000Y-95513614D02*
X94316000Y-98053614D01*
X94316000Y-98053614D02*
X94316000Y-103133614D01*
D42*
X97327000Y-104058000D02*
X97903000Y-104634000D01*
X97903000Y-104634000D02*
X100398000Y-104634000D01*
D45*
X102726000Y-82423000D02*
X102680999Y-82377999D01*
D42*
X100398000Y-111774000D02*
X103745000Y-111774000D01*
X103759000Y-111760000D02*
X103759000Y-111892654D01*
X103745000Y-111774000D02*
X103759000Y-111760000D01*
D45*
X106111732Y-111892654D02*
X103759000Y-111892654D01*
X103759000Y-111892654D02*
X103545147Y-111892654D01*
X111334000Y-106670386D02*
X106111732Y-111892654D01*
X111334000Y-100339614D02*
X111334000Y-106670386D01*
X107016000Y-96021614D02*
X111334000Y-100339614D01*
X96686228Y-86438642D02*
X96779586Y-86532000D01*
X98298000Y-85328000D02*
X98173000Y-85328000D01*
X107016000Y-87385614D02*
X107016000Y-96021614D01*
X98173000Y-85328000D02*
X97763000Y-84918000D01*
X97763000Y-84918000D02*
X97272386Y-84918000D01*
X97272386Y-84918000D02*
X96686228Y-85504158D01*
X96686228Y-85504158D02*
X96686228Y-86438642D01*
X96779586Y-86532000D02*
X106162386Y-86532000D01*
X106162386Y-86532000D02*
X107016000Y-87385614D01*
X102726000Y-84963000D02*
X100063500Y-84963000D01*
X100063500Y-84963000D02*
X100018500Y-84918000D01*
X100018500Y-84918000D02*
X99645500Y-84918000D01*
X99645500Y-84918000D02*
X99235500Y-85328000D01*
X99235500Y-85328000D02*
X98298000Y-85328000D01*
D40*
G36*
X107587630Y-117250416D02*
X107711090Y-117332910D01*
X107793584Y-117456370D01*
X107866071Y-117820789D01*
X107884735Y-117865849D01*
X107994856Y-118030656D01*
X108029344Y-118065144D01*
X108194151Y-118175265D01*
X108239211Y-118193929D01*
X108433614Y-118232598D01*
X108458000Y-118235000D01*
X110238000Y-118235000D01*
X110238000Y-119634000D01*
X110239883Y-119644008D01*
X110239481Y-119644598D01*
X110090034Y-119495150D01*
X109860320Y-119400000D01*
X109642250Y-119400000D01*
X109486000Y-119556250D01*
X109486000Y-120337500D01*
X109631000Y-120337500D01*
X109631000Y-120962500D01*
X109486000Y-120962500D01*
X109486000Y-121490146D01*
X109485848Y-121490368D01*
X109476000Y-121539000D01*
X109476000Y-121793000D01*
X109484549Y-121838432D01*
X109511399Y-121880159D01*
X109552368Y-121908152D01*
X109601000Y-121918000D01*
X110746000Y-121918000D01*
X110746000Y-122017250D01*
X110677000Y-122086250D01*
X110677000Y-122872500D01*
X110697000Y-122872500D01*
X110697000Y-123507500D01*
X110677000Y-123507500D01*
X110677000Y-124293750D01*
X110833250Y-124450000D01*
X112266320Y-124450000D01*
X112305049Y-124433958D01*
X112252012Y-124700594D01*
X111846094Y-125308094D01*
X111238594Y-125714012D01*
X110509690Y-125859000D01*
X107566595Y-125859000D01*
X107567000Y-125857000D01*
X107567000Y-125476000D01*
X107558451Y-125430568D01*
X107535000Y-125394123D01*
X107535000Y-125182750D01*
X107378750Y-125026500D01*
X106660000Y-125026500D01*
X106660000Y-125109000D01*
X106160000Y-125109000D01*
X106160000Y-125026500D01*
X106015000Y-125026500D01*
X106015000Y-124401500D01*
X106160000Y-124401500D01*
X106160000Y-123873854D01*
X106160152Y-123873632D01*
X106170000Y-123825000D01*
X106170000Y-123620250D01*
X106660000Y-123620250D01*
X106660000Y-124401500D01*
X107378750Y-124401500D01*
X107535000Y-124245250D01*
X107535000Y-123964680D01*
X107439849Y-123734966D01*
X107368634Y-123663750D01*
X107837000Y-123663750D01*
X107837000Y-123949320D01*
X107932151Y-124179034D01*
X108107966Y-124354850D01*
X108337680Y-124450000D01*
X109770750Y-124450000D01*
X109927000Y-124293750D01*
X109927000Y-123507500D01*
X107993250Y-123507500D01*
X107837000Y-123663750D01*
X107368634Y-123663750D01*
X107264034Y-123559150D01*
X107034320Y-123464000D01*
X106816250Y-123464000D01*
X106660000Y-123620250D01*
X106170000Y-123620250D01*
X106170000Y-123571000D01*
X106161451Y-123525568D01*
X106134601Y-123483841D01*
X106093632Y-123455848D01*
X106045000Y-123446000D01*
X104587977Y-123446000D01*
X104545300Y-123342714D01*
X103990209Y-122786652D01*
X103264575Y-122485343D01*
X102478872Y-122484657D01*
X101752714Y-122784700D01*
X101196652Y-123339791D01*
X100895343Y-124065425D01*
X100894657Y-124851128D01*
X101194700Y-125577286D01*
X101475922Y-125859000D01*
X98278310Y-125859000D01*
X97549406Y-125714012D01*
X96941906Y-125308094D01*
X96535988Y-124700594D01*
X96391000Y-123971690D01*
X96391000Y-123125871D01*
X96521680Y-123180000D01*
X97954750Y-123180000D01*
X98111000Y-123023750D01*
X98111000Y-122237500D01*
X98861000Y-122237500D01*
X98861000Y-123023750D01*
X99017250Y-123180000D01*
X100450320Y-123180000D01*
X100680034Y-123084850D01*
X100855849Y-122909034D01*
X100951000Y-122679320D01*
X100951000Y-122430680D01*
X107837000Y-122430680D01*
X107837000Y-122716250D01*
X107993250Y-122872500D01*
X109927000Y-122872500D01*
X109927000Y-122086250D01*
X109770750Y-121930000D01*
X108337680Y-121930000D01*
X108107966Y-122025150D01*
X107932151Y-122200966D01*
X107837000Y-122430680D01*
X100951000Y-122430680D01*
X100951000Y-122393750D01*
X100794750Y-122237500D01*
X98861000Y-122237500D01*
X98111000Y-122237500D01*
X98091000Y-122237500D01*
X98091000Y-121602500D01*
X98111000Y-121602500D01*
X98111000Y-120816250D01*
X98861000Y-120816250D01*
X98861000Y-121602500D01*
X100794750Y-121602500D01*
X100951000Y-121446250D01*
X100951000Y-121160680D01*
X100933632Y-121118750D01*
X108111000Y-121118750D01*
X108111000Y-121399320D01*
X108206151Y-121629034D01*
X108381966Y-121804850D01*
X108611680Y-121900000D01*
X108829750Y-121900000D01*
X108986000Y-121743750D01*
X108986000Y-120962500D01*
X108267250Y-120962500D01*
X108111000Y-121118750D01*
X100933632Y-121118750D01*
X100855849Y-120930966D01*
X100680034Y-120755150D01*
X100450320Y-120660000D01*
X99017250Y-120660000D01*
X98861000Y-120816250D01*
X98111000Y-120816250D01*
X97954750Y-120660000D01*
X96521680Y-120660000D01*
X96391000Y-120714129D01*
X96391000Y-119900680D01*
X108111000Y-119900680D01*
X108111000Y-120181250D01*
X108267250Y-120337500D01*
X108986000Y-120337500D01*
X108986000Y-119556250D01*
X108829750Y-119400000D01*
X108611680Y-119400000D01*
X108381966Y-119495150D01*
X108206151Y-119670966D01*
X108111000Y-119900680D01*
X96391000Y-119900680D01*
X96391000Y-119106310D01*
X96535988Y-118377406D01*
X96941906Y-117769906D01*
X97549406Y-117363988D01*
X98278310Y-117219000D01*
X107429690Y-117219000D01*
X107587630Y-117250416D01*
X107587630Y-117250416D01*
G37*
X107587630Y-117250416D02*
X107711090Y-117332910D01*
X107793584Y-117456370D01*
X107866071Y-117820789D01*
X107884735Y-117865849D01*
X107994856Y-118030656D01*
X108029344Y-118065144D01*
X108194151Y-118175265D01*
X108239211Y-118193929D01*
X108433614Y-118232598D01*
X108458000Y-118235000D01*
X110238000Y-118235000D01*
X110238000Y-119634000D01*
X110239883Y-119644008D01*
X110239481Y-119644598D01*
X110090034Y-119495150D01*
X109860320Y-119400000D01*
X109642250Y-119400000D01*
X109486000Y-119556250D01*
X109486000Y-120337500D01*
X109631000Y-120337500D01*
X109631000Y-120962500D01*
X109486000Y-120962500D01*
X109486000Y-121490146D01*
X109485848Y-121490368D01*
X109476000Y-121539000D01*
X109476000Y-121793000D01*
X109484549Y-121838432D01*
X109511399Y-121880159D01*
X109552368Y-121908152D01*
X109601000Y-121918000D01*
X110746000Y-121918000D01*
X110746000Y-122017250D01*
X110677000Y-122086250D01*
X110677000Y-122872500D01*
X110697000Y-122872500D01*
X110697000Y-123507500D01*
X110677000Y-123507500D01*
X110677000Y-124293750D01*
X110833250Y-124450000D01*
X112266320Y-124450000D01*
X112305049Y-124433958D01*
X112252012Y-124700594D01*
X111846094Y-125308094D01*
X111238594Y-125714012D01*
X110509690Y-125859000D01*
X107566595Y-125859000D01*
X107567000Y-125857000D01*
X107567000Y-125476000D01*
X107558451Y-125430568D01*
X107535000Y-125394123D01*
X107535000Y-125182750D01*
X107378750Y-125026500D01*
X106660000Y-125026500D01*
X106660000Y-125109000D01*
X106160000Y-125109000D01*
X106160000Y-125026500D01*
X106015000Y-125026500D01*
X106015000Y-124401500D01*
X106160000Y-124401500D01*
X106160000Y-123873854D01*
X106160152Y-123873632D01*
X106170000Y-123825000D01*
X106170000Y-123620250D01*
X106660000Y-123620250D01*
X106660000Y-124401500D01*
X107378750Y-124401500D01*
X107535000Y-124245250D01*
X107535000Y-123964680D01*
X107439849Y-123734966D01*
X107368634Y-123663750D01*
X107837000Y-123663750D01*
X107837000Y-123949320D01*
X107932151Y-124179034D01*
X108107966Y-124354850D01*
X108337680Y-124450000D01*
X109770750Y-124450000D01*
X109927000Y-124293750D01*
X109927000Y-123507500D01*
X107993250Y-123507500D01*
X107837000Y-123663750D01*
X107368634Y-123663750D01*
X107264034Y-123559150D01*
X107034320Y-123464000D01*
X106816250Y-123464000D01*
X106660000Y-123620250D01*
X106170000Y-123620250D01*
X106170000Y-123571000D01*
X106161451Y-123525568D01*
X106134601Y-123483841D01*
X106093632Y-123455848D01*
X106045000Y-123446000D01*
X104587977Y-123446000D01*
X104545300Y-123342714D01*
X103990209Y-122786652D01*
X103264575Y-122485343D01*
X102478872Y-122484657D01*
X101752714Y-122784700D01*
X101196652Y-123339791D01*
X100895343Y-124065425D01*
X100894657Y-124851128D01*
X101194700Y-125577286D01*
X101475922Y-125859000D01*
X98278310Y-125859000D01*
X97549406Y-125714012D01*
X96941906Y-125308094D01*
X96535988Y-124700594D01*
X96391000Y-123971690D01*
X96391000Y-123125871D01*
X96521680Y-123180000D01*
X97954750Y-123180000D01*
X98111000Y-123023750D01*
X98111000Y-122237500D01*
X98861000Y-122237500D01*
X98861000Y-123023750D01*
X99017250Y-123180000D01*
X100450320Y-123180000D01*
X100680034Y-123084850D01*
X100855849Y-122909034D01*
X100951000Y-122679320D01*
X100951000Y-122430680D01*
X107837000Y-122430680D01*
X107837000Y-122716250D01*
X107993250Y-122872500D01*
X109927000Y-122872500D01*
X109927000Y-122086250D01*
X109770750Y-121930000D01*
X108337680Y-121930000D01*
X108107966Y-122025150D01*
X107932151Y-122200966D01*
X107837000Y-122430680D01*
X100951000Y-122430680D01*
X100951000Y-122393750D01*
X100794750Y-122237500D01*
X98861000Y-122237500D01*
X98111000Y-122237500D01*
X98091000Y-122237500D01*
X98091000Y-121602500D01*
X98111000Y-121602500D01*
X98111000Y-120816250D01*
X98861000Y-120816250D01*
X98861000Y-121602500D01*
X100794750Y-121602500D01*
X100951000Y-121446250D01*
X100951000Y-121160680D01*
X100933632Y-121118750D01*
X108111000Y-121118750D01*
X108111000Y-121399320D01*
X108206151Y-121629034D01*
X108381966Y-121804850D01*
X108611680Y-121900000D01*
X108829750Y-121900000D01*
X108986000Y-121743750D01*
X108986000Y-120962500D01*
X108267250Y-120962500D01*
X108111000Y-121118750D01*
X100933632Y-121118750D01*
X100855849Y-120930966D01*
X100680034Y-120755150D01*
X100450320Y-120660000D01*
X99017250Y-120660000D01*
X98861000Y-120816250D01*
X98111000Y-120816250D01*
X97954750Y-120660000D01*
X96521680Y-120660000D01*
X96391000Y-120714129D01*
X96391000Y-119900680D01*
X108111000Y-119900680D01*
X108111000Y-120181250D01*
X108267250Y-120337500D01*
X108986000Y-120337500D01*
X108986000Y-119556250D01*
X108829750Y-119400000D01*
X108611680Y-119400000D01*
X108381966Y-119495150D01*
X108206151Y-119670966D01*
X108111000Y-119900680D01*
X96391000Y-119900680D01*
X96391000Y-119106310D01*
X96535988Y-118377406D01*
X96941906Y-117769906D01*
X97549406Y-117363988D01*
X98278310Y-117219000D01*
X107429690Y-117219000D01*
X107587630Y-117250416D01*
G36*
X116824012Y-71387406D02*
X116826760Y-71401221D01*
X116826760Y-80228000D01*
X115703250Y-80228000D01*
X115547000Y-80384250D01*
X115547000Y-81003000D01*
X115567000Y-81003000D01*
X115567000Y-81303000D01*
X115547000Y-81303000D01*
X115547000Y-81372593D01*
X115172000Y-81298000D01*
X110126000Y-81298000D01*
X109751000Y-81372593D01*
X109751000Y-81303000D01*
X108141953Y-81303000D01*
X108125632Y-81291848D01*
X108077000Y-81282000D01*
X107823000Y-81282000D01*
X107777568Y-81290549D01*
X107735841Y-81317399D01*
X107707848Y-81358368D01*
X107698000Y-81407000D01*
X107698000Y-85217000D01*
X107706549Y-85262432D01*
X107716583Y-85278026D01*
X107757337Y-85494611D01*
X107894219Y-85707332D01*
X108103076Y-85850038D01*
X108261194Y-85882058D01*
X108260657Y-86497128D01*
X108560700Y-87223286D01*
X109115791Y-87779348D01*
X109841425Y-88080657D01*
X110627128Y-88081343D01*
X111353286Y-87781300D01*
X111909348Y-87226209D01*
X112210657Y-86500575D01*
X112211263Y-85806052D01*
X112345332Y-85719781D01*
X112488038Y-85510924D01*
X112538244Y-85263000D01*
X112538244Y-84818000D01*
X112759756Y-84818000D01*
X112759756Y-85263000D01*
X112778000Y-85359958D01*
X112778000Y-86487000D01*
X112786549Y-86532432D01*
X112813399Y-86574159D01*
X112854368Y-86602152D01*
X112878032Y-86606944D01*
X113132700Y-87223286D01*
X113687791Y-87779348D01*
X114413425Y-88080657D01*
X115199128Y-88081343D01*
X115925286Y-87781300D01*
X116481348Y-87226209D01*
X116782657Y-86500575D01*
X116783181Y-85900244D01*
X116826760Y-85900244D01*
X116826760Y-89880000D01*
X115703250Y-89880000D01*
X115547000Y-90036250D01*
X115547000Y-90655000D01*
X115567000Y-90655000D01*
X115567000Y-90955000D01*
X115547000Y-90955000D01*
X115547000Y-91024593D01*
X115172000Y-90950000D01*
X110126000Y-90950000D01*
X109751000Y-91024593D01*
X109751000Y-90955000D01*
X109731000Y-90955000D01*
X109731000Y-90655000D01*
X109751000Y-90655000D01*
X109751000Y-90036250D01*
X110501000Y-90036250D01*
X110501000Y-90655000D01*
X112369750Y-90655000D01*
X112526000Y-90498750D01*
X112526000Y-90380680D01*
X112772000Y-90380680D01*
X112772000Y-90498750D01*
X112928250Y-90655000D01*
X114797000Y-90655000D01*
X114797000Y-90036250D01*
X114640750Y-89880000D01*
X113272680Y-89880000D01*
X113042966Y-89975150D01*
X112867151Y-90150966D01*
X112772000Y-90380680D01*
X112526000Y-90380680D01*
X112430849Y-90150966D01*
X112255034Y-89975150D01*
X112025320Y-89880000D01*
X110657250Y-89880000D01*
X110501000Y-90036250D01*
X109751000Y-90036250D01*
X109594750Y-89880000D01*
X108226680Y-89880000D01*
X108091000Y-89936200D01*
X108091000Y-87385614D01*
X108009170Y-86974229D01*
X107776140Y-86625474D01*
X107776137Y-86625472D01*
X106922526Y-85771860D01*
X106880621Y-85743860D01*
X106573771Y-85538830D01*
X106162386Y-85457000D01*
X105098958Y-85457000D01*
X105134998Y-85279029D01*
X105144152Y-85265632D01*
X105154000Y-85217000D01*
X105154000Y-80899000D01*
X105145451Y-80853568D01*
X105135417Y-80837974D01*
X105114852Y-80728680D01*
X107726000Y-80728680D01*
X107726000Y-80846750D01*
X107882250Y-81003000D01*
X109751000Y-81003000D01*
X109751000Y-80384250D01*
X110501000Y-80384250D01*
X110501000Y-81003000D01*
X112369750Y-81003000D01*
X112526000Y-80846750D01*
X112526000Y-80728680D01*
X112772000Y-80728680D01*
X112772000Y-80846750D01*
X112928250Y-81003000D01*
X114797000Y-81003000D01*
X114797000Y-80384250D01*
X114640750Y-80228000D01*
X113272680Y-80228000D01*
X113042966Y-80323150D01*
X112867151Y-80498966D01*
X112772000Y-80728680D01*
X112526000Y-80728680D01*
X112430849Y-80498966D01*
X112255034Y-80323150D01*
X112025320Y-80228000D01*
X110657250Y-80228000D01*
X110501000Y-80384250D01*
X109751000Y-80384250D01*
X109594750Y-80228000D01*
X108226680Y-80228000D01*
X107996966Y-80323150D01*
X107821151Y-80498966D01*
X107726000Y-80728680D01*
X105114852Y-80728680D01*
X105094663Y-80621389D01*
X104957781Y-80408668D01*
X104748924Y-80265962D01*
X104501000Y-80215756D01*
X103221084Y-80215756D01*
X103137384Y-80159830D01*
X102726000Y-80078000D01*
X102499766Y-80123001D01*
X101781667Y-80123001D01*
X98286526Y-76627860D01*
X97937771Y-76394830D01*
X97526386Y-76313000D01*
X92719614Y-76313000D01*
X92308229Y-76394830D01*
X91959474Y-76627860D01*
X89738638Y-78848696D01*
X89505608Y-79197451D01*
X89423778Y-79608836D01*
X89423778Y-95905164D01*
X89505608Y-96316549D01*
X89650822Y-96533878D01*
X89738638Y-96665304D01*
X92061000Y-98987666D01*
X92061000Y-103622386D01*
X92142830Y-104033771D01*
X92330153Y-104314120D01*
X92375860Y-104382526D01*
X93991474Y-105998140D01*
X94340229Y-106231170D01*
X94453819Y-106253765D01*
X94279213Y-106674263D01*
X94278788Y-107161599D01*
X94464890Y-107612000D01*
X94809187Y-107956899D01*
X95259263Y-108143787D01*
X95746599Y-108144212D01*
X96197000Y-107958110D01*
X96541899Y-107613813D01*
X96568812Y-107549000D01*
X97157000Y-107549000D01*
X97157000Y-108859000D01*
X96575339Y-108859000D01*
X96543110Y-108781000D01*
X96198813Y-108436101D01*
X95748737Y-108249213D01*
X95261401Y-108248788D01*
X94811000Y-108434890D01*
X94466101Y-108779187D01*
X94279213Y-109229263D01*
X94278788Y-109716599D01*
X94464890Y-110167000D01*
X94809187Y-110511899D01*
X95259263Y-110698787D01*
X95746599Y-110699212D01*
X95964929Y-110609000D01*
X97157000Y-110609000D01*
X97157000Y-112522000D01*
X97165549Y-112567432D01*
X97192399Y-112609159D01*
X97233368Y-112637152D01*
X97282000Y-112647000D01*
X97597213Y-112647000D01*
X97625076Y-112666038D01*
X97873000Y-112716244D01*
X102879967Y-112716244D01*
X103133762Y-112885824D01*
X103545147Y-112967654D01*
X106111732Y-112967654D01*
X106523117Y-112885824D01*
X106871872Y-112652794D01*
X112094140Y-107430526D01*
X112144711Y-107354841D01*
X112327170Y-107081771D01*
X112409000Y-106670386D01*
X112409000Y-100641250D01*
X115207000Y-100641250D01*
X115207000Y-101984320D01*
X115302151Y-102214034D01*
X115477966Y-102389850D01*
X115707680Y-102485000D01*
X115925750Y-102485000D01*
X116082000Y-102328750D01*
X116082000Y-100485000D01*
X115363250Y-100485000D01*
X115207000Y-100641250D01*
X112409000Y-100641250D01*
X112409000Y-100339614D01*
X112327170Y-99928229D01*
X112094140Y-99579474D01*
X110750346Y-98235680D01*
X115207000Y-98235680D01*
X115207000Y-99578750D01*
X115363250Y-99735000D01*
X116082000Y-99735000D01*
X116082000Y-97891250D01*
X115925750Y-97735000D01*
X115707680Y-97735000D01*
X115477966Y-97830150D01*
X115302151Y-98005966D01*
X115207000Y-98235680D01*
X110750346Y-98235680D01*
X110247678Y-97733012D01*
X110627128Y-97733343D01*
X111353286Y-97433300D01*
X111909348Y-96878209D01*
X112210657Y-96152575D01*
X112211263Y-95458052D01*
X112345332Y-95371781D01*
X112488038Y-95162924D01*
X112538244Y-94915000D01*
X112538244Y-94470000D01*
X112759756Y-94470000D01*
X112759756Y-94915000D01*
X112778000Y-95011958D01*
X112778000Y-96139000D01*
X112786549Y-96184432D01*
X112813399Y-96226159D01*
X112854368Y-96254152D01*
X112878032Y-96258944D01*
X113132700Y-96875286D01*
X113687791Y-97431348D01*
X114413425Y-97732657D01*
X115199128Y-97733343D01*
X115925286Y-97433300D01*
X115951632Y-97407000D01*
X116826760Y-97407000D01*
X116826760Y-97735000D01*
X116738250Y-97735000D01*
X116582000Y-97891250D01*
X116582000Y-99735000D01*
X116727000Y-99735000D01*
X116727000Y-100485000D01*
X116582000Y-100485000D01*
X116582000Y-102328750D01*
X116738250Y-102485000D01*
X116826760Y-102485000D01*
X116826760Y-107855745D01*
X116564602Y-107463398D01*
X115875202Y-107002756D01*
X115062000Y-106841000D01*
X114248798Y-107002756D01*
X113559398Y-107463398D01*
X113098756Y-108152798D01*
X112937000Y-108966000D01*
X112937000Y-113633537D01*
X112924756Y-113694000D01*
X112924756Y-116649867D01*
X112914848Y-116664368D01*
X112905000Y-116713000D01*
X112905000Y-117350000D01*
X112395000Y-117350000D01*
X112349568Y-117358549D01*
X112347313Y-117360000D01*
X111818500Y-117360000D01*
X111818500Y-117505000D01*
X111193500Y-117505000D01*
X111193500Y-117360000D01*
X110412250Y-117360000D01*
X110287250Y-117485000D01*
X108563972Y-117485000D01*
X108524322Y-117285666D01*
X108430999Y-117060365D01*
X108320878Y-116895558D01*
X108148442Y-116723122D01*
X107983635Y-116613001D01*
X107758334Y-116519678D01*
X107587414Y-116485680D01*
X110256000Y-116485680D01*
X110256000Y-116703750D01*
X110412250Y-116860000D01*
X111193500Y-116860000D01*
X111193500Y-116141250D01*
X111818500Y-116141250D01*
X111818500Y-116860000D01*
X112599750Y-116860000D01*
X112756000Y-116703750D01*
X112756000Y-116485680D01*
X112660850Y-116255966D01*
X112485034Y-116080151D01*
X112255320Y-115985000D01*
X111974750Y-115985000D01*
X111818500Y-116141250D01*
X111193500Y-116141250D01*
X111037250Y-115985000D01*
X110756680Y-115985000D01*
X110526966Y-116080151D01*
X110351150Y-116255966D01*
X110256000Y-116485680D01*
X107587414Y-116485680D01*
X107563931Y-116481009D01*
X107442000Y-116469000D01*
X98266000Y-116469000D01*
X98144069Y-116481009D01*
X97378702Y-116633250D01*
X97153402Y-116726572D01*
X96504555Y-117160117D01*
X96332117Y-117332555D01*
X95898572Y-117981402D01*
X95805250Y-118206702D01*
X95653009Y-118972069D01*
X95641000Y-119094000D01*
X95641000Y-120660000D01*
X94577250Y-120660000D01*
X94421000Y-120816250D01*
X94421000Y-121602500D01*
X94441000Y-121602500D01*
X94441000Y-122237500D01*
X94421000Y-122237500D01*
X94421000Y-123023750D01*
X94577250Y-123180000D01*
X95641000Y-123180000D01*
X95641000Y-123984000D01*
X95653009Y-124105931D01*
X95805250Y-124871298D01*
X95898572Y-125096598D01*
X96332117Y-125745445D01*
X96504555Y-125917883D01*
X97076434Y-126300000D01*
X87060000Y-126300000D01*
X87060000Y-122393750D01*
X91581000Y-122393750D01*
X91581000Y-122679320D01*
X91676151Y-122909034D01*
X91851966Y-123084850D01*
X92081680Y-123180000D01*
X93514750Y-123180000D01*
X93671000Y-123023750D01*
X93671000Y-122237500D01*
X91737250Y-122237500D01*
X91581000Y-122393750D01*
X87060000Y-122393750D01*
X87060000Y-121160680D01*
X91581000Y-121160680D01*
X91581000Y-121446250D01*
X91737250Y-121602500D01*
X93671000Y-121602500D01*
X93671000Y-120816250D01*
X93514750Y-120660000D01*
X92081680Y-120660000D01*
X91851966Y-120755150D01*
X91676151Y-120930966D01*
X91581000Y-121160680D01*
X87060000Y-121160680D01*
X87060000Y-118743000D01*
X88900000Y-118743000D01*
X88945432Y-118734451D01*
X88987159Y-118707601D01*
X89015152Y-118666632D01*
X89025000Y-118618000D01*
X89025000Y-118600750D01*
X89043000Y-118582750D01*
X89043000Y-117239000D01*
X89793000Y-117239000D01*
X89793000Y-118582750D01*
X89949250Y-118739000D01*
X91492320Y-118739000D01*
X91722034Y-118643850D01*
X91897849Y-118468034D01*
X91993000Y-118238320D01*
X91993000Y-117395250D01*
X91836750Y-117239000D01*
X89793000Y-117239000D01*
X89043000Y-117239000D01*
X89023000Y-117239000D01*
X89023000Y-116828656D01*
X89868540Y-116829394D01*
X90692357Y-116489000D01*
X91836750Y-116489000D01*
X91993000Y-116332750D01*
X91993000Y-115489680D01*
X91897849Y-115259966D01*
X91722034Y-115084150D01*
X91692000Y-115071710D01*
X91692000Y-115062000D01*
X91685262Y-115026192D01*
X91692604Y-115008511D01*
X91693394Y-114103460D01*
X91347776Y-113267000D01*
X90708367Y-112626473D01*
X89872511Y-112279396D01*
X88967460Y-112278606D01*
X88131000Y-112624224D01*
X87490473Y-113263633D01*
X87143396Y-114099489D01*
X87142665Y-114937000D01*
X87060000Y-114937000D01*
X87060000Y-102304540D01*
X87142606Y-102304540D01*
X87488224Y-103141000D01*
X88127633Y-103781527D01*
X88963489Y-104128604D01*
X89868540Y-104129394D01*
X90705000Y-103783776D01*
X91345527Y-103144367D01*
X91692604Y-102308511D01*
X91693394Y-101403460D01*
X91347776Y-100567000D01*
X90708367Y-99926473D01*
X89872511Y-99579396D01*
X88967460Y-99578606D01*
X88131000Y-99924224D01*
X87490473Y-100563633D01*
X87143396Y-101399489D01*
X87142606Y-102304540D01*
X87060000Y-102304540D01*
X87060000Y-70804000D01*
X116434193Y-70804000D01*
X116824012Y-71387406D01*
X116824012Y-71387406D01*
G37*
X116824012Y-71387406D02*
X116826760Y-71401221D01*
X116826760Y-80228000D01*
X115703250Y-80228000D01*
X115547000Y-80384250D01*
X115547000Y-81003000D01*
X115567000Y-81003000D01*
X115567000Y-81303000D01*
X115547000Y-81303000D01*
X115547000Y-81372593D01*
X115172000Y-81298000D01*
X110126000Y-81298000D01*
X109751000Y-81372593D01*
X109751000Y-81303000D01*
X108141953Y-81303000D01*
X108125632Y-81291848D01*
X108077000Y-81282000D01*
X107823000Y-81282000D01*
X107777568Y-81290549D01*
X107735841Y-81317399D01*
X107707848Y-81358368D01*
X107698000Y-81407000D01*
X107698000Y-85217000D01*
X107706549Y-85262432D01*
X107716583Y-85278026D01*
X107757337Y-85494611D01*
X107894219Y-85707332D01*
X108103076Y-85850038D01*
X108261194Y-85882058D01*
X108260657Y-86497128D01*
X108560700Y-87223286D01*
X109115791Y-87779348D01*
X109841425Y-88080657D01*
X110627128Y-88081343D01*
X111353286Y-87781300D01*
X111909348Y-87226209D01*
X112210657Y-86500575D01*
X112211263Y-85806052D01*
X112345332Y-85719781D01*
X112488038Y-85510924D01*
X112538244Y-85263000D01*
X112538244Y-84818000D01*
X112759756Y-84818000D01*
X112759756Y-85263000D01*
X112778000Y-85359958D01*
X112778000Y-86487000D01*
X112786549Y-86532432D01*
X112813399Y-86574159D01*
X112854368Y-86602152D01*
X112878032Y-86606944D01*
X113132700Y-87223286D01*
X113687791Y-87779348D01*
X114413425Y-88080657D01*
X115199128Y-88081343D01*
X115925286Y-87781300D01*
X116481348Y-87226209D01*
X116782657Y-86500575D01*
X116783181Y-85900244D01*
X116826760Y-85900244D01*
X116826760Y-89880000D01*
X115703250Y-89880000D01*
X115547000Y-90036250D01*
X115547000Y-90655000D01*
X115567000Y-90655000D01*
X115567000Y-90955000D01*
X115547000Y-90955000D01*
X115547000Y-91024593D01*
X115172000Y-90950000D01*
X110126000Y-90950000D01*
X109751000Y-91024593D01*
X109751000Y-90955000D01*
X109731000Y-90955000D01*
X109731000Y-90655000D01*
X109751000Y-90655000D01*
X109751000Y-90036250D01*
X110501000Y-90036250D01*
X110501000Y-90655000D01*
X112369750Y-90655000D01*
X112526000Y-90498750D01*
X112526000Y-90380680D01*
X112772000Y-90380680D01*
X112772000Y-90498750D01*
X112928250Y-90655000D01*
X114797000Y-90655000D01*
X114797000Y-90036250D01*
X114640750Y-89880000D01*
X113272680Y-89880000D01*
X113042966Y-89975150D01*
X112867151Y-90150966D01*
X112772000Y-90380680D01*
X112526000Y-90380680D01*
X112430849Y-90150966D01*
X112255034Y-89975150D01*
X112025320Y-89880000D01*
X110657250Y-89880000D01*
X110501000Y-90036250D01*
X109751000Y-90036250D01*
X109594750Y-89880000D01*
X108226680Y-89880000D01*
X108091000Y-89936200D01*
X108091000Y-87385614D01*
X108009170Y-86974229D01*
X107776140Y-86625474D01*
X107776137Y-86625472D01*
X106922526Y-85771860D01*
X106880621Y-85743860D01*
X106573771Y-85538830D01*
X106162386Y-85457000D01*
X105098958Y-85457000D01*
X105134998Y-85279029D01*
X105144152Y-85265632D01*
X105154000Y-85217000D01*
X105154000Y-80899000D01*
X105145451Y-80853568D01*
X105135417Y-80837974D01*
X105114852Y-80728680D01*
X107726000Y-80728680D01*
X107726000Y-80846750D01*
X107882250Y-81003000D01*
X109751000Y-81003000D01*
X109751000Y-80384250D01*
X110501000Y-80384250D01*
X110501000Y-81003000D01*
X112369750Y-81003000D01*
X112526000Y-80846750D01*
X112526000Y-80728680D01*
X112772000Y-80728680D01*
X112772000Y-80846750D01*
X112928250Y-81003000D01*
X114797000Y-81003000D01*
X114797000Y-80384250D01*
X114640750Y-80228000D01*
X113272680Y-80228000D01*
X113042966Y-80323150D01*
X112867151Y-80498966D01*
X112772000Y-80728680D01*
X112526000Y-80728680D01*
X112430849Y-80498966D01*
X112255034Y-80323150D01*
X112025320Y-80228000D01*
X110657250Y-80228000D01*
X110501000Y-80384250D01*
X109751000Y-80384250D01*
X109594750Y-80228000D01*
X108226680Y-80228000D01*
X107996966Y-80323150D01*
X107821151Y-80498966D01*
X107726000Y-80728680D01*
X105114852Y-80728680D01*
X105094663Y-80621389D01*
X104957781Y-80408668D01*
X104748924Y-80265962D01*
X104501000Y-80215756D01*
X103221084Y-80215756D01*
X103137384Y-80159830D01*
X102726000Y-80078000D01*
X102499766Y-80123001D01*
X101781667Y-80123001D01*
X98286526Y-76627860D01*
X97937771Y-76394830D01*
X97526386Y-76313000D01*
X92719614Y-76313000D01*
X92308229Y-76394830D01*
X91959474Y-76627860D01*
X89738638Y-78848696D01*
X89505608Y-79197451D01*
X89423778Y-79608836D01*
X89423778Y-95905164D01*
X89505608Y-96316549D01*
X89650822Y-96533878D01*
X89738638Y-96665304D01*
X92061000Y-98987666D01*
X92061000Y-103622386D01*
X92142830Y-104033771D01*
X92330153Y-104314120D01*
X92375860Y-104382526D01*
X93991474Y-105998140D01*
X94340229Y-106231170D01*
X94453819Y-106253765D01*
X94279213Y-106674263D01*
X94278788Y-107161599D01*
X94464890Y-107612000D01*
X94809187Y-107956899D01*
X95259263Y-108143787D01*
X95746599Y-108144212D01*
X96197000Y-107958110D01*
X96541899Y-107613813D01*
X96568812Y-107549000D01*
X97157000Y-107549000D01*
X97157000Y-108859000D01*
X96575339Y-108859000D01*
X96543110Y-108781000D01*
X96198813Y-108436101D01*
X95748737Y-108249213D01*
X95261401Y-108248788D01*
X94811000Y-108434890D01*
X94466101Y-108779187D01*
X94279213Y-109229263D01*
X94278788Y-109716599D01*
X94464890Y-110167000D01*
X94809187Y-110511899D01*
X95259263Y-110698787D01*
X95746599Y-110699212D01*
X95964929Y-110609000D01*
X97157000Y-110609000D01*
X97157000Y-112522000D01*
X97165549Y-112567432D01*
X97192399Y-112609159D01*
X97233368Y-112637152D01*
X97282000Y-112647000D01*
X97597213Y-112647000D01*
X97625076Y-112666038D01*
X97873000Y-112716244D01*
X102879967Y-112716244D01*
X103133762Y-112885824D01*
X103545147Y-112967654D01*
X106111732Y-112967654D01*
X106523117Y-112885824D01*
X106871872Y-112652794D01*
X112094140Y-107430526D01*
X112144711Y-107354841D01*
X112327170Y-107081771D01*
X112409000Y-106670386D01*
X112409000Y-100641250D01*
X115207000Y-100641250D01*
X115207000Y-101984320D01*
X115302151Y-102214034D01*
X115477966Y-102389850D01*
X115707680Y-102485000D01*
X115925750Y-102485000D01*
X116082000Y-102328750D01*
X116082000Y-100485000D01*
X115363250Y-100485000D01*
X115207000Y-100641250D01*
X112409000Y-100641250D01*
X112409000Y-100339614D01*
X112327170Y-99928229D01*
X112094140Y-99579474D01*
X110750346Y-98235680D01*
X115207000Y-98235680D01*
X115207000Y-99578750D01*
X115363250Y-99735000D01*
X116082000Y-99735000D01*
X116082000Y-97891250D01*
X115925750Y-97735000D01*
X115707680Y-97735000D01*
X115477966Y-97830150D01*
X115302151Y-98005966D01*
X115207000Y-98235680D01*
X110750346Y-98235680D01*
X110247678Y-97733012D01*
X110627128Y-97733343D01*
X111353286Y-97433300D01*
X111909348Y-96878209D01*
X112210657Y-96152575D01*
X112211263Y-95458052D01*
X112345332Y-95371781D01*
X112488038Y-95162924D01*
X112538244Y-94915000D01*
X112538244Y-94470000D01*
X112759756Y-94470000D01*
X112759756Y-94915000D01*
X112778000Y-95011958D01*
X112778000Y-96139000D01*
X112786549Y-96184432D01*
X112813399Y-96226159D01*
X112854368Y-96254152D01*
X112878032Y-96258944D01*
X113132700Y-96875286D01*
X113687791Y-97431348D01*
X114413425Y-97732657D01*
X115199128Y-97733343D01*
X115925286Y-97433300D01*
X115951632Y-97407000D01*
X116826760Y-97407000D01*
X116826760Y-97735000D01*
X116738250Y-97735000D01*
X116582000Y-97891250D01*
X116582000Y-99735000D01*
X116727000Y-99735000D01*
X116727000Y-100485000D01*
X116582000Y-100485000D01*
X116582000Y-102328750D01*
X116738250Y-102485000D01*
X116826760Y-102485000D01*
X116826760Y-107855745D01*
X116564602Y-107463398D01*
X115875202Y-107002756D01*
X115062000Y-106841000D01*
X114248798Y-107002756D01*
X113559398Y-107463398D01*
X113098756Y-108152798D01*
X112937000Y-108966000D01*
X112937000Y-113633537D01*
X112924756Y-113694000D01*
X112924756Y-116649867D01*
X112914848Y-116664368D01*
X112905000Y-116713000D01*
X112905000Y-117350000D01*
X112395000Y-117350000D01*
X112349568Y-117358549D01*
X112347313Y-117360000D01*
X111818500Y-117360000D01*
X111818500Y-117505000D01*
X111193500Y-117505000D01*
X111193500Y-117360000D01*
X110412250Y-117360000D01*
X110287250Y-117485000D01*
X108563972Y-117485000D01*
X108524322Y-117285666D01*
X108430999Y-117060365D01*
X108320878Y-116895558D01*
X108148442Y-116723122D01*
X107983635Y-116613001D01*
X107758334Y-116519678D01*
X107587414Y-116485680D01*
X110256000Y-116485680D01*
X110256000Y-116703750D01*
X110412250Y-116860000D01*
X111193500Y-116860000D01*
X111193500Y-116141250D01*
X111818500Y-116141250D01*
X111818500Y-116860000D01*
X112599750Y-116860000D01*
X112756000Y-116703750D01*
X112756000Y-116485680D01*
X112660850Y-116255966D01*
X112485034Y-116080151D01*
X112255320Y-115985000D01*
X111974750Y-115985000D01*
X111818500Y-116141250D01*
X111193500Y-116141250D01*
X111037250Y-115985000D01*
X110756680Y-115985000D01*
X110526966Y-116080151D01*
X110351150Y-116255966D01*
X110256000Y-116485680D01*
X107587414Y-116485680D01*
X107563931Y-116481009D01*
X107442000Y-116469000D01*
X98266000Y-116469000D01*
X98144069Y-116481009D01*
X97378702Y-116633250D01*
X97153402Y-116726572D01*
X96504555Y-117160117D01*
X96332117Y-117332555D01*
X95898572Y-117981402D01*
X95805250Y-118206702D01*
X95653009Y-118972069D01*
X95641000Y-119094000D01*
X95641000Y-120660000D01*
X94577250Y-120660000D01*
X94421000Y-120816250D01*
X94421000Y-121602500D01*
X94441000Y-121602500D01*
X94441000Y-122237500D01*
X94421000Y-122237500D01*
X94421000Y-123023750D01*
X94577250Y-123180000D01*
X95641000Y-123180000D01*
X95641000Y-123984000D01*
X95653009Y-124105931D01*
X95805250Y-124871298D01*
X95898572Y-125096598D01*
X96332117Y-125745445D01*
X96504555Y-125917883D01*
X97076434Y-126300000D01*
X87060000Y-126300000D01*
X87060000Y-122393750D01*
X91581000Y-122393750D01*
X91581000Y-122679320D01*
X91676151Y-122909034D01*
X91851966Y-123084850D01*
X92081680Y-123180000D01*
X93514750Y-123180000D01*
X93671000Y-123023750D01*
X93671000Y-122237500D01*
X91737250Y-122237500D01*
X91581000Y-122393750D01*
X87060000Y-122393750D01*
X87060000Y-121160680D01*
X91581000Y-121160680D01*
X91581000Y-121446250D01*
X91737250Y-121602500D01*
X93671000Y-121602500D01*
X93671000Y-120816250D01*
X93514750Y-120660000D01*
X92081680Y-120660000D01*
X91851966Y-120755150D01*
X91676151Y-120930966D01*
X91581000Y-121160680D01*
X87060000Y-121160680D01*
X87060000Y-118743000D01*
X88900000Y-118743000D01*
X88945432Y-118734451D01*
X88987159Y-118707601D01*
X89015152Y-118666632D01*
X89025000Y-118618000D01*
X89025000Y-118600750D01*
X89043000Y-118582750D01*
X89043000Y-117239000D01*
X89793000Y-117239000D01*
X89793000Y-118582750D01*
X89949250Y-118739000D01*
X91492320Y-118739000D01*
X91722034Y-118643850D01*
X91897849Y-118468034D01*
X91993000Y-118238320D01*
X91993000Y-117395250D01*
X91836750Y-117239000D01*
X89793000Y-117239000D01*
X89043000Y-117239000D01*
X89023000Y-117239000D01*
X89023000Y-116828656D01*
X89868540Y-116829394D01*
X90692357Y-116489000D01*
X91836750Y-116489000D01*
X91993000Y-116332750D01*
X91993000Y-115489680D01*
X91897849Y-115259966D01*
X91722034Y-115084150D01*
X91692000Y-115071710D01*
X91692000Y-115062000D01*
X91685262Y-115026192D01*
X91692604Y-115008511D01*
X91693394Y-114103460D01*
X91347776Y-113267000D01*
X90708367Y-112626473D01*
X89872511Y-112279396D01*
X88967460Y-112278606D01*
X88131000Y-112624224D01*
X87490473Y-113263633D01*
X87143396Y-114099489D01*
X87142665Y-114937000D01*
X87060000Y-114937000D01*
X87060000Y-102304540D01*
X87142606Y-102304540D01*
X87488224Y-103141000D01*
X88127633Y-103781527D01*
X88963489Y-104128604D01*
X89868540Y-104129394D01*
X90705000Y-103783776D01*
X91345527Y-103144367D01*
X91692604Y-102308511D01*
X91693394Y-101403460D01*
X91347776Y-100567000D01*
X90708367Y-99926473D01*
X89872511Y-99579396D01*
X88967460Y-99578606D01*
X88131000Y-99924224D01*
X87490473Y-100563633D01*
X87143396Y-101399489D01*
X87142606Y-102304540D01*
X87060000Y-102304540D01*
X87060000Y-70804000D01*
X116434193Y-70804000D01*
X116824012Y-71387406D01*
G36*
X104761000Y-96510386D02*
X104842830Y-96921771D01*
X104935488Y-97060444D01*
X105075860Y-97270526D01*
X109079000Y-101273666D01*
X109079000Y-105736334D01*
X107329000Y-107486334D01*
X107329000Y-102625614D01*
X107247170Y-102214229D01*
X107014140Y-101865474D01*
X103366526Y-98217860D01*
X103236532Y-98131001D01*
X103017771Y-97984830D01*
X102606386Y-97903000D01*
X100851356Y-97903000D01*
X99043018Y-96094661D01*
X99154611Y-96073663D01*
X99183614Y-96055000D01*
X99235500Y-96055000D01*
X99646885Y-95973170D01*
X99995640Y-95740140D01*
X100048719Y-95687061D01*
X100063500Y-95690001D01*
X100063505Y-95690000D01*
X102726000Y-95690000D01*
X103137385Y-95608170D01*
X103221084Y-95552244D01*
X104501000Y-95552244D01*
X104732611Y-95508663D01*
X104761000Y-95490395D01*
X104761000Y-96510386D01*
X104761000Y-96510386D01*
G37*
X104761000Y-96510386D02*
X104842830Y-96921771D01*
X104935488Y-97060444D01*
X105075860Y-97270526D01*
X109079000Y-101273666D01*
X109079000Y-105736334D01*
X107329000Y-107486334D01*
X107329000Y-102625614D01*
X107247170Y-102214229D01*
X107014140Y-101865474D01*
X103366526Y-98217860D01*
X103236532Y-98131001D01*
X103017771Y-97984830D01*
X102606386Y-97903000D01*
X100851356Y-97903000D01*
X99043018Y-96094661D01*
X99154611Y-96073663D01*
X99183614Y-96055000D01*
X99235500Y-96055000D01*
X99646885Y-95973170D01*
X99995640Y-95740140D01*
X100048719Y-95687061D01*
X100063500Y-95690001D01*
X100063505Y-95690000D01*
X102726000Y-95690000D01*
X103137385Y-95608170D01*
X103221084Y-95552244D01*
X104501000Y-95552244D01*
X104732611Y-95508663D01*
X104761000Y-95490395D01*
X104761000Y-96510386D01*
G36*
X99202334Y-82253000D02*
X99188542Y-82253000D01*
X99170924Y-82240962D01*
X98923000Y-82190756D01*
X97673000Y-82190756D01*
X97441389Y-82234337D01*
X97228668Y-82371219D01*
X97085962Y-82580076D01*
X97069169Y-82663000D01*
X96783619Y-82663000D01*
X96783614Y-82662999D01*
X96372230Y-82744829D01*
X96023474Y-82977860D01*
X94746088Y-84255246D01*
X94513058Y-84604001D01*
X94431228Y-85015386D01*
X94431228Y-86927414D01*
X94513058Y-87338799D01*
X94664990Y-87566182D01*
X94746088Y-87687554D01*
X95530674Y-88472140D01*
X95879429Y-88705170D01*
X96290814Y-88787000D01*
X104761000Y-88787000D01*
X104761000Y-89926213D01*
X104748924Y-89917962D01*
X104501000Y-89867756D01*
X103221084Y-89867756D01*
X103137385Y-89811830D01*
X102726000Y-89730000D01*
X101251005Y-89730000D01*
X101251000Y-89729999D01*
X101024766Y-89775000D01*
X100937980Y-89775000D01*
X100919369Y-89729959D01*
X100575072Y-89385060D01*
X100124996Y-89198172D01*
X99637660Y-89197747D01*
X99187259Y-89383849D01*
X98842360Y-89728146D01*
X98655472Y-90178222D01*
X98655414Y-90244321D01*
X98591142Y-90244265D01*
X98140741Y-90430367D01*
X97795842Y-90774664D01*
X97608954Y-91224740D01*
X97608529Y-91712076D01*
X97663281Y-91844585D01*
X97441389Y-91886337D01*
X97228668Y-92023219D01*
X97085962Y-92232076D01*
X97069169Y-92315000D01*
X96792612Y-92315000D01*
X96381227Y-92396830D01*
X96036374Y-92627253D01*
X96032472Y-92629860D01*
X95237355Y-93424977D01*
X95004325Y-93773732D01*
X94922495Y-94185117D01*
X94922495Y-96238190D01*
X95004325Y-96649575D01*
X95186200Y-96921771D01*
X95237355Y-96998330D01*
X99157163Y-100918137D01*
X99157165Y-100918140D01*
X99505920Y-101151170D01*
X99917305Y-101233000D01*
X101672334Y-101233000D01*
X103999000Y-103559666D01*
X103999000Y-106742721D01*
X103887760Y-106853961D01*
X103712000Y-106819000D01*
X103560244Y-106819000D01*
X103560244Y-106369000D01*
X103520254Y-106156475D01*
X103560244Y-105959000D01*
X103560244Y-105349000D01*
X103520254Y-105136475D01*
X103560244Y-104939000D01*
X103560244Y-104329000D01*
X103516663Y-104097389D01*
X103379781Y-103884668D01*
X103170924Y-103741962D01*
X102923000Y-103691756D01*
X98198192Y-103691756D01*
X97945718Y-103439282D01*
X97661848Y-103249605D01*
X97327000Y-103183000D01*
X97317237Y-103183000D01*
X97140383Y-103064830D01*
X96728998Y-102983000D01*
X95685666Y-102983000D01*
X95391000Y-102688334D01*
X95391000Y-98053614D01*
X95309170Y-97642229D01*
X95076140Y-97293474D01*
X95076137Y-97293472D01*
X92851000Y-95068334D01*
X92851000Y-94549650D01*
X92915497Y-94525030D01*
X92990547Y-94477873D01*
X93048499Y-94423084D01*
X93059881Y-94416370D01*
X93070438Y-94402343D01*
X93078320Y-94394891D01*
X93087337Y-94388866D01*
X93103360Y-94381696D01*
X93112438Y-94372094D01*
X93178753Y-94327784D01*
X93241429Y-94265108D01*
X93285739Y-94198793D01*
X93295341Y-94189715D01*
X93302511Y-94173692D01*
X93308536Y-94164675D01*
X93315988Y-94156793D01*
X93330015Y-94146236D01*
X93336729Y-94134854D01*
X93391518Y-94076902D01*
X93438675Y-94001852D01*
X93467118Y-93927339D01*
X93474459Y-93916352D01*
X93477884Y-93899136D01*
X93481751Y-93889003D01*
X93487258Y-93879668D01*
X93498585Y-93866254D01*
X93502599Y-93853661D01*
X93543123Y-93784962D01*
X93572397Y-93701299D01*
X93583545Y-93622331D01*
X93588257Y-93609986D01*
X93587765Y-93592438D01*
X93589280Y-93581702D01*
X93625961Y-93466618D01*
X93635885Y-93378540D01*
X93630768Y-93317881D01*
X93642644Y-93258178D01*
X93642644Y-92249822D01*
X93630768Y-92190119D01*
X93635885Y-92129461D01*
X93625961Y-92041383D01*
X93589281Y-91926300D01*
X93587765Y-91915561D01*
X93588257Y-91898013D01*
X93583545Y-91885668D01*
X93572397Y-91806700D01*
X93543123Y-91723037D01*
X93502598Y-91654336D01*
X93498585Y-91641746D01*
X93487260Y-91628334D01*
X93481751Y-91618996D01*
X93477884Y-91608863D01*
X93474459Y-91591647D01*
X93467118Y-91580660D01*
X93438675Y-91506147D01*
X93391518Y-91431097D01*
X93336729Y-91373145D01*
X93330015Y-91361763D01*
X93315988Y-91351206D01*
X93308536Y-91343324D01*
X93302511Y-91334307D01*
X93295341Y-91318284D01*
X93285739Y-91309206D01*
X93241429Y-91242891D01*
X93178753Y-91180215D01*
X93112438Y-91135905D01*
X93103360Y-91126303D01*
X93087337Y-91119133D01*
X93078320Y-91113108D01*
X93070438Y-91105656D01*
X93059881Y-91091629D01*
X93048499Y-91084915D01*
X92990547Y-91030126D01*
X92915497Y-90982969D01*
X92840984Y-90954526D01*
X92840196Y-90953999D01*
X92840984Y-90953473D01*
X92915497Y-90925030D01*
X92990547Y-90877873D01*
X93048499Y-90823084D01*
X93059881Y-90816370D01*
X93070438Y-90802343D01*
X93078320Y-90794891D01*
X93087337Y-90788866D01*
X93103360Y-90781696D01*
X93112438Y-90772094D01*
X93178753Y-90727784D01*
X93241429Y-90665108D01*
X93285739Y-90598793D01*
X93295341Y-90589715D01*
X93302511Y-90573692D01*
X93308536Y-90564675D01*
X93315988Y-90556793D01*
X93330015Y-90546236D01*
X93336729Y-90534854D01*
X93391518Y-90476902D01*
X93438675Y-90401852D01*
X93467118Y-90327339D01*
X93474459Y-90316352D01*
X93477884Y-90299136D01*
X93481751Y-90289003D01*
X93487258Y-90279668D01*
X93498585Y-90266254D01*
X93502599Y-90253661D01*
X93543123Y-90184962D01*
X93572397Y-90101299D01*
X93583545Y-90022331D01*
X93588257Y-90009986D01*
X93587765Y-89992438D01*
X93589280Y-89981702D01*
X93625961Y-89866618D01*
X93635885Y-89778540D01*
X93630768Y-89717881D01*
X93642644Y-89658178D01*
X93642644Y-88649822D01*
X93630768Y-88590119D01*
X93635885Y-88529461D01*
X93625961Y-88441383D01*
X93589281Y-88326300D01*
X93587765Y-88315561D01*
X93588257Y-88298013D01*
X93583545Y-88285668D01*
X93572397Y-88206700D01*
X93543123Y-88123037D01*
X93502598Y-88054336D01*
X93498585Y-88041746D01*
X93487260Y-88028334D01*
X93481751Y-88018996D01*
X93477884Y-88008863D01*
X93474459Y-87991647D01*
X93467118Y-87980660D01*
X93438675Y-87906147D01*
X93391518Y-87831097D01*
X93336729Y-87773145D01*
X93330015Y-87761763D01*
X93315988Y-87751206D01*
X93308536Y-87743324D01*
X93302511Y-87734307D01*
X93295341Y-87718284D01*
X93285739Y-87709206D01*
X93241429Y-87642891D01*
X93178753Y-87580215D01*
X93112438Y-87535905D01*
X93103360Y-87526303D01*
X93087337Y-87519133D01*
X93078320Y-87513108D01*
X93070438Y-87505656D01*
X93059881Y-87491629D01*
X93048499Y-87484915D01*
X92990547Y-87430126D01*
X92915497Y-87382969D01*
X92840984Y-87354526D01*
X92840196Y-87354000D01*
X92840984Y-87353473D01*
X92915497Y-87325030D01*
X92990547Y-87277873D01*
X93048499Y-87223084D01*
X93059881Y-87216370D01*
X93070438Y-87202343D01*
X93078320Y-87194891D01*
X93087337Y-87188866D01*
X93103360Y-87181696D01*
X93112438Y-87172094D01*
X93178753Y-87127784D01*
X93241429Y-87065108D01*
X93285739Y-86998793D01*
X93295341Y-86989715D01*
X93302511Y-86973692D01*
X93308536Y-86964675D01*
X93315988Y-86956793D01*
X93330015Y-86946236D01*
X93336729Y-86934854D01*
X93391518Y-86876902D01*
X93438675Y-86801852D01*
X93467118Y-86727339D01*
X93474459Y-86716352D01*
X93477884Y-86699136D01*
X93481751Y-86689003D01*
X93487258Y-86679668D01*
X93498585Y-86666254D01*
X93502599Y-86653661D01*
X93543123Y-86584962D01*
X93572397Y-86501299D01*
X93583545Y-86422331D01*
X93588257Y-86409986D01*
X93587765Y-86392438D01*
X93589280Y-86381702D01*
X93625961Y-86266618D01*
X93635885Y-86178540D01*
X93630768Y-86117881D01*
X93642644Y-86058178D01*
X93642644Y-85049822D01*
X93630768Y-84990119D01*
X93635885Y-84929461D01*
X93625961Y-84841383D01*
X93589281Y-84726300D01*
X93587765Y-84715561D01*
X93588257Y-84698013D01*
X93583545Y-84685668D01*
X93572397Y-84606700D01*
X93543123Y-84523037D01*
X93502598Y-84454336D01*
X93498585Y-84441746D01*
X93487260Y-84428334D01*
X93481751Y-84418996D01*
X93477884Y-84408863D01*
X93474459Y-84391647D01*
X93467118Y-84380660D01*
X93438675Y-84306147D01*
X93391518Y-84231097D01*
X93336729Y-84173145D01*
X93330015Y-84161763D01*
X93315988Y-84151206D01*
X93308536Y-84143324D01*
X93302511Y-84134307D01*
X93295341Y-84118284D01*
X93285739Y-84109206D01*
X93241429Y-84042891D01*
X93178753Y-83980215D01*
X93112438Y-83935905D01*
X93103360Y-83926303D01*
X93087337Y-83919133D01*
X93078320Y-83913108D01*
X93070438Y-83905656D01*
X93059881Y-83891629D01*
X93048499Y-83884915D01*
X92990547Y-83830126D01*
X92915497Y-83782969D01*
X92840984Y-83754526D01*
X92829997Y-83747185D01*
X92812781Y-83743760D01*
X92802648Y-83739893D01*
X92793307Y-83734382D01*
X92779897Y-83723059D01*
X92767309Y-83719047D01*
X92751000Y-83709427D01*
X92751000Y-83257425D01*
X92758261Y-83246558D01*
X92762466Y-83225418D01*
X92769170Y-83215385D01*
X92771144Y-83205462D01*
X92785720Y-83180752D01*
X92789418Y-83170185D01*
X92800263Y-83093370D01*
X92805227Y-83082276D01*
X92805510Y-83072181D01*
X92830855Y-83005789D01*
X92830025Y-82976174D01*
X92842982Y-82935526D01*
X92844236Y-82924400D01*
X92839120Y-82863724D01*
X92851000Y-82804000D01*
X92851000Y-80445666D01*
X93653666Y-79643000D01*
X96592334Y-79643000D01*
X99202334Y-82253000D01*
X99202334Y-82253000D01*
G37*
X99202334Y-82253000D02*
X99188542Y-82253000D01*
X99170924Y-82240962D01*
X98923000Y-82190756D01*
X97673000Y-82190756D01*
X97441389Y-82234337D01*
X97228668Y-82371219D01*
X97085962Y-82580076D01*
X97069169Y-82663000D01*
X96783619Y-82663000D01*
X96783614Y-82662999D01*
X96372230Y-82744829D01*
X96023474Y-82977860D01*
X94746088Y-84255246D01*
X94513058Y-84604001D01*
X94431228Y-85015386D01*
X94431228Y-86927414D01*
X94513058Y-87338799D01*
X94664990Y-87566182D01*
X94746088Y-87687554D01*
X95530674Y-88472140D01*
X95879429Y-88705170D01*
X96290814Y-88787000D01*
X104761000Y-88787000D01*
X104761000Y-89926213D01*
X104748924Y-89917962D01*
X104501000Y-89867756D01*
X103221084Y-89867756D01*
X103137385Y-89811830D01*
X102726000Y-89730000D01*
X101251005Y-89730000D01*
X101251000Y-89729999D01*
X101024766Y-89775000D01*
X100937980Y-89775000D01*
X100919369Y-89729959D01*
X100575072Y-89385060D01*
X100124996Y-89198172D01*
X99637660Y-89197747D01*
X99187259Y-89383849D01*
X98842360Y-89728146D01*
X98655472Y-90178222D01*
X98655414Y-90244321D01*
X98591142Y-90244265D01*
X98140741Y-90430367D01*
X97795842Y-90774664D01*
X97608954Y-91224740D01*
X97608529Y-91712076D01*
X97663281Y-91844585D01*
X97441389Y-91886337D01*
X97228668Y-92023219D01*
X97085962Y-92232076D01*
X97069169Y-92315000D01*
X96792612Y-92315000D01*
X96381227Y-92396830D01*
X96036374Y-92627253D01*
X96032472Y-92629860D01*
X95237355Y-93424977D01*
X95004325Y-93773732D01*
X94922495Y-94185117D01*
X94922495Y-96238190D01*
X95004325Y-96649575D01*
X95186200Y-96921771D01*
X95237355Y-96998330D01*
X99157163Y-100918137D01*
X99157165Y-100918140D01*
X99505920Y-101151170D01*
X99917305Y-101233000D01*
X101672334Y-101233000D01*
X103999000Y-103559666D01*
X103999000Y-106742721D01*
X103887760Y-106853961D01*
X103712000Y-106819000D01*
X103560244Y-106819000D01*
X103560244Y-106369000D01*
X103520254Y-106156475D01*
X103560244Y-105959000D01*
X103560244Y-105349000D01*
X103520254Y-105136475D01*
X103560244Y-104939000D01*
X103560244Y-104329000D01*
X103516663Y-104097389D01*
X103379781Y-103884668D01*
X103170924Y-103741962D01*
X102923000Y-103691756D01*
X98198192Y-103691756D01*
X97945718Y-103439282D01*
X97661848Y-103249605D01*
X97327000Y-103183000D01*
X97317237Y-103183000D01*
X97140383Y-103064830D01*
X96728998Y-102983000D01*
X95685666Y-102983000D01*
X95391000Y-102688334D01*
X95391000Y-98053614D01*
X95309170Y-97642229D01*
X95076140Y-97293474D01*
X95076137Y-97293472D01*
X92851000Y-95068334D01*
X92851000Y-94549650D01*
X92915497Y-94525030D01*
X92990547Y-94477873D01*
X93048499Y-94423084D01*
X93059881Y-94416370D01*
X93070438Y-94402343D01*
X93078320Y-94394891D01*
X93087337Y-94388866D01*
X93103360Y-94381696D01*
X93112438Y-94372094D01*
X93178753Y-94327784D01*
X93241429Y-94265108D01*
X93285739Y-94198793D01*
X93295341Y-94189715D01*
X93302511Y-94173692D01*
X93308536Y-94164675D01*
X93315988Y-94156793D01*
X93330015Y-94146236D01*
X93336729Y-94134854D01*
X93391518Y-94076902D01*
X93438675Y-94001852D01*
X93467118Y-93927339D01*
X93474459Y-93916352D01*
X93477884Y-93899136D01*
X93481751Y-93889003D01*
X93487258Y-93879668D01*
X93498585Y-93866254D01*
X93502599Y-93853661D01*
X93543123Y-93784962D01*
X93572397Y-93701299D01*
X93583545Y-93622331D01*
X93588257Y-93609986D01*
X93587765Y-93592438D01*
X93589280Y-93581702D01*
X93625961Y-93466618D01*
X93635885Y-93378540D01*
X93630768Y-93317881D01*
X93642644Y-93258178D01*
X93642644Y-92249822D01*
X93630768Y-92190119D01*
X93635885Y-92129461D01*
X93625961Y-92041383D01*
X93589281Y-91926300D01*
X93587765Y-91915561D01*
X93588257Y-91898013D01*
X93583545Y-91885668D01*
X93572397Y-91806700D01*
X93543123Y-91723037D01*
X93502598Y-91654336D01*
X93498585Y-91641746D01*
X93487260Y-91628334D01*
X93481751Y-91618996D01*
X93477884Y-91608863D01*
X93474459Y-91591647D01*
X93467118Y-91580660D01*
X93438675Y-91506147D01*
X93391518Y-91431097D01*
X93336729Y-91373145D01*
X93330015Y-91361763D01*
X93315988Y-91351206D01*
X93308536Y-91343324D01*
X93302511Y-91334307D01*
X93295341Y-91318284D01*
X93285739Y-91309206D01*
X93241429Y-91242891D01*
X93178753Y-91180215D01*
X93112438Y-91135905D01*
X93103360Y-91126303D01*
X93087337Y-91119133D01*
X93078320Y-91113108D01*
X93070438Y-91105656D01*
X93059881Y-91091629D01*
X93048499Y-91084915D01*
X92990547Y-91030126D01*
X92915497Y-90982969D01*
X92840984Y-90954526D01*
X92840196Y-90953999D01*
X92840984Y-90953473D01*
X92915497Y-90925030D01*
X92990547Y-90877873D01*
X93048499Y-90823084D01*
X93059881Y-90816370D01*
X93070438Y-90802343D01*
X93078320Y-90794891D01*
X93087337Y-90788866D01*
X93103360Y-90781696D01*
X93112438Y-90772094D01*
X93178753Y-90727784D01*
X93241429Y-90665108D01*
X93285739Y-90598793D01*
X93295341Y-90589715D01*
X93302511Y-90573692D01*
X93308536Y-90564675D01*
X93315988Y-90556793D01*
X93330015Y-90546236D01*
X93336729Y-90534854D01*
X93391518Y-90476902D01*
X93438675Y-90401852D01*
X93467118Y-90327339D01*
X93474459Y-90316352D01*
X93477884Y-90299136D01*
X93481751Y-90289003D01*
X93487258Y-90279668D01*
X93498585Y-90266254D01*
X93502599Y-90253661D01*
X93543123Y-90184962D01*
X93572397Y-90101299D01*
X93583545Y-90022331D01*
X93588257Y-90009986D01*
X93587765Y-89992438D01*
X93589280Y-89981702D01*
X93625961Y-89866618D01*
X93635885Y-89778540D01*
X93630768Y-89717881D01*
X93642644Y-89658178D01*
X93642644Y-88649822D01*
X93630768Y-88590119D01*
X93635885Y-88529461D01*
X93625961Y-88441383D01*
X93589281Y-88326300D01*
X93587765Y-88315561D01*
X93588257Y-88298013D01*
X93583545Y-88285668D01*
X93572397Y-88206700D01*
X93543123Y-88123037D01*
X93502598Y-88054336D01*
X93498585Y-88041746D01*
X93487260Y-88028334D01*
X93481751Y-88018996D01*
X93477884Y-88008863D01*
X93474459Y-87991647D01*
X93467118Y-87980660D01*
X93438675Y-87906147D01*
X93391518Y-87831097D01*
X93336729Y-87773145D01*
X93330015Y-87761763D01*
X93315988Y-87751206D01*
X93308536Y-87743324D01*
X93302511Y-87734307D01*
X93295341Y-87718284D01*
X93285739Y-87709206D01*
X93241429Y-87642891D01*
X93178753Y-87580215D01*
X93112438Y-87535905D01*
X93103360Y-87526303D01*
X93087337Y-87519133D01*
X93078320Y-87513108D01*
X93070438Y-87505656D01*
X93059881Y-87491629D01*
X93048499Y-87484915D01*
X92990547Y-87430126D01*
X92915497Y-87382969D01*
X92840984Y-87354526D01*
X92840196Y-87354000D01*
X92840984Y-87353473D01*
X92915497Y-87325030D01*
X92990547Y-87277873D01*
X93048499Y-87223084D01*
X93059881Y-87216370D01*
X93070438Y-87202343D01*
X93078320Y-87194891D01*
X93087337Y-87188866D01*
X93103360Y-87181696D01*
X93112438Y-87172094D01*
X93178753Y-87127784D01*
X93241429Y-87065108D01*
X93285739Y-86998793D01*
X93295341Y-86989715D01*
X93302511Y-86973692D01*
X93308536Y-86964675D01*
X93315988Y-86956793D01*
X93330015Y-86946236D01*
X93336729Y-86934854D01*
X93391518Y-86876902D01*
X93438675Y-86801852D01*
X93467118Y-86727339D01*
X93474459Y-86716352D01*
X93477884Y-86699136D01*
X93481751Y-86689003D01*
X93487258Y-86679668D01*
X93498585Y-86666254D01*
X93502599Y-86653661D01*
X93543123Y-86584962D01*
X93572397Y-86501299D01*
X93583545Y-86422331D01*
X93588257Y-86409986D01*
X93587765Y-86392438D01*
X93589280Y-86381702D01*
X93625961Y-86266618D01*
X93635885Y-86178540D01*
X93630768Y-86117881D01*
X93642644Y-86058178D01*
X93642644Y-85049822D01*
X93630768Y-84990119D01*
X93635885Y-84929461D01*
X93625961Y-84841383D01*
X93589281Y-84726300D01*
X93587765Y-84715561D01*
X93588257Y-84698013D01*
X93583545Y-84685668D01*
X93572397Y-84606700D01*
X93543123Y-84523037D01*
X93502598Y-84454336D01*
X93498585Y-84441746D01*
X93487260Y-84428334D01*
X93481751Y-84418996D01*
X93477884Y-84408863D01*
X93474459Y-84391647D01*
X93467118Y-84380660D01*
X93438675Y-84306147D01*
X93391518Y-84231097D01*
X93336729Y-84173145D01*
X93330015Y-84161763D01*
X93315988Y-84151206D01*
X93308536Y-84143324D01*
X93302511Y-84134307D01*
X93295341Y-84118284D01*
X93285739Y-84109206D01*
X93241429Y-84042891D01*
X93178753Y-83980215D01*
X93112438Y-83935905D01*
X93103360Y-83926303D01*
X93087337Y-83919133D01*
X93078320Y-83913108D01*
X93070438Y-83905656D01*
X93059881Y-83891629D01*
X93048499Y-83884915D01*
X92990547Y-83830126D01*
X92915497Y-83782969D01*
X92840984Y-83754526D01*
X92829997Y-83747185D01*
X92812781Y-83743760D01*
X92802648Y-83739893D01*
X92793307Y-83734382D01*
X92779897Y-83723059D01*
X92767309Y-83719047D01*
X92751000Y-83709427D01*
X92751000Y-83257425D01*
X92758261Y-83246558D01*
X92762466Y-83225418D01*
X92769170Y-83215385D01*
X92771144Y-83205462D01*
X92785720Y-83180752D01*
X92789418Y-83170185D01*
X92800263Y-83093370D01*
X92805227Y-83082276D01*
X92805510Y-83072181D01*
X92830855Y-83005789D01*
X92830025Y-82976174D01*
X92842982Y-82935526D01*
X92844236Y-82924400D01*
X92839120Y-82863724D01*
X92851000Y-82804000D01*
X92851000Y-80445666D01*
X93653666Y-79643000D01*
X96592334Y-79643000D01*
X99202334Y-82253000D01*
G36*
X122260033Y-98493085D02*
X122548300Y-98685700D01*
X122740915Y-98973967D01*
X122811000Y-99326310D01*
X122811000Y-100203000D01*
X122813402Y-100227386D01*
X122814756Y-100234193D01*
X122814756Y-101860000D01*
X122858337Y-102091611D01*
X122995219Y-102304332D01*
X123204076Y-102447038D01*
X123452000Y-102497244D01*
X124452000Y-102497244D01*
X124683611Y-102453663D01*
X124896332Y-102316781D01*
X124953577Y-102233000D01*
X130289690Y-102233000D01*
X130561129Y-102286993D01*
X130586076Y-102304038D01*
X130834000Y-102354244D01*
X130899226Y-102354244D01*
X130933638Y-102361089D01*
X131469116Y-102718884D01*
X131826911Y-103254362D01*
X131952551Y-103886000D01*
X131826911Y-104517638D01*
X131469116Y-105053116D01*
X130933638Y-105410911D01*
X130289690Y-105539000D01*
X122916310Y-105539000D01*
X122187406Y-105394012D01*
X121579906Y-104988094D01*
X121173988Y-104380594D01*
X121029000Y-103651690D01*
X121029000Y-99326310D01*
X121099085Y-98973967D01*
X121291700Y-98685700D01*
X121579967Y-98493085D01*
X121920000Y-98425449D01*
X122260033Y-98493085D01*
X122260033Y-98493085D01*
G37*
X122260033Y-98493085D02*
X122548300Y-98685700D01*
X122740915Y-98973967D01*
X122811000Y-99326310D01*
X122811000Y-100203000D01*
X122813402Y-100227386D01*
X122814756Y-100234193D01*
X122814756Y-101860000D01*
X122858337Y-102091611D01*
X122995219Y-102304332D01*
X123204076Y-102447038D01*
X123452000Y-102497244D01*
X124452000Y-102497244D01*
X124683611Y-102453663D01*
X124896332Y-102316781D01*
X124953577Y-102233000D01*
X130289690Y-102233000D01*
X130561129Y-102286993D01*
X130586076Y-102304038D01*
X130834000Y-102354244D01*
X130899226Y-102354244D01*
X130933638Y-102361089D01*
X131469116Y-102718884D01*
X131826911Y-103254362D01*
X131952551Y-103886000D01*
X131826911Y-104517638D01*
X131469116Y-105053116D01*
X130933638Y-105410911D01*
X130289690Y-105539000D01*
X122916310Y-105539000D01*
X122187406Y-105394012D01*
X121579906Y-104988094D01*
X121173988Y-104380594D01*
X121029000Y-103651690D01*
X121029000Y-99326310D01*
X121099085Y-98973967D01*
X121291700Y-98685700D01*
X121579967Y-98493085D01*
X121920000Y-98425449D01*
X122260033Y-98493085D01*
G36*
X192914756Y-81407000D02*
X192958337Y-81638611D01*
X193095219Y-81851332D01*
X193304076Y-81994038D01*
X193552000Y-82044244D01*
X194582000Y-82044244D01*
X194582000Y-83842949D01*
X194482213Y-84083263D01*
X194481788Y-84570599D01*
X194667890Y-85021000D01*
X194693000Y-85046154D01*
X194693000Y-85090000D01*
X194702848Y-85138632D01*
X194730841Y-85179601D01*
X194772568Y-85206451D01*
X194818000Y-85215000D01*
X194861551Y-85215000D01*
X195012187Y-85365899D01*
X195462263Y-85552787D01*
X195868170Y-85553141D01*
X195871399Y-85558159D01*
X195912368Y-85586152D01*
X195961000Y-85596000D01*
X196974756Y-85596000D01*
X196974756Y-86361000D01*
X196979000Y-86383555D01*
X196979000Y-86868000D01*
X196987549Y-86913432D01*
X197014399Y-86955159D01*
X197055368Y-86983152D01*
X197104000Y-86993000D01*
X197586104Y-86993000D01*
X197612000Y-86998244D01*
X198882000Y-86998244D01*
X198909869Y-86993000D01*
X199900000Y-86993000D01*
X199900000Y-90805000D01*
X199909848Y-90853632D01*
X199937841Y-90894601D01*
X199979568Y-90921451D01*
X200025000Y-90930000D01*
X201297000Y-90930000D01*
X201297000Y-92202899D01*
X192784000Y-92128224D01*
X192784000Y-91846896D01*
X192789244Y-91821000D01*
X192789244Y-90551000D01*
X192745663Y-90319389D01*
X192608781Y-90106668D01*
X192399924Y-89963962D01*
X192152000Y-89913756D01*
X192030905Y-89913756D01*
X192002602Y-89871398D01*
X191814602Y-89683398D01*
X191125202Y-89222756D01*
X190312000Y-89061000D01*
X189498798Y-89222756D01*
X189217436Y-89410756D01*
X188980607Y-89569000D01*
X187069000Y-89569000D01*
X187069000Y-81405000D01*
X192914756Y-81405000D01*
X192914756Y-81407000D01*
X192914756Y-81407000D01*
G37*
X192914756Y-81407000D02*
X192958337Y-81638611D01*
X193095219Y-81851332D01*
X193304076Y-81994038D01*
X193552000Y-82044244D01*
X194582000Y-82044244D01*
X194582000Y-83842949D01*
X194482213Y-84083263D01*
X194481788Y-84570599D01*
X194667890Y-85021000D01*
X194693000Y-85046154D01*
X194693000Y-85090000D01*
X194702848Y-85138632D01*
X194730841Y-85179601D01*
X194772568Y-85206451D01*
X194818000Y-85215000D01*
X194861551Y-85215000D01*
X195012187Y-85365899D01*
X195462263Y-85552787D01*
X195868170Y-85553141D01*
X195871399Y-85558159D01*
X195912368Y-85586152D01*
X195961000Y-85596000D01*
X196974756Y-85596000D01*
X196974756Y-86361000D01*
X196979000Y-86383555D01*
X196979000Y-86868000D01*
X196987549Y-86913432D01*
X197014399Y-86955159D01*
X197055368Y-86983152D01*
X197104000Y-86993000D01*
X197586104Y-86993000D01*
X197612000Y-86998244D01*
X198882000Y-86998244D01*
X198909869Y-86993000D01*
X199900000Y-86993000D01*
X199900000Y-90805000D01*
X199909848Y-90853632D01*
X199937841Y-90894601D01*
X199979568Y-90921451D01*
X200025000Y-90930000D01*
X201297000Y-90930000D01*
X201297000Y-92202899D01*
X192784000Y-92128224D01*
X192784000Y-91846896D01*
X192789244Y-91821000D01*
X192789244Y-90551000D01*
X192745663Y-90319389D01*
X192608781Y-90106668D01*
X192399924Y-89963962D01*
X192152000Y-89913756D01*
X192030905Y-89913756D01*
X192002602Y-89871398D01*
X191814602Y-89683398D01*
X191125202Y-89222756D01*
X190312000Y-89061000D01*
X189498798Y-89222756D01*
X189217436Y-89410756D01*
X188980607Y-89569000D01*
X187069000Y-89569000D01*
X187069000Y-81405000D01*
X192914756Y-81405000D01*
X192914756Y-81407000D01*
G36*
X131467456Y-126300000D02*
X120919780Y-126300000D01*
X120919780Y-124966000D01*
X130133456Y-124966000D01*
X131467456Y-126300000D01*
X131467456Y-126300000D01*
G37*
X131467456Y-126300000D02*
X120919780Y-126300000D01*
X120919780Y-124966000D01*
X130133456Y-124966000D01*
X131467456Y-126300000D01*
G36*
X185168000Y-76327000D02*
X185176549Y-76372432D01*
X185203399Y-76414159D01*
X185244368Y-76442152D01*
X185293000Y-76452000D01*
X210947000Y-76452000D01*
X210992432Y-76443451D01*
X211034159Y-76416601D01*
X211062152Y-76375632D01*
X211072000Y-76327000D01*
X211072000Y-73533000D01*
X211063451Y-73487568D01*
X211036601Y-73445841D01*
X210995632Y-73417848D01*
X210947000Y-73408000D01*
X210881500Y-73408000D01*
X210881500Y-73010472D01*
X210900338Y-72983547D01*
X210820314Y-72765000D01*
X209925000Y-72765000D01*
X209925000Y-72785000D01*
X209175000Y-72785000D01*
X209175000Y-72765000D01*
X209155000Y-72765000D01*
X209155000Y-72015000D01*
X209175000Y-72015000D01*
X209175000Y-71125691D01*
X209925000Y-71125691D01*
X209925000Y-72015000D01*
X210820314Y-72015000D01*
X210900338Y-71796453D01*
X210570409Y-71324882D01*
X210143542Y-71039692D01*
X209925000Y-71125691D01*
X209175000Y-71125691D01*
X208956458Y-71039692D01*
X208928307Y-71058500D01*
X208532000Y-71058500D01*
X208532000Y-70804000D01*
X211136000Y-70804000D01*
X211136000Y-126300000D01*
X183746544Y-126300000D01*
X185122269Y-124924274D01*
X185122272Y-124924272D01*
X185157284Y-124871874D01*
X185381611Y-124829663D01*
X185594332Y-124692781D01*
X185737038Y-124483924D01*
X185787244Y-124236000D01*
X185787244Y-122382878D01*
X186170599Y-122383212D01*
X186621000Y-122197110D01*
X186965899Y-121852813D01*
X187152787Y-121402737D01*
X187152803Y-121384004D01*
X191443344Y-121384004D01*
X191747670Y-121688330D01*
X191990987Y-121850910D01*
X192278000Y-121908000D01*
X194818000Y-121908000D01*
X195105013Y-121850910D01*
X195348330Y-121688330D01*
X195415803Y-121620857D01*
X195822599Y-121621212D01*
X196273000Y-121435110D01*
X196617899Y-121090813D01*
X196804787Y-120640737D01*
X196805212Y-120153401D01*
X196795543Y-120130000D01*
X197866000Y-120130000D01*
X198153013Y-120072910D01*
X198396330Y-119910330D01*
X198650330Y-119656330D01*
X198666587Y-119632000D01*
X210820000Y-119632000D01*
X210865432Y-119623451D01*
X210907159Y-119596601D01*
X210935152Y-119555632D01*
X210945000Y-119507000D01*
X210945000Y-119269449D01*
X210987038Y-119207924D01*
X211037244Y-118960000D01*
X211037244Y-117260000D01*
X210993663Y-117028389D01*
X210945000Y-116952764D01*
X210945000Y-116001083D01*
X211025000Y-115598897D01*
X211025000Y-115541103D01*
X210945000Y-115138917D01*
X210945000Y-114173000D01*
X210936451Y-114127568D01*
X210909601Y-114085841D01*
X210868632Y-114057848D01*
X210820000Y-114048000D01*
X202055000Y-114048000D01*
X202055000Y-112268000D01*
X202046451Y-112222568D01*
X202035000Y-112204772D01*
X202035000Y-97534000D01*
X204726000Y-97534000D01*
X204726000Y-98267340D01*
X203431670Y-99561670D01*
X203269090Y-99804987D01*
X203212000Y-100092000D01*
X203212000Y-100871791D01*
X202924101Y-101159187D01*
X202737213Y-101609263D01*
X202736788Y-102096599D01*
X202922890Y-102547000D01*
X203267187Y-102891899D01*
X203710000Y-103075771D01*
X203710000Y-104140000D01*
X203720000Y-104175069D01*
X203720000Y-108999791D01*
X203432101Y-109287187D01*
X203245213Y-109737263D01*
X203244788Y-110224599D01*
X203430890Y-110675000D01*
X203775187Y-111019899D01*
X204225263Y-111206787D01*
X204712599Y-111207212D01*
X204935344Y-111115176D01*
X204769213Y-111515263D01*
X204768788Y-112002599D01*
X204954890Y-112453000D01*
X205299187Y-112797899D01*
X205749263Y-112984787D01*
X206236599Y-112985212D01*
X206687000Y-112799110D01*
X207031899Y-112454813D01*
X207218787Y-112004737D01*
X207219212Y-111517401D01*
X207033110Y-111067000D01*
X206760000Y-110793412D01*
X206760000Y-107186000D01*
X209042000Y-107186000D01*
X209087432Y-107177451D01*
X209129159Y-107150601D01*
X209157152Y-107109632D01*
X209167000Y-107061000D01*
X209167000Y-91186000D01*
X209158451Y-91140568D01*
X209131601Y-91098841D01*
X209090632Y-91070848D01*
X209042000Y-91061000D01*
X208405000Y-91061000D01*
X208405000Y-88457518D01*
X208488787Y-88255737D01*
X208489212Y-87768401D01*
X208303110Y-87318000D01*
X207958813Y-86973101D01*
X207508737Y-86786213D01*
X207021401Y-86785788D01*
X206571000Y-86971890D01*
X206226101Y-87316187D01*
X206092757Y-87637314D01*
X206075568Y-87640549D01*
X206033841Y-87667399D01*
X206005848Y-87708368D01*
X205996000Y-87757000D01*
X205996000Y-88775000D01*
X204724000Y-88775000D01*
X204678568Y-88783549D01*
X204656008Y-88798066D01*
X204516389Y-88824337D01*
X204303668Y-88961219D01*
X204258896Y-89026744D01*
X203928505Y-89247505D01*
X203636487Y-89539523D01*
X203603870Y-89553000D01*
X200650000Y-89553000D01*
X200650000Y-86715244D01*
X203680000Y-86715244D01*
X203911611Y-86671663D01*
X204124332Y-86534781D01*
X204267038Y-86325924D01*
X204317244Y-86078000D01*
X204317244Y-84859250D01*
X205555000Y-84859250D01*
X205555000Y-86202320D01*
X205650151Y-86432034D01*
X205825966Y-86607850D01*
X206055680Y-86703000D01*
X207398750Y-86703000D01*
X207555000Y-86546750D01*
X207555000Y-84703000D01*
X208305000Y-84703000D01*
X208305000Y-86546750D01*
X208461250Y-86703000D01*
X209804320Y-86703000D01*
X210034034Y-86607850D01*
X210209849Y-86432034D01*
X210305000Y-86202320D01*
X210305000Y-84859250D01*
X210148750Y-84703000D01*
X208305000Y-84703000D01*
X207555000Y-84703000D01*
X205711250Y-84703000D01*
X205555000Y-84859250D01*
X204317244Y-84859250D01*
X204317244Y-82578000D01*
X204293852Y-82453680D01*
X205555000Y-82453680D01*
X205555000Y-83796750D01*
X205711250Y-83953000D01*
X207555000Y-83953000D01*
X207555000Y-82109250D01*
X208305000Y-82109250D01*
X208305000Y-83953000D01*
X210148750Y-83953000D01*
X210305000Y-83796750D01*
X210305000Y-82453680D01*
X210209849Y-82223966D01*
X210034034Y-82048150D01*
X209804320Y-81953000D01*
X208461250Y-81953000D01*
X208305000Y-82109250D01*
X207555000Y-82109250D01*
X207398750Y-81953000D01*
X206055680Y-81953000D01*
X205825966Y-82048150D01*
X205650151Y-82223966D01*
X205555000Y-82453680D01*
X204293852Y-82453680D01*
X204273663Y-82346389D01*
X204136781Y-82133668D01*
X203927924Y-81990962D01*
X203680000Y-81940756D01*
X202309000Y-81940756D01*
X202309000Y-81280000D01*
X202300451Y-81234568D01*
X202273601Y-81192841D01*
X202232632Y-81164848D01*
X202211900Y-81160650D01*
X202140750Y-81089500D01*
X200207000Y-81089500D01*
X200207000Y-81167000D01*
X199457000Y-81167000D01*
X199457000Y-81089500D01*
X199437000Y-81089500D01*
X199437000Y-80454500D01*
X199457000Y-80454500D01*
X199457000Y-79668250D01*
X200207000Y-79668250D01*
X200207000Y-80454500D01*
X202140750Y-80454500D01*
X202297000Y-80298250D01*
X202297000Y-80012680D01*
X202201849Y-79782966D01*
X202026034Y-79607150D01*
X201796320Y-79512000D01*
X200363250Y-79512000D01*
X200207000Y-79668250D01*
X199457000Y-79668250D01*
X199300750Y-79512000D01*
X198032506Y-79512000D01*
X197993000Y-79504000D01*
X197252957Y-79504000D01*
X197232000Y-79499756D01*
X193552000Y-79499756D01*
X193320389Y-79543337D01*
X193107668Y-79680219D01*
X192964962Y-79889076D01*
X192914756Y-80137000D01*
X192914756Y-80655000D01*
X187909990Y-80655000D01*
X186342495Y-79087505D01*
X186301331Y-79060000D01*
X185977519Y-78843636D01*
X185547000Y-78758000D01*
X184279244Y-78758000D01*
X184279244Y-75183000D01*
X184235663Y-74951389D01*
X184098781Y-74738668D01*
X183889924Y-74595962D01*
X183642000Y-74545756D01*
X182372000Y-74545756D01*
X182140389Y-74589337D01*
X181927668Y-74726219D01*
X181784962Y-74935076D01*
X181734756Y-75183000D01*
X181734756Y-77057807D01*
X181165564Y-77627000D01*
X178359320Y-77627000D01*
X178583899Y-77402813D01*
X178717243Y-77081686D01*
X178734432Y-77078451D01*
X178776159Y-77051601D01*
X178804152Y-77010632D01*
X178814000Y-76962000D01*
X178814000Y-75565000D01*
X178805451Y-75519568D01*
X178778601Y-75477841D01*
X178737632Y-75449848D01*
X178689000Y-75440000D01*
X177042244Y-75440000D01*
X177042244Y-70804000D01*
X185168000Y-70804000D01*
X185168000Y-76327000D01*
X185168000Y-76327000D01*
G37*
X185168000Y-76327000D02*
X185176549Y-76372432D01*
X185203399Y-76414159D01*
X185244368Y-76442152D01*
X185293000Y-76452000D01*
X210947000Y-76452000D01*
X210992432Y-76443451D01*
X211034159Y-76416601D01*
X211062152Y-76375632D01*
X211072000Y-76327000D01*
X211072000Y-73533000D01*
X211063451Y-73487568D01*
X211036601Y-73445841D01*
X210995632Y-73417848D01*
X210947000Y-73408000D01*
X210881500Y-73408000D01*
X210881500Y-73010472D01*
X210900338Y-72983547D01*
X210820314Y-72765000D01*
X209925000Y-72765000D01*
X209925000Y-72785000D01*
X209175000Y-72785000D01*
X209175000Y-72765000D01*
X209155000Y-72765000D01*
X209155000Y-72015000D01*
X209175000Y-72015000D01*
X209175000Y-71125691D01*
X209925000Y-71125691D01*
X209925000Y-72015000D01*
X210820314Y-72015000D01*
X210900338Y-71796453D01*
X210570409Y-71324882D01*
X210143542Y-71039692D01*
X209925000Y-71125691D01*
X209175000Y-71125691D01*
X208956458Y-71039692D01*
X208928307Y-71058500D01*
X208532000Y-71058500D01*
X208532000Y-70804000D01*
X211136000Y-70804000D01*
X211136000Y-126300000D01*
X183746544Y-126300000D01*
X185122269Y-124924274D01*
X185122272Y-124924272D01*
X185157284Y-124871874D01*
X185381611Y-124829663D01*
X185594332Y-124692781D01*
X185737038Y-124483924D01*
X185787244Y-124236000D01*
X185787244Y-122382878D01*
X186170599Y-122383212D01*
X186621000Y-122197110D01*
X186965899Y-121852813D01*
X187152787Y-121402737D01*
X187152803Y-121384004D01*
X191443344Y-121384004D01*
X191747670Y-121688330D01*
X191990987Y-121850910D01*
X192278000Y-121908000D01*
X194818000Y-121908000D01*
X195105013Y-121850910D01*
X195348330Y-121688330D01*
X195415803Y-121620857D01*
X195822599Y-121621212D01*
X196273000Y-121435110D01*
X196617899Y-121090813D01*
X196804787Y-120640737D01*
X196805212Y-120153401D01*
X196795543Y-120130000D01*
X197866000Y-120130000D01*
X198153013Y-120072910D01*
X198396330Y-119910330D01*
X198650330Y-119656330D01*
X198666587Y-119632000D01*
X210820000Y-119632000D01*
X210865432Y-119623451D01*
X210907159Y-119596601D01*
X210935152Y-119555632D01*
X210945000Y-119507000D01*
X210945000Y-119269449D01*
X210987038Y-119207924D01*
X211037244Y-118960000D01*
X211037244Y-117260000D01*
X210993663Y-117028389D01*
X210945000Y-116952764D01*
X210945000Y-116001083D01*
X211025000Y-115598897D01*
X211025000Y-115541103D01*
X210945000Y-115138917D01*
X210945000Y-114173000D01*
X210936451Y-114127568D01*
X210909601Y-114085841D01*
X210868632Y-114057848D01*
X210820000Y-114048000D01*
X202055000Y-114048000D01*
X202055000Y-112268000D01*
X202046451Y-112222568D01*
X202035000Y-112204772D01*
X202035000Y-97534000D01*
X204726000Y-97534000D01*
X204726000Y-98267340D01*
X203431670Y-99561670D01*
X203269090Y-99804987D01*
X203212000Y-100092000D01*
X203212000Y-100871791D01*
X202924101Y-101159187D01*
X202737213Y-101609263D01*
X202736788Y-102096599D01*
X202922890Y-102547000D01*
X203267187Y-102891899D01*
X203710000Y-103075771D01*
X203710000Y-104140000D01*
X203720000Y-104175069D01*
X203720000Y-108999791D01*
X203432101Y-109287187D01*
X203245213Y-109737263D01*
X203244788Y-110224599D01*
X203430890Y-110675000D01*
X203775187Y-111019899D01*
X204225263Y-111206787D01*
X204712599Y-111207212D01*
X204935344Y-111115176D01*
X204769213Y-111515263D01*
X204768788Y-112002599D01*
X204954890Y-112453000D01*
X205299187Y-112797899D01*
X205749263Y-112984787D01*
X206236599Y-112985212D01*
X206687000Y-112799110D01*
X207031899Y-112454813D01*
X207218787Y-112004737D01*
X207219212Y-111517401D01*
X207033110Y-111067000D01*
X206760000Y-110793412D01*
X206760000Y-107186000D01*
X209042000Y-107186000D01*
X209087432Y-107177451D01*
X209129159Y-107150601D01*
X209157152Y-107109632D01*
X209167000Y-107061000D01*
X209167000Y-91186000D01*
X209158451Y-91140568D01*
X209131601Y-91098841D01*
X209090632Y-91070848D01*
X209042000Y-91061000D01*
X208405000Y-91061000D01*
X208405000Y-88457518D01*
X208488787Y-88255737D01*
X208489212Y-87768401D01*
X208303110Y-87318000D01*
X207958813Y-86973101D01*
X207508737Y-86786213D01*
X207021401Y-86785788D01*
X206571000Y-86971890D01*
X206226101Y-87316187D01*
X206092757Y-87637314D01*
X206075568Y-87640549D01*
X206033841Y-87667399D01*
X206005848Y-87708368D01*
X205996000Y-87757000D01*
X205996000Y-88775000D01*
X204724000Y-88775000D01*
X204678568Y-88783549D01*
X204656008Y-88798066D01*
X204516389Y-88824337D01*
X204303668Y-88961219D01*
X204258896Y-89026744D01*
X203928505Y-89247505D01*
X203636487Y-89539523D01*
X203603870Y-89553000D01*
X200650000Y-89553000D01*
X200650000Y-86715244D01*
X203680000Y-86715244D01*
X203911611Y-86671663D01*
X204124332Y-86534781D01*
X204267038Y-86325924D01*
X204317244Y-86078000D01*
X204317244Y-84859250D01*
X205555000Y-84859250D01*
X205555000Y-86202320D01*
X205650151Y-86432034D01*
X205825966Y-86607850D01*
X206055680Y-86703000D01*
X207398750Y-86703000D01*
X207555000Y-86546750D01*
X207555000Y-84703000D01*
X208305000Y-84703000D01*
X208305000Y-86546750D01*
X208461250Y-86703000D01*
X209804320Y-86703000D01*
X210034034Y-86607850D01*
X210209849Y-86432034D01*
X210305000Y-86202320D01*
X210305000Y-84859250D01*
X210148750Y-84703000D01*
X208305000Y-84703000D01*
X207555000Y-84703000D01*
X205711250Y-84703000D01*
X205555000Y-84859250D01*
X204317244Y-84859250D01*
X204317244Y-82578000D01*
X204293852Y-82453680D01*
X205555000Y-82453680D01*
X205555000Y-83796750D01*
X205711250Y-83953000D01*
X207555000Y-83953000D01*
X207555000Y-82109250D01*
X208305000Y-82109250D01*
X208305000Y-83953000D01*
X210148750Y-83953000D01*
X210305000Y-83796750D01*
X210305000Y-82453680D01*
X210209849Y-82223966D01*
X210034034Y-82048150D01*
X209804320Y-81953000D01*
X208461250Y-81953000D01*
X208305000Y-82109250D01*
X207555000Y-82109250D01*
X207398750Y-81953000D01*
X206055680Y-81953000D01*
X205825966Y-82048150D01*
X205650151Y-82223966D01*
X205555000Y-82453680D01*
X204293852Y-82453680D01*
X204273663Y-82346389D01*
X204136781Y-82133668D01*
X203927924Y-81990962D01*
X203680000Y-81940756D01*
X202309000Y-81940756D01*
X202309000Y-81280000D01*
X202300451Y-81234568D01*
X202273601Y-81192841D01*
X202232632Y-81164848D01*
X202211900Y-81160650D01*
X202140750Y-81089500D01*
X200207000Y-81089500D01*
X200207000Y-81167000D01*
X199457000Y-81167000D01*
X199457000Y-81089500D01*
X199437000Y-81089500D01*
X199437000Y-80454500D01*
X199457000Y-80454500D01*
X199457000Y-79668250D01*
X200207000Y-79668250D01*
X200207000Y-80454500D01*
X202140750Y-80454500D01*
X202297000Y-80298250D01*
X202297000Y-80012680D01*
X202201849Y-79782966D01*
X202026034Y-79607150D01*
X201796320Y-79512000D01*
X200363250Y-79512000D01*
X200207000Y-79668250D01*
X199457000Y-79668250D01*
X199300750Y-79512000D01*
X198032506Y-79512000D01*
X197993000Y-79504000D01*
X197252957Y-79504000D01*
X197232000Y-79499756D01*
X193552000Y-79499756D01*
X193320389Y-79543337D01*
X193107668Y-79680219D01*
X192964962Y-79889076D01*
X192914756Y-80137000D01*
X192914756Y-80655000D01*
X187909990Y-80655000D01*
X186342495Y-79087505D01*
X186301331Y-79060000D01*
X185977519Y-78843636D01*
X185547000Y-78758000D01*
X184279244Y-78758000D01*
X184279244Y-75183000D01*
X184235663Y-74951389D01*
X184098781Y-74738668D01*
X183889924Y-74595962D01*
X183642000Y-74545756D01*
X182372000Y-74545756D01*
X182140389Y-74589337D01*
X181927668Y-74726219D01*
X181784962Y-74935076D01*
X181734756Y-75183000D01*
X181734756Y-77057807D01*
X181165564Y-77627000D01*
X178359320Y-77627000D01*
X178583899Y-77402813D01*
X178717243Y-77081686D01*
X178734432Y-77078451D01*
X178776159Y-77051601D01*
X178804152Y-77010632D01*
X178814000Y-76962000D01*
X178814000Y-75565000D01*
X178805451Y-75519568D01*
X178778601Y-75477841D01*
X178737632Y-75449848D01*
X178689000Y-75440000D01*
X177042244Y-75440000D01*
X177042244Y-70804000D01*
X185168000Y-70804000D01*
X185168000Y-76327000D01*
G36*
X134368000Y-122160700D02*
X134305304Y-122309074D01*
X134368000Y-122435819D01*
X134368000Y-123436181D01*
X134305304Y-123562926D01*
X134368000Y-123711300D01*
X134368000Y-124101000D01*
X133157544Y-124101000D01*
X131685244Y-122628700D01*
X131685244Y-121654000D01*
X134368000Y-121654000D01*
X134368000Y-122160700D01*
X134368000Y-122160700D01*
G37*
X134368000Y-122160700D02*
X134305304Y-122309074D01*
X134368000Y-122435819D01*
X134368000Y-123436181D01*
X134305304Y-123562926D01*
X134368000Y-123711300D01*
X134368000Y-124101000D01*
X133157544Y-124101000D01*
X131685244Y-122628700D01*
X131685244Y-121654000D01*
X134368000Y-121654000D01*
X134368000Y-122160700D01*
G36*
X174881000Y-124101000D02*
X174559544Y-124101000D01*
X173087244Y-122628700D01*
X173087244Y-121908000D01*
X174881000Y-121908000D01*
X174881000Y-124101000D01*
X174881000Y-124101000D01*
G37*
X174881000Y-124101000D02*
X174559544Y-124101000D01*
X173087244Y-122628700D01*
X173087244Y-121908000D01*
X174881000Y-121908000D01*
X174881000Y-124101000D01*
G36*
X136265000Y-122561000D02*
X136285000Y-122561000D01*
X136285000Y-123311000D01*
X136265000Y-123311000D01*
X136265000Y-123331000D01*
X135515000Y-123331000D01*
X135515000Y-123311000D01*
X135253000Y-123311000D01*
X135253000Y-122561000D01*
X135515000Y-122561000D01*
X135515000Y-122541000D01*
X136265000Y-122541000D01*
X136265000Y-122561000D01*
X136265000Y-122561000D01*
G37*
X136265000Y-122561000D02*
X136285000Y-122561000D01*
X136285000Y-123311000D01*
X136265000Y-123311000D01*
X136265000Y-123331000D01*
X135515000Y-123331000D01*
X135515000Y-123311000D01*
X135253000Y-123311000D01*
X135253000Y-122561000D01*
X135515000Y-122561000D01*
X135515000Y-122541000D01*
X136265000Y-122541000D01*
X136265000Y-122561000D01*
G36*
X164205000Y-122561000D02*
X164225000Y-122561000D01*
X164225000Y-123311000D01*
X164205000Y-123311000D01*
X164205000Y-123331000D01*
X163455000Y-123331000D01*
X163455000Y-123311000D01*
X163435000Y-123311000D01*
X163435000Y-122561000D01*
X163455000Y-122561000D01*
X163455000Y-122541000D01*
X164205000Y-122541000D01*
X164205000Y-122561000D01*
X164205000Y-122561000D01*
G37*
X164205000Y-122561000D02*
X164225000Y-122561000D01*
X164225000Y-123311000D01*
X164205000Y-123311000D01*
X164205000Y-123331000D01*
X163455000Y-123331000D01*
X163455000Y-123311000D01*
X163435000Y-123311000D01*
X163435000Y-122561000D01*
X163455000Y-122561000D01*
X163455000Y-122541000D01*
X164205000Y-122541000D01*
X164205000Y-122561000D01*
G36*
X176905000Y-122561000D02*
X176925000Y-122561000D01*
X176925000Y-123311000D01*
X176905000Y-123311000D01*
X176905000Y-123331000D01*
X176155000Y-123331000D01*
X176155000Y-123311000D01*
X176135000Y-123311000D01*
X176135000Y-122561000D01*
X176155000Y-122561000D01*
X176155000Y-122541000D01*
X176905000Y-122541000D01*
X176905000Y-122561000D01*
X176905000Y-122561000D01*
G37*
X176905000Y-122561000D02*
X176925000Y-122561000D01*
X176925000Y-123311000D01*
X176905000Y-123311000D01*
X176905000Y-123331000D01*
X176155000Y-123331000D01*
X176155000Y-123311000D01*
X176135000Y-123311000D01*
X176135000Y-122561000D01*
X176155000Y-122561000D01*
X176155000Y-122541000D01*
X176905000Y-122541000D01*
X176905000Y-122561000D01*
G36*
X120970117Y-105425445D02*
X121142555Y-105597883D01*
X121791402Y-106031428D01*
X122016702Y-106124750D01*
X122782069Y-106276991D01*
X122904000Y-106289000D01*
X130302000Y-106289000D01*
X130423931Y-106276991D01*
X131104342Y-106141649D01*
X131329642Y-106048327D01*
X131585686Y-105877244D01*
X131944000Y-105877244D01*
X132075502Y-105852500D01*
X132246500Y-105852500D01*
X132246500Y-106032622D01*
X132147668Y-106096219D01*
X132004962Y-106305076D01*
X131954756Y-106553000D01*
X131954756Y-107823000D01*
X131998337Y-108054611D01*
X132135219Y-108267332D01*
X132344076Y-108410038D01*
X132592000Y-108460244D01*
X132671000Y-108460244D01*
X132671000Y-110741756D01*
X132206000Y-110741756D01*
X132129167Y-110756213D01*
X132128632Y-110755848D01*
X132080000Y-110746000D01*
X131445000Y-110746000D01*
X131402486Y-110754000D01*
X130137250Y-110754000D01*
X129981000Y-110910250D01*
X129981000Y-111696500D01*
X130001000Y-111696500D01*
X130001000Y-112331500D01*
X129981000Y-112331500D01*
X129981000Y-113117750D01*
X130137250Y-113274000D01*
X131532494Y-113274000D01*
X131572000Y-113282000D01*
X132037340Y-113282000D01*
X131271340Y-114048000D01*
X129586660Y-114048000D01*
X129308330Y-113769670D01*
X129065013Y-113607090D01*
X128778000Y-113550000D01*
X124460000Y-113550000D01*
X124172987Y-113607090D01*
X123929670Y-113769670D01*
X123651340Y-114048000D01*
X121793000Y-114048000D01*
X121747568Y-114056549D01*
X121705841Y-114083399D01*
X121677848Y-114124368D01*
X121668000Y-114173000D01*
X121668000Y-119507000D01*
X121676549Y-119552432D01*
X121703399Y-119594159D01*
X121744368Y-119622152D01*
X121793000Y-119632000D01*
X123474563Y-119632000D01*
X124093000Y-120250437D01*
X124093000Y-121160000D01*
X123144173Y-121160000D01*
X123049861Y-121096983D01*
X122428000Y-120973287D01*
X121806139Y-121096983D01*
X121711827Y-121160000D01*
X120919780Y-121160000D01*
X120919780Y-108960000D01*
X122814756Y-108960000D01*
X122814756Y-112460000D01*
X122858337Y-112691611D01*
X122995219Y-112904332D01*
X123204076Y-113047038D01*
X123452000Y-113097244D01*
X124452000Y-113097244D01*
X124683611Y-113053663D01*
X124896332Y-112916781D01*
X125039038Y-112707924D01*
X125083624Y-112487750D01*
X127141000Y-112487750D01*
X127141000Y-112773320D01*
X127236151Y-113003034D01*
X127411966Y-113178850D01*
X127641680Y-113274000D01*
X129074750Y-113274000D01*
X129231000Y-113117750D01*
X129231000Y-112331500D01*
X127297250Y-112331500D01*
X127141000Y-112487750D01*
X125083624Y-112487750D01*
X125089244Y-112460000D01*
X125089244Y-111254680D01*
X127141000Y-111254680D01*
X127141000Y-111540250D01*
X127297250Y-111696500D01*
X129231000Y-111696500D01*
X129231000Y-110910250D01*
X129074750Y-110754000D01*
X127641680Y-110754000D01*
X127411966Y-110849150D01*
X127236151Y-111024966D01*
X127141000Y-111254680D01*
X125089244Y-111254680D01*
X125089244Y-108960000D01*
X125045663Y-108728389D01*
X124908781Y-108515668D01*
X124699924Y-108372962D01*
X124452000Y-108322756D01*
X123452000Y-108322756D01*
X123220389Y-108366337D01*
X123007668Y-108503219D01*
X122864962Y-108712076D01*
X122814756Y-108960000D01*
X120919780Y-108960000D01*
X120919780Y-105350110D01*
X120970117Y-105425445D01*
X120970117Y-105425445D01*
G37*
X120970117Y-105425445D02*
X121142555Y-105597883D01*
X121791402Y-106031428D01*
X122016702Y-106124750D01*
X122782069Y-106276991D01*
X122904000Y-106289000D01*
X130302000Y-106289000D01*
X130423931Y-106276991D01*
X131104342Y-106141649D01*
X131329642Y-106048327D01*
X131585686Y-105877244D01*
X131944000Y-105877244D01*
X132075502Y-105852500D01*
X132246500Y-105852500D01*
X132246500Y-106032622D01*
X132147668Y-106096219D01*
X132004962Y-106305076D01*
X131954756Y-106553000D01*
X131954756Y-107823000D01*
X131998337Y-108054611D01*
X132135219Y-108267332D01*
X132344076Y-108410038D01*
X132592000Y-108460244D01*
X132671000Y-108460244D01*
X132671000Y-110741756D01*
X132206000Y-110741756D01*
X132129167Y-110756213D01*
X132128632Y-110755848D01*
X132080000Y-110746000D01*
X131445000Y-110746000D01*
X131402486Y-110754000D01*
X130137250Y-110754000D01*
X129981000Y-110910250D01*
X129981000Y-111696500D01*
X130001000Y-111696500D01*
X130001000Y-112331500D01*
X129981000Y-112331500D01*
X129981000Y-113117750D01*
X130137250Y-113274000D01*
X131532494Y-113274000D01*
X131572000Y-113282000D01*
X132037340Y-113282000D01*
X131271340Y-114048000D01*
X129586660Y-114048000D01*
X129308330Y-113769670D01*
X129065013Y-113607090D01*
X128778000Y-113550000D01*
X124460000Y-113550000D01*
X124172987Y-113607090D01*
X123929670Y-113769670D01*
X123651340Y-114048000D01*
X121793000Y-114048000D01*
X121747568Y-114056549D01*
X121705841Y-114083399D01*
X121677848Y-114124368D01*
X121668000Y-114173000D01*
X121668000Y-119507000D01*
X121676549Y-119552432D01*
X121703399Y-119594159D01*
X121744368Y-119622152D01*
X121793000Y-119632000D01*
X123474563Y-119632000D01*
X124093000Y-120250437D01*
X124093000Y-121160000D01*
X123144173Y-121160000D01*
X123049861Y-121096983D01*
X122428000Y-120973287D01*
X121806139Y-121096983D01*
X121711827Y-121160000D01*
X120919780Y-121160000D01*
X120919780Y-108960000D01*
X122814756Y-108960000D01*
X122814756Y-112460000D01*
X122858337Y-112691611D01*
X122995219Y-112904332D01*
X123204076Y-113047038D01*
X123452000Y-113097244D01*
X124452000Y-113097244D01*
X124683611Y-113053663D01*
X124896332Y-112916781D01*
X125039038Y-112707924D01*
X125083624Y-112487750D01*
X127141000Y-112487750D01*
X127141000Y-112773320D01*
X127236151Y-113003034D01*
X127411966Y-113178850D01*
X127641680Y-113274000D01*
X129074750Y-113274000D01*
X129231000Y-113117750D01*
X129231000Y-112331500D01*
X127297250Y-112331500D01*
X127141000Y-112487750D01*
X125083624Y-112487750D01*
X125089244Y-112460000D01*
X125089244Y-111254680D01*
X127141000Y-111254680D01*
X127141000Y-111540250D01*
X127297250Y-111696500D01*
X129231000Y-111696500D01*
X129231000Y-110910250D01*
X129074750Y-110754000D01*
X127641680Y-110754000D01*
X127411966Y-110849150D01*
X127236151Y-111024966D01*
X127141000Y-111254680D01*
X125089244Y-111254680D01*
X125089244Y-108960000D01*
X125045663Y-108728389D01*
X124908781Y-108515668D01*
X124699924Y-108372962D01*
X124452000Y-108322756D01*
X123452000Y-108322756D01*
X123220389Y-108366337D01*
X123007668Y-108503219D01*
X122864962Y-108712076D01*
X122814756Y-108960000D01*
X120919780Y-108960000D01*
X120919780Y-105350110D01*
X120970117Y-105425445D01*
G36*
X143487670Y-83334330D02*
X143730987Y-83496910D01*
X144018000Y-83554000D01*
X171139340Y-83554000D01*
X171173670Y-83588330D01*
X171416987Y-83750910D01*
X171704000Y-83808000D01*
X177489340Y-83808000D01*
X177558000Y-83876660D01*
X177558000Y-98552000D01*
X177615090Y-98839013D01*
X177777670Y-99082330D01*
X178539670Y-99844330D01*
X178782987Y-100006910D01*
X179070000Y-100064000D01*
X181622000Y-100064000D01*
X181622000Y-102616000D01*
X181679090Y-102903013D01*
X181841670Y-103146330D01*
X182603670Y-103908330D01*
X182846987Y-104070910D01*
X183134000Y-104128000D01*
X186182000Y-104128000D01*
X186469013Y-104070910D01*
X186712330Y-103908330D01*
X187474330Y-103146330D01*
X187504862Y-103100636D01*
X187636910Y-102903013D01*
X187694000Y-102616000D01*
X187694000Y-100836000D01*
X188468000Y-100836000D01*
X188513432Y-100827451D01*
X188515687Y-100826000D01*
X196100000Y-100826000D01*
X196100000Y-105697791D01*
X195812101Y-105985187D01*
X195625213Y-106435263D01*
X195624788Y-106922599D01*
X195810890Y-107373000D01*
X196155187Y-107717899D01*
X196605263Y-107904787D01*
X197092599Y-107905212D01*
X197543000Y-107719110D01*
X197887899Y-107374813D01*
X198074787Y-106924737D01*
X198075212Y-106437401D01*
X197889110Y-105987000D01*
X197600000Y-105697384D01*
X197600000Y-100330000D01*
X197599602Y-100328000D01*
X199285000Y-100328000D01*
X199285000Y-111698456D01*
X198820456Y-112163000D01*
X183134000Y-112163000D01*
X182607810Y-112267666D01*
X182299955Y-112473368D01*
X182161728Y-112565728D01*
X179643456Y-115084000D01*
X170375805Y-115084000D01*
X170388787Y-115052737D01*
X170389212Y-114565401D01*
X170203110Y-114115000D01*
X169858813Y-113770101D01*
X169461712Y-113605210D01*
X169444101Y-113577841D01*
X169403132Y-113549848D01*
X169354500Y-113540000D01*
X168465500Y-113540000D01*
X168434911Y-113545756D01*
X168184904Y-113545756D01*
X169440330Y-112290330D01*
X169451021Y-112274330D01*
X169602910Y-112047013D01*
X169604529Y-112038871D01*
X169882272Y-111853290D01*
X170180334Y-111407208D01*
X170285000Y-110881018D01*
X170285000Y-110617000D01*
X179600000Y-110617000D01*
X179704666Y-111143189D01*
X180002728Y-111589272D01*
X180448811Y-111887334D01*
X180975000Y-111992000D01*
X181501189Y-111887334D01*
X181947272Y-111589272D01*
X182429300Y-111107244D01*
X186341000Y-111107244D01*
X186572611Y-111063663D01*
X186785332Y-110926781D01*
X186928038Y-110717924D01*
X186978244Y-110470000D01*
X186978244Y-109751250D01*
X189716000Y-109751250D01*
X189716000Y-110594320D01*
X189811151Y-110824034D01*
X189986966Y-110999850D01*
X190216680Y-111095000D01*
X191809750Y-111095000D01*
X191966000Y-110938750D01*
X191966000Y-109595000D01*
X192716000Y-109595000D01*
X192716000Y-110938750D01*
X192872250Y-111095000D01*
X194465320Y-111095000D01*
X194695034Y-110999850D01*
X194870849Y-110824034D01*
X194966000Y-110594320D01*
X194966000Y-109751250D01*
X194809750Y-109595000D01*
X192716000Y-109595000D01*
X191966000Y-109595000D01*
X189872250Y-109595000D01*
X189716000Y-109751250D01*
X186978244Y-109751250D01*
X186978244Y-107970000D01*
X186954852Y-107845680D01*
X189716000Y-107845680D01*
X189716000Y-108688750D01*
X189872250Y-108845000D01*
X191966000Y-108845000D01*
X191966000Y-107501250D01*
X192716000Y-107501250D01*
X192716000Y-108845000D01*
X194809750Y-108845000D01*
X194966000Y-108688750D01*
X194966000Y-107845680D01*
X194870849Y-107615966D01*
X194695034Y-107440150D01*
X194465320Y-107345000D01*
X192872250Y-107345000D01*
X192716000Y-107501250D01*
X191966000Y-107501250D01*
X191809750Y-107345000D01*
X190216680Y-107345000D01*
X189986966Y-107440150D01*
X189811151Y-107615966D01*
X189716000Y-107845680D01*
X186954852Y-107845680D01*
X186934663Y-107738389D01*
X186797781Y-107525668D01*
X186588924Y-107382962D01*
X186341000Y-107332756D01*
X182341000Y-107332756D01*
X182109389Y-107376337D01*
X181896668Y-107513219D01*
X181753962Y-107722076D01*
X181703756Y-107970000D01*
X181703756Y-108044583D01*
X181399728Y-108247728D01*
X180002728Y-109644728D01*
X179704666Y-110090811D01*
X179600000Y-110617000D01*
X170285000Y-110617000D01*
X170285000Y-106238982D01*
X170180334Y-105712792D01*
X169882272Y-105266710D01*
X169436190Y-104968648D01*
X169032429Y-104888335D01*
X169026451Y-104856568D01*
X168999601Y-104814841D01*
X168958632Y-104786848D01*
X168910000Y-104777000D01*
X156210000Y-104777000D01*
X156164568Y-104785549D01*
X156122841Y-104812399D01*
X156094848Y-104853368D01*
X156087775Y-104888294D01*
X155683810Y-104968648D01*
X155237728Y-105266710D01*
X154939666Y-105712792D01*
X154835000Y-106238982D01*
X154835000Y-110881018D01*
X154939666Y-111407208D01*
X154985082Y-111475178D01*
X154984788Y-111812099D01*
X155170890Y-112262500D01*
X155515187Y-112607399D01*
X155965263Y-112794287D01*
X156117027Y-112794419D01*
X156120399Y-112799659D01*
X156161368Y-112827652D01*
X156210000Y-112837500D01*
X159829500Y-112837500D01*
X159874932Y-112828951D01*
X159916659Y-112802101D01*
X159944652Y-112761132D01*
X159954500Y-112712500D01*
X159954500Y-112075500D01*
X162189000Y-112075500D01*
X162189000Y-114439000D01*
X160965660Y-114439000D01*
X160677330Y-114150670D01*
X160434013Y-113988090D01*
X160147000Y-113931000D01*
X147630660Y-113931000D01*
X147435000Y-113735340D01*
X147435000Y-99885500D01*
X147377910Y-99598487D01*
X147215330Y-99355170D01*
X146228500Y-98368340D01*
X146228500Y-89935000D01*
X154835000Y-89935000D01*
X154835000Y-92185000D01*
X155083172Y-92682645D01*
X155502893Y-93047437D01*
X155632673Y-93057926D01*
X155835000Y-92969623D01*
X155835000Y-89935000D01*
X154835000Y-89935000D01*
X146228500Y-89935000D01*
X146228500Y-86935000D01*
X154835000Y-86935000D01*
X154835000Y-89185000D01*
X155835000Y-89185000D01*
X155835000Y-86150377D01*
X156585000Y-86150377D01*
X156585000Y-89185000D01*
X156593000Y-89185000D01*
X156593000Y-89935000D01*
X156585000Y-89935000D01*
X156585000Y-92969623D01*
X156593000Y-92973114D01*
X156593000Y-93154500D01*
X156601549Y-93199932D01*
X156628399Y-93241659D01*
X156669368Y-93269652D01*
X156718000Y-93279500D01*
X169164000Y-93279500D01*
X169205962Y-93272246D01*
X169248466Y-93246644D01*
X169329206Y-93172633D01*
X169436190Y-93151352D01*
X169882272Y-92853290D01*
X170180334Y-92407208D01*
X170285000Y-91881018D01*
X170285000Y-87238982D01*
X170180334Y-86712792D01*
X170051000Y-86519230D01*
X170051000Y-85979000D01*
X170042451Y-85933568D01*
X170015601Y-85891841D01*
X169974632Y-85863848D01*
X169926000Y-85854000D01*
X162353902Y-85854000D01*
X162329110Y-85794000D01*
X161984813Y-85449101D01*
X161534737Y-85262213D01*
X161047401Y-85261788D01*
X160597000Y-85447890D01*
X160252101Y-85792187D01*
X160226434Y-85854000D01*
X156718000Y-85854000D01*
X156672568Y-85862549D01*
X156630841Y-85889399D01*
X156602848Y-85930368D01*
X156593000Y-85979000D01*
X156593000Y-86146886D01*
X156585000Y-86150377D01*
X155835000Y-86150377D01*
X155632673Y-86062074D01*
X155502893Y-86072563D01*
X155083172Y-86437355D01*
X154835000Y-86935000D01*
X146228500Y-86935000D01*
X146228500Y-86296500D01*
X146171410Y-86009487D01*
X146008830Y-85766170D01*
X145310330Y-85067670D01*
X145067013Y-84905090D01*
X144780000Y-84848000D01*
X141857000Y-84848000D01*
X141857000Y-83694205D01*
X141857244Y-83693000D01*
X141857244Y-82423000D01*
X141857000Y-82421703D01*
X141857000Y-81703660D01*
X143487670Y-83334330D01*
X143487670Y-83334330D01*
G37*
X143487670Y-83334330D02*
X143730987Y-83496910D01*
X144018000Y-83554000D01*
X171139340Y-83554000D01*
X171173670Y-83588330D01*
X171416987Y-83750910D01*
X171704000Y-83808000D01*
X177489340Y-83808000D01*
X177558000Y-83876660D01*
X177558000Y-98552000D01*
X177615090Y-98839013D01*
X177777670Y-99082330D01*
X178539670Y-99844330D01*
X178782987Y-100006910D01*
X179070000Y-100064000D01*
X181622000Y-100064000D01*
X181622000Y-102616000D01*
X181679090Y-102903013D01*
X181841670Y-103146330D01*
X182603670Y-103908330D01*
X182846987Y-104070910D01*
X183134000Y-104128000D01*
X186182000Y-104128000D01*
X186469013Y-104070910D01*
X186712330Y-103908330D01*
X187474330Y-103146330D01*
X187504862Y-103100636D01*
X187636910Y-102903013D01*
X187694000Y-102616000D01*
X187694000Y-100836000D01*
X188468000Y-100836000D01*
X188513432Y-100827451D01*
X188515687Y-100826000D01*
X196100000Y-100826000D01*
X196100000Y-105697791D01*
X195812101Y-105985187D01*
X195625213Y-106435263D01*
X195624788Y-106922599D01*
X195810890Y-107373000D01*
X196155187Y-107717899D01*
X196605263Y-107904787D01*
X197092599Y-107905212D01*
X197543000Y-107719110D01*
X197887899Y-107374813D01*
X198074787Y-106924737D01*
X198075212Y-106437401D01*
X197889110Y-105987000D01*
X197600000Y-105697384D01*
X197600000Y-100330000D01*
X197599602Y-100328000D01*
X199285000Y-100328000D01*
X199285000Y-111698456D01*
X198820456Y-112163000D01*
X183134000Y-112163000D01*
X182607810Y-112267666D01*
X182299955Y-112473368D01*
X182161728Y-112565728D01*
X179643456Y-115084000D01*
X170375805Y-115084000D01*
X170388787Y-115052737D01*
X170389212Y-114565401D01*
X170203110Y-114115000D01*
X169858813Y-113770101D01*
X169461712Y-113605210D01*
X169444101Y-113577841D01*
X169403132Y-113549848D01*
X169354500Y-113540000D01*
X168465500Y-113540000D01*
X168434911Y-113545756D01*
X168184904Y-113545756D01*
X169440330Y-112290330D01*
X169451021Y-112274330D01*
X169602910Y-112047013D01*
X169604529Y-112038871D01*
X169882272Y-111853290D01*
X170180334Y-111407208D01*
X170285000Y-110881018D01*
X170285000Y-110617000D01*
X179600000Y-110617000D01*
X179704666Y-111143189D01*
X180002728Y-111589272D01*
X180448811Y-111887334D01*
X180975000Y-111992000D01*
X181501189Y-111887334D01*
X181947272Y-111589272D01*
X182429300Y-111107244D01*
X186341000Y-111107244D01*
X186572611Y-111063663D01*
X186785332Y-110926781D01*
X186928038Y-110717924D01*
X186978244Y-110470000D01*
X186978244Y-109751250D01*
X189716000Y-109751250D01*
X189716000Y-110594320D01*
X189811151Y-110824034D01*
X189986966Y-110999850D01*
X190216680Y-111095000D01*
X191809750Y-111095000D01*
X191966000Y-110938750D01*
X191966000Y-109595000D01*
X192716000Y-109595000D01*
X192716000Y-110938750D01*
X192872250Y-111095000D01*
X194465320Y-111095000D01*
X194695034Y-110999850D01*
X194870849Y-110824034D01*
X194966000Y-110594320D01*
X194966000Y-109751250D01*
X194809750Y-109595000D01*
X192716000Y-109595000D01*
X191966000Y-109595000D01*
X189872250Y-109595000D01*
X189716000Y-109751250D01*
X186978244Y-109751250D01*
X186978244Y-107970000D01*
X186954852Y-107845680D01*
X189716000Y-107845680D01*
X189716000Y-108688750D01*
X189872250Y-108845000D01*
X191966000Y-108845000D01*
X191966000Y-107501250D01*
X192716000Y-107501250D01*
X192716000Y-108845000D01*
X194809750Y-108845000D01*
X194966000Y-108688750D01*
X194966000Y-107845680D01*
X194870849Y-107615966D01*
X194695034Y-107440150D01*
X194465320Y-107345000D01*
X192872250Y-107345000D01*
X192716000Y-107501250D01*
X191966000Y-107501250D01*
X191809750Y-107345000D01*
X190216680Y-107345000D01*
X189986966Y-107440150D01*
X189811151Y-107615966D01*
X189716000Y-107845680D01*
X186954852Y-107845680D01*
X186934663Y-107738389D01*
X186797781Y-107525668D01*
X186588924Y-107382962D01*
X186341000Y-107332756D01*
X182341000Y-107332756D01*
X182109389Y-107376337D01*
X181896668Y-107513219D01*
X181753962Y-107722076D01*
X181703756Y-107970000D01*
X181703756Y-108044583D01*
X181399728Y-108247728D01*
X180002728Y-109644728D01*
X179704666Y-110090811D01*
X179600000Y-110617000D01*
X170285000Y-110617000D01*
X170285000Y-106238982D01*
X170180334Y-105712792D01*
X169882272Y-105266710D01*
X169436190Y-104968648D01*
X169032429Y-104888335D01*
X169026451Y-104856568D01*
X168999601Y-104814841D01*
X168958632Y-104786848D01*
X168910000Y-104777000D01*
X156210000Y-104777000D01*
X156164568Y-104785549D01*
X156122841Y-104812399D01*
X156094848Y-104853368D01*
X156087775Y-104888294D01*
X155683810Y-104968648D01*
X155237728Y-105266710D01*
X154939666Y-105712792D01*
X154835000Y-106238982D01*
X154835000Y-110881018D01*
X154939666Y-111407208D01*
X154985082Y-111475178D01*
X154984788Y-111812099D01*
X155170890Y-112262500D01*
X155515187Y-112607399D01*
X155965263Y-112794287D01*
X156117027Y-112794419D01*
X156120399Y-112799659D01*
X156161368Y-112827652D01*
X156210000Y-112837500D01*
X159829500Y-112837500D01*
X159874932Y-112828951D01*
X159916659Y-112802101D01*
X159944652Y-112761132D01*
X159954500Y-112712500D01*
X159954500Y-112075500D01*
X162189000Y-112075500D01*
X162189000Y-114439000D01*
X160965660Y-114439000D01*
X160677330Y-114150670D01*
X160434013Y-113988090D01*
X160147000Y-113931000D01*
X147630660Y-113931000D01*
X147435000Y-113735340D01*
X147435000Y-99885500D01*
X147377910Y-99598487D01*
X147215330Y-99355170D01*
X146228500Y-98368340D01*
X146228500Y-89935000D01*
X154835000Y-89935000D01*
X154835000Y-92185000D01*
X155083172Y-92682645D01*
X155502893Y-93047437D01*
X155632673Y-93057926D01*
X155835000Y-92969623D01*
X155835000Y-89935000D01*
X154835000Y-89935000D01*
X146228500Y-89935000D01*
X146228500Y-86935000D01*
X154835000Y-86935000D01*
X154835000Y-89185000D01*
X155835000Y-89185000D01*
X155835000Y-86150377D01*
X156585000Y-86150377D01*
X156585000Y-89185000D01*
X156593000Y-89185000D01*
X156593000Y-89935000D01*
X156585000Y-89935000D01*
X156585000Y-92969623D01*
X156593000Y-92973114D01*
X156593000Y-93154500D01*
X156601549Y-93199932D01*
X156628399Y-93241659D01*
X156669368Y-93269652D01*
X156718000Y-93279500D01*
X169164000Y-93279500D01*
X169205962Y-93272246D01*
X169248466Y-93246644D01*
X169329206Y-93172633D01*
X169436190Y-93151352D01*
X169882272Y-92853290D01*
X170180334Y-92407208D01*
X170285000Y-91881018D01*
X170285000Y-87238982D01*
X170180334Y-86712792D01*
X170051000Y-86519230D01*
X170051000Y-85979000D01*
X170042451Y-85933568D01*
X170015601Y-85891841D01*
X169974632Y-85863848D01*
X169926000Y-85854000D01*
X162353902Y-85854000D01*
X162329110Y-85794000D01*
X161984813Y-85449101D01*
X161534737Y-85262213D01*
X161047401Y-85261788D01*
X160597000Y-85447890D01*
X160252101Y-85792187D01*
X160226434Y-85854000D01*
X156718000Y-85854000D01*
X156672568Y-85862549D01*
X156630841Y-85889399D01*
X156602848Y-85930368D01*
X156593000Y-85979000D01*
X156593000Y-86146886D01*
X156585000Y-86150377D01*
X155835000Y-86150377D01*
X155632673Y-86062074D01*
X155502893Y-86072563D01*
X155083172Y-86437355D01*
X154835000Y-86935000D01*
X146228500Y-86935000D01*
X146228500Y-86296500D01*
X146171410Y-86009487D01*
X146008830Y-85766170D01*
X145310330Y-85067670D01*
X145067013Y-84905090D01*
X144780000Y-84848000D01*
X141857000Y-84848000D01*
X141857000Y-83694205D01*
X141857244Y-83693000D01*
X141857244Y-82423000D01*
X141857000Y-82421703D01*
X141857000Y-81703660D01*
X143487670Y-83334330D01*
G36*
X140459756Y-111431412D02*
X140357000Y-111948000D01*
X140459756Y-112464588D01*
X140459756Y-113550000D01*
X136692658Y-113550000D01*
X137055330Y-113187328D01*
X137217910Y-112944011D01*
X137275000Y-112656998D01*
X137275000Y-111442500D01*
X137217910Y-111155487D01*
X137158000Y-111065826D01*
X137158000Y-110700227D01*
X137380616Y-110478000D01*
X140459756Y-110478000D01*
X140459756Y-111431412D01*
X140459756Y-111431412D01*
G37*
X140459756Y-111431412D02*
X140357000Y-111948000D01*
X140459756Y-112464588D01*
X140459756Y-113550000D01*
X136692658Y-113550000D01*
X137055330Y-113187328D01*
X137217910Y-112944011D01*
X137275000Y-112656998D01*
X137275000Y-111442500D01*
X137217910Y-111155487D01*
X137158000Y-111065826D01*
X137158000Y-110700227D01*
X137380616Y-110478000D01*
X140459756Y-110478000D01*
X140459756Y-111431412D01*
G36*
X132463000Y-84961795D02*
X132462756Y-84963000D01*
X132462756Y-86233000D01*
X132463000Y-86234297D01*
X132463000Y-86741000D01*
X132471549Y-86786432D01*
X132498399Y-86828159D01*
X132539368Y-86856152D01*
X132588000Y-86866000D01*
X133079043Y-86866000D01*
X133100000Y-86870244D01*
X136780000Y-86870244D01*
X136802555Y-86866000D01*
X137519043Y-86866000D01*
X137540000Y-86870244D01*
X141220000Y-86870244D01*
X141242555Y-86866000D01*
X141732000Y-86866000D01*
X141777432Y-86857451D01*
X141819159Y-86830601D01*
X141847152Y-86789632D01*
X141857000Y-86741000D01*
X141857000Y-86348000D01*
X144469340Y-86348000D01*
X144728500Y-86607160D01*
X144728500Y-98679000D01*
X144785590Y-98966013D01*
X144948170Y-99209330D01*
X145935000Y-100196160D01*
X145935000Y-108460000D01*
X144907000Y-108460000D01*
X144861568Y-108468549D01*
X144819841Y-108495399D01*
X144791848Y-108536368D01*
X144787713Y-108556787D01*
X144468000Y-108688890D01*
X144178384Y-108978000D01*
X143004244Y-108978000D01*
X143004244Y-108869425D01*
X143462190Y-108778334D01*
X143908272Y-108480272D01*
X143910772Y-108477771D01*
X144208835Y-108031689D01*
X144313501Y-107505500D01*
X144208835Y-106979310D01*
X143910772Y-106533228D01*
X143464690Y-106235165D01*
X143004244Y-106143576D01*
X143004244Y-105668000D01*
X142960663Y-105436389D01*
X142823781Y-105223668D01*
X142746000Y-105170522D01*
X142746000Y-104203500D01*
X142737451Y-104158068D01*
X142736000Y-104155813D01*
X142736000Y-100127359D01*
X142905286Y-100057412D01*
X143362805Y-99600691D01*
X143610718Y-99003651D01*
X143611282Y-98357186D01*
X143364412Y-97759714D01*
X142907691Y-97302195D01*
X142310651Y-97054282D01*
X142309756Y-97054281D01*
X142288632Y-97039848D01*
X142240000Y-97030000D01*
X136652000Y-97030000D01*
X136606568Y-97038549D01*
X136580856Y-97055094D01*
X135986714Y-97300588D01*
X135529195Y-97757309D01*
X135330217Y-98236500D01*
X134979044Y-98236500D01*
X134322272Y-97579728D01*
X134315570Y-97575250D01*
X133876190Y-97281666D01*
X133350000Y-97177000D01*
X130617544Y-97177000D01*
X129228975Y-95788431D01*
X129229343Y-95366872D01*
X128929300Y-94640714D01*
X128629000Y-94339889D01*
X128629000Y-90170000D01*
X128524334Y-89643810D01*
X128226272Y-89197728D01*
X125164975Y-86136431D01*
X125165343Y-85714872D01*
X124982398Y-85272113D01*
X124984244Y-85263000D01*
X124984244Y-84663000D01*
X124942848Y-84443000D01*
X132463000Y-84443000D01*
X132463000Y-84961795D01*
X132463000Y-84961795D01*
G37*
X132463000Y-84961795D02*
X132462756Y-84963000D01*
X132462756Y-86233000D01*
X132463000Y-86234297D01*
X132463000Y-86741000D01*
X132471549Y-86786432D01*
X132498399Y-86828159D01*
X132539368Y-86856152D01*
X132588000Y-86866000D01*
X133079043Y-86866000D01*
X133100000Y-86870244D01*
X136780000Y-86870244D01*
X136802555Y-86866000D01*
X137519043Y-86866000D01*
X137540000Y-86870244D01*
X141220000Y-86870244D01*
X141242555Y-86866000D01*
X141732000Y-86866000D01*
X141777432Y-86857451D01*
X141819159Y-86830601D01*
X141847152Y-86789632D01*
X141857000Y-86741000D01*
X141857000Y-86348000D01*
X144469340Y-86348000D01*
X144728500Y-86607160D01*
X144728500Y-98679000D01*
X144785590Y-98966013D01*
X144948170Y-99209330D01*
X145935000Y-100196160D01*
X145935000Y-108460000D01*
X144907000Y-108460000D01*
X144861568Y-108468549D01*
X144819841Y-108495399D01*
X144791848Y-108536368D01*
X144787713Y-108556787D01*
X144468000Y-108688890D01*
X144178384Y-108978000D01*
X143004244Y-108978000D01*
X143004244Y-108869425D01*
X143462190Y-108778334D01*
X143908272Y-108480272D01*
X143910772Y-108477771D01*
X144208835Y-108031689D01*
X144313501Y-107505500D01*
X144208835Y-106979310D01*
X143910772Y-106533228D01*
X143464690Y-106235165D01*
X143004244Y-106143576D01*
X143004244Y-105668000D01*
X142960663Y-105436389D01*
X142823781Y-105223668D01*
X142746000Y-105170522D01*
X142746000Y-104203500D01*
X142737451Y-104158068D01*
X142736000Y-104155813D01*
X142736000Y-100127359D01*
X142905286Y-100057412D01*
X143362805Y-99600691D01*
X143610718Y-99003651D01*
X143611282Y-98357186D01*
X143364412Y-97759714D01*
X142907691Y-97302195D01*
X142310651Y-97054282D01*
X142309756Y-97054281D01*
X142288632Y-97039848D01*
X142240000Y-97030000D01*
X136652000Y-97030000D01*
X136606568Y-97038549D01*
X136580856Y-97055094D01*
X135986714Y-97300588D01*
X135529195Y-97757309D01*
X135330217Y-98236500D01*
X134979044Y-98236500D01*
X134322272Y-97579728D01*
X134315570Y-97575250D01*
X133876190Y-97281666D01*
X133350000Y-97177000D01*
X130617544Y-97177000D01*
X129228975Y-95788431D01*
X129229343Y-95366872D01*
X128929300Y-94640714D01*
X128629000Y-94339889D01*
X128629000Y-90170000D01*
X128524334Y-89643810D01*
X128226272Y-89197728D01*
X125164975Y-86136431D01*
X125165343Y-85714872D01*
X124982398Y-85272113D01*
X124984244Y-85263000D01*
X124984244Y-84663000D01*
X124942848Y-84443000D01*
X132463000Y-84443000D01*
X132463000Y-84961795D01*
G36*
X185979500Y-101928500D02*
X186037000Y-101928500D01*
X186037000Y-102462340D01*
X185871340Y-102628000D01*
X185304500Y-102628000D01*
X185304500Y-102603500D01*
X185247000Y-102603500D01*
X185247000Y-101928500D01*
X185304500Y-101928500D01*
X185304500Y-101871000D01*
X185979500Y-101871000D01*
X185979500Y-101928500D01*
X185979500Y-101928500D01*
G37*
X185979500Y-101928500D02*
X186037000Y-101928500D01*
X186037000Y-102462340D01*
X185871340Y-102628000D01*
X185304500Y-102628000D01*
X185304500Y-102603500D01*
X185247000Y-102603500D01*
X185247000Y-101928500D01*
X185304500Y-101928500D01*
X185304500Y-101871000D01*
X185979500Y-101871000D01*
X185979500Y-101928500D01*
G36*
X126133791Y-97431348D02*
X126859425Y-97732657D01*
X127284484Y-97733028D01*
X129075728Y-99524272D01*
X129521811Y-99822335D01*
X130048000Y-99927000D01*
X130504470Y-99927000D01*
X130479966Y-99937150D01*
X130459866Y-99957250D01*
X130429000Y-99951000D01*
X130302000Y-99951000D01*
X130256568Y-99959549D01*
X130214841Y-99986399D01*
X130186848Y-100027368D01*
X130177000Y-100076000D01*
X130177000Y-100584000D01*
X130185549Y-100629432D01*
X130212399Y-100671159D01*
X130253368Y-100699152D01*
X130292909Y-100707159D01*
X130365250Y-100779500D01*
X131084000Y-100779500D01*
X131084000Y-100697000D01*
X131584000Y-100697000D01*
X131584000Y-100779500D01*
X131729000Y-100779500D01*
X131729000Y-101404500D01*
X131584000Y-101404500D01*
X131584000Y-101487000D01*
X131084000Y-101487000D01*
X131084000Y-101404500D01*
X130365250Y-101404500D01*
X130286750Y-101483000D01*
X125077000Y-101483000D01*
X125077000Y-100641250D01*
X124920750Y-100485000D01*
X124202000Y-100485000D01*
X124202000Y-100505000D01*
X123702000Y-100505000D01*
X123702000Y-100485000D01*
X123629337Y-100485000D01*
X123561000Y-100141443D01*
X123561000Y-99735000D01*
X123702000Y-99735000D01*
X123702000Y-97891250D01*
X124202000Y-97891250D01*
X124202000Y-99735000D01*
X124920750Y-99735000D01*
X125077000Y-99578750D01*
X125077000Y-98235680D01*
X124981849Y-98005966D01*
X124806034Y-97830150D01*
X124576320Y-97735000D01*
X124358250Y-97735000D01*
X124202000Y-97891250D01*
X123702000Y-97891250D01*
X123696000Y-97885250D01*
X123696000Y-97685879D01*
X124307286Y-97433300D01*
X124608111Y-97133000D01*
X125835964Y-97133000D01*
X126133791Y-97431348D01*
X126133791Y-97431348D01*
G37*
X126133791Y-97431348D02*
X126859425Y-97732657D01*
X127284484Y-97733028D01*
X129075728Y-99524272D01*
X129521811Y-99822335D01*
X130048000Y-99927000D01*
X130504470Y-99927000D01*
X130479966Y-99937150D01*
X130459866Y-99957250D01*
X130429000Y-99951000D01*
X130302000Y-99951000D01*
X130256568Y-99959549D01*
X130214841Y-99986399D01*
X130186848Y-100027368D01*
X130177000Y-100076000D01*
X130177000Y-100584000D01*
X130185549Y-100629432D01*
X130212399Y-100671159D01*
X130253368Y-100699152D01*
X130292909Y-100707159D01*
X130365250Y-100779500D01*
X131084000Y-100779500D01*
X131084000Y-100697000D01*
X131584000Y-100697000D01*
X131584000Y-100779500D01*
X131729000Y-100779500D01*
X131729000Y-101404500D01*
X131584000Y-101404500D01*
X131584000Y-101487000D01*
X131084000Y-101487000D01*
X131084000Y-101404500D01*
X130365250Y-101404500D01*
X130286750Y-101483000D01*
X125077000Y-101483000D01*
X125077000Y-100641250D01*
X124920750Y-100485000D01*
X124202000Y-100485000D01*
X124202000Y-100505000D01*
X123702000Y-100505000D01*
X123702000Y-100485000D01*
X123629337Y-100485000D01*
X123561000Y-100141443D01*
X123561000Y-99735000D01*
X123702000Y-99735000D01*
X123702000Y-97891250D01*
X124202000Y-97891250D01*
X124202000Y-99735000D01*
X124920750Y-99735000D01*
X125077000Y-99578750D01*
X125077000Y-98235680D01*
X124981849Y-98005966D01*
X124806034Y-97830150D01*
X124576320Y-97735000D01*
X124358250Y-97735000D01*
X124202000Y-97891250D01*
X123702000Y-97891250D01*
X123696000Y-97885250D01*
X123696000Y-97685879D01*
X124307286Y-97433300D01*
X124608111Y-97133000D01*
X125835964Y-97133000D01*
X126133791Y-97431348D01*
G36*
X186319000Y-82245990D02*
X186319000Y-82298000D01*
X184658000Y-82298000D01*
X184612568Y-82306549D01*
X184582340Y-82326000D01*
X184491250Y-82326000D01*
X184335000Y-82482250D01*
X184335000Y-83826000D01*
X184355000Y-83826000D01*
X184355000Y-84576000D01*
X184335000Y-84576000D01*
X184335000Y-85919750D01*
X184491250Y-86076000D01*
X184582802Y-86076000D01*
X184609368Y-86094152D01*
X184658000Y-86104000D01*
X186319000Y-86104000D01*
X186319000Y-89592273D01*
X185622798Y-89730756D01*
X184933398Y-90191398D01*
X184472756Y-90880798D01*
X184311000Y-91694000D01*
X184472756Y-92507202D01*
X184787000Y-92977502D01*
X184787000Y-93220000D01*
X180848000Y-93220000D01*
X180802568Y-93228549D01*
X180760841Y-93255399D01*
X180732848Y-93296368D01*
X180728713Y-93316787D01*
X180409000Y-93448890D01*
X180064101Y-93793187D01*
X179877213Y-94243263D01*
X179876788Y-94730599D01*
X179976889Y-94972861D01*
X179890500Y-95059250D01*
X179890500Y-95279289D01*
X179889962Y-95280076D01*
X179839756Y-95528000D01*
X179839756Y-96423000D01*
X179265500Y-96423000D01*
X179265500Y-96278000D01*
X179183000Y-96278000D01*
X179183000Y-95778000D01*
X179265500Y-95778000D01*
X179265500Y-95059250D01*
X179109250Y-94903000D01*
X179058000Y-94903000D01*
X179058000Y-84732250D01*
X181335000Y-84732250D01*
X181335000Y-85575320D01*
X181430151Y-85805034D01*
X181605966Y-85980850D01*
X181835680Y-86076000D01*
X183428750Y-86076000D01*
X183585000Y-85919750D01*
X183585000Y-84576000D01*
X181491250Y-84576000D01*
X181335000Y-84732250D01*
X179058000Y-84732250D01*
X179058000Y-83566000D01*
X179000910Y-83278987D01*
X178838330Y-83035670D01*
X178629340Y-82826680D01*
X181335000Y-82826680D01*
X181335000Y-83669750D01*
X181491250Y-83826000D01*
X183585000Y-83826000D01*
X183585000Y-82482250D01*
X183428750Y-82326000D01*
X181835680Y-82326000D01*
X181605966Y-82421150D01*
X181430151Y-82596966D01*
X181335000Y-82826680D01*
X178629340Y-82826680D01*
X178330330Y-82527670D01*
X178142095Y-82401895D01*
X179535990Y-81008000D01*
X185081010Y-81008000D01*
X186319000Y-82245990D01*
X186319000Y-82245990D01*
G37*
X186319000Y-82245990D02*
X186319000Y-82298000D01*
X184658000Y-82298000D01*
X184612568Y-82306549D01*
X184582340Y-82326000D01*
X184491250Y-82326000D01*
X184335000Y-82482250D01*
X184335000Y-83826000D01*
X184355000Y-83826000D01*
X184355000Y-84576000D01*
X184335000Y-84576000D01*
X184335000Y-85919750D01*
X184491250Y-86076000D01*
X184582802Y-86076000D01*
X184609368Y-86094152D01*
X184658000Y-86104000D01*
X186319000Y-86104000D01*
X186319000Y-89592273D01*
X185622798Y-89730756D01*
X184933398Y-90191398D01*
X184472756Y-90880798D01*
X184311000Y-91694000D01*
X184472756Y-92507202D01*
X184787000Y-92977502D01*
X184787000Y-93220000D01*
X180848000Y-93220000D01*
X180802568Y-93228549D01*
X180760841Y-93255399D01*
X180732848Y-93296368D01*
X180728713Y-93316787D01*
X180409000Y-93448890D01*
X180064101Y-93793187D01*
X179877213Y-94243263D01*
X179876788Y-94730599D01*
X179976889Y-94972861D01*
X179890500Y-95059250D01*
X179890500Y-95279289D01*
X179889962Y-95280076D01*
X179839756Y-95528000D01*
X179839756Y-96423000D01*
X179265500Y-96423000D01*
X179265500Y-96278000D01*
X179183000Y-96278000D01*
X179183000Y-95778000D01*
X179265500Y-95778000D01*
X179265500Y-95059250D01*
X179109250Y-94903000D01*
X179058000Y-94903000D01*
X179058000Y-84732250D01*
X181335000Y-84732250D01*
X181335000Y-85575320D01*
X181430151Y-85805034D01*
X181605966Y-85980850D01*
X181835680Y-86076000D01*
X183428750Y-86076000D01*
X183585000Y-85919750D01*
X183585000Y-84576000D01*
X181491250Y-84576000D01*
X181335000Y-84732250D01*
X179058000Y-84732250D01*
X179058000Y-83566000D01*
X179000910Y-83278987D01*
X178838330Y-83035670D01*
X178629340Y-82826680D01*
X181335000Y-82826680D01*
X181335000Y-83669750D01*
X181491250Y-83826000D01*
X183585000Y-83826000D01*
X183585000Y-82482250D01*
X183428750Y-82326000D01*
X181835680Y-82326000D01*
X181605966Y-82421150D01*
X181430151Y-82596966D01*
X181335000Y-82826680D01*
X178629340Y-82826680D01*
X178330330Y-82527670D01*
X178142095Y-82401895D01*
X179535990Y-81008000D01*
X185081010Y-81008000D01*
X186319000Y-82245990D01*
G36*
X199285000Y-92935278D02*
X199285000Y-96268000D01*
X192832660Y-96268000D01*
X192554330Y-95989670D01*
X192403000Y-95888554D01*
X192403000Y-94375364D01*
X192463244Y-94285202D01*
X192625000Y-93472000D01*
X192625000Y-92876857D01*
X199285000Y-92935278D01*
X199285000Y-92935278D01*
G37*
X199285000Y-92935278D02*
X199285000Y-96268000D01*
X192832660Y-96268000D01*
X192554330Y-95989670D01*
X192403000Y-95888554D01*
X192403000Y-94375364D01*
X192463244Y-94285202D01*
X192625000Y-93472000D01*
X192625000Y-92876857D01*
X199285000Y-92935278D01*
G36*
X121214657Y-86497128D02*
X121514700Y-87223286D01*
X122069791Y-87779348D01*
X122795425Y-88080657D01*
X123220484Y-88081028D01*
X124208000Y-89068544D01*
X124208000Y-89880000D01*
X123103250Y-89880000D01*
X122947000Y-90036250D01*
X122947000Y-90655000D01*
X122967000Y-90655000D01*
X122967000Y-90955000D01*
X122947000Y-90955000D01*
X122947000Y-91105000D01*
X122197000Y-91105000D01*
X122197000Y-90955000D01*
X122177000Y-90955000D01*
X122177000Y-90655000D01*
X122197000Y-90655000D01*
X122197000Y-90036250D01*
X122040750Y-89880000D01*
X120919780Y-89880000D01*
X120919780Y-85900244D01*
X121215178Y-85900244D01*
X121214657Y-86497128D01*
X121214657Y-86497128D01*
G37*
X121214657Y-86497128D02*
X121514700Y-87223286D01*
X122069791Y-87779348D01*
X122795425Y-88080657D01*
X123220484Y-88081028D01*
X124208000Y-89068544D01*
X124208000Y-89880000D01*
X123103250Y-89880000D01*
X122947000Y-90036250D01*
X122947000Y-90655000D01*
X122967000Y-90655000D01*
X122967000Y-90955000D01*
X122947000Y-90955000D01*
X122947000Y-91105000D01*
X122197000Y-91105000D01*
X122197000Y-90955000D01*
X122177000Y-90955000D01*
X122177000Y-90655000D01*
X122197000Y-90655000D01*
X122197000Y-90036250D01*
X122040750Y-89880000D01*
X120919780Y-89880000D01*
X120919780Y-85900244D01*
X121215178Y-85900244D01*
X121214657Y-86497128D01*
G36*
X131838000Y-82755146D02*
X131837848Y-82755368D01*
X131828000Y-82804000D01*
X131828000Y-82943000D01*
X129699660Y-82943000D01*
X131838000Y-80804660D01*
X131838000Y-82755146D01*
X131838000Y-82755146D01*
G37*
X131838000Y-82755146D02*
X131837848Y-82755368D01*
X131828000Y-82804000D01*
X131828000Y-82943000D01*
X129699660Y-82943000D01*
X131838000Y-80804660D01*
X131838000Y-82755146D01*
G36*
X150757000Y-72678750D02*
X150913250Y-72835000D01*
X152217000Y-72835000D01*
X152217000Y-72815000D01*
X152967000Y-72815000D01*
X152967000Y-72835000D01*
X154270750Y-72835000D01*
X154427000Y-72678750D01*
X154427000Y-70804000D01*
X155189756Y-70804000D01*
X155189756Y-75750000D01*
X155233337Y-75981611D01*
X155370219Y-76194332D01*
X155579076Y-76337038D01*
X155663000Y-76354033D01*
X155663000Y-76708000D01*
X155767666Y-77234190D01*
X155847000Y-77352922D01*
X155847000Y-78436000D01*
X155909857Y-78752000D01*
X142550660Y-78752000D01*
X140992330Y-77193670D01*
X140803765Y-77067675D01*
X140714000Y-76850426D01*
X140714000Y-76452000D01*
X147447000Y-76452000D01*
X147492432Y-76443451D01*
X147534159Y-76416601D01*
X147562152Y-76375632D01*
X147572000Y-76327000D01*
X147572000Y-73741250D01*
X150757000Y-73741250D01*
X150757000Y-75874320D01*
X150852150Y-76104034D01*
X151027966Y-76279849D01*
X151257680Y-76375000D01*
X152060750Y-76375000D01*
X152217000Y-76218750D01*
X152217000Y-73585000D01*
X152967000Y-73585000D01*
X152967000Y-76218750D01*
X153123250Y-76375000D01*
X153926320Y-76375000D01*
X154156034Y-76279849D01*
X154331850Y-76104034D01*
X154427000Y-75874320D01*
X154427000Y-73741250D01*
X154270750Y-73585000D01*
X152967000Y-73585000D01*
X152217000Y-73585000D01*
X150913250Y-73585000D01*
X150757000Y-73741250D01*
X147572000Y-73741250D01*
X147572000Y-70993000D01*
X147563451Y-70947568D01*
X147536601Y-70905841D01*
X147495632Y-70877848D01*
X147447000Y-70868000D01*
X121793000Y-70868000D01*
X121747568Y-70876549D01*
X121705841Y-70903399D01*
X121677848Y-70944368D01*
X121668000Y-70993000D01*
X121668000Y-76327000D01*
X121676549Y-76372432D01*
X121703399Y-76414159D01*
X121744368Y-76442152D01*
X121793000Y-76452000D01*
X123902722Y-76452000D01*
X123929670Y-76492330D01*
X124970000Y-77532660D01*
X124970000Y-80391000D01*
X124979187Y-80438037D01*
X125006612Y-80479388D01*
X125056341Y-80529117D01*
X125156219Y-80684332D01*
X125365076Y-80827038D01*
X125613000Y-80877244D01*
X126863000Y-80877244D01*
X126875000Y-80874986D01*
X126875000Y-80899000D01*
X126883549Y-80944432D01*
X126910399Y-80986159D01*
X126951368Y-81014152D01*
X127000000Y-81024000D01*
X129497340Y-81024000D01*
X128848340Y-81673000D01*
X124932368Y-81673000D01*
X124972000Y-81577320D01*
X124972000Y-81459250D01*
X124815750Y-81303000D01*
X122947000Y-81303000D01*
X122947000Y-81453000D01*
X122197000Y-81453000D01*
X122197000Y-81303000D01*
X122177000Y-81303000D01*
X122177000Y-81003000D01*
X122197000Y-81003000D01*
X122197000Y-80384250D01*
X122947000Y-80384250D01*
X122947000Y-81003000D01*
X124815750Y-81003000D01*
X124972000Y-80846750D01*
X124972000Y-80728680D01*
X124876849Y-80498966D01*
X124701034Y-80323150D01*
X124471320Y-80228000D01*
X123103250Y-80228000D01*
X122947000Y-80384250D01*
X122197000Y-80384250D01*
X122040750Y-80228000D01*
X120919780Y-80228000D01*
X120919780Y-70804000D01*
X150757000Y-70804000D01*
X150757000Y-72678750D01*
X150757000Y-72678750D01*
G37*
X150757000Y-72678750D02*
X150913250Y-72835000D01*
X152217000Y-72835000D01*
X152217000Y-72815000D01*
X152967000Y-72815000D01*
X152967000Y-72835000D01*
X154270750Y-72835000D01*
X154427000Y-72678750D01*
X154427000Y-70804000D01*
X155189756Y-70804000D01*
X155189756Y-75750000D01*
X155233337Y-75981611D01*
X155370219Y-76194332D01*
X155579076Y-76337038D01*
X155663000Y-76354033D01*
X155663000Y-76708000D01*
X155767666Y-77234190D01*
X155847000Y-77352922D01*
X155847000Y-78436000D01*
X155909857Y-78752000D01*
X142550660Y-78752000D01*
X140992330Y-77193670D01*
X140803765Y-77067675D01*
X140714000Y-76850426D01*
X140714000Y-76452000D01*
X147447000Y-76452000D01*
X147492432Y-76443451D01*
X147534159Y-76416601D01*
X147562152Y-76375632D01*
X147572000Y-76327000D01*
X147572000Y-73741250D01*
X150757000Y-73741250D01*
X150757000Y-75874320D01*
X150852150Y-76104034D01*
X151027966Y-76279849D01*
X151257680Y-76375000D01*
X152060750Y-76375000D01*
X152217000Y-76218750D01*
X152217000Y-73585000D01*
X152967000Y-73585000D01*
X152967000Y-76218750D01*
X153123250Y-76375000D01*
X153926320Y-76375000D01*
X154156034Y-76279849D01*
X154331850Y-76104034D01*
X154427000Y-75874320D01*
X154427000Y-73741250D01*
X154270750Y-73585000D01*
X152967000Y-73585000D01*
X152217000Y-73585000D01*
X150913250Y-73585000D01*
X150757000Y-73741250D01*
X147572000Y-73741250D01*
X147572000Y-70993000D01*
X147563451Y-70947568D01*
X147536601Y-70905841D01*
X147495632Y-70877848D01*
X147447000Y-70868000D01*
X121793000Y-70868000D01*
X121747568Y-70876549D01*
X121705841Y-70903399D01*
X121677848Y-70944368D01*
X121668000Y-70993000D01*
X121668000Y-76327000D01*
X121676549Y-76372432D01*
X121703399Y-76414159D01*
X121744368Y-76442152D01*
X121793000Y-76452000D01*
X123902722Y-76452000D01*
X123929670Y-76492330D01*
X124970000Y-77532660D01*
X124970000Y-80391000D01*
X124979187Y-80438037D01*
X125006612Y-80479388D01*
X125056341Y-80529117D01*
X125156219Y-80684332D01*
X125365076Y-80827038D01*
X125613000Y-80877244D01*
X126863000Y-80877244D01*
X126875000Y-80874986D01*
X126875000Y-80899000D01*
X126883549Y-80944432D01*
X126910399Y-80986159D01*
X126951368Y-81014152D01*
X127000000Y-81024000D01*
X129497340Y-81024000D01*
X128848340Y-81673000D01*
X124932368Y-81673000D01*
X124972000Y-81577320D01*
X124972000Y-81459250D01*
X124815750Y-81303000D01*
X122947000Y-81303000D01*
X122947000Y-81453000D01*
X122197000Y-81453000D01*
X122197000Y-81303000D01*
X122177000Y-81303000D01*
X122177000Y-81003000D01*
X122197000Y-81003000D01*
X122197000Y-80384250D01*
X122947000Y-80384250D01*
X122947000Y-81003000D01*
X124815750Y-81003000D01*
X124972000Y-80846750D01*
X124972000Y-80728680D01*
X124876849Y-80498966D01*
X124701034Y-80323150D01*
X124471320Y-80228000D01*
X123103250Y-80228000D01*
X122947000Y-80384250D01*
X122197000Y-80384250D01*
X122040750Y-80228000D01*
X120919780Y-80228000D01*
X120919780Y-70804000D01*
X150757000Y-70804000D01*
X150757000Y-72678750D01*
G36*
X156847000Y-81419000D02*
X144510550Y-81419000D01*
X143343550Y-80252000D01*
X156847000Y-80252000D01*
X156847000Y-81419000D01*
X156847000Y-81419000D01*
G37*
X156847000Y-81419000D02*
X144510550Y-81419000D01*
X143343550Y-80252000D01*
X156847000Y-80252000D01*
X156847000Y-81419000D01*
G36*
X133870000Y-76651340D02*
X130681000Y-79840340D01*
X130681000Y-76454000D01*
X130680624Y-76452000D01*
X133870000Y-76452000D01*
X133870000Y-76651340D01*
X133870000Y-76651340D01*
G37*
X133870000Y-76651340D02*
X130681000Y-79840340D01*
X130681000Y-76454000D01*
X130680624Y-76452000D01*
X133870000Y-76452000D01*
X133870000Y-76651340D01*
G36*
X163586000Y-72178750D02*
X163742250Y-72335000D01*
X164528500Y-72335000D01*
X164528500Y-72315000D01*
X165163500Y-72315000D01*
X165163500Y-72335000D01*
X165949750Y-72335000D01*
X166106000Y-72178750D01*
X166106000Y-70804000D01*
X173477756Y-70804000D01*
X173477756Y-75750000D01*
X173521337Y-75981611D01*
X173658219Y-76194332D01*
X173867076Y-76337038D01*
X173885000Y-76340668D01*
X173885000Y-76708000D01*
X173989666Y-77234190D01*
X174135000Y-77451698D01*
X174135000Y-78436000D01*
X174197857Y-78752000D01*
X166118244Y-78752000D01*
X166118244Y-75310000D01*
X166114000Y-75287445D01*
X166114000Y-74295000D01*
X166106000Y-74252486D01*
X166106000Y-73241250D01*
X165949750Y-73085000D01*
X165163500Y-73085000D01*
X165163500Y-73105000D01*
X164528500Y-73105000D01*
X164528500Y-73085000D01*
X163742250Y-73085000D01*
X163586000Y-73241250D01*
X163586000Y-74255494D01*
X163578000Y-74295000D01*
X163578000Y-75289043D01*
X163573756Y-75310000D01*
X163573756Y-77262030D01*
X163333786Y-77502000D01*
X160526000Y-77502000D01*
X160526000Y-76962000D01*
X160517451Y-76916568D01*
X160490601Y-76874841D01*
X160482860Y-76869551D01*
X160483212Y-76465401D01*
X160297110Y-76015000D01*
X159952813Y-75670101D01*
X159502737Y-75483213D01*
X159478044Y-75483191D01*
X159474601Y-75477841D01*
X159433632Y-75449848D01*
X159385000Y-75440000D01*
X158754244Y-75440000D01*
X158754244Y-70804000D01*
X163586000Y-70804000D01*
X163586000Y-72178750D01*
X163586000Y-72178750D01*
G37*
X163586000Y-72178750D02*
X163742250Y-72335000D01*
X164528500Y-72335000D01*
X164528500Y-72315000D01*
X165163500Y-72315000D01*
X165163500Y-72335000D01*
X165949750Y-72335000D01*
X166106000Y-72178750D01*
X166106000Y-70804000D01*
X173477756Y-70804000D01*
X173477756Y-75750000D01*
X173521337Y-75981611D01*
X173658219Y-76194332D01*
X173867076Y-76337038D01*
X173885000Y-76340668D01*
X173885000Y-76708000D01*
X173989666Y-77234190D01*
X174135000Y-77451698D01*
X174135000Y-78436000D01*
X174197857Y-78752000D01*
X166118244Y-78752000D01*
X166118244Y-75310000D01*
X166114000Y-75287445D01*
X166114000Y-74295000D01*
X166106000Y-74252486D01*
X166106000Y-73241250D01*
X165949750Y-73085000D01*
X165163500Y-73085000D01*
X165163500Y-73105000D01*
X164528500Y-73105000D01*
X164528500Y-73085000D01*
X163742250Y-73085000D01*
X163586000Y-73241250D01*
X163586000Y-74255494D01*
X163578000Y-74295000D01*
X163578000Y-75289043D01*
X163573756Y-75310000D01*
X163573756Y-77262030D01*
X163333786Y-77502000D01*
X160526000Y-77502000D01*
X160526000Y-76962000D01*
X160517451Y-76916568D01*
X160490601Y-76874841D01*
X160482860Y-76869551D01*
X160483212Y-76465401D01*
X160297110Y-76015000D01*
X159952813Y-75670101D01*
X159502737Y-75483213D01*
X159478044Y-75483191D01*
X159474601Y-75477841D01*
X159433632Y-75449848D01*
X159385000Y-75440000D01*
X158754244Y-75440000D01*
X158754244Y-70804000D01*
X163586000Y-70804000D01*
X163586000Y-72178750D01*
G36*
X167261000Y-112348340D02*
X166474670Y-113134670D01*
X166312090Y-113377987D01*
X166255000Y-113665000D01*
X166255000Y-114683000D01*
X165273660Y-114683000D01*
X165249330Y-114658670D01*
X165006013Y-114496090D01*
X164719000Y-114439000D01*
X162939000Y-114439000D01*
X162939000Y-105535000D01*
X167261000Y-105535000D01*
X167261000Y-112348340D01*
X167261000Y-112348340D01*
G37*
X167261000Y-112348340D02*
X166474670Y-113134670D01*
X166312090Y-113377987D01*
X166255000Y-113665000D01*
X166255000Y-114683000D01*
X165273660Y-114683000D01*
X165249330Y-114658670D01*
X165006013Y-114496090D01*
X164719000Y-114439000D01*
X162939000Y-114439000D01*
X162939000Y-105535000D01*
X167261000Y-105535000D01*
X167261000Y-112348340D01*
M02*
