M48
;DRILL file {KiCad 4.0.7} date 10/27/17 21:20:46
;FORMAT={-:-/ absolute / metric / decimal}
FMAT,2
METRIC,TZ
T1C0.700
T2C0.900
T3C1.000
T4C1.100
T5C1.200
T6C2.000
T7C3.000
T8C3.300
%
G90
G05
M71
T1
X88.138Y-81.534
X88.138Y-90.424
X88.138Y-96.52
X90.17Y-121.92
X90.805Y-107.315
X93.98Y-73.66
X93.98Y-112.522
X93.98Y-117.475
X94.996Y-81.534
X95.504Y-90.932
X95.504Y-106.919
X95.504Y-109.474
X97.79Y-115.316
X98.834Y-91.469
X99.314Y-119.126
X99.88Y-90.423
X100.33Y-113.665
X100.838Y-96.774
X101.092Y-102.362
X101.6Y-73.66
X101.6Y-76.2
X102.87Y-124.46
X106.426Y-80.01
X106.426Y-83.058
X106.68Y-76.2
X110.236Y-80.01
X110.236Y-86.106
X110.236Y-95.758
X110.49Y-88.9
X111.252Y-110.744
X112.014Y-98.044
X112.522Y-120.65
X114.046Y-98.552
X114.046Y-101.092
X114.046Y-103.632
X114.046Y-105.41
X114.3Y-73.66
X114.3Y-76.2
X114.808Y-80.01
X114.808Y-86.106
X114.808Y-89.662
X114.808Y-95.758
X122.936Y-113.538
X123.19Y-80.01
X123.19Y-86.106
X123.19Y-89.662
X123.19Y-95.758
X124.714Y-91.948
X124.714Y-93.472
X125.984Y-100.076
X125.984Y-112.776
X127.063Y-85.661
X127.254Y-95.758
X127.508Y-79.756
X127.762Y-78.232
X128.905Y-110.299
X129.984Y-95.758
X130.302Y-125.73
X131.191Y-82.296
X131.953Y-77.724
X136.398Y-109.728
X138.938Y-77.724
X139.065Y-111.506
X139.952Y-104.646
X142.811Y-87.884
X142.939Y-107.505
X143.129Y-93.789
X145.161Y-109.728
X146.812Y-86.804
X146.812Y-92.202
X146.812Y-98.171
X148.082Y-80.835
X149.034Y-115.887
X150.622Y-123.19
X150.812Y-118.618
X152.082Y-123.19
X152.592Y-76.65
X156.21Y-111.569
X156.21Y-118.808
X157.734Y-122.745
X158.75Y-111.569
X158.75Y-123.825
X159.258Y-76.708
X161.29Y-86.487
X161.352Y-76.65
X165.481Y-113.284
X166.37Y-119.634
X169.164Y-114.808
X169.164Y-119.634
X170.88Y-76.65
X177.546Y-76.708
X178.498Y-100.774
X178.816Y-106.299
X179.578Y-94.742
X179.64Y-76.65
X180.975Y-110.617
X181.102Y-94.488
X181.102Y-120.65
X182.118Y-88.392
X182.626Y-116.332
X184.15Y-116.332
X185.928Y-105.791
X185.928Y-121.158
X186.436Y-91.694
X188.468Y-110.934
X188.722Y-95.25
X190.5Y-93.472
X190.5Y-116.84
X191.643Y-78.105
X193.04Y-119.634
X195.58Y-120.396
X195.707Y-84.328
X196.342Y-94.234
X196.85Y-106.68
X197.104Y-98.298
X198.12Y-116.84
X202.438Y-96.266
X203.962Y-96.266
X203.962Y-101.854
X204.089Y-90.678
X204.47Y-109.982
X205.486Y-101.854
X205.994Y-111.76
X207.264Y-88.011
T2
X183.642Y-96.266
X183.642Y-98.266
X183.642Y-100.266
X183.642Y-102.266
X185.642Y-96.266
X185.642Y-98.266
X185.642Y-100.266
X185.642Y-102.266
T4
X123.19Y-72.39
X123.19Y-74.93
X123.19Y-115.57
X123.19Y-118.11
X125.73Y-72.39
X125.73Y-74.93
X125.73Y-115.57
X125.73Y-118.11
X128.27Y-72.39
X128.27Y-74.93
X128.27Y-115.57
X128.27Y-118.11
X130.81Y-72.39
X130.81Y-74.93
X130.81Y-115.57
X130.81Y-118.11
X133.35Y-72.39
X133.35Y-74.93
X133.35Y-115.57
X133.35Y-118.11
X135.89Y-72.39
X135.89Y-74.93
X135.89Y-115.57
X135.89Y-118.11
X136.906Y-98.679
X138.43Y-72.39
X138.43Y-74.93
X138.43Y-115.57
X138.43Y-118.11
X139.446Y-98.679
X140.97Y-72.39
X140.97Y-74.93
X140.97Y-115.57
X140.97Y-118.11
X141.986Y-98.679
X143.51Y-72.39
X143.51Y-74.93
X143.51Y-115.57
X143.51Y-118.11
X146.05Y-72.39
X146.05Y-74.93
X146.05Y-115.57
X146.05Y-118.11
X186.69Y-72.39
X186.69Y-74.93
X186.69Y-115.57
X186.69Y-118.11
X189.23Y-72.39
X189.23Y-74.93
X189.23Y-115.57
X189.23Y-118.11
X189.992Y-98.298
X191.77Y-72.39
X191.77Y-74.93
X191.77Y-115.57
X191.77Y-118.11
X192.532Y-98.298
X194.31Y-72.39
X194.31Y-74.93
X194.31Y-115.57
X194.31Y-118.11
X195.072Y-98.298
X196.85Y-72.39
X196.85Y-74.93
X196.85Y-115.57
X196.85Y-118.11
X199.39Y-72.39
X199.39Y-74.93
X199.39Y-115.57
X199.39Y-118.11
X201.93Y-72.39
X201.93Y-74.93
X201.93Y-115.57
X201.93Y-118.11
X204.47Y-72.39
X204.47Y-74.93
X204.47Y-115.57
X204.47Y-118.11
X207.01Y-72.39
X207.01Y-74.93
X207.01Y-115.57
X207.01Y-118.11
X209.55Y-72.39
X209.55Y-74.93
X209.55Y-115.57
X209.55Y-118.11
T5
X122.428Y-122.936
X124.968Y-122.936
X127.508Y-122.936
X130.048Y-122.936
X135.89Y-122.936
X138.43Y-122.936
X140.97Y-122.936
X143.51Y-122.936
X163.83Y-122.936
X166.37Y-122.936
X168.91Y-122.936
X171.45Y-122.936
X176.53Y-122.936
X179.07Y-122.936
X181.61Y-122.936
X184.15Y-122.936
T6
X191.898Y-123.952
X207.898Y-123.952
T7
X161.93Y-99.66
T8
X89.418Y-101.854
X89.418Y-114.554
T3
X201.93Y-85.428G85X201.93Y-83.228
G05
X206.03Y-79.628G85X203.83Y-79.628
G05
X207.93Y-85.428G85X207.93Y-83.228
G05
T0
M30
