G04 #@! TF.FileFunction,Copper,L2,Bot,Mixed*
%FSLAX46Y46*%
G04 Gerber Fmt 4.6, Leading zero omitted, Abs format (unit mm)*
G04 Created by KiCad (PCBNEW 4.0.7) date 10/27/17 21:20:44*
%MOMM*%
%LPD*%
G01*
G04 APERTURE LIST*
%ADD10C,0.100000*%
%ADD11R,1.300000X1.700000*%
%ADD12C,3.000000*%
%ADD13R,1.350000X1.350000*%
%ADD14O,1.350000X1.350000*%
%ADD15R,3.500000X3.500000*%
%ADD16R,1.000000X1.250000*%
%ADD17R,1.250000X1.000000*%
%ADD18R,2.420000X5.080000*%
%ADD19C,1.200000*%
%ADD20R,0.460000X0.890000*%
%ADD21R,2.000000X2.600000*%
%ADD22O,2.000000X2.600000*%
%ADD23R,2.500000X1.800000*%
%ADD24R,3.550000X0.600000*%
%ADD25R,3.500000X0.600000*%
%ADD26R,4.600000X1.100000*%
%ADD27R,10.410000X10.800000*%
%ADD28R,22.000000X4.000000*%
%ADD29C,2.000000*%
%ADD30R,1.700000X1.700000*%
%ADD31O,1.700000X1.700000*%
%ADD32R,0.700000X1.300000*%
%ADD33C,2.700000*%
%ADD34C,1.000000*%
%ADD35C,0.500000*%
%ADD36C,1.500000*%
%ADD37C,0.250000*%
%ADD38C,0.750000*%
%ADD39C,3.000000*%
%ADD40C,0.900000*%
G04 APERTURE END LIST*
D10*
D11*
X98270000Y-124460000D03*
X94770000Y-124460000D03*
D12*
X161930000Y-99660000D03*
D13*
X183642000Y-96266000D03*
D14*
X185642000Y-96266000D03*
X183642000Y-98266000D03*
X185642000Y-98266000D03*
X183642000Y-100266000D03*
X185642000Y-100266000D03*
X183642000Y-102266000D03*
X185642000Y-102266000D03*
D15*
X201930000Y-84328000D03*
X207930000Y-84328000D03*
X204930000Y-79628000D03*
D16*
X132064000Y-113030000D03*
X130064000Y-113030000D03*
D17*
X188722000Y-82534000D03*
X188722000Y-80534000D03*
X191770000Y-89138000D03*
X191770000Y-87138000D03*
X179578000Y-98028000D03*
X179578000Y-96028000D03*
X181102000Y-98028000D03*
X181102000Y-96028000D03*
D16*
X196612000Y-100584000D03*
X198612000Y-100584000D03*
X195056000Y-100584000D03*
X193056000Y-100584000D03*
D17*
X121666000Y-93710000D03*
X121666000Y-91710000D03*
X121666000Y-84058000D03*
X121666000Y-82058000D03*
X116078000Y-93710000D03*
X116078000Y-91710000D03*
X116078000Y-84058000D03*
X116078000Y-82058000D03*
X110236000Y-93710000D03*
X110236000Y-91710000D03*
X110236000Y-84312000D03*
X110236000Y-82312000D03*
D16*
X128508000Y-125323600D03*
X126508000Y-125323600D03*
D17*
X132842000Y-123936000D03*
X132842000Y-121936000D03*
X126238000Y-79740000D03*
X126238000Y-77740000D03*
X129286000Y-79740000D03*
X129286000Y-77740000D03*
D16*
X208010000Y-105918000D03*
X206010000Y-105918000D03*
X208010000Y-103632000D03*
X206010000Y-103632000D03*
X208010000Y-100330000D03*
X206010000Y-100330000D03*
X208010000Y-98044000D03*
X206010000Y-98044000D03*
X208010000Y-94742000D03*
X206010000Y-94742000D03*
X208010000Y-92456000D03*
X206010000Y-92456000D03*
X207248000Y-89154000D03*
X205248000Y-89154000D03*
X156765500Y-117538500D03*
X154765500Y-117538500D03*
X181086000Y-93472000D03*
X179086000Y-93472000D03*
X170450000Y-112776000D03*
X172450000Y-112776000D03*
D17*
X177546000Y-73898000D03*
X177546000Y-71898000D03*
X159258000Y-73898000D03*
X159258000Y-71898000D03*
D16*
X111236000Y-120650000D03*
X109236000Y-120650000D03*
D18*
X179640000Y-73210000D03*
X170880000Y-73210000D03*
D19*
X179640000Y-76650000D03*
X170880000Y-76650000D03*
D20*
X179640000Y-76200000D03*
X170880000Y-76200000D03*
D18*
X161352000Y-73210000D03*
X152592000Y-73210000D03*
D19*
X161352000Y-76650000D03*
X152592000Y-76650000D03*
D20*
X161352000Y-76200000D03*
X152592000Y-76200000D03*
D21*
X184150000Y-122936000D03*
D22*
X181610000Y-122936000D03*
X179070000Y-122936000D03*
X176530000Y-122936000D03*
D21*
X171450000Y-122936000D03*
D22*
X168910000Y-122936000D03*
X166370000Y-122936000D03*
X163830000Y-122936000D03*
D21*
X143510000Y-122936000D03*
D22*
X140970000Y-122936000D03*
X138430000Y-122936000D03*
X135890000Y-122936000D03*
D21*
X130048000Y-122936000D03*
D22*
X127508000Y-122936000D03*
X124968000Y-122936000D03*
X122428000Y-122936000D03*
D23*
X196882000Y-79756000D03*
X200882000Y-79756000D03*
D11*
X194084000Y-88392000D03*
X197584000Y-88392000D03*
D23*
X194088000Y-84328000D03*
X198088000Y-84328000D03*
D24*
X124570000Y-111379000D03*
X124570000Y-110109000D03*
X124570000Y-108839000D03*
X124570000Y-107569000D03*
X131970000Y-107569000D03*
X131970000Y-108839000D03*
X131970000Y-110109000D03*
X131970000Y-111379000D03*
D25*
X192896000Y-111887000D03*
X192896000Y-110617000D03*
X192896000Y-109347000D03*
X192896000Y-108077000D03*
X192896000Y-106807000D03*
X192896000Y-105537000D03*
X192896000Y-104267000D03*
X192896000Y-102997000D03*
X200296000Y-102997000D03*
X200296000Y-104267000D03*
X200296000Y-105537000D03*
X200296000Y-106807000D03*
X200296000Y-108077000D03*
X200296000Y-109347000D03*
X200296000Y-110617000D03*
X200296000Y-111887000D03*
D26*
X188220000Y-84328000D03*
X188220000Y-86868000D03*
X188220000Y-89408000D03*
D27*
X179070000Y-86868000D03*
D28*
X199898000Y-123952000D03*
D12*
X207898000Y-123952000D03*
X191898000Y-123952000D03*
D29*
X189992000Y-98298000D03*
X192532000Y-98298000D03*
X195072000Y-98298000D03*
X141986000Y-98679000D03*
X139446000Y-98679000D03*
X136906000Y-98679000D03*
D30*
X209550000Y-74930000D03*
D31*
X209550000Y-72390000D03*
X207010000Y-74930000D03*
X207010000Y-72390000D03*
X204470000Y-74930000D03*
X204470000Y-72390000D03*
X201930000Y-74930000D03*
X201930000Y-72390000D03*
X199390000Y-74930000D03*
X199390000Y-72390000D03*
X196850000Y-74930000D03*
X196850000Y-72390000D03*
X194310000Y-74930000D03*
X194310000Y-72390000D03*
X191770000Y-74930000D03*
X191770000Y-72390000D03*
X189230000Y-74930000D03*
X189230000Y-72390000D03*
X186690000Y-74930000D03*
X186690000Y-72390000D03*
D30*
X209550000Y-118110000D03*
D31*
X209550000Y-115570000D03*
X207010000Y-118110000D03*
X207010000Y-115570000D03*
X204470000Y-118110000D03*
X204470000Y-115570000D03*
X201930000Y-118110000D03*
X201930000Y-115570000D03*
X199390000Y-118110000D03*
X199390000Y-115570000D03*
X196850000Y-118110000D03*
X196850000Y-115570000D03*
X194310000Y-118110000D03*
X194310000Y-115570000D03*
X191770000Y-118110000D03*
X191770000Y-115570000D03*
X189230000Y-118110000D03*
X189230000Y-115570000D03*
X186690000Y-118110000D03*
X186690000Y-115570000D03*
D30*
X146050000Y-118110000D03*
D31*
X146050000Y-115570000D03*
X143510000Y-118110000D03*
X143510000Y-115570000D03*
X140970000Y-118110000D03*
X140970000Y-115570000D03*
X138430000Y-118110000D03*
X138430000Y-115570000D03*
X135890000Y-118110000D03*
X135890000Y-115570000D03*
X133350000Y-118110000D03*
X133350000Y-115570000D03*
X130810000Y-118110000D03*
X130810000Y-115570000D03*
X128270000Y-118110000D03*
X128270000Y-115570000D03*
X125730000Y-118110000D03*
X125730000Y-115570000D03*
X123190000Y-118110000D03*
X123190000Y-115570000D03*
D30*
X146050000Y-74930000D03*
D31*
X146050000Y-72390000D03*
X143510000Y-74930000D03*
X143510000Y-72390000D03*
X140970000Y-74930000D03*
X140970000Y-72390000D03*
X138430000Y-74930000D03*
X138430000Y-72390000D03*
X135890000Y-74930000D03*
X135890000Y-72390000D03*
X133350000Y-74930000D03*
X133350000Y-72390000D03*
X130810000Y-74930000D03*
X130810000Y-72390000D03*
X128270000Y-74930000D03*
X128270000Y-72390000D03*
X125730000Y-74930000D03*
X125730000Y-72390000D03*
X123190000Y-74930000D03*
X123190000Y-72390000D03*
D32*
X126370000Y-104902000D03*
X128270000Y-104902000D03*
X130170000Y-104902000D03*
X126370000Y-102870000D03*
X128270000Y-102870000D03*
X130170000Y-102870000D03*
D19*
X145161000Y-109728000D03*
X136398000Y-109728000D03*
X139952253Y-104646253D03*
X150812500Y-118618000D03*
X180975000Y-110617000D03*
D33*
X127254000Y-95758000D03*
X123190000Y-95758000D03*
X123190000Y-86106000D03*
D19*
X146812000Y-92202000D03*
X143129000Y-93789500D03*
X127063500Y-85661500D03*
X142811500Y-87884000D03*
X178498500Y-100774500D03*
X146812000Y-98171000D03*
X146812000Y-86804500D03*
X131953000Y-77724000D03*
X131191000Y-82296000D03*
X128905000Y-110299500D03*
X148082000Y-80835500D03*
X139065000Y-111506000D03*
X129984500Y-95758000D03*
X188468000Y-110934500D03*
X185928000Y-105791000D03*
X178816000Y-106299000D03*
X182118000Y-88392000D03*
X191643000Y-78105000D03*
D33*
X123190000Y-80010000D03*
X123190000Y-89662000D03*
D19*
X130302000Y-125730000D03*
X122936000Y-113538000D03*
X125984000Y-112776000D03*
D33*
X125984000Y-100076000D03*
D19*
X196342000Y-94234000D03*
X179578000Y-94742000D03*
X195707000Y-84328000D03*
D33*
X190500000Y-93472000D03*
X186436000Y-91694000D03*
D19*
X149034500Y-115887500D03*
X142938500Y-107505500D03*
X204089000Y-90678000D03*
D33*
X197104000Y-98298000D03*
D19*
X188722000Y-95250000D03*
X165481000Y-113284000D03*
D33*
X99314000Y-119126000D03*
X110236000Y-86106000D03*
X110236000Y-95758000D03*
X114808000Y-95758000D03*
X114808000Y-86106000D03*
X114808000Y-80010000D03*
X110236000Y-80010000D03*
D19*
X100330000Y-113665000D03*
X111252000Y-110744000D03*
X114046000Y-101092000D03*
X114046000Y-103632000D03*
X114046000Y-105410000D03*
X114300000Y-73660000D03*
X106680000Y-76200000D03*
X106426000Y-83058000D03*
X106426000Y-80010000D03*
X114300000Y-76200000D03*
X101600000Y-73660000D03*
X112014000Y-98044000D03*
X114046000Y-98552000D03*
X88138000Y-96520000D03*
X88138000Y-81534000D03*
X93980000Y-73660000D03*
X88138000Y-90424000D03*
X93980000Y-112522000D03*
X90805000Y-107315000D03*
X93980000Y-117475000D03*
X94996000Y-81534000D03*
X95504000Y-90932000D03*
X97790000Y-115316000D03*
X100838000Y-96774000D03*
X101092000Y-102362000D03*
X90170000Y-121920000D03*
X101600000Y-76200000D03*
X110490000Y-88900000D03*
D33*
X114808000Y-89662000D03*
D19*
X127508000Y-79756000D03*
X127762000Y-78232000D03*
X205994000Y-111760000D03*
X204470000Y-109982000D03*
X205486000Y-101854000D03*
X203962000Y-101854000D03*
X203962000Y-96266000D03*
X202438000Y-96266000D03*
X207264000Y-88011000D03*
X156210000Y-118808500D03*
X181102000Y-94488000D03*
X169164000Y-114808000D03*
D33*
X102870000Y-124460000D03*
D19*
X112522000Y-120650000D03*
X193040000Y-119634000D03*
X169164000Y-119634000D03*
X124714000Y-91948000D03*
X190500000Y-116840000D03*
X166370000Y-119634000D03*
X124714000Y-93472000D03*
X152082500Y-123190000D03*
X184150000Y-116332000D03*
X196850000Y-106680000D03*
X150622000Y-123190000D03*
X182626000Y-116332000D03*
X157734000Y-122745500D03*
X156210000Y-111569500D03*
X195580000Y-120396000D03*
X185928000Y-121158000D03*
X158750000Y-123825000D03*
X158750000Y-111569500D03*
X181102000Y-120650000D03*
X198120000Y-116840000D03*
D33*
X138938000Y-77724000D03*
D19*
X161290000Y-86487000D03*
X177546000Y-76708000D03*
X159258000Y-76708000D03*
X99880259Y-90422959D03*
X95504000Y-109474000D03*
X98833741Y-91469477D03*
X95504000Y-106919000D03*
D34*
X130048000Y-122936000D02*
X130048000Y-123783600D01*
X130048000Y-123783600D02*
X128508000Y-125323600D01*
D35*
X145161000Y-109728000D02*
X145161000Y-109664500D01*
X145161000Y-109664500D02*
X146335750Y-108489750D01*
D36*
X150876000Y-115379500D02*
X150876000Y-113030000D01*
X150876000Y-113030000D02*
X146335750Y-108489750D01*
X146335750Y-108489750D02*
X144716500Y-106870500D01*
D37*
X134620000Y-109791500D02*
X134683500Y-109728000D01*
X134683500Y-109728000D02*
X136398000Y-109728000D01*
D36*
X139952253Y-104646253D02*
X142238253Y-104646253D01*
X142238253Y-104646253D02*
X142240000Y-104648000D01*
X142240000Y-104648000D02*
X143954500Y-104648000D01*
X143954500Y-104648000D02*
X144716500Y-105410000D01*
X144716500Y-105410000D02*
X144716500Y-106870500D01*
X161036000Y-125476000D02*
X157670500Y-125476000D01*
X157670500Y-125476000D02*
X153098500Y-120904000D01*
X153098500Y-120904000D02*
X150812500Y-118618000D01*
X150812500Y-118618000D02*
X150812500Y-118554500D01*
X150812500Y-118554500D02*
X149891750Y-117633750D01*
X143510000Y-122936000D02*
X144589500Y-122936000D01*
X144589500Y-122936000D02*
X149891750Y-117633750D01*
X149891750Y-117633750D02*
X150876000Y-116649500D01*
X150876000Y-116649500D02*
X150876000Y-115379500D01*
X150876000Y-115379500D02*
X150876000Y-115252500D01*
D38*
X130170000Y-104902000D02*
X130170000Y-105786000D01*
X130170000Y-105786000D02*
X130810000Y-106426000D01*
X130810000Y-106426000D02*
X134366000Y-106426000D01*
X134366000Y-106426000D02*
X134620000Y-106680000D01*
X134620000Y-106680000D02*
X134620000Y-109791500D01*
X134620000Y-109791500D02*
X134620000Y-110744000D01*
X131970000Y-111379000D02*
X133985000Y-111379000D01*
X133985000Y-111379000D02*
X134620000Y-110744000D01*
X130170000Y-104902000D02*
X130170000Y-102870000D01*
D36*
X171450000Y-122936000D02*
X171450000Y-120142000D01*
X171450000Y-120142000D02*
X180975000Y-110617000D01*
D34*
X132064000Y-113030000D02*
X132064000Y-111473000D01*
X132064000Y-111473000D02*
X131970000Y-111379000D01*
D36*
X169672000Y-125476000D02*
X161036000Y-125476000D01*
X171450000Y-123698000D02*
X169672000Y-125476000D01*
X171450000Y-122936000D02*
X171450000Y-123698000D01*
D34*
X132842000Y-123936000D02*
X131048000Y-123936000D01*
X131048000Y-123936000D02*
X130048000Y-122936000D01*
X121666000Y-93710000D02*
X121666000Y-94234000D01*
X121666000Y-94234000D02*
X123190000Y-95758000D01*
X121666000Y-84582000D02*
X121666000Y-84058000D01*
X123190000Y-86106000D02*
X121666000Y-84582000D01*
D37*
X146812000Y-98171000D02*
X146812000Y-97472500D01*
X146812000Y-97472500D02*
X143129000Y-93789500D01*
X129984500Y-84645500D02*
X128079500Y-84645500D01*
X128079500Y-84645500D02*
X127063500Y-85661500D01*
X146812000Y-86804500D02*
X143891000Y-86804500D01*
X143891000Y-86804500D02*
X142811500Y-87884000D01*
X179578000Y-94742000D02*
X176911000Y-94742000D01*
X176911000Y-94742000D02*
X176530000Y-95123000D01*
X176530000Y-95123000D02*
X176530000Y-98806000D01*
X176530000Y-98806000D02*
X178498500Y-100774500D01*
X146812000Y-86804500D02*
X146812000Y-92202000D01*
X146812000Y-92202000D02*
X146812000Y-98171000D01*
X146494500Y-86360000D02*
X146812000Y-86677500D01*
X146812000Y-86677500D02*
X146812000Y-86804500D01*
X131191000Y-82296000D02*
X131191000Y-78486000D01*
X131191000Y-78486000D02*
X131953000Y-77724000D01*
X129984500Y-95758000D02*
X129984500Y-84645500D01*
X129984500Y-84645500D02*
X129984500Y-83502500D01*
X129984500Y-83502500D02*
X131191000Y-82296000D01*
X124570000Y-107569000D02*
X126936500Y-107569000D01*
X126936500Y-107569000D02*
X127254000Y-107886500D01*
X127254000Y-107886500D02*
X127254000Y-108648500D01*
X127254000Y-108648500D02*
X128905000Y-110299500D01*
X129984500Y-95758000D02*
X135255000Y-95758000D01*
X135255000Y-95758000D02*
X137223500Y-95758000D01*
X137223500Y-95758000D02*
X146494500Y-86360000D01*
X146494500Y-86360000D02*
X148082000Y-84899500D01*
X148082000Y-84899500D02*
X148082000Y-80835500D01*
X143510000Y-115570000D02*
X143510000Y-114173000D01*
X143510000Y-114173000D02*
X140843000Y-111506000D01*
X140843000Y-111506000D02*
X139065000Y-111506000D01*
X125984000Y-100076000D02*
X129984500Y-96075500D01*
X129984500Y-96075500D02*
X129984500Y-95758000D01*
D34*
X185642000Y-102266000D02*
X188118000Y-102266000D01*
X188118000Y-102266000D02*
X188214000Y-102362000D01*
D37*
X185928000Y-105791000D02*
X185420000Y-106299000D01*
X185420000Y-106299000D02*
X178816000Y-106299000D01*
X180594000Y-86868000D02*
X179070000Y-86868000D01*
X188722000Y-80534000D02*
X190611000Y-80534000D01*
X190611000Y-80534000D02*
X191643000Y-79502000D01*
X191643000Y-79502000D02*
X191643000Y-78105000D01*
D34*
X177546000Y-71898000D02*
X175657000Y-71898000D01*
X175657000Y-71898000D02*
X175641000Y-71882000D01*
X159258000Y-71898000D02*
X157369000Y-71898000D01*
X157369000Y-71898000D02*
X157353000Y-71882000D01*
X121666000Y-82058000D02*
X121666000Y-80264000D01*
X121920000Y-80010000D02*
X123190000Y-80010000D01*
X121666000Y-80264000D02*
X121920000Y-80010000D01*
X121666000Y-91710000D02*
X121666000Y-90043000D01*
X122047000Y-89662000D02*
X123190000Y-89662000D01*
X121666000Y-90043000D02*
X122047000Y-89662000D01*
D36*
X135890000Y-122936000D02*
X135890000Y-125603000D01*
X134366000Y-125730000D02*
X130302000Y-125730000D01*
X135763000Y-125730000D02*
X134366000Y-125730000D01*
X135890000Y-125603000D02*
X135763000Y-125730000D01*
X146050000Y-72390000D02*
X148463000Y-72390000D01*
X207010000Y-115570000D02*
X207010000Y-113538000D01*
X143510000Y-115570000D02*
X143510000Y-113284000D01*
D35*
X204930000Y-79628000D02*
X210059000Y-79628000D01*
X210566000Y-72390000D02*
X209550000Y-72390000D01*
X211201000Y-73025000D02*
X210566000Y-72390000D01*
X211201000Y-78486000D02*
X211201000Y-73025000D01*
X210059000Y-79628000D02*
X211201000Y-78486000D01*
D37*
X161352000Y-76650000D02*
X161352000Y-73210000D01*
X152592000Y-76650000D02*
X152592000Y-73210000D01*
X179640000Y-76650000D02*
X179640000Y-73210000D01*
X170880000Y-76650000D02*
X170880000Y-73210000D01*
X192896000Y-102997000D02*
X196723000Y-102997000D01*
X199390000Y-101600000D02*
X198612000Y-100822000D01*
X198755000Y-101600000D02*
X199390000Y-101600000D01*
X198120000Y-102235000D02*
X198755000Y-101600000D01*
X197485000Y-102235000D02*
X198120000Y-102235000D01*
X196723000Y-102997000D02*
X197485000Y-102235000D01*
X198612000Y-100822000D02*
X198612000Y-100584000D01*
X202184000Y-123952000D02*
X199898000Y-123952000D01*
X205232000Y-123952000D02*
X199898000Y-123952000D01*
X197584000Y-88392000D02*
X197584000Y-92992000D01*
X197584000Y-92992000D02*
X196342000Y-94234000D01*
X199898000Y-123952000D02*
X191770000Y-123952000D01*
D34*
X179578000Y-94742000D02*
X179578000Y-96028000D01*
D37*
X192896000Y-102997000D02*
X193056000Y-102837000D01*
X193056000Y-102837000D02*
X193056000Y-100584000D01*
D34*
X179578000Y-94742000D02*
X179578000Y-93964000D01*
X179578000Y-93964000D02*
X179086000Y-93472000D01*
D38*
X181102000Y-96028000D02*
X179578000Y-96028000D01*
D34*
X179086000Y-93472000D02*
X179070000Y-93456000D01*
X179070000Y-93456000D02*
X179070000Y-86868000D01*
D37*
X176530000Y-122936000D02*
X176530000Y-124714000D01*
X177292000Y-125476000D02*
X198374000Y-125476000D01*
X176530000Y-124714000D02*
X177292000Y-125476000D01*
X198374000Y-125476000D02*
X199898000Y-123952000D01*
D36*
X159258000Y-71898000D02*
X160040000Y-71898000D01*
X160040000Y-71898000D02*
X161352000Y-73210000D01*
X177546000Y-71898000D02*
X178328000Y-71898000D01*
X178328000Y-71898000D02*
X179640000Y-73210000D01*
X135890000Y-122936000D02*
X135890000Y-124206000D01*
D37*
X204930000Y-79550000D02*
X204930000Y-79628000D01*
X204930000Y-78534000D02*
X204930000Y-79628000D01*
X197584000Y-88392000D02*
X197584000Y-90396000D01*
X202676000Y-90440000D02*
X202676000Y-87884000D01*
X201930000Y-91186000D02*
X202676000Y-90440000D01*
X198374000Y-91186000D02*
X201930000Y-91186000D01*
X197584000Y-90396000D02*
X198374000Y-91186000D01*
D36*
X207930000Y-81993000D02*
X207930000Y-83693000D01*
X188220000Y-86868000D02*
X188490000Y-87138000D01*
X188490000Y-87138000D02*
X191770000Y-87138000D01*
X179070000Y-86868000D02*
X188220000Y-86868000D01*
D34*
X194088000Y-84328000D02*
X195707000Y-84328000D01*
D36*
X188722000Y-82534000D02*
X188722000Y-83826000D01*
X188722000Y-83826000D02*
X188220000Y-84328000D01*
D35*
X194088000Y-84328000D02*
X194056000Y-84296000D01*
D34*
X190246000Y-84328000D02*
X188220000Y-84328000D01*
D36*
X194084000Y-88392000D02*
X194088000Y-88388000D01*
X194088000Y-88388000D02*
X194088000Y-84328000D01*
D39*
X194088000Y-84328000D02*
X188220000Y-84328000D01*
D36*
X187706000Y-83814000D02*
X188220000Y-84328000D01*
D39*
X188722000Y-91694000D02*
X190500000Y-93472000D01*
X188722000Y-91694000D02*
X186436000Y-91694000D01*
D36*
X188220000Y-89408000D02*
X186436000Y-91192000D01*
X186436000Y-91192000D02*
X186436000Y-91694000D01*
X191770000Y-89138000D02*
X191500000Y-89408000D01*
X191500000Y-89408000D02*
X188220000Y-89408000D01*
X142938500Y-107505500D02*
X142938500Y-109791500D01*
X142938500Y-109791500D02*
X149098000Y-115951000D01*
X149098000Y-115951000D02*
X149034500Y-115887500D01*
D34*
X206502000Y-90678000D02*
X204089000Y-90678000D01*
X208010000Y-92186000D02*
X206502000Y-90678000D01*
D36*
X195056000Y-100584000D02*
X196612000Y-100584000D01*
X195056000Y-100584000D02*
X195056000Y-98314000D01*
X195056000Y-98314000D02*
X195072000Y-98298000D01*
D34*
X208010000Y-105918000D02*
X208010000Y-103632000D01*
X208010000Y-103632000D02*
X208010000Y-100330000D01*
X208010000Y-100330000D02*
X208010000Y-98044000D01*
X208010000Y-98044000D02*
X208010000Y-94742000D01*
X208010000Y-94742000D02*
X208010000Y-92456000D01*
X208010000Y-92456000D02*
X208010000Y-92186000D01*
X183642000Y-98266000D02*
X183610500Y-98266000D01*
X183610500Y-98266000D02*
X173482000Y-108394500D01*
X173482000Y-108394500D02*
X153479500Y-108394500D01*
X153479500Y-108394500D02*
X143764000Y-98679000D01*
X143764000Y-98679000D02*
X143764000Y-97980500D01*
X143764000Y-97980500D02*
X142684500Y-96901000D01*
X142684500Y-96901000D02*
X138684000Y-96901000D01*
X138684000Y-96901000D02*
X136906000Y-98679000D01*
X183642000Y-98266000D02*
X181340000Y-98266000D01*
X181340000Y-98266000D02*
X181102000Y-98028000D01*
X181102000Y-98028000D02*
X179578000Y-98028000D01*
D37*
X189992000Y-98298000D02*
X189992000Y-96520000D01*
X189992000Y-96520000D02*
X188722000Y-95250000D01*
D34*
X153479500Y-110172500D02*
X162369500Y-110172500D01*
X162369500Y-110172500D02*
X165481000Y-113284000D01*
X141986000Y-98679000D02*
X153479500Y-110172500D01*
D36*
X110236000Y-95758000D02*
X114808000Y-95758000D01*
X110236000Y-86106000D02*
X114808000Y-86106000D01*
D34*
X110236000Y-86106000D02*
X108712000Y-87630000D01*
X108712000Y-94234000D02*
X110236000Y-95758000D01*
X108712000Y-87630000D02*
X108712000Y-94234000D01*
D36*
X112014000Y-114554000D02*
X116078000Y-110490000D01*
X116078000Y-107950000D02*
X116078000Y-110490000D01*
X116078000Y-97028000D02*
X114808000Y-95758000D01*
X116078000Y-97028000D02*
X116078000Y-107950000D01*
D39*
X112268000Y-114554000D02*
X112014000Y-114554000D01*
X112014000Y-114554000D02*
X103886000Y-114554000D01*
X99314000Y-119126000D02*
X103886000Y-114554000D01*
D34*
X110236000Y-86106000D02*
X110236000Y-84312000D01*
X110236000Y-95758000D02*
X110236000Y-93710000D01*
X116078000Y-93710000D02*
X116078000Y-94488000D01*
X116078000Y-94488000D02*
X114808000Y-95758000D01*
X116078000Y-84836000D02*
X114808000Y-86106000D01*
X116078000Y-84058000D02*
X116078000Y-84836000D01*
D38*
X116078000Y-82058000D02*
X116078000Y-80518000D01*
X115570000Y-80010000D02*
X114808000Y-80010000D01*
X116078000Y-80518000D02*
X115570000Y-80010000D01*
X116078000Y-91710000D02*
X116078000Y-90297000D01*
X115443000Y-89662000D02*
X114808000Y-89662000D01*
X116078000Y-90297000D02*
X115443000Y-89662000D01*
D34*
X110236000Y-80010000D02*
X110236000Y-82312000D01*
D37*
X100330000Y-113665000D02*
X103251000Y-110744000D01*
X103251000Y-110744000D02*
X111252000Y-110744000D01*
X112014000Y-98044000D02*
X109474000Y-98044000D01*
X107442000Y-96012000D02*
X107442000Y-85852000D01*
X107442000Y-85852000D02*
X106426000Y-84836000D01*
X114300000Y-76200000D02*
X106680000Y-76200000D01*
X106680000Y-79756000D02*
X106680000Y-76200000D01*
X106426000Y-80010000D02*
X106426000Y-83058000D01*
X106426000Y-83058000D02*
X106426000Y-84836000D01*
X106426000Y-80010000D02*
X106680000Y-79756000D01*
X114300000Y-76200000D02*
X114300000Y-73660000D01*
X101600000Y-73660000D02*
X114300000Y-73660000D01*
X112522000Y-98552000D02*
X112014000Y-98044000D01*
X112522000Y-98552000D02*
X114046000Y-98552000D01*
X109474000Y-98044000D02*
X107442000Y-96012000D01*
X88138000Y-96520000D02*
X93726000Y-96520000D01*
X88138000Y-90424000D02*
X88138000Y-81534000D01*
X93980000Y-75692000D02*
X88138000Y-81534000D01*
X93980000Y-73660000D02*
X93980000Y-75692000D01*
X88138000Y-96520000D02*
X88138000Y-90424000D01*
X93726000Y-96520000D02*
X96012000Y-98806000D01*
X93980000Y-112522000D02*
X93980000Y-117475000D01*
X93980000Y-110490000D02*
X93980000Y-112522000D01*
X96012000Y-98806000D02*
X96012000Y-102108000D01*
X96012000Y-102108000D02*
X90805000Y-107315000D01*
X90805000Y-107315000D02*
X93980000Y-110490000D01*
X94996000Y-81534000D02*
X94996000Y-90424000D01*
X93980000Y-80518000D02*
X94996000Y-81534000D01*
X101600000Y-73660000D02*
X93980000Y-73660000D01*
X93980000Y-73660000D02*
X93980000Y-80518000D01*
X94996000Y-90424000D02*
X95504000Y-90932000D01*
X93980000Y-117475000D02*
X97790000Y-113665000D01*
X97790000Y-113665000D02*
X100330000Y-113665000D01*
X98679000Y-115316000D02*
X97790000Y-115316000D01*
X100330000Y-113665000D02*
X98679000Y-115316000D01*
X96012000Y-98806000D02*
X98044000Y-96774000D01*
X98044000Y-96774000D02*
X100838000Y-96774000D01*
X99568000Y-102362000D02*
X101092000Y-102362000D01*
X96012000Y-98806000D02*
X99568000Y-102362000D01*
X93980000Y-117475000D02*
X90170000Y-121285000D01*
X90170000Y-121285000D02*
X90170000Y-121920000D01*
X101600000Y-73660000D02*
X101600000Y-76200000D01*
X109236000Y-120650000D02*
X109220000Y-120634000D01*
X114808000Y-89662000D02*
X114046000Y-88900000D01*
X114046000Y-88900000D02*
X110490000Y-88900000D01*
X127508000Y-79756000D02*
X127492000Y-79740000D01*
X127492000Y-79740000D02*
X126238000Y-79740000D01*
X129286000Y-79740000D02*
X129270000Y-79740000D01*
X129270000Y-79740000D02*
X127762000Y-78232000D01*
X205994000Y-111760000D02*
X205994000Y-105934000D01*
X205994000Y-105934000D02*
X206010000Y-105918000D01*
X205867000Y-111887000D02*
X200296000Y-111887000D01*
X205994000Y-111760000D02*
X205867000Y-111887000D01*
X204470000Y-109982000D02*
X204470000Y-103886000D01*
X204724000Y-103632000D02*
X206010000Y-103632000D01*
X204470000Y-103886000D02*
X204724000Y-103632000D01*
X203835000Y-110617000D02*
X200296000Y-110617000D01*
X204470000Y-109982000D02*
X203835000Y-110617000D01*
X205486000Y-101854000D02*
X205486000Y-100854000D01*
X205486000Y-100854000D02*
X206010000Y-100330000D01*
X200296000Y-109347000D02*
X203581000Y-109347000D01*
X203962000Y-103378000D02*
X205486000Y-101854000D01*
X203962000Y-108966000D02*
X203962000Y-103378000D01*
X203581000Y-109347000D02*
X203962000Y-108966000D01*
X203962000Y-101854000D02*
X203962000Y-100092000D01*
X203962000Y-100092000D02*
X206010000Y-98044000D01*
X200296000Y-108077000D02*
X203327000Y-108077000D01*
X203454000Y-102362000D02*
X203962000Y-101854000D01*
X203454000Y-107950000D02*
X203454000Y-102362000D01*
X203327000Y-108077000D02*
X203454000Y-107950000D01*
X203962000Y-96266000D02*
X205486000Y-94742000D01*
X205486000Y-94742000D02*
X206010000Y-94742000D01*
X200296000Y-106807000D02*
X202819000Y-106807000D01*
X202946000Y-97282000D02*
X203962000Y-96266000D01*
X202946000Y-106680000D02*
X202946000Y-97282000D01*
X202819000Y-106807000D02*
X202946000Y-106680000D01*
X202438000Y-97282000D02*
X202438000Y-96028000D01*
X202438000Y-96028000D02*
X206010000Y-92456000D01*
X200296000Y-105537000D02*
X202311000Y-105537000D01*
X202438000Y-105410000D02*
X202438000Y-97282000D01*
X202438000Y-97282000D02*
X202438000Y-96266000D01*
X202311000Y-105537000D02*
X202438000Y-105410000D01*
D36*
X198088000Y-84328000D02*
X198088000Y-80962000D01*
X198088000Y-80962000D02*
X196882000Y-79756000D01*
D39*
X198088000Y-84328000D02*
X201930000Y-84328000D01*
D34*
X207264000Y-88011000D02*
X207248000Y-88027000D01*
X207248000Y-88027000D02*
X207248000Y-89154000D01*
X156210000Y-118808500D02*
X156765500Y-118253000D01*
X156765500Y-118253000D02*
X156765500Y-117538500D01*
X181102000Y-94488000D02*
X181102000Y-93488000D01*
X181102000Y-93488000D02*
X181086000Y-93472000D01*
D37*
X169164000Y-114808000D02*
X170450000Y-113522000D01*
X170450000Y-113522000D02*
X170450000Y-112776000D01*
D39*
X98270000Y-124460000D02*
X102870000Y-124460000D01*
D35*
X111236000Y-120650000D02*
X112522000Y-120650000D01*
D37*
X125730000Y-118110000D02*
X127000000Y-116840000D01*
X126365000Y-110109000D02*
X124570000Y-110109000D01*
X127000000Y-110744000D02*
X126365000Y-110109000D01*
X127000000Y-116840000D02*
X127000000Y-110744000D01*
D38*
X132842000Y-121936000D02*
X131810000Y-120904000D01*
X128778000Y-120904000D02*
X127508000Y-122174000D01*
X131810000Y-120904000D02*
X128778000Y-120904000D01*
X127508000Y-122174000D02*
X127508000Y-122936000D01*
D34*
X124968000Y-122936000D02*
X124968000Y-123783600D01*
X124968000Y-123783600D02*
X126508000Y-125323600D01*
D37*
X123190000Y-118110000D02*
X124460000Y-116840000D01*
X124460000Y-116840000D02*
X124460000Y-111489000D01*
X124460000Y-111489000D02*
X124570000Y-111379000D01*
X168910000Y-122936000D02*
X168910000Y-119888000D01*
X193040000Y-119634000D02*
X193040000Y-112031000D01*
X168910000Y-119888000D02*
X169164000Y-119634000D01*
X193040000Y-112031000D02*
X192896000Y-111887000D01*
X128778000Y-119634000D02*
X122928002Y-119634000D01*
X136906000Y-119634000D02*
X128778000Y-119634000D01*
X138430000Y-118110000D02*
X136906000Y-119634000D01*
X125222000Y-91948000D02*
X124714000Y-91948000D01*
X125730000Y-92456000D02*
X125222000Y-91948000D01*
X125730000Y-93980000D02*
X125730000Y-92456000D01*
X125476000Y-94234000D02*
X125730000Y-93980000D01*
X125476000Y-96774000D02*
X125476000Y-94234000D01*
X124206000Y-98044000D02*
X125476000Y-96774000D01*
X122174000Y-98044000D02*
X124206000Y-98044000D01*
X121920000Y-98298000D02*
X122174000Y-98044000D01*
X121920000Y-118625998D02*
X121920000Y-98298000D01*
X122928002Y-119634000D02*
X121920000Y-118625998D01*
X133350000Y-118110000D02*
X134620000Y-116840000D01*
X139700000Y-116840000D02*
X140970000Y-118110000D01*
X134620000Y-116840000D02*
X139700000Y-116840000D01*
X166370000Y-122936000D02*
X166370000Y-119634000D01*
X190881000Y-110617000D02*
X192896000Y-110617000D01*
X190500000Y-110998000D02*
X190881000Y-110617000D01*
X190500000Y-116840000D02*
X190500000Y-110998000D01*
X128778000Y-120153998D02*
X122693998Y-120153998D01*
X138926002Y-120153998D02*
X128778000Y-120153998D01*
X140970000Y-118110000D02*
X138926002Y-120153998D01*
X124968000Y-93726000D02*
X124714000Y-93472000D01*
X124968000Y-96520000D02*
X124968000Y-93726000D01*
X123952000Y-97536000D02*
X124968000Y-96520000D01*
X121920000Y-97536000D02*
X123952000Y-97536000D01*
X121412000Y-98044000D02*
X121920000Y-97536000D01*
X121412000Y-118872000D02*
X121412000Y-98044000D01*
X122693998Y-120153998D02*
X121412000Y-118872000D01*
X142240000Y-124714000D02*
X147701000Y-124714000D01*
X147701000Y-124714000D02*
X150241000Y-122174000D01*
X150241000Y-122174000D02*
X151066500Y-122174000D01*
X151066500Y-122174000D02*
X152082500Y-123190000D01*
X140970000Y-123444000D02*
X142240000Y-124714000D01*
X190627000Y-106807000D02*
X192896000Y-106807000D01*
X184150000Y-113284000D02*
X190627000Y-106807000D01*
X184150000Y-116332000D02*
X184150000Y-113284000D01*
X140970000Y-122936000D02*
X140970000Y-123444000D01*
X196850000Y-106680000D02*
X196723000Y-106807000D01*
X196723000Y-106807000D02*
X192896000Y-106807000D01*
X148590000Y-125222000D02*
X150622000Y-123190000D01*
X140970000Y-125222000D02*
X148590000Y-125222000D01*
X138684000Y-122936000D02*
X140970000Y-125222000D01*
X182626000Y-113538000D02*
X190627000Y-105537000D01*
X182626000Y-116332000D02*
X182626000Y-113538000D01*
X138430000Y-122936000D02*
X138684000Y-122936000D01*
X183642000Y-100266000D02*
X182372000Y-101536000D01*
X182372000Y-101536000D02*
X182372000Y-102870000D01*
X182372000Y-102870000D02*
X183134000Y-103632000D01*
X183134000Y-103632000D02*
X188722000Y-103632000D01*
X188722000Y-103632000D02*
X190627000Y-105537000D01*
X190627000Y-105537000D02*
X192896000Y-105537000D01*
X157734000Y-122301000D02*
X157734000Y-122745500D01*
X156210000Y-111569500D02*
X156210000Y-115316000D01*
X156210000Y-115316000D02*
X157734000Y-116840000D01*
X157734000Y-116840000D02*
X157734000Y-122301000D01*
X185420000Y-120904000D02*
X185674000Y-120904000D01*
X197485000Y-109347000D02*
X197612000Y-109474000D01*
X197612000Y-109474000D02*
X197612000Y-113792000D01*
X197612000Y-113792000D02*
X197358000Y-114046000D01*
X197358000Y-114046000D02*
X195834000Y-114046000D01*
X195834000Y-114046000D02*
X195580000Y-114300000D01*
X195580000Y-114300000D02*
X195580000Y-116840000D01*
X192896000Y-109347000D02*
X197485000Y-109347000D01*
X182626000Y-120904000D02*
X185420000Y-120904000D01*
X182626000Y-120904000D02*
X181610000Y-121920000D01*
X195580000Y-120396000D02*
X195580000Y-116840000D01*
X185674000Y-120904000D02*
X185928000Y-121158000D01*
X181610000Y-122936000D02*
X181610000Y-121920000D01*
X158750000Y-111569500D02*
X158750000Y-123825000D01*
X197993000Y-108077000D02*
X198120000Y-108204000D01*
X192896000Y-108077000D02*
X197993000Y-108077000D01*
X180848000Y-120396000D02*
X181102000Y-120650000D01*
X179070000Y-120650000D02*
X179070000Y-122936000D01*
X179070000Y-120650000D02*
X179324000Y-120396000D01*
X179324000Y-120396000D02*
X180848000Y-120396000D01*
X198120000Y-116840000D02*
X198120000Y-108204000D01*
X138938000Y-77724000D02*
X138684000Y-77724000D01*
X138684000Y-77724000D02*
X135890000Y-74930000D01*
X161290000Y-86487000D02*
X158496000Y-83693000D01*
X158496000Y-83693000D02*
X154813000Y-83693000D01*
X154813000Y-83693000D02*
X146050000Y-74930000D01*
D34*
X177546000Y-73898000D02*
X177546000Y-76708000D01*
X159258000Y-73898000D02*
X159258000Y-76708000D01*
D37*
X131970000Y-110109000D02*
X130429000Y-110109000D01*
X130429000Y-110109000D02*
X128270000Y-107950000D01*
X128270000Y-107950000D02*
X128270000Y-104902000D01*
X131970000Y-108839000D02*
X130175000Y-108839000D01*
X130175000Y-108839000D02*
X129286000Y-107950000D01*
X129286000Y-107950000D02*
X129286000Y-103886000D01*
X129286000Y-103886000D02*
X128270000Y-102870000D01*
D40*
X108540000Y-105400386D02*
X105153887Y-108786499D01*
X105153887Y-108786499D02*
X96191501Y-108786499D01*
X96191501Y-108786499D02*
X95504000Y-109474000D01*
X108540000Y-101355614D02*
X108540000Y-105400386D01*
X104222000Y-97037614D02*
X108540000Y-101355614D01*
X104222000Y-94976832D02*
X104222000Y-97037614D01*
X99880259Y-90422959D02*
X99880259Y-90635091D01*
X99880259Y-90635091D02*
X104222000Y-94976832D01*
X107360000Y-104911614D02*
X104665113Y-107606501D01*
X104665113Y-107606501D02*
X96191501Y-107606501D01*
X96191501Y-107606501D02*
X95504000Y-106919000D01*
X107360000Y-101844386D02*
X107360000Y-104911614D01*
X103042000Y-97526386D02*
X107360000Y-101844386D01*
X103042000Y-95465604D02*
X103042000Y-97526386D01*
X98833741Y-91469477D02*
X99045873Y-91469477D01*
X99045873Y-91469477D02*
X103042000Y-95465604D01*
D37*
G36*
X116824012Y-71387406D02*
X116826760Y-71401221D01*
X116826760Y-80933000D01*
X116546750Y-80933000D01*
X116390500Y-81089250D01*
X116390500Y-81808000D01*
X116473000Y-81808000D01*
X116473000Y-82308000D01*
X116390500Y-82308000D01*
X116390500Y-82453000D01*
X115765500Y-82453000D01*
X115765500Y-82308000D01*
X114984250Y-82308000D01*
X114828000Y-82464250D01*
X114828000Y-82489437D01*
X114819848Y-82501368D01*
X114810000Y-82550000D01*
X114810000Y-84131000D01*
X114416872Y-84130657D01*
X113690714Y-84430700D01*
X113389889Y-84731000D01*
X111654036Y-84731000D01*
X111504000Y-84580702D01*
X111504000Y-82804000D01*
X111495451Y-82758568D01*
X111486000Y-82743880D01*
X111486000Y-82718250D01*
X111329750Y-82562000D01*
X110548500Y-82562000D01*
X110548500Y-82679000D01*
X109923500Y-82679000D01*
X109923500Y-82562000D01*
X109142250Y-82562000D01*
X108986000Y-82718250D01*
X108986000Y-82743437D01*
X108977848Y-82755368D01*
X108968000Y-82804000D01*
X108968000Y-84581151D01*
X108562652Y-84985791D01*
X108261343Y-85711425D01*
X108260663Y-86490347D01*
X107916505Y-86834505D01*
X107672636Y-87199481D01*
X107587000Y-87630000D01*
X107587000Y-94234000D01*
X107672636Y-94664519D01*
X107765609Y-94803663D01*
X107916505Y-95029495D01*
X108261333Y-95374323D01*
X108260657Y-96149128D01*
X108560700Y-96875286D01*
X109115791Y-97431348D01*
X109841425Y-97732657D01*
X110627128Y-97733343D01*
X111353286Y-97433300D01*
X111654111Y-97133000D01*
X113389964Y-97133000D01*
X113687791Y-97431348D01*
X114413425Y-97732657D01*
X114703000Y-97732910D01*
X114703000Y-109920456D01*
X112194456Y-112429000D01*
X103886000Y-112429000D01*
X103072797Y-112590756D01*
X102383398Y-113051398D01*
X97811398Y-117623398D01*
X97350756Y-118312798D01*
X97189000Y-119126000D01*
X97350756Y-119939202D01*
X97811398Y-120628602D01*
X98500798Y-121089244D01*
X99314000Y-121251000D01*
X99978865Y-121118750D01*
X108111000Y-121118750D01*
X108111000Y-121399320D01*
X108206151Y-121629034D01*
X108381966Y-121804850D01*
X108611680Y-121900000D01*
X108829750Y-121900000D01*
X108986000Y-121743750D01*
X108986000Y-120962500D01*
X108267250Y-120962500D01*
X108111000Y-121118750D01*
X99978865Y-121118750D01*
X100127202Y-121089244D01*
X100816602Y-120628602D01*
X101544524Y-119900680D01*
X108111000Y-119900680D01*
X108111000Y-120181250D01*
X108267250Y-120337500D01*
X108986000Y-120337500D01*
X108986000Y-119556250D01*
X108936750Y-119507000D01*
X109476000Y-119507000D01*
X109476000Y-121793000D01*
X109484549Y-121838432D01*
X109511399Y-121880159D01*
X109552368Y-121908152D01*
X109601000Y-121918000D01*
X112649000Y-121918000D01*
X112694432Y-121909451D01*
X112736159Y-121882601D01*
X112741222Y-121875192D01*
X112764599Y-121875212D01*
X113215000Y-121689110D01*
X113559899Y-121344813D01*
X113746787Y-120894737D01*
X113747212Y-120407401D01*
X113561110Y-119957000D01*
X113216813Y-119612101D01*
X112766737Y-119425213D01*
X112742044Y-119425191D01*
X112738601Y-119419841D01*
X112697632Y-119391848D01*
X112649000Y-119382000D01*
X109601000Y-119382000D01*
X109555568Y-119390549D01*
X109513841Y-119417399D01*
X109485848Y-119458368D01*
X109476000Y-119507000D01*
X108936750Y-119507000D01*
X108829750Y-119400000D01*
X108611680Y-119400000D01*
X108381966Y-119495150D01*
X108206151Y-119670966D01*
X108111000Y-119900680D01*
X101544524Y-119900680D01*
X104766204Y-116679000D01*
X112268000Y-116679000D01*
X113081202Y-116517244D01*
X113770602Y-116056602D01*
X114231244Y-115367202D01*
X114393000Y-114554000D01*
X114320919Y-114191625D01*
X116826760Y-111685784D01*
X116826760Y-125702779D01*
X116824012Y-125716594D01*
X116434193Y-126300000D01*
X103867650Y-126300000D01*
X104372602Y-125962602D01*
X104833244Y-125273202D01*
X104995000Y-124460000D01*
X104833244Y-123646798D01*
X104372602Y-122957398D01*
X103683202Y-122496756D01*
X102870000Y-122335000D01*
X98270000Y-122335000D01*
X97456798Y-122496756D01*
X96767398Y-122957398D01*
X96306756Y-123646798D01*
X96145000Y-124460000D01*
X96306756Y-125273202D01*
X96767398Y-125962602D01*
X97272350Y-126300000D01*
X87060000Y-126300000D01*
X87060000Y-124991250D01*
X93495000Y-124991250D01*
X93495000Y-125434320D01*
X93590151Y-125664034D01*
X93765966Y-125839850D01*
X93995680Y-125935000D01*
X94288750Y-125935000D01*
X94445000Y-125778750D01*
X94445000Y-124835000D01*
X95095000Y-124835000D01*
X95095000Y-125778750D01*
X95251250Y-125935000D01*
X95544320Y-125935000D01*
X95774034Y-125839850D01*
X95949849Y-125664034D01*
X96045000Y-125434320D01*
X96045000Y-124991250D01*
X95888750Y-124835000D01*
X95095000Y-124835000D01*
X94445000Y-124835000D01*
X93651250Y-124835000D01*
X93495000Y-124991250D01*
X87060000Y-124991250D01*
X87060000Y-123485680D01*
X93495000Y-123485680D01*
X93495000Y-123928750D01*
X93651250Y-124085000D01*
X94445000Y-124085000D01*
X94445000Y-123141250D01*
X95095000Y-123141250D01*
X95095000Y-124085000D01*
X95888750Y-124085000D01*
X96045000Y-123928750D01*
X96045000Y-123485680D01*
X95949849Y-123255966D01*
X95774034Y-123080150D01*
X95544320Y-122985000D01*
X95251250Y-122985000D01*
X95095000Y-123141250D01*
X94445000Y-123141250D01*
X94288750Y-122985000D01*
X93995680Y-122985000D01*
X93765966Y-123080150D01*
X93590151Y-123255966D01*
X93495000Y-123485680D01*
X87060000Y-123485680D01*
X87060000Y-115004540D01*
X87142606Y-115004540D01*
X87488224Y-115841000D01*
X88127633Y-116481527D01*
X88963489Y-116828604D01*
X89868540Y-116829394D01*
X90705000Y-116483776D01*
X91345527Y-115844367D01*
X91692604Y-115008511D01*
X91693394Y-114103460D01*
X91347776Y-113267000D01*
X90708367Y-112626473D01*
X89872511Y-112279396D01*
X88967460Y-112278606D01*
X88131000Y-112624224D01*
X87490473Y-113263633D01*
X87143396Y-114099489D01*
X87142606Y-115004540D01*
X87060000Y-115004540D01*
X87060000Y-107161599D01*
X94278788Y-107161599D01*
X94464890Y-107612000D01*
X94809187Y-107956899D01*
X95172466Y-108107746D01*
X95261220Y-108196500D01*
X95171987Y-108285733D01*
X94811000Y-108434890D01*
X94466101Y-108779187D01*
X94279213Y-109229263D01*
X94278788Y-109716599D01*
X94464890Y-110167000D01*
X94809187Y-110511899D01*
X95259263Y-110698787D01*
X95746599Y-110699212D01*
X96197000Y-110513110D01*
X96541899Y-110168813D01*
X96669507Y-109861499D01*
X105153887Y-109861499D01*
X105565272Y-109779669D01*
X105914027Y-109546639D01*
X109300140Y-106160526D01*
X109456958Y-105925830D01*
X109533170Y-105811771D01*
X109615000Y-105400386D01*
X109615000Y-101355614D01*
X109533170Y-100944229D01*
X109300140Y-100595474D01*
X105297000Y-96592334D01*
X105297000Y-94976832D01*
X105215170Y-94565447D01*
X104982140Y-94216692D01*
X101105332Y-90339884D01*
X101105471Y-90180360D01*
X100919369Y-89729959D01*
X100575072Y-89385060D01*
X100124996Y-89198172D01*
X99637660Y-89197747D01*
X99187259Y-89383849D01*
X98842360Y-89728146D01*
X98655472Y-90178222D01*
X98655414Y-90244321D01*
X98591142Y-90244265D01*
X98140741Y-90430367D01*
X97795842Y-90774664D01*
X97608954Y-91224740D01*
X97608529Y-91712076D01*
X97794631Y-92162477D01*
X98138928Y-92507376D01*
X98589004Y-92694264D01*
X98750521Y-92694405D01*
X101967000Y-95910884D01*
X101967000Y-97526386D01*
X102048830Y-97937771D01*
X102165656Y-98112614D01*
X102281860Y-98286526D01*
X106285000Y-102289666D01*
X106285000Y-104466334D01*
X104219833Y-106531501D01*
X96669341Y-106531501D01*
X96543110Y-106226000D01*
X96198813Y-105881101D01*
X95748737Y-105694213D01*
X95261401Y-105693788D01*
X94811000Y-105879890D01*
X94466101Y-106224187D01*
X94279213Y-106674263D01*
X94278788Y-107161599D01*
X87060000Y-107161599D01*
X87060000Y-102304540D01*
X87142606Y-102304540D01*
X87488224Y-103141000D01*
X88127633Y-103781527D01*
X88963489Y-104128604D01*
X89868540Y-104129394D01*
X90705000Y-103783776D01*
X91345527Y-103144367D01*
X91692604Y-102308511D01*
X91693394Y-101403460D01*
X91347776Y-100567000D01*
X90708367Y-99926473D01*
X89872511Y-99579396D01*
X88967460Y-99578606D01*
X88131000Y-99924224D01*
X87490473Y-100563633D01*
X87143396Y-101399489D01*
X87142606Y-102304540D01*
X87060000Y-102304540D01*
X87060000Y-81687680D01*
X108986000Y-81687680D01*
X108986000Y-81905750D01*
X109142250Y-82062000D01*
X109923500Y-82062000D01*
X109923500Y-81343250D01*
X110548500Y-81343250D01*
X110548500Y-82062000D01*
X111329750Y-82062000D01*
X111486000Y-81905750D01*
X111486000Y-81687680D01*
X111390850Y-81457966D01*
X111366564Y-81433680D01*
X114828000Y-81433680D01*
X114828000Y-81651750D01*
X114984250Y-81808000D01*
X115765500Y-81808000D01*
X115765500Y-81089250D01*
X115609250Y-80933000D01*
X115328680Y-80933000D01*
X115098966Y-81028151D01*
X114923150Y-81203966D01*
X114828000Y-81433680D01*
X111366564Y-81433680D01*
X111215034Y-81282151D01*
X110985320Y-81187000D01*
X110704750Y-81187000D01*
X110548500Y-81343250D01*
X109923500Y-81343250D01*
X109767250Y-81187000D01*
X109486680Y-81187000D01*
X109256966Y-81282151D01*
X109081150Y-81457966D01*
X108986000Y-81687680D01*
X87060000Y-81687680D01*
X87060000Y-70804000D01*
X116434193Y-70804000D01*
X116824012Y-71387406D01*
X116824012Y-71387406D01*
G37*
X116824012Y-71387406D02*
X116826760Y-71401221D01*
X116826760Y-80933000D01*
X116546750Y-80933000D01*
X116390500Y-81089250D01*
X116390500Y-81808000D01*
X116473000Y-81808000D01*
X116473000Y-82308000D01*
X116390500Y-82308000D01*
X116390500Y-82453000D01*
X115765500Y-82453000D01*
X115765500Y-82308000D01*
X114984250Y-82308000D01*
X114828000Y-82464250D01*
X114828000Y-82489437D01*
X114819848Y-82501368D01*
X114810000Y-82550000D01*
X114810000Y-84131000D01*
X114416872Y-84130657D01*
X113690714Y-84430700D01*
X113389889Y-84731000D01*
X111654036Y-84731000D01*
X111504000Y-84580702D01*
X111504000Y-82804000D01*
X111495451Y-82758568D01*
X111486000Y-82743880D01*
X111486000Y-82718250D01*
X111329750Y-82562000D01*
X110548500Y-82562000D01*
X110548500Y-82679000D01*
X109923500Y-82679000D01*
X109923500Y-82562000D01*
X109142250Y-82562000D01*
X108986000Y-82718250D01*
X108986000Y-82743437D01*
X108977848Y-82755368D01*
X108968000Y-82804000D01*
X108968000Y-84581151D01*
X108562652Y-84985791D01*
X108261343Y-85711425D01*
X108260663Y-86490347D01*
X107916505Y-86834505D01*
X107672636Y-87199481D01*
X107587000Y-87630000D01*
X107587000Y-94234000D01*
X107672636Y-94664519D01*
X107765609Y-94803663D01*
X107916505Y-95029495D01*
X108261333Y-95374323D01*
X108260657Y-96149128D01*
X108560700Y-96875286D01*
X109115791Y-97431348D01*
X109841425Y-97732657D01*
X110627128Y-97733343D01*
X111353286Y-97433300D01*
X111654111Y-97133000D01*
X113389964Y-97133000D01*
X113687791Y-97431348D01*
X114413425Y-97732657D01*
X114703000Y-97732910D01*
X114703000Y-109920456D01*
X112194456Y-112429000D01*
X103886000Y-112429000D01*
X103072797Y-112590756D01*
X102383398Y-113051398D01*
X97811398Y-117623398D01*
X97350756Y-118312798D01*
X97189000Y-119126000D01*
X97350756Y-119939202D01*
X97811398Y-120628602D01*
X98500798Y-121089244D01*
X99314000Y-121251000D01*
X99978865Y-121118750D01*
X108111000Y-121118750D01*
X108111000Y-121399320D01*
X108206151Y-121629034D01*
X108381966Y-121804850D01*
X108611680Y-121900000D01*
X108829750Y-121900000D01*
X108986000Y-121743750D01*
X108986000Y-120962500D01*
X108267250Y-120962500D01*
X108111000Y-121118750D01*
X99978865Y-121118750D01*
X100127202Y-121089244D01*
X100816602Y-120628602D01*
X101544524Y-119900680D01*
X108111000Y-119900680D01*
X108111000Y-120181250D01*
X108267250Y-120337500D01*
X108986000Y-120337500D01*
X108986000Y-119556250D01*
X108936750Y-119507000D01*
X109476000Y-119507000D01*
X109476000Y-121793000D01*
X109484549Y-121838432D01*
X109511399Y-121880159D01*
X109552368Y-121908152D01*
X109601000Y-121918000D01*
X112649000Y-121918000D01*
X112694432Y-121909451D01*
X112736159Y-121882601D01*
X112741222Y-121875192D01*
X112764599Y-121875212D01*
X113215000Y-121689110D01*
X113559899Y-121344813D01*
X113746787Y-120894737D01*
X113747212Y-120407401D01*
X113561110Y-119957000D01*
X113216813Y-119612101D01*
X112766737Y-119425213D01*
X112742044Y-119425191D01*
X112738601Y-119419841D01*
X112697632Y-119391848D01*
X112649000Y-119382000D01*
X109601000Y-119382000D01*
X109555568Y-119390549D01*
X109513841Y-119417399D01*
X109485848Y-119458368D01*
X109476000Y-119507000D01*
X108936750Y-119507000D01*
X108829750Y-119400000D01*
X108611680Y-119400000D01*
X108381966Y-119495150D01*
X108206151Y-119670966D01*
X108111000Y-119900680D01*
X101544524Y-119900680D01*
X104766204Y-116679000D01*
X112268000Y-116679000D01*
X113081202Y-116517244D01*
X113770602Y-116056602D01*
X114231244Y-115367202D01*
X114393000Y-114554000D01*
X114320919Y-114191625D01*
X116826760Y-111685784D01*
X116826760Y-125702779D01*
X116824012Y-125716594D01*
X116434193Y-126300000D01*
X103867650Y-126300000D01*
X104372602Y-125962602D01*
X104833244Y-125273202D01*
X104995000Y-124460000D01*
X104833244Y-123646798D01*
X104372602Y-122957398D01*
X103683202Y-122496756D01*
X102870000Y-122335000D01*
X98270000Y-122335000D01*
X97456798Y-122496756D01*
X96767398Y-122957398D01*
X96306756Y-123646798D01*
X96145000Y-124460000D01*
X96306756Y-125273202D01*
X96767398Y-125962602D01*
X97272350Y-126300000D01*
X87060000Y-126300000D01*
X87060000Y-124991250D01*
X93495000Y-124991250D01*
X93495000Y-125434320D01*
X93590151Y-125664034D01*
X93765966Y-125839850D01*
X93995680Y-125935000D01*
X94288750Y-125935000D01*
X94445000Y-125778750D01*
X94445000Y-124835000D01*
X95095000Y-124835000D01*
X95095000Y-125778750D01*
X95251250Y-125935000D01*
X95544320Y-125935000D01*
X95774034Y-125839850D01*
X95949849Y-125664034D01*
X96045000Y-125434320D01*
X96045000Y-124991250D01*
X95888750Y-124835000D01*
X95095000Y-124835000D01*
X94445000Y-124835000D01*
X93651250Y-124835000D01*
X93495000Y-124991250D01*
X87060000Y-124991250D01*
X87060000Y-123485680D01*
X93495000Y-123485680D01*
X93495000Y-123928750D01*
X93651250Y-124085000D01*
X94445000Y-124085000D01*
X94445000Y-123141250D01*
X95095000Y-123141250D01*
X95095000Y-124085000D01*
X95888750Y-124085000D01*
X96045000Y-123928750D01*
X96045000Y-123485680D01*
X95949849Y-123255966D01*
X95774034Y-123080150D01*
X95544320Y-122985000D01*
X95251250Y-122985000D01*
X95095000Y-123141250D01*
X94445000Y-123141250D01*
X94288750Y-122985000D01*
X93995680Y-122985000D01*
X93765966Y-123080150D01*
X93590151Y-123255966D01*
X93495000Y-123485680D01*
X87060000Y-123485680D01*
X87060000Y-115004540D01*
X87142606Y-115004540D01*
X87488224Y-115841000D01*
X88127633Y-116481527D01*
X88963489Y-116828604D01*
X89868540Y-116829394D01*
X90705000Y-116483776D01*
X91345527Y-115844367D01*
X91692604Y-115008511D01*
X91693394Y-114103460D01*
X91347776Y-113267000D01*
X90708367Y-112626473D01*
X89872511Y-112279396D01*
X88967460Y-112278606D01*
X88131000Y-112624224D01*
X87490473Y-113263633D01*
X87143396Y-114099489D01*
X87142606Y-115004540D01*
X87060000Y-115004540D01*
X87060000Y-107161599D01*
X94278788Y-107161599D01*
X94464890Y-107612000D01*
X94809187Y-107956899D01*
X95172466Y-108107746D01*
X95261220Y-108196500D01*
X95171987Y-108285733D01*
X94811000Y-108434890D01*
X94466101Y-108779187D01*
X94279213Y-109229263D01*
X94278788Y-109716599D01*
X94464890Y-110167000D01*
X94809187Y-110511899D01*
X95259263Y-110698787D01*
X95746599Y-110699212D01*
X96197000Y-110513110D01*
X96541899Y-110168813D01*
X96669507Y-109861499D01*
X105153887Y-109861499D01*
X105565272Y-109779669D01*
X105914027Y-109546639D01*
X109300140Y-106160526D01*
X109456958Y-105925830D01*
X109533170Y-105811771D01*
X109615000Y-105400386D01*
X109615000Y-101355614D01*
X109533170Y-100944229D01*
X109300140Y-100595474D01*
X105297000Y-96592334D01*
X105297000Y-94976832D01*
X105215170Y-94565447D01*
X104982140Y-94216692D01*
X101105332Y-90339884D01*
X101105471Y-90180360D01*
X100919369Y-89729959D01*
X100575072Y-89385060D01*
X100124996Y-89198172D01*
X99637660Y-89197747D01*
X99187259Y-89383849D01*
X98842360Y-89728146D01*
X98655472Y-90178222D01*
X98655414Y-90244321D01*
X98591142Y-90244265D01*
X98140741Y-90430367D01*
X97795842Y-90774664D01*
X97608954Y-91224740D01*
X97608529Y-91712076D01*
X97794631Y-92162477D01*
X98138928Y-92507376D01*
X98589004Y-92694264D01*
X98750521Y-92694405D01*
X101967000Y-95910884D01*
X101967000Y-97526386D01*
X102048830Y-97937771D01*
X102165656Y-98112614D01*
X102281860Y-98286526D01*
X106285000Y-102289666D01*
X106285000Y-104466334D01*
X104219833Y-106531501D01*
X96669341Y-106531501D01*
X96543110Y-106226000D01*
X96198813Y-105881101D01*
X95748737Y-105694213D01*
X95261401Y-105693788D01*
X94811000Y-105879890D01*
X94466101Y-106224187D01*
X94279213Y-106674263D01*
X94278788Y-107161599D01*
X87060000Y-107161599D01*
X87060000Y-102304540D01*
X87142606Y-102304540D01*
X87488224Y-103141000D01*
X88127633Y-103781527D01*
X88963489Y-104128604D01*
X89868540Y-104129394D01*
X90705000Y-103783776D01*
X91345527Y-103144367D01*
X91692604Y-102308511D01*
X91693394Y-101403460D01*
X91347776Y-100567000D01*
X90708367Y-99926473D01*
X89872511Y-99579396D01*
X88967460Y-99578606D01*
X88131000Y-99924224D01*
X87490473Y-100563633D01*
X87143396Y-101399489D01*
X87142606Y-102304540D01*
X87060000Y-102304540D01*
X87060000Y-81687680D01*
X108986000Y-81687680D01*
X108986000Y-81905750D01*
X109142250Y-82062000D01*
X109923500Y-82062000D01*
X109923500Y-81343250D01*
X110548500Y-81343250D01*
X110548500Y-82062000D01*
X111329750Y-82062000D01*
X111486000Y-81905750D01*
X111486000Y-81687680D01*
X111390850Y-81457966D01*
X111366564Y-81433680D01*
X114828000Y-81433680D01*
X114828000Y-81651750D01*
X114984250Y-81808000D01*
X115765500Y-81808000D01*
X115765500Y-81089250D01*
X115609250Y-80933000D01*
X115328680Y-80933000D01*
X115098966Y-81028151D01*
X114923150Y-81203966D01*
X114828000Y-81433680D01*
X111366564Y-81433680D01*
X111215034Y-81282151D01*
X110985320Y-81187000D01*
X110704750Y-81187000D01*
X110548500Y-81343250D01*
X109923500Y-81343250D01*
X109767250Y-81187000D01*
X109486680Y-81187000D01*
X109256966Y-81282151D01*
X109081150Y-81457966D01*
X108986000Y-81687680D01*
X87060000Y-81687680D01*
X87060000Y-70804000D01*
X116434193Y-70804000D01*
X116824012Y-71387406D01*
G36*
X113687791Y-87779348D02*
X114413425Y-88080657D01*
X115088516Y-88081246D01*
X115099399Y-88098159D01*
X115140368Y-88126152D01*
X115189000Y-88136000D01*
X116826760Y-88136000D01*
X116826760Y-90585000D01*
X116546750Y-90585000D01*
X116390500Y-90741250D01*
X116390500Y-91460000D01*
X116473000Y-91460000D01*
X116473000Y-91960000D01*
X116390500Y-91960000D01*
X116390500Y-92105000D01*
X115765500Y-92105000D01*
X115765500Y-91960000D01*
X114984250Y-91960000D01*
X114828000Y-92116250D01*
X114828000Y-92141437D01*
X114819848Y-92153368D01*
X114810000Y-92202000D01*
X114810000Y-93783000D01*
X114416872Y-93782657D01*
X113690714Y-94082700D01*
X113389889Y-94383000D01*
X111654036Y-94383000D01*
X111504000Y-94232702D01*
X111504000Y-92202000D01*
X111495451Y-92156568D01*
X111486000Y-92141880D01*
X111486000Y-92116250D01*
X111329750Y-91960000D01*
X110548500Y-91960000D01*
X110548500Y-92105000D01*
X109923500Y-92105000D01*
X109923500Y-91960000D01*
X109841000Y-91960000D01*
X109841000Y-91460000D01*
X109923500Y-91460000D01*
X109923500Y-90741250D01*
X110548500Y-90741250D01*
X110548500Y-91460000D01*
X111329750Y-91460000D01*
X111486000Y-91303750D01*
X111486000Y-91085680D01*
X114828000Y-91085680D01*
X114828000Y-91303750D01*
X114984250Y-91460000D01*
X115765500Y-91460000D01*
X115765500Y-90741250D01*
X115609250Y-90585000D01*
X115328680Y-90585000D01*
X115098966Y-90680151D01*
X114923150Y-90855966D01*
X114828000Y-91085680D01*
X111486000Y-91085680D01*
X111390850Y-90855966D01*
X111215034Y-90680151D01*
X110985320Y-90585000D01*
X110704750Y-90585000D01*
X110548500Y-90741250D01*
X109923500Y-90741250D01*
X109837000Y-90654750D01*
X109837000Y-88095990D01*
X109852323Y-88080667D01*
X110627128Y-88081343D01*
X111353286Y-87781300D01*
X111654111Y-87481000D01*
X113389964Y-87481000D01*
X113687791Y-87779348D01*
X113687791Y-87779348D01*
G37*
X113687791Y-87779348D02*
X114413425Y-88080657D01*
X115088516Y-88081246D01*
X115099399Y-88098159D01*
X115140368Y-88126152D01*
X115189000Y-88136000D01*
X116826760Y-88136000D01*
X116826760Y-90585000D01*
X116546750Y-90585000D01*
X116390500Y-90741250D01*
X116390500Y-91460000D01*
X116473000Y-91460000D01*
X116473000Y-91960000D01*
X116390500Y-91960000D01*
X116390500Y-92105000D01*
X115765500Y-92105000D01*
X115765500Y-91960000D01*
X114984250Y-91960000D01*
X114828000Y-92116250D01*
X114828000Y-92141437D01*
X114819848Y-92153368D01*
X114810000Y-92202000D01*
X114810000Y-93783000D01*
X114416872Y-93782657D01*
X113690714Y-94082700D01*
X113389889Y-94383000D01*
X111654036Y-94383000D01*
X111504000Y-94232702D01*
X111504000Y-92202000D01*
X111495451Y-92156568D01*
X111486000Y-92141880D01*
X111486000Y-92116250D01*
X111329750Y-91960000D01*
X110548500Y-91960000D01*
X110548500Y-92105000D01*
X109923500Y-92105000D01*
X109923500Y-91960000D01*
X109841000Y-91960000D01*
X109841000Y-91460000D01*
X109923500Y-91460000D01*
X109923500Y-90741250D01*
X110548500Y-90741250D01*
X110548500Y-91460000D01*
X111329750Y-91460000D01*
X111486000Y-91303750D01*
X111486000Y-91085680D01*
X114828000Y-91085680D01*
X114828000Y-91303750D01*
X114984250Y-91460000D01*
X115765500Y-91460000D01*
X115765500Y-90741250D01*
X115609250Y-90585000D01*
X115328680Y-90585000D01*
X115098966Y-90680151D01*
X114923150Y-90855966D01*
X114828000Y-91085680D01*
X111486000Y-91085680D01*
X111390850Y-90855966D01*
X111215034Y-90680151D01*
X110985320Y-90585000D01*
X110704750Y-90585000D01*
X110548500Y-90741250D01*
X109923500Y-90741250D01*
X109837000Y-90654750D01*
X109837000Y-88095990D01*
X109852323Y-88080667D01*
X110627128Y-88081343D01*
X111353286Y-87781300D01*
X111654111Y-87481000D01*
X113389964Y-87481000D01*
X113687791Y-87779348D01*
G36*
X144674956Y-120906000D02*
X136525000Y-120906000D01*
X136479568Y-120914549D01*
X136437841Y-120941399D01*
X136409848Y-120982368D01*
X136400000Y-121031000D01*
X136400000Y-121169800D01*
X136265000Y-121215929D01*
X136265000Y-122561000D01*
X136285000Y-122561000D01*
X136285000Y-123311000D01*
X136265000Y-123311000D01*
X136265000Y-124656071D01*
X136400000Y-124702200D01*
X136400000Y-124841000D01*
X136408549Y-124886432D01*
X136435399Y-124928159D01*
X136476368Y-124956152D01*
X136525000Y-124966000D01*
X139653340Y-124966000D01*
X140439670Y-125752330D01*
X140682987Y-125914910D01*
X140970000Y-125972000D01*
X148590000Y-125972000D01*
X148877013Y-125914910D01*
X149120330Y-125752330D01*
X150414660Y-124458000D01*
X152273000Y-124458000D01*
X152318432Y-124449451D01*
X152360159Y-124422601D01*
X152380986Y-124392120D01*
X152775500Y-124229110D01*
X153120399Y-123884813D01*
X153307287Y-123434737D01*
X153307616Y-123057660D01*
X156549956Y-126300000D01*
X129665000Y-126300000D01*
X129665000Y-125757590D01*
X130329590Y-125093000D01*
X132207000Y-125093000D01*
X132252432Y-125084451D01*
X132269849Y-125073244D01*
X133467000Y-125073244D01*
X133698611Y-125029663D01*
X133911332Y-124892781D01*
X134054038Y-124683924D01*
X134085064Y-124530714D01*
X134100152Y-124508632D01*
X134110000Y-124460000D01*
X134110000Y-123562926D01*
X134305304Y-123562926D01*
X134551041Y-124144477D01*
X135000622Y-124587721D01*
X135272272Y-124739010D01*
X135515000Y-124656071D01*
X135515000Y-123311000D01*
X134429922Y-123311000D01*
X134305304Y-123562926D01*
X134110000Y-123562926D01*
X134110000Y-122309074D01*
X134305304Y-122309074D01*
X134429922Y-122561000D01*
X135515000Y-122561000D01*
X135515000Y-121215929D01*
X135272272Y-121132990D01*
X135000622Y-121284279D01*
X134551041Y-121727523D01*
X134305304Y-122309074D01*
X134110000Y-122309074D01*
X134110000Y-120903998D01*
X138926002Y-120903998D01*
X139213015Y-120846908D01*
X139456332Y-120684328D01*
X140508660Y-119632000D01*
X145948956Y-119632000D01*
X144674956Y-120906000D01*
X144674956Y-120906000D01*
G37*
X144674956Y-120906000D02*
X136525000Y-120906000D01*
X136479568Y-120914549D01*
X136437841Y-120941399D01*
X136409848Y-120982368D01*
X136400000Y-121031000D01*
X136400000Y-121169800D01*
X136265000Y-121215929D01*
X136265000Y-122561000D01*
X136285000Y-122561000D01*
X136285000Y-123311000D01*
X136265000Y-123311000D01*
X136265000Y-124656071D01*
X136400000Y-124702200D01*
X136400000Y-124841000D01*
X136408549Y-124886432D01*
X136435399Y-124928159D01*
X136476368Y-124956152D01*
X136525000Y-124966000D01*
X139653340Y-124966000D01*
X140439670Y-125752330D01*
X140682987Y-125914910D01*
X140970000Y-125972000D01*
X148590000Y-125972000D01*
X148877013Y-125914910D01*
X149120330Y-125752330D01*
X150414660Y-124458000D01*
X152273000Y-124458000D01*
X152318432Y-124449451D01*
X152360159Y-124422601D01*
X152380986Y-124392120D01*
X152775500Y-124229110D01*
X153120399Y-123884813D01*
X153307287Y-123434737D01*
X153307616Y-123057660D01*
X156549956Y-126300000D01*
X129665000Y-126300000D01*
X129665000Y-125757590D01*
X130329590Y-125093000D01*
X132207000Y-125093000D01*
X132252432Y-125084451D01*
X132269849Y-125073244D01*
X133467000Y-125073244D01*
X133698611Y-125029663D01*
X133911332Y-124892781D01*
X134054038Y-124683924D01*
X134085064Y-124530714D01*
X134100152Y-124508632D01*
X134110000Y-124460000D01*
X134110000Y-123562926D01*
X134305304Y-123562926D01*
X134551041Y-124144477D01*
X135000622Y-124587721D01*
X135272272Y-124739010D01*
X135515000Y-124656071D01*
X135515000Y-123311000D01*
X134429922Y-123311000D01*
X134305304Y-123562926D01*
X134110000Y-123562926D01*
X134110000Y-122309074D01*
X134305304Y-122309074D01*
X134429922Y-122561000D01*
X135515000Y-122561000D01*
X135515000Y-121215929D01*
X135272272Y-121132990D01*
X135000622Y-121284279D01*
X134551041Y-121727523D01*
X134305304Y-122309074D01*
X134110000Y-122309074D01*
X134110000Y-120903998D01*
X138926002Y-120903998D01*
X139213015Y-120846908D01*
X139456332Y-120684328D01*
X140508660Y-119632000D01*
X145948956Y-119632000D01*
X144674956Y-120906000D01*
G36*
X121668000Y-76327000D02*
X121676549Y-76372432D01*
X121703399Y-76414159D01*
X121744368Y-76442152D01*
X121793000Y-76452000D01*
X136351340Y-76452000D01*
X136908000Y-77008660D01*
X136908000Y-78105000D01*
X136916549Y-78150432D01*
X136943399Y-78192159D01*
X136984368Y-78220152D01*
X137008032Y-78224944D01*
X137262700Y-78841286D01*
X137817791Y-79397348D01*
X138543425Y-79698657D01*
X139329128Y-79699343D01*
X140055286Y-79399300D01*
X140611348Y-78844209D01*
X140912657Y-78118575D01*
X140913246Y-77443484D01*
X140930159Y-77432601D01*
X140958152Y-77391632D01*
X140968000Y-77343000D01*
X140968000Y-76452000D01*
X146511340Y-76452000D01*
X154282670Y-84223330D01*
X154525987Y-84385910D01*
X154813000Y-84443000D01*
X158185340Y-84443000D01*
X160065143Y-86322803D01*
X160064788Y-86729599D01*
X160250890Y-87180000D01*
X160595187Y-87524899D01*
X161045263Y-87711787D01*
X161532599Y-87712212D01*
X161983000Y-87526110D01*
X162327899Y-87181813D01*
X162514787Y-86731737D01*
X162515212Y-86244401D01*
X162329110Y-85794000D01*
X161984813Y-85449101D01*
X161534737Y-85262213D01*
X161125516Y-85261856D01*
X159026330Y-83162670D01*
X158783013Y-83000090D01*
X158496000Y-82943000D01*
X155123660Y-82943000D01*
X152090340Y-79909680D01*
X187472000Y-79909680D01*
X187472000Y-80127750D01*
X187628250Y-80284000D01*
X188409500Y-80284000D01*
X188409500Y-79565250D01*
X189034500Y-79565250D01*
X189034500Y-80284000D01*
X189815750Y-80284000D01*
X189972000Y-80127750D01*
X189972000Y-79909680D01*
X189876850Y-79679966D01*
X189701034Y-79504151D01*
X189471320Y-79409000D01*
X189190750Y-79409000D01*
X189034500Y-79565250D01*
X188409500Y-79565250D01*
X188253250Y-79409000D01*
X187972680Y-79409000D01*
X187742966Y-79504151D01*
X187567150Y-79679966D01*
X187472000Y-79909680D01*
X152090340Y-79909680D01*
X147572000Y-75391340D01*
X147572000Y-73741250D01*
X150757000Y-73741250D01*
X150757000Y-75874320D01*
X150852150Y-76104034D01*
X151027966Y-76279849D01*
X151257680Y-76375000D01*
X152060750Y-76375000D01*
X152217000Y-76218750D01*
X152217000Y-73585000D01*
X152967000Y-73585000D01*
X152967000Y-76218750D01*
X153123250Y-76375000D01*
X153926320Y-76375000D01*
X154156034Y-76279849D01*
X154331850Y-76104034D01*
X154427000Y-75874320D01*
X154427000Y-73741250D01*
X154270750Y-73585000D01*
X152967000Y-73585000D01*
X152217000Y-73585000D01*
X150913250Y-73585000D01*
X150757000Y-73741250D01*
X147572000Y-73741250D01*
X147572000Y-70804000D01*
X150757000Y-70804000D01*
X150757000Y-72678750D01*
X150913250Y-72835000D01*
X152217000Y-72835000D01*
X152217000Y-72815000D01*
X152967000Y-72815000D01*
X152967000Y-72835000D01*
X154270750Y-72835000D01*
X154427000Y-72678750D01*
X154427000Y-70804000D01*
X157990000Y-70804000D01*
X157990000Y-76962000D01*
X157998549Y-77007432D01*
X158025399Y-77049159D01*
X158066368Y-77077152D01*
X158086787Y-77081287D01*
X158218890Y-77401000D01*
X158563187Y-77745899D01*
X159013263Y-77932787D01*
X159500599Y-77933212D01*
X159951000Y-77747110D01*
X160295899Y-77402813D01*
X160429243Y-77081686D01*
X160446432Y-77078451D01*
X160488159Y-77051601D01*
X160516152Y-77010632D01*
X160526000Y-76962000D01*
X160526000Y-76375000D01*
X160820750Y-76375000D01*
X160977000Y-76218750D01*
X160977000Y-73585000D01*
X161727000Y-73585000D01*
X161727000Y-76218750D01*
X161883250Y-76375000D01*
X162686320Y-76375000D01*
X162916034Y-76279849D01*
X163091850Y-76104034D01*
X163187000Y-75874320D01*
X163187000Y-73741250D01*
X169045000Y-73741250D01*
X169045000Y-75874320D01*
X169140150Y-76104034D01*
X169315966Y-76279849D01*
X169545680Y-76375000D01*
X170348750Y-76375000D01*
X170505000Y-76218750D01*
X170505000Y-73585000D01*
X171255000Y-73585000D01*
X171255000Y-76218750D01*
X171411250Y-76375000D01*
X172214320Y-76375000D01*
X172444034Y-76279849D01*
X172619850Y-76104034D01*
X172715000Y-75874320D01*
X172715000Y-73741250D01*
X172558750Y-73585000D01*
X171255000Y-73585000D01*
X170505000Y-73585000D01*
X169201250Y-73585000D01*
X169045000Y-73741250D01*
X163187000Y-73741250D01*
X163030750Y-73585000D01*
X161727000Y-73585000D01*
X160977000Y-73585000D01*
X160957000Y-73585000D01*
X160957000Y-72835000D01*
X160977000Y-72835000D01*
X160977000Y-72815000D01*
X161727000Y-72815000D01*
X161727000Y-72835000D01*
X163030750Y-72835000D01*
X163187000Y-72678750D01*
X163187000Y-70804000D01*
X169045000Y-70804000D01*
X169045000Y-72678750D01*
X169201250Y-72835000D01*
X170505000Y-72835000D01*
X170505000Y-72815000D01*
X171255000Y-72815000D01*
X171255000Y-72835000D01*
X172558750Y-72835000D01*
X172715000Y-72678750D01*
X172715000Y-70804000D01*
X176278000Y-70804000D01*
X176278000Y-76962000D01*
X176286549Y-77007432D01*
X176313399Y-77049159D01*
X176354368Y-77077152D01*
X176374787Y-77081287D01*
X176506890Y-77401000D01*
X176851187Y-77745899D01*
X177301263Y-77932787D01*
X177788599Y-77933212D01*
X178239000Y-77747110D01*
X178583899Y-77402813D01*
X178717243Y-77081686D01*
X178734432Y-77078451D01*
X178776159Y-77051601D01*
X178804152Y-77010632D01*
X178814000Y-76962000D01*
X178814000Y-76375000D01*
X179108750Y-76375000D01*
X179265000Y-76218750D01*
X179265000Y-73585000D01*
X180015000Y-73585000D01*
X180015000Y-76218750D01*
X180171250Y-76375000D01*
X180974320Y-76375000D01*
X181204034Y-76279849D01*
X181379850Y-76104034D01*
X181475000Y-75874320D01*
X181475000Y-73741250D01*
X181318750Y-73585000D01*
X180015000Y-73585000D01*
X179265000Y-73585000D01*
X179245000Y-73585000D01*
X179245000Y-72835000D01*
X179265000Y-72835000D01*
X179265000Y-72815000D01*
X180015000Y-72815000D01*
X180015000Y-72835000D01*
X181318750Y-72835000D01*
X181475000Y-72678750D01*
X181475000Y-70804000D01*
X185168000Y-70804000D01*
X185168000Y-76327000D01*
X185176549Y-76372432D01*
X185203399Y-76414159D01*
X185244368Y-76442152D01*
X185293000Y-76452000D01*
X210820000Y-76452000D01*
X210865432Y-76443451D01*
X210907159Y-76416601D01*
X210935152Y-76375632D01*
X210945000Y-76327000D01*
X210945000Y-76089449D01*
X210987038Y-76027924D01*
X211037244Y-75780000D01*
X211037244Y-74080000D01*
X210993663Y-73848389D01*
X210945000Y-73772764D01*
X210945000Y-72898000D01*
X210936451Y-72852568D01*
X210909601Y-72810841D01*
X210868632Y-72782848D01*
X210823503Y-72773709D01*
X210820314Y-72765000D01*
X209925000Y-72765000D01*
X209925000Y-72773000D01*
X209175000Y-72773000D01*
X209175000Y-72765000D01*
X209167000Y-72765000D01*
X209167000Y-72015000D01*
X209175000Y-72015000D01*
X209175000Y-71125691D01*
X209925000Y-71125691D01*
X209925000Y-72015000D01*
X210820314Y-72015000D01*
X210900338Y-71796453D01*
X210570409Y-71324882D01*
X210143542Y-71039692D01*
X209925000Y-71125691D01*
X209175000Y-71125691D01*
X209167000Y-71122543D01*
X209167000Y-70804000D01*
X211136000Y-70804000D01*
X211136000Y-126300000D01*
X170792544Y-126300000D01*
X172219300Y-124873244D01*
X172450000Y-124873244D01*
X172681611Y-124829663D01*
X172894332Y-124692781D01*
X173037038Y-124483924D01*
X173087244Y-124236000D01*
X173087244Y-123562926D01*
X174945304Y-123562926D01*
X175191041Y-124144477D01*
X175640622Y-124587721D01*
X175912272Y-124739010D01*
X176155000Y-124656071D01*
X176155000Y-123311000D01*
X175069922Y-123311000D01*
X174945304Y-123562926D01*
X173087244Y-123562926D01*
X173087244Y-122309074D01*
X174945304Y-122309074D01*
X175069922Y-122561000D01*
X176155000Y-122561000D01*
X176155000Y-121215929D01*
X176905000Y-121215929D01*
X176905000Y-122561000D01*
X176913000Y-122561000D01*
X176913000Y-123311000D01*
X176905000Y-123311000D01*
X176905000Y-124656071D01*
X176913000Y-124658805D01*
X176913000Y-124841000D01*
X176921549Y-124886432D01*
X176948399Y-124928159D01*
X176989368Y-124956152D01*
X177038000Y-124966000D01*
X185674000Y-124966000D01*
X185719432Y-124957451D01*
X185761159Y-124930601D01*
X185789152Y-124889632D01*
X185799000Y-124841000D01*
X185799000Y-122382888D01*
X186170599Y-122383212D01*
X186621000Y-122197110D01*
X186965899Y-121852813D01*
X187152787Y-121402737D01*
X187153212Y-120915401D01*
X186967110Y-120465000D01*
X186622813Y-120120101D01*
X186172737Y-119933213D01*
X185685401Y-119932788D01*
X185235000Y-120118890D01*
X185209846Y-120144000D01*
X182218377Y-120144000D01*
X182141110Y-119957000D01*
X181796813Y-119612101D01*
X181346737Y-119425213D01*
X180859401Y-119424788D01*
X180409000Y-119610890D01*
X180373829Y-119646000D01*
X179324000Y-119646000D01*
X179036987Y-119703090D01*
X178793670Y-119865670D01*
X178539670Y-120119670D01*
X178377090Y-120362987D01*
X178320000Y-120650000D01*
X178320000Y-121160000D01*
X177196226Y-121160000D01*
X177147728Y-121132990D01*
X177068681Y-121160000D01*
X177038000Y-121160000D01*
X176992568Y-121168549D01*
X176950841Y-121195399D01*
X176946503Y-121201748D01*
X176905000Y-121215929D01*
X176155000Y-121215929D01*
X175912272Y-121132990D01*
X175640622Y-121284279D01*
X175191041Y-121727523D01*
X174945304Y-122309074D01*
X173087244Y-122309074D01*
X173087244Y-121636000D01*
X173043663Y-121404389D01*
X172906781Y-121191668D01*
X172825000Y-121135789D01*
X172825000Y-120711544D01*
X181947272Y-111589272D01*
X182245334Y-111143189D01*
X182350000Y-110617000D01*
X182245334Y-110090811D01*
X181947272Y-109644728D01*
X181501189Y-109346666D01*
X180975000Y-109242000D01*
X180448811Y-109346666D01*
X180002728Y-109644728D01*
X171281456Y-118366000D01*
X169418000Y-118366000D01*
X169372568Y-118374549D01*
X169330841Y-118401399D01*
X169325551Y-118409140D01*
X168921401Y-118408788D01*
X168471000Y-118594890D01*
X168126101Y-118939187D01*
X167939213Y-119389263D01*
X167938788Y-119876599D01*
X168124890Y-120327000D01*
X168160000Y-120362171D01*
X168160000Y-121160000D01*
X167120000Y-121160000D01*
X167120000Y-120616209D01*
X167407899Y-120328813D01*
X167594787Y-119878737D01*
X167595212Y-119391401D01*
X167409110Y-118941000D01*
X167064813Y-118596101D01*
X166614737Y-118409213D01*
X166127401Y-118408788D01*
X165677000Y-118594890D01*
X165332101Y-118939187D01*
X165145213Y-119389263D01*
X165144788Y-119876599D01*
X165330890Y-120327000D01*
X165620000Y-120616616D01*
X165620000Y-121160000D01*
X164496226Y-121160000D01*
X164447728Y-121132990D01*
X164205000Y-121215929D01*
X164205000Y-122561000D01*
X164225000Y-122561000D01*
X164225000Y-123311000D01*
X164205000Y-123311000D01*
X164205000Y-123331000D01*
X163455000Y-123331000D01*
X163455000Y-123311000D01*
X162369922Y-123311000D01*
X162303143Y-123446000D01*
X161925000Y-123446000D01*
X161879568Y-123454549D01*
X161837841Y-123481399D01*
X161809848Y-123522368D01*
X161800000Y-123571000D01*
X161800000Y-124101000D01*
X159961805Y-124101000D01*
X159974787Y-124069737D01*
X159975212Y-123582401D01*
X159789110Y-123132000D01*
X159500000Y-122842384D01*
X159500000Y-122309074D01*
X162245304Y-122309074D01*
X162369922Y-122561000D01*
X163455000Y-122561000D01*
X163455000Y-121215929D01*
X163212272Y-121132990D01*
X162940622Y-121284279D01*
X162491041Y-121727523D01*
X162245304Y-122309074D01*
X159500000Y-122309074D01*
X159500000Y-115050599D01*
X167938788Y-115050599D01*
X168124890Y-115501000D01*
X168469187Y-115845899D01*
X168919263Y-116032787D01*
X169406599Y-116033212D01*
X169857000Y-115847110D01*
X170201899Y-115502813D01*
X170388787Y-115052737D01*
X170389144Y-114643516D01*
X170980330Y-114052330D01*
X170985896Y-114044000D01*
X171894500Y-114044000D01*
X171939932Y-114035451D01*
X171954620Y-114026000D01*
X172043750Y-114026000D01*
X172200000Y-113869750D01*
X172200000Y-113088500D01*
X172700000Y-113088500D01*
X172700000Y-113869750D01*
X172856250Y-114026000D01*
X173074320Y-114026000D01*
X173304034Y-113930850D01*
X173479849Y-113755034D01*
X173575000Y-113525320D01*
X173575000Y-113244750D01*
X173418750Y-113088500D01*
X172700000Y-113088500D01*
X172200000Y-113088500D01*
X172055000Y-113088500D01*
X172055000Y-112463500D01*
X172200000Y-112463500D01*
X172200000Y-111682250D01*
X172700000Y-111682250D01*
X172700000Y-112463500D01*
X173418750Y-112463500D01*
X173575000Y-112307250D01*
X173575000Y-112026680D01*
X173479849Y-111796966D01*
X173304034Y-111621150D01*
X173074320Y-111526000D01*
X172856250Y-111526000D01*
X172700000Y-111682250D01*
X172200000Y-111682250D01*
X172043750Y-111526000D01*
X171955063Y-111526000D01*
X171943132Y-111517848D01*
X171894500Y-111508000D01*
X169418000Y-111508000D01*
X169372568Y-111516549D01*
X169330841Y-111543399D01*
X169302848Y-111584368D01*
X169293000Y-111633000D01*
X169293000Y-113583112D01*
X168921401Y-113582788D01*
X168471000Y-113768890D01*
X168126101Y-114113187D01*
X167939213Y-114563263D01*
X167938788Y-115050599D01*
X159500000Y-115050599D01*
X159500000Y-112551709D01*
X159787899Y-112264313D01*
X159974787Y-111814237D01*
X159975212Y-111326901D01*
X159963064Y-111297500D01*
X161903510Y-111297500D01*
X164342523Y-113736513D01*
X164441890Y-113977000D01*
X164786187Y-114321899D01*
X165236263Y-114508787D01*
X165723599Y-114509212D01*
X166174000Y-114323110D01*
X166518899Y-113978813D01*
X166705787Y-113528737D01*
X166706212Y-113041401D01*
X166520110Y-112591000D01*
X166175813Y-112246101D01*
X165933455Y-112145465D01*
X163307490Y-109519500D01*
X173482000Y-109519500D01*
X173912519Y-109433864D01*
X174277495Y-109189995D01*
X181622000Y-101845490D01*
X181622000Y-102870000D01*
X181679090Y-103157013D01*
X181841670Y-103400330D01*
X182603670Y-104162330D01*
X182846987Y-104324910D01*
X183134000Y-104382000D01*
X188411340Y-104382000D01*
X189566340Y-105537000D01*
X182095670Y-113007670D01*
X181933090Y-113250987D01*
X181876000Y-113538000D01*
X181876000Y-115349791D01*
X181588101Y-115637187D01*
X181401213Y-116087263D01*
X181400788Y-116574599D01*
X181586890Y-117025000D01*
X181931187Y-117369899D01*
X182252314Y-117503243D01*
X182255549Y-117520432D01*
X182282399Y-117562159D01*
X182323368Y-117590152D01*
X182372000Y-117600000D01*
X185168000Y-117600000D01*
X185168000Y-118618000D01*
X185176549Y-118663432D01*
X185203399Y-118705159D01*
X185244368Y-118733152D01*
X185293000Y-118743000D01*
X185353768Y-118743000D01*
X185647017Y-119181880D01*
X186125542Y-119501619D01*
X186604353Y-119596861D01*
X186641368Y-119622152D01*
X186690000Y-119632000D01*
X191815001Y-119632000D01*
X191814788Y-119876599D01*
X192000890Y-120327000D01*
X192345187Y-120671899D01*
X192795263Y-120858787D01*
X193201170Y-120859141D01*
X193204399Y-120864159D01*
X193245368Y-120892152D01*
X193294000Y-120902000D01*
X194463623Y-120902000D01*
X194540890Y-121089000D01*
X194885187Y-121433899D01*
X195335263Y-121620787D01*
X195822599Y-121621212D01*
X196273000Y-121435110D01*
X196617899Y-121090813D01*
X196804787Y-120640737D01*
X196805141Y-120234830D01*
X196810159Y-120231601D01*
X196838152Y-120190632D01*
X196848000Y-120142000D01*
X196848000Y-119632000D01*
X210896200Y-119632000D01*
X210941632Y-119623451D01*
X210983359Y-119596601D01*
X211011352Y-119555632D01*
X211021200Y-119507000D01*
X211021200Y-119039227D01*
X211037244Y-118960000D01*
X211037244Y-117260000D01*
X211021200Y-117174734D01*
X211021200Y-115618001D01*
X211025000Y-115598897D01*
X211025000Y-115541103D01*
X211021200Y-115521999D01*
X211021200Y-114173000D01*
X211012651Y-114127568D01*
X210985801Y-114085841D01*
X210944832Y-114057848D01*
X210896200Y-114048000D01*
X198870000Y-114048000D01*
X198870000Y-112824244D01*
X202046000Y-112824244D01*
X202277611Y-112780663D01*
X202490332Y-112643781D01*
X202494965Y-112637000D01*
X205138569Y-112637000D01*
X205299187Y-112797899D01*
X205749263Y-112984787D01*
X206236599Y-112985212D01*
X206687000Y-112799110D01*
X207031899Y-112454813D01*
X207218787Y-112004737D01*
X207219212Y-111517401D01*
X207033110Y-111067000D01*
X206744000Y-110777384D01*
X206744000Y-107186000D01*
X208661000Y-107186000D01*
X208706432Y-107177451D01*
X208748159Y-107150601D01*
X208770293Y-107118206D01*
X208954332Y-106999781D01*
X209097038Y-106790924D01*
X209147244Y-106543000D01*
X209147244Y-105293000D01*
X209135000Y-105227929D01*
X209135000Y-104317463D01*
X209147244Y-104257000D01*
X209147244Y-103007000D01*
X209135000Y-102941929D01*
X209135000Y-101015463D01*
X209147244Y-100955000D01*
X209147244Y-99705000D01*
X209135000Y-99639929D01*
X209135000Y-98729463D01*
X209147244Y-98669000D01*
X209147244Y-97419000D01*
X209135000Y-97353929D01*
X209135000Y-95427463D01*
X209147244Y-95367000D01*
X209147244Y-94117000D01*
X209135000Y-94051929D01*
X209135000Y-93141463D01*
X209147244Y-93081000D01*
X209147244Y-91831000D01*
X209103663Y-91599389D01*
X208966781Y-91386668D01*
X208757924Y-91243962D01*
X208633820Y-91218830D01*
X208405000Y-90990010D01*
X208405000Y-88457518D01*
X208488787Y-88255737D01*
X208489212Y-87768401D01*
X208303110Y-87318000D01*
X207958813Y-86973101D01*
X207508737Y-86786213D01*
X207021401Y-86785788D01*
X206571000Y-86971890D01*
X206226101Y-87316187D01*
X206039213Y-87766263D01*
X206039109Y-87886000D01*
X205740000Y-87886000D01*
X205694568Y-87894549D01*
X205679880Y-87904000D01*
X205654250Y-87904000D01*
X205498000Y-88060250D01*
X205498000Y-88841500D01*
X205643000Y-88841500D01*
X205643000Y-89466500D01*
X205498000Y-89466500D01*
X205498000Y-89549000D01*
X204998000Y-89549000D01*
X204998000Y-89466500D01*
X204365736Y-89466500D01*
X204333737Y-89453213D01*
X203846401Y-89452788D01*
X203396000Y-89638890D01*
X203051101Y-89983187D01*
X202864213Y-90433263D01*
X202863788Y-90920599D01*
X203049890Y-91371000D01*
X203394187Y-91715899D01*
X203844263Y-91902787D01*
X203868956Y-91902809D01*
X203872399Y-91908159D01*
X203913368Y-91936152D01*
X203962000Y-91946000D01*
X204872756Y-91946000D01*
X204872756Y-92532584D01*
X202364405Y-95040935D01*
X202195401Y-95040788D01*
X201745000Y-95226890D01*
X201400101Y-95571187D01*
X201213213Y-96021263D01*
X201213109Y-96141000D01*
X199644000Y-96141000D01*
X199601486Y-96149000D01*
X194056000Y-96149000D01*
X193828839Y-96191743D01*
X193620206Y-96325995D01*
X193480241Y-96530840D01*
X193456313Y-96649000D01*
X190752000Y-96649000D01*
X190752000Y-95546874D01*
X191313203Y-95435244D01*
X192002602Y-94974602D01*
X192463244Y-94285203D01*
X192625000Y-93472000D01*
X192602964Y-93361218D01*
X193078348Y-92505527D01*
X193157000Y-92202000D01*
X193157000Y-89914000D01*
X195199000Y-89914000D01*
X195244432Y-89905451D01*
X195286159Y-89878601D01*
X195314152Y-89837632D01*
X195324000Y-89789000D01*
X195324000Y-89475297D01*
X195371244Y-89242000D01*
X195371244Y-88923250D01*
X196309000Y-88923250D01*
X196309000Y-89366320D01*
X196404151Y-89596034D01*
X196579966Y-89771850D01*
X196809680Y-89867000D01*
X197102750Y-89867000D01*
X197259000Y-89710750D01*
X197259000Y-88767000D01*
X197909000Y-88767000D01*
X197909000Y-89710750D01*
X198065250Y-89867000D01*
X198358320Y-89867000D01*
X198588034Y-89771850D01*
X198763849Y-89596034D01*
X198859000Y-89366320D01*
X198859000Y-88923250D01*
X198702750Y-88767000D01*
X197909000Y-88767000D01*
X197259000Y-88767000D01*
X196465250Y-88767000D01*
X196309000Y-88923250D01*
X195371244Y-88923250D01*
X195371244Y-88849287D01*
X195459682Y-88404680D01*
X204123000Y-88404680D01*
X204123000Y-88685250D01*
X204279250Y-88841500D01*
X204998000Y-88841500D01*
X204998000Y-88060250D01*
X204841750Y-87904000D01*
X204623680Y-87904000D01*
X204393966Y-87999150D01*
X204218151Y-88174966D01*
X204123000Y-88404680D01*
X195459682Y-88404680D01*
X195463000Y-88388000D01*
X195463000Y-87417680D01*
X196309000Y-87417680D01*
X196309000Y-87860750D01*
X196465250Y-88017000D01*
X197259000Y-88017000D01*
X197259000Y-87073250D01*
X197909000Y-87073250D01*
X197909000Y-88017000D01*
X198702750Y-88017000D01*
X198859000Y-87860750D01*
X198859000Y-87417680D01*
X198763849Y-87187966D01*
X198588034Y-87012150D01*
X198358320Y-86917000D01*
X198065250Y-86917000D01*
X197909000Y-87073250D01*
X197259000Y-87073250D01*
X197102750Y-86917000D01*
X196809680Y-86917000D01*
X196579966Y-87012150D01*
X196404151Y-87187966D01*
X196309000Y-87417680D01*
X195463000Y-87417680D01*
X195463000Y-85977000D01*
X196804498Y-85977000D01*
X197274798Y-86291244D01*
X198088000Y-86453000D01*
X199678605Y-86453000D01*
X199723219Y-86522332D01*
X199932076Y-86665038D01*
X200180000Y-86715244D01*
X203680000Y-86715244D01*
X203911611Y-86671663D01*
X204124332Y-86534781D01*
X204267038Y-86325924D01*
X204317244Y-86078000D01*
X204317244Y-84859250D01*
X205555000Y-84859250D01*
X205555000Y-86202320D01*
X205650151Y-86432034D01*
X205825966Y-86607850D01*
X206055680Y-86703000D01*
X207398750Y-86703000D01*
X207555000Y-86546750D01*
X207555000Y-84703000D01*
X208305000Y-84703000D01*
X208305000Y-86546750D01*
X208461250Y-86703000D01*
X209804320Y-86703000D01*
X210034034Y-86607850D01*
X210209849Y-86432034D01*
X210305000Y-86202320D01*
X210305000Y-84859250D01*
X210148750Y-84703000D01*
X208305000Y-84703000D01*
X207555000Y-84703000D01*
X205711250Y-84703000D01*
X205555000Y-84859250D01*
X204317244Y-84859250D01*
X204317244Y-82578000D01*
X204293852Y-82453680D01*
X205555000Y-82453680D01*
X205555000Y-83796750D01*
X205711250Y-83953000D01*
X207555000Y-83953000D01*
X207555000Y-82109250D01*
X208305000Y-82109250D01*
X208305000Y-83953000D01*
X210148750Y-83953000D01*
X210305000Y-83796750D01*
X210305000Y-82453680D01*
X210209849Y-82223966D01*
X210034034Y-82048150D01*
X209804320Y-81953000D01*
X208461250Y-81953000D01*
X208305000Y-82109250D01*
X207555000Y-82109250D01*
X207398750Y-81953000D01*
X206055680Y-81953000D01*
X205825966Y-82048150D01*
X205650151Y-82223966D01*
X205555000Y-82453680D01*
X204293852Y-82453680D01*
X204273663Y-82346389D01*
X204136781Y-82133668D01*
X203927924Y-81990962D01*
X203680000Y-81940756D01*
X200180000Y-81940756D01*
X199948389Y-81984337D01*
X199735668Y-82121219D01*
X199679789Y-82203000D01*
X199463000Y-82203000D01*
X199463000Y-81262493D01*
X199507680Y-81281000D01*
X200350750Y-81281000D01*
X200507000Y-81124750D01*
X200507000Y-80131000D01*
X201257000Y-80131000D01*
X201257000Y-81124750D01*
X201413250Y-81281000D01*
X202256320Y-81281000D01*
X202486034Y-81185850D01*
X202661849Y-81010034D01*
X202757000Y-80780320D01*
X202757000Y-80287250D01*
X202600750Y-80131000D01*
X201257000Y-80131000D01*
X200507000Y-80131000D01*
X199163250Y-80131000D01*
X199158105Y-80136145D01*
X199060272Y-79989728D01*
X198769244Y-79698700D01*
X198769244Y-78856000D01*
X198745852Y-78731680D01*
X199007000Y-78731680D01*
X199007000Y-79224750D01*
X199163250Y-79381000D01*
X200507000Y-79381000D01*
X200507000Y-78387250D01*
X201257000Y-78387250D01*
X201257000Y-79381000D01*
X202600750Y-79381000D01*
X202757000Y-79224750D01*
X202757000Y-78731680D01*
X202661849Y-78501966D01*
X202486034Y-78326150D01*
X202256320Y-78231000D01*
X201413250Y-78231000D01*
X201257000Y-78387250D01*
X200507000Y-78387250D01*
X200350750Y-78231000D01*
X199507680Y-78231000D01*
X199277966Y-78326150D01*
X199102151Y-78501966D01*
X199007000Y-78731680D01*
X198745852Y-78731680D01*
X198725663Y-78624389D01*
X198588781Y-78411668D01*
X198379924Y-78268962D01*
X198132000Y-78218756D01*
X195632000Y-78218756D01*
X195400389Y-78262337D01*
X195187668Y-78399219D01*
X195044962Y-78608076D01*
X194994756Y-78856000D01*
X194994756Y-80656000D01*
X195038337Y-80887611D01*
X195175219Y-81100332D01*
X195384076Y-81243038D01*
X195632000Y-81293244D01*
X196474700Y-81293244D01*
X196713000Y-81531544D01*
X196713000Y-82679000D01*
X195371502Y-82679000D01*
X194901202Y-82364756D01*
X194088000Y-82203000D01*
X190031160Y-82203000D01*
X189992334Y-82007810D01*
X189990000Y-82004317D01*
X189990000Y-81153000D01*
X189981451Y-81107568D01*
X189972000Y-81092880D01*
X189972000Y-80940250D01*
X189815750Y-80784000D01*
X189034500Y-80784000D01*
X189034500Y-80929000D01*
X188409500Y-80929000D01*
X188409500Y-80784000D01*
X187628250Y-80784000D01*
X187472000Y-80940250D01*
X187472000Y-81092437D01*
X187463848Y-81104368D01*
X187454000Y-81153000D01*
X187454000Y-82004317D01*
X187451666Y-82007810D01*
X187376659Y-82384894D01*
X186717398Y-82825398D01*
X186506683Y-83140756D01*
X185920000Y-83140756D01*
X185688389Y-83184337D01*
X185475668Y-83321219D01*
X185332962Y-83530076D01*
X185282756Y-83778000D01*
X185282756Y-84878000D01*
X185295000Y-84943071D01*
X185295000Y-86106000D01*
X185303549Y-86151432D01*
X185308994Y-86159895D01*
X185295000Y-86193680D01*
X185295000Y-86436750D01*
X185451250Y-86593000D01*
X187845000Y-86593000D01*
X187845000Y-86473000D01*
X188595000Y-86473000D01*
X188595000Y-86593000D01*
X188615000Y-86593000D01*
X188615000Y-87143000D01*
X188595000Y-87143000D01*
X188595000Y-87263000D01*
X187845000Y-87263000D01*
X187845000Y-87143000D01*
X185451250Y-87143000D01*
X185295000Y-87299250D01*
X185295000Y-87505000D01*
X185293000Y-87505000D01*
X185247568Y-87513549D01*
X185205841Y-87540399D01*
X185177848Y-87581368D01*
X185168000Y-87630000D01*
X185168000Y-88392000D01*
X185176000Y-88434514D01*
X185176000Y-90029297D01*
X184933398Y-90191398D01*
X184472756Y-90880798D01*
X184311000Y-91694000D01*
X184472756Y-92507202D01*
X184933398Y-93196602D01*
X185622798Y-93657244D01*
X186436000Y-93819000D01*
X187841796Y-93819000D01*
X188173840Y-94151044D01*
X188029000Y-94210890D01*
X187684101Y-94555187D01*
X187497213Y-95005263D01*
X187496788Y-95492599D01*
X187682890Y-95943000D01*
X188027187Y-96287899D01*
X188477263Y-96474787D01*
X188851000Y-96475113D01*
X188851000Y-97140915D01*
X188615195Y-97376309D01*
X188367282Y-97973349D01*
X188366718Y-98619814D01*
X188613588Y-99217286D01*
X189070309Y-99674805D01*
X189667349Y-99922718D01*
X190176894Y-99923163D01*
X190197368Y-99937152D01*
X190246000Y-99947000D01*
X191931000Y-99947000D01*
X191931000Y-100115250D01*
X192087250Y-100271500D01*
X192806000Y-100271500D01*
X192806000Y-100189000D01*
X193306000Y-100189000D01*
X193306000Y-100271500D01*
X193431000Y-100271500D01*
X193431000Y-100896500D01*
X193306000Y-100896500D01*
X193306000Y-101677750D01*
X193462250Y-101834000D01*
X193680320Y-101834000D01*
X193682861Y-101832948D01*
X193812840Y-101921759D01*
X194056000Y-101971000D01*
X198120000Y-101971000D01*
X198347161Y-101928257D01*
X198555794Y-101794005D01*
X198695759Y-101589160D01*
X198745000Y-101346000D01*
X198745000Y-100701000D01*
X199644000Y-100701000D01*
X199871161Y-100658257D01*
X200079794Y-100524005D01*
X200219759Y-100319160D01*
X200269000Y-100076000D01*
X200269000Y-97407000D01*
X201688000Y-97407000D01*
X201688000Y-102059756D01*
X198546000Y-102059756D01*
X198314389Y-102103337D01*
X198101668Y-102240219D01*
X197958962Y-102449076D01*
X197948787Y-102499320D01*
X197947568Y-102499549D01*
X197905841Y-102526399D01*
X197877848Y-102567368D01*
X197868000Y-102616000D01*
X197868000Y-105412000D01*
X195324000Y-105412000D01*
X195324000Y-103378000D01*
X195315451Y-103332568D01*
X195288601Y-103290841D01*
X195247632Y-103262848D01*
X195226273Y-103258523D01*
X195114750Y-103147000D01*
X193271000Y-103147000D01*
X193271000Y-103297000D01*
X192521000Y-103297000D01*
X192521000Y-103147000D01*
X190677250Y-103147000D01*
X190521000Y-103303250D01*
X190521000Y-103315974D01*
X190511848Y-103329368D01*
X190502000Y-103378000D01*
X190502000Y-104351340D01*
X189252330Y-103101670D01*
X189009013Y-102939090D01*
X188722000Y-102882000D01*
X187069000Y-102882000D01*
X187069000Y-102572680D01*
X190521000Y-102572680D01*
X190521000Y-102690750D01*
X190677250Y-102847000D01*
X192521000Y-102847000D01*
X192521000Y-102228250D01*
X193271000Y-102228250D01*
X193271000Y-102847000D01*
X195114750Y-102847000D01*
X195271000Y-102690750D01*
X195271000Y-102572680D01*
X195175849Y-102342966D01*
X195000034Y-102167150D01*
X194770320Y-102072000D01*
X193427250Y-102072000D01*
X193271000Y-102228250D01*
X192521000Y-102228250D01*
X192364750Y-102072000D01*
X191021680Y-102072000D01*
X190791966Y-102167150D01*
X190616151Y-102342966D01*
X190521000Y-102572680D01*
X187069000Y-102572680D01*
X187069000Y-101052750D01*
X191931000Y-101052750D01*
X191931000Y-101333320D01*
X192026151Y-101563034D01*
X192201966Y-101738850D01*
X192431680Y-101834000D01*
X192649750Y-101834000D01*
X192806000Y-101677750D01*
X192806000Y-100896500D01*
X192087250Y-100896500D01*
X191931000Y-101052750D01*
X187069000Y-101052750D01*
X187069000Y-94996000D01*
X187060451Y-94950568D01*
X187033601Y-94908841D01*
X186992632Y-94880848D01*
X186944000Y-94871000D01*
X182370000Y-94871000D01*
X182370000Y-94107000D01*
X182361451Y-94061568D01*
X182334601Y-94019841D01*
X182293632Y-93991848D01*
X182245000Y-93982000D01*
X182227000Y-93982000D01*
X182227000Y-93488000D01*
X182223244Y-93469117D01*
X182223244Y-92847000D01*
X182179663Y-92615389D01*
X182042781Y-92402668D01*
X181833924Y-92259962D01*
X181586000Y-92209756D01*
X180876425Y-92209756D01*
X180848000Y-92204000D01*
X179578000Y-92204000D01*
X179532568Y-92212549D01*
X179517880Y-92222000D01*
X179492250Y-92222000D01*
X179336000Y-92378250D01*
X179336000Y-93159500D01*
X179481000Y-93159500D01*
X179481000Y-93784500D01*
X179336000Y-93784500D01*
X179336000Y-94565750D01*
X179492250Y-94722000D01*
X179710320Y-94722000D01*
X179876856Y-94653019D01*
X179876788Y-94730599D01*
X179976889Y-94972861D01*
X179890500Y-95059250D01*
X179890500Y-95310732D01*
X179852000Y-95403680D01*
X179852000Y-95621750D01*
X179890500Y-95660250D01*
X179890500Y-95778000D01*
X180789500Y-95778000D01*
X180789500Y-95684649D01*
X180857263Y-95712787D01*
X181344599Y-95713212D01*
X181414500Y-95684329D01*
X181414500Y-95778000D01*
X181497000Y-95778000D01*
X181497000Y-96278000D01*
X181414500Y-96278000D01*
X181414500Y-96423000D01*
X180816750Y-96423000D01*
X180789500Y-96395750D01*
X180789500Y-96278000D01*
X179890500Y-96278000D01*
X179890500Y-96395750D01*
X179863250Y-96423000D01*
X179265500Y-96423000D01*
X179265500Y-96278000D01*
X178484250Y-96278000D01*
X178328000Y-96434250D01*
X178328000Y-96459437D01*
X178319848Y-96471368D01*
X178310000Y-96520000D01*
X178310000Y-97409000D01*
X178318549Y-97454432D01*
X178327756Y-97468741D01*
X178315756Y-97528000D01*
X178315756Y-98528000D01*
X178359337Y-98759611D01*
X178496219Y-98972332D01*
X178705076Y-99115038D01*
X178953000Y-99165244D01*
X180203000Y-99165244D01*
X180268071Y-99153000D01*
X180416537Y-99153000D01*
X180477000Y-99165244D01*
X180699776Y-99165244D01*
X180909481Y-99305364D01*
X180968422Y-99317088D01*
X173016010Y-107269500D01*
X153945490Y-107269500D01*
X144889000Y-98213010D01*
X144889000Y-97980500D01*
X144881016Y-97940364D01*
X144803365Y-97549982D01*
X144559495Y-97185005D01*
X143479995Y-96105505D01*
X143358014Y-96024000D01*
X143115019Y-95861636D01*
X142684500Y-95776000D01*
X138684000Y-95776000D01*
X138253481Y-95861636D01*
X138010486Y-96024000D01*
X137888505Y-96105505D01*
X136939982Y-97054028D01*
X136584186Y-97053718D01*
X135986714Y-97300588D01*
X135529195Y-97757309D01*
X135281282Y-98354349D01*
X135280718Y-99000814D01*
X135527588Y-99598286D01*
X135984309Y-100055805D01*
X136480743Y-100261943D01*
X136498899Y-100290159D01*
X136539868Y-100318152D01*
X136588500Y-100328000D01*
X142044010Y-100328000D01*
X152684005Y-110967995D01*
X153048982Y-111211865D01*
X153479500Y-111297500D01*
X154996534Y-111297500D01*
X154985213Y-111324763D01*
X154984788Y-111812099D01*
X155170890Y-112262500D01*
X155460000Y-112552116D01*
X155460000Y-115140146D01*
X155459848Y-115140368D01*
X155450000Y-115189000D01*
X155450000Y-116270500D01*
X155130500Y-116270500D01*
X155085068Y-116279049D01*
X155043341Y-116305899D01*
X155015348Y-116346868D01*
X155005500Y-116395500D01*
X155005500Y-116459000D01*
X155014049Y-116504432D01*
X155015500Y-116506687D01*
X155015500Y-117226000D01*
X155160500Y-117226000D01*
X155160500Y-117851000D01*
X155015500Y-117851000D01*
X155015500Y-118490824D01*
X154985213Y-118563763D01*
X154984788Y-119051099D01*
X155170890Y-119501500D01*
X155515187Y-119846399D01*
X155965263Y-120033287D01*
X156452599Y-120033712D01*
X156903000Y-119847610D01*
X156984000Y-119766751D01*
X156984000Y-121763291D01*
X156696101Y-122050687D01*
X156547530Y-122408486D01*
X152146294Y-118007250D01*
X153640500Y-118007250D01*
X153640500Y-118287820D01*
X153735651Y-118517534D01*
X153911466Y-118693350D01*
X154141180Y-118788500D01*
X154359250Y-118788500D01*
X154515500Y-118632250D01*
X154515500Y-117851000D01*
X153796750Y-117851000D01*
X153640500Y-118007250D01*
X152146294Y-118007250D01*
X151912639Y-117773595D01*
X151826046Y-117643998D01*
X151848272Y-117621772D01*
X152146335Y-117175689D01*
X152223216Y-116789180D01*
X153640500Y-116789180D01*
X153640500Y-117069750D01*
X153796750Y-117226000D01*
X154515500Y-117226000D01*
X154515500Y-116444750D01*
X154359250Y-116288500D01*
X154141180Y-116288500D01*
X153911466Y-116383650D01*
X153735651Y-116559466D01*
X153640500Y-116789180D01*
X152223216Y-116789180D01*
X152251000Y-116649500D01*
X152251000Y-113030000D01*
X152146334Y-112503810D01*
X151848272Y-112057728D01*
X146091500Y-106300956D01*
X146091500Y-105410000D01*
X145986834Y-104883810D01*
X145688772Y-104437728D01*
X144926772Y-103675728D01*
X144910736Y-103665013D01*
X144480690Y-103377666D01*
X143954500Y-103273000D01*
X142247036Y-103273000D01*
X142238253Y-103271253D01*
X139952253Y-103271253D01*
X139426063Y-103375919D01*
X138979981Y-103673981D01*
X138681919Y-104120063D01*
X138577253Y-104646253D01*
X138681919Y-105172443D01*
X138979981Y-105618525D01*
X139426063Y-105916587D01*
X139952253Y-106021253D01*
X141607000Y-106021253D01*
X141607000Y-107286811D01*
X141563500Y-107505500D01*
X141563500Y-109791500D01*
X141668166Y-110317690D01*
X141906913Y-110675000D01*
X141966228Y-110763772D01*
X145250456Y-114048000D01*
X133221000Y-114048000D01*
X133221000Y-112379000D01*
X133985000Y-112379000D01*
X134367684Y-112302880D01*
X134692107Y-112086107D01*
X135327107Y-111451107D01*
X135543880Y-111126684D01*
X135569875Y-110996000D01*
X136588500Y-110996000D01*
X136633932Y-110987451D01*
X136675659Y-110960601D01*
X136696486Y-110930120D01*
X137091000Y-110767110D01*
X137435899Y-110422813D01*
X137622787Y-109972737D01*
X137623212Y-109485401D01*
X137437110Y-109035000D01*
X137092813Y-108690101D01*
X136695712Y-108525210D01*
X136678101Y-108497841D01*
X136637132Y-108469848D01*
X136588500Y-108460000D01*
X135620000Y-108460000D01*
X135620000Y-106680000D01*
X135543880Y-106297317D01*
X135327107Y-105972893D01*
X135073107Y-105718893D01*
X134748684Y-105502120D01*
X134366000Y-105426000D01*
X131224214Y-105426000D01*
X131170000Y-105371786D01*
X131170000Y-102870000D01*
X131157244Y-102805871D01*
X131157244Y-102220000D01*
X131113663Y-101988389D01*
X130976781Y-101775668D01*
X130767924Y-101632962D01*
X130520000Y-101582756D01*
X129915755Y-101582756D01*
X129910451Y-101554568D01*
X129883601Y-101512841D01*
X129842632Y-101484848D01*
X129794000Y-101475000D01*
X126746000Y-101475000D01*
X126700568Y-101483549D01*
X126658841Y-101510399D01*
X126630848Y-101551368D01*
X126621000Y-101600000D01*
X126621000Y-101675250D01*
X126545000Y-101751250D01*
X126545000Y-102545000D01*
X126621000Y-102545000D01*
X126621000Y-103195000D01*
X126545000Y-103195000D01*
X126545000Y-104577000D01*
X126621000Y-104577000D01*
X126621000Y-105227000D01*
X126545000Y-105227000D01*
X126545000Y-106020750D01*
X126621000Y-106096750D01*
X126621000Y-106172000D01*
X126629549Y-106217432D01*
X126656399Y-106259159D01*
X126697368Y-106287152D01*
X126746000Y-106297000D01*
X127520000Y-106297000D01*
X127520000Y-107950000D01*
X127577090Y-108237013D01*
X127739670Y-108480330D01*
X129415000Y-110155660D01*
X129415000Y-111790223D01*
X129209966Y-111875150D01*
X129034151Y-112050966D01*
X128939000Y-112280680D01*
X128939000Y-112561250D01*
X129095250Y-112717500D01*
X129814000Y-112717500D01*
X129814000Y-112635000D01*
X130314000Y-112635000D01*
X130314000Y-112717500D01*
X130459000Y-112717500D01*
X130459000Y-113342500D01*
X130314000Y-113342500D01*
X130314000Y-113425000D01*
X129814000Y-113425000D01*
X129814000Y-113342500D01*
X129095250Y-113342500D01*
X129023070Y-113414680D01*
X128986568Y-113421549D01*
X128944841Y-113448399D01*
X128916848Y-113489368D01*
X128907000Y-113538000D01*
X128907000Y-114048000D01*
X127750000Y-114048000D01*
X127750000Y-110744000D01*
X127692910Y-110456987D01*
X127530330Y-110213670D01*
X126998000Y-109681340D01*
X126998000Y-107950000D01*
X126989451Y-107904568D01*
X126962601Y-107862841D01*
X126946783Y-107852033D01*
X126813750Y-107719000D01*
X124945000Y-107719000D01*
X124945000Y-107869000D01*
X124195000Y-107869000D01*
X124195000Y-107719000D01*
X124175000Y-107719000D01*
X124175000Y-107419000D01*
X124195000Y-107419000D01*
X124195000Y-106800250D01*
X124945000Y-106800250D01*
X124945000Y-107419000D01*
X126813750Y-107419000D01*
X126970000Y-107262750D01*
X126970000Y-107144680D01*
X126874849Y-106914966D01*
X126699034Y-106739150D01*
X126469320Y-106644000D01*
X125101250Y-106644000D01*
X124945000Y-106800250D01*
X124195000Y-106800250D01*
X124038750Y-106644000D01*
X122670680Y-106644000D01*
X122670000Y-106644282D01*
X122670000Y-105383250D01*
X125395000Y-105383250D01*
X125395000Y-105676320D01*
X125490151Y-105906034D01*
X125665966Y-106081850D01*
X125895680Y-106177000D01*
X126038750Y-106177000D01*
X126195000Y-106020750D01*
X126195000Y-105227000D01*
X125551250Y-105227000D01*
X125395000Y-105383250D01*
X122670000Y-105383250D01*
X122670000Y-103378000D01*
X125351000Y-103378000D01*
X125351000Y-104394000D01*
X125359549Y-104439432D01*
X125386399Y-104481159D01*
X125427368Y-104509152D01*
X125476000Y-104519000D01*
X125493250Y-104519000D01*
X125551250Y-104577000D01*
X126195000Y-104577000D01*
X126195000Y-103195000D01*
X125551250Y-103195000D01*
X125493250Y-103253000D01*
X125476000Y-103253000D01*
X125430568Y-103261549D01*
X125388841Y-103288399D01*
X125360848Y-103329368D01*
X125351000Y-103378000D01*
X122670000Y-103378000D01*
X122670000Y-102095680D01*
X125395000Y-102095680D01*
X125395000Y-102388750D01*
X125551250Y-102545000D01*
X126195000Y-102545000D01*
X126195000Y-101751250D01*
X126038750Y-101595000D01*
X125895680Y-101595000D01*
X125665966Y-101690150D01*
X125490151Y-101865966D01*
X125395000Y-102095680D01*
X122670000Y-102095680D01*
X122670000Y-98794000D01*
X124206000Y-98794000D01*
X124493013Y-98736910D01*
X124736330Y-98574330D01*
X125522660Y-97788000D01*
X127508000Y-97788000D01*
X127553432Y-97779451D01*
X127595159Y-97752601D01*
X127608339Y-97733311D01*
X127645128Y-97733343D01*
X128371286Y-97433300D01*
X128927348Y-96878209D01*
X129228657Y-96152575D01*
X129229310Y-95403680D01*
X178328000Y-95403680D01*
X178328000Y-95621750D01*
X178484250Y-95778000D01*
X179265500Y-95778000D01*
X179265500Y-95059250D01*
X179109250Y-94903000D01*
X178828680Y-94903000D01*
X178598966Y-94998151D01*
X178423150Y-95173966D01*
X178328000Y-95403680D01*
X129229310Y-95403680D01*
X129229343Y-95366872D01*
X128929300Y-94640714D01*
X128374209Y-94084652D01*
X128027654Y-93940750D01*
X177961000Y-93940750D01*
X177961000Y-94221320D01*
X178056151Y-94451034D01*
X178231966Y-94626850D01*
X178461680Y-94722000D01*
X178679750Y-94722000D01*
X178836000Y-94565750D01*
X178836000Y-93784500D01*
X178117250Y-93784500D01*
X177961000Y-93940750D01*
X128027654Y-93940750D01*
X127648575Y-93783343D01*
X127608841Y-93783308D01*
X127597601Y-93765841D01*
X127556632Y-93737848D01*
X127508000Y-93728000D01*
X126480000Y-93728000D01*
X126480000Y-92722680D01*
X177961000Y-92722680D01*
X177961000Y-93003250D01*
X178117250Y-93159500D01*
X178836000Y-93159500D01*
X178836000Y-92378250D01*
X178679750Y-92222000D01*
X178461680Y-92222000D01*
X178231966Y-92317150D01*
X178056151Y-92492966D01*
X177961000Y-92722680D01*
X126480000Y-92722680D01*
X126480000Y-92456000D01*
X126422910Y-92168987D01*
X126260330Y-91925670D01*
X125868201Y-91533541D01*
X125753110Y-91255000D01*
X125408813Y-90910101D01*
X124958737Y-90723213D01*
X124471401Y-90722788D01*
X124021000Y-90908890D01*
X123676101Y-91253187D01*
X123489213Y-91703263D01*
X123489191Y-91727956D01*
X123483841Y-91731399D01*
X123455848Y-91772368D01*
X123446000Y-91821000D01*
X123446000Y-93783222D01*
X122934000Y-93782775D01*
X122934000Y-92202000D01*
X122925451Y-92156568D01*
X122916000Y-92141880D01*
X122916000Y-92116250D01*
X122759750Y-91960000D01*
X121978500Y-91960000D01*
X121978500Y-92105000D01*
X121353500Y-92105000D01*
X121353500Y-91960000D01*
X121271000Y-91960000D01*
X121271000Y-91460000D01*
X121353500Y-91460000D01*
X121353500Y-90741250D01*
X121978500Y-90741250D01*
X121978500Y-91460000D01*
X122759750Y-91460000D01*
X122916000Y-91303750D01*
X122916000Y-91085680D01*
X122820850Y-90855966D01*
X122645034Y-90680151D01*
X122415320Y-90585000D01*
X122134750Y-90585000D01*
X121978500Y-90741250D01*
X121353500Y-90741250D01*
X121197250Y-90585000D01*
X120919780Y-90585000D01*
X120919780Y-88136000D01*
X122682000Y-88136000D01*
X122727432Y-88127451D01*
X122769159Y-88100601D01*
X122785580Y-88076569D01*
X122795425Y-88080657D01*
X123581128Y-88081343D01*
X124307286Y-87781300D01*
X124863348Y-87226209D01*
X125164657Y-86500575D01*
X125165343Y-85714872D01*
X124865300Y-84988714D01*
X124310209Y-84432652D01*
X123584575Y-84131343D01*
X122934000Y-84130775D01*
X122934000Y-82550000D01*
X122925451Y-82504568D01*
X122916000Y-82489880D01*
X122916000Y-82464250D01*
X122759750Y-82308000D01*
X121978500Y-82308000D01*
X121978500Y-82453000D01*
X121353500Y-82453000D01*
X121353500Y-82308000D01*
X121271000Y-82308000D01*
X121271000Y-81808000D01*
X121353500Y-81808000D01*
X121353500Y-81089250D01*
X121978500Y-81089250D01*
X121978500Y-81808000D01*
X122759750Y-81808000D01*
X122916000Y-81651750D01*
X122916000Y-81433680D01*
X122820850Y-81203966D01*
X122645034Y-81028151D01*
X122415320Y-80933000D01*
X122134750Y-80933000D01*
X121978500Y-81089250D01*
X121353500Y-81089250D01*
X121197250Y-80933000D01*
X120919780Y-80933000D01*
X120919780Y-78232000D01*
X124970000Y-78232000D01*
X124970000Y-80899000D01*
X124978549Y-80944432D01*
X125005399Y-80986159D01*
X125046368Y-81014152D01*
X125095000Y-81024000D01*
X130429000Y-81024000D01*
X130474432Y-81015451D01*
X130516159Y-80988601D01*
X130544152Y-80947632D01*
X130554000Y-80899000D01*
X130554000Y-78232000D01*
X130545451Y-78186568D01*
X130536000Y-78171880D01*
X130536000Y-78146250D01*
X130379750Y-77990000D01*
X129598500Y-77990000D01*
X129598500Y-78107000D01*
X128987109Y-78107000D01*
X128987212Y-77989401D01*
X128891000Y-77756550D01*
X128891000Y-77490000D01*
X128973500Y-77490000D01*
X128973500Y-76771250D01*
X129598500Y-76771250D01*
X129598500Y-77490000D01*
X130379750Y-77490000D01*
X130536000Y-77333750D01*
X130536000Y-77115680D01*
X130440850Y-76885966D01*
X130265034Y-76710151D01*
X130035320Y-76615000D01*
X129754750Y-76615000D01*
X129598500Y-76771250D01*
X128973500Y-76771250D01*
X128901320Y-76699070D01*
X128894451Y-76662568D01*
X128867601Y-76620841D01*
X128826632Y-76592848D01*
X128778000Y-76583000D01*
X126746000Y-76583000D01*
X126700568Y-76591549D01*
X126658841Y-76618399D01*
X126630848Y-76659368D01*
X126622841Y-76698909D01*
X126550500Y-76771250D01*
X126550500Y-77490000D01*
X126633000Y-77490000D01*
X126633000Y-77756582D01*
X126537213Y-77987263D01*
X126537109Y-78107000D01*
X125925500Y-78107000D01*
X125925500Y-77990000D01*
X125144250Y-77990000D01*
X124988000Y-78146250D01*
X124988000Y-78171437D01*
X124979848Y-78183368D01*
X124970000Y-78232000D01*
X120919780Y-78232000D01*
X120919780Y-77115680D01*
X124988000Y-77115680D01*
X124988000Y-77333750D01*
X125144250Y-77490000D01*
X125925500Y-77490000D01*
X125925500Y-76771250D01*
X125769250Y-76615000D01*
X125488680Y-76615000D01*
X125258966Y-76710151D01*
X125083150Y-76885966D01*
X124988000Y-77115680D01*
X120919780Y-77115680D01*
X120919780Y-70804000D01*
X121668000Y-70804000D01*
X121668000Y-76327000D01*
X121668000Y-76327000D01*
G37*
X121668000Y-76327000D02*
X121676549Y-76372432D01*
X121703399Y-76414159D01*
X121744368Y-76442152D01*
X121793000Y-76452000D01*
X136351340Y-76452000D01*
X136908000Y-77008660D01*
X136908000Y-78105000D01*
X136916549Y-78150432D01*
X136943399Y-78192159D01*
X136984368Y-78220152D01*
X137008032Y-78224944D01*
X137262700Y-78841286D01*
X137817791Y-79397348D01*
X138543425Y-79698657D01*
X139329128Y-79699343D01*
X140055286Y-79399300D01*
X140611348Y-78844209D01*
X140912657Y-78118575D01*
X140913246Y-77443484D01*
X140930159Y-77432601D01*
X140958152Y-77391632D01*
X140968000Y-77343000D01*
X140968000Y-76452000D01*
X146511340Y-76452000D01*
X154282670Y-84223330D01*
X154525987Y-84385910D01*
X154813000Y-84443000D01*
X158185340Y-84443000D01*
X160065143Y-86322803D01*
X160064788Y-86729599D01*
X160250890Y-87180000D01*
X160595187Y-87524899D01*
X161045263Y-87711787D01*
X161532599Y-87712212D01*
X161983000Y-87526110D01*
X162327899Y-87181813D01*
X162514787Y-86731737D01*
X162515212Y-86244401D01*
X162329110Y-85794000D01*
X161984813Y-85449101D01*
X161534737Y-85262213D01*
X161125516Y-85261856D01*
X159026330Y-83162670D01*
X158783013Y-83000090D01*
X158496000Y-82943000D01*
X155123660Y-82943000D01*
X152090340Y-79909680D01*
X187472000Y-79909680D01*
X187472000Y-80127750D01*
X187628250Y-80284000D01*
X188409500Y-80284000D01*
X188409500Y-79565250D01*
X189034500Y-79565250D01*
X189034500Y-80284000D01*
X189815750Y-80284000D01*
X189972000Y-80127750D01*
X189972000Y-79909680D01*
X189876850Y-79679966D01*
X189701034Y-79504151D01*
X189471320Y-79409000D01*
X189190750Y-79409000D01*
X189034500Y-79565250D01*
X188409500Y-79565250D01*
X188253250Y-79409000D01*
X187972680Y-79409000D01*
X187742966Y-79504151D01*
X187567150Y-79679966D01*
X187472000Y-79909680D01*
X152090340Y-79909680D01*
X147572000Y-75391340D01*
X147572000Y-73741250D01*
X150757000Y-73741250D01*
X150757000Y-75874320D01*
X150852150Y-76104034D01*
X151027966Y-76279849D01*
X151257680Y-76375000D01*
X152060750Y-76375000D01*
X152217000Y-76218750D01*
X152217000Y-73585000D01*
X152967000Y-73585000D01*
X152967000Y-76218750D01*
X153123250Y-76375000D01*
X153926320Y-76375000D01*
X154156034Y-76279849D01*
X154331850Y-76104034D01*
X154427000Y-75874320D01*
X154427000Y-73741250D01*
X154270750Y-73585000D01*
X152967000Y-73585000D01*
X152217000Y-73585000D01*
X150913250Y-73585000D01*
X150757000Y-73741250D01*
X147572000Y-73741250D01*
X147572000Y-70804000D01*
X150757000Y-70804000D01*
X150757000Y-72678750D01*
X150913250Y-72835000D01*
X152217000Y-72835000D01*
X152217000Y-72815000D01*
X152967000Y-72815000D01*
X152967000Y-72835000D01*
X154270750Y-72835000D01*
X154427000Y-72678750D01*
X154427000Y-70804000D01*
X157990000Y-70804000D01*
X157990000Y-76962000D01*
X157998549Y-77007432D01*
X158025399Y-77049159D01*
X158066368Y-77077152D01*
X158086787Y-77081287D01*
X158218890Y-77401000D01*
X158563187Y-77745899D01*
X159013263Y-77932787D01*
X159500599Y-77933212D01*
X159951000Y-77747110D01*
X160295899Y-77402813D01*
X160429243Y-77081686D01*
X160446432Y-77078451D01*
X160488159Y-77051601D01*
X160516152Y-77010632D01*
X160526000Y-76962000D01*
X160526000Y-76375000D01*
X160820750Y-76375000D01*
X160977000Y-76218750D01*
X160977000Y-73585000D01*
X161727000Y-73585000D01*
X161727000Y-76218750D01*
X161883250Y-76375000D01*
X162686320Y-76375000D01*
X162916034Y-76279849D01*
X163091850Y-76104034D01*
X163187000Y-75874320D01*
X163187000Y-73741250D01*
X169045000Y-73741250D01*
X169045000Y-75874320D01*
X169140150Y-76104034D01*
X169315966Y-76279849D01*
X169545680Y-76375000D01*
X170348750Y-76375000D01*
X170505000Y-76218750D01*
X170505000Y-73585000D01*
X171255000Y-73585000D01*
X171255000Y-76218750D01*
X171411250Y-76375000D01*
X172214320Y-76375000D01*
X172444034Y-76279849D01*
X172619850Y-76104034D01*
X172715000Y-75874320D01*
X172715000Y-73741250D01*
X172558750Y-73585000D01*
X171255000Y-73585000D01*
X170505000Y-73585000D01*
X169201250Y-73585000D01*
X169045000Y-73741250D01*
X163187000Y-73741250D01*
X163030750Y-73585000D01*
X161727000Y-73585000D01*
X160977000Y-73585000D01*
X160957000Y-73585000D01*
X160957000Y-72835000D01*
X160977000Y-72835000D01*
X160977000Y-72815000D01*
X161727000Y-72815000D01*
X161727000Y-72835000D01*
X163030750Y-72835000D01*
X163187000Y-72678750D01*
X163187000Y-70804000D01*
X169045000Y-70804000D01*
X169045000Y-72678750D01*
X169201250Y-72835000D01*
X170505000Y-72835000D01*
X170505000Y-72815000D01*
X171255000Y-72815000D01*
X171255000Y-72835000D01*
X172558750Y-72835000D01*
X172715000Y-72678750D01*
X172715000Y-70804000D01*
X176278000Y-70804000D01*
X176278000Y-76962000D01*
X176286549Y-77007432D01*
X176313399Y-77049159D01*
X176354368Y-77077152D01*
X176374787Y-77081287D01*
X176506890Y-77401000D01*
X176851187Y-77745899D01*
X177301263Y-77932787D01*
X177788599Y-77933212D01*
X178239000Y-77747110D01*
X178583899Y-77402813D01*
X178717243Y-77081686D01*
X178734432Y-77078451D01*
X178776159Y-77051601D01*
X178804152Y-77010632D01*
X178814000Y-76962000D01*
X178814000Y-76375000D01*
X179108750Y-76375000D01*
X179265000Y-76218750D01*
X179265000Y-73585000D01*
X180015000Y-73585000D01*
X180015000Y-76218750D01*
X180171250Y-76375000D01*
X180974320Y-76375000D01*
X181204034Y-76279849D01*
X181379850Y-76104034D01*
X181475000Y-75874320D01*
X181475000Y-73741250D01*
X181318750Y-73585000D01*
X180015000Y-73585000D01*
X179265000Y-73585000D01*
X179245000Y-73585000D01*
X179245000Y-72835000D01*
X179265000Y-72835000D01*
X179265000Y-72815000D01*
X180015000Y-72815000D01*
X180015000Y-72835000D01*
X181318750Y-72835000D01*
X181475000Y-72678750D01*
X181475000Y-70804000D01*
X185168000Y-70804000D01*
X185168000Y-76327000D01*
X185176549Y-76372432D01*
X185203399Y-76414159D01*
X185244368Y-76442152D01*
X185293000Y-76452000D01*
X210820000Y-76452000D01*
X210865432Y-76443451D01*
X210907159Y-76416601D01*
X210935152Y-76375632D01*
X210945000Y-76327000D01*
X210945000Y-76089449D01*
X210987038Y-76027924D01*
X211037244Y-75780000D01*
X211037244Y-74080000D01*
X210993663Y-73848389D01*
X210945000Y-73772764D01*
X210945000Y-72898000D01*
X210936451Y-72852568D01*
X210909601Y-72810841D01*
X210868632Y-72782848D01*
X210823503Y-72773709D01*
X210820314Y-72765000D01*
X209925000Y-72765000D01*
X209925000Y-72773000D01*
X209175000Y-72773000D01*
X209175000Y-72765000D01*
X209167000Y-72765000D01*
X209167000Y-72015000D01*
X209175000Y-72015000D01*
X209175000Y-71125691D01*
X209925000Y-71125691D01*
X209925000Y-72015000D01*
X210820314Y-72015000D01*
X210900338Y-71796453D01*
X210570409Y-71324882D01*
X210143542Y-71039692D01*
X209925000Y-71125691D01*
X209175000Y-71125691D01*
X209167000Y-71122543D01*
X209167000Y-70804000D01*
X211136000Y-70804000D01*
X211136000Y-126300000D01*
X170792544Y-126300000D01*
X172219300Y-124873244D01*
X172450000Y-124873244D01*
X172681611Y-124829663D01*
X172894332Y-124692781D01*
X173037038Y-124483924D01*
X173087244Y-124236000D01*
X173087244Y-123562926D01*
X174945304Y-123562926D01*
X175191041Y-124144477D01*
X175640622Y-124587721D01*
X175912272Y-124739010D01*
X176155000Y-124656071D01*
X176155000Y-123311000D01*
X175069922Y-123311000D01*
X174945304Y-123562926D01*
X173087244Y-123562926D01*
X173087244Y-122309074D01*
X174945304Y-122309074D01*
X175069922Y-122561000D01*
X176155000Y-122561000D01*
X176155000Y-121215929D01*
X176905000Y-121215929D01*
X176905000Y-122561000D01*
X176913000Y-122561000D01*
X176913000Y-123311000D01*
X176905000Y-123311000D01*
X176905000Y-124656071D01*
X176913000Y-124658805D01*
X176913000Y-124841000D01*
X176921549Y-124886432D01*
X176948399Y-124928159D01*
X176989368Y-124956152D01*
X177038000Y-124966000D01*
X185674000Y-124966000D01*
X185719432Y-124957451D01*
X185761159Y-124930601D01*
X185789152Y-124889632D01*
X185799000Y-124841000D01*
X185799000Y-122382888D01*
X186170599Y-122383212D01*
X186621000Y-122197110D01*
X186965899Y-121852813D01*
X187152787Y-121402737D01*
X187153212Y-120915401D01*
X186967110Y-120465000D01*
X186622813Y-120120101D01*
X186172737Y-119933213D01*
X185685401Y-119932788D01*
X185235000Y-120118890D01*
X185209846Y-120144000D01*
X182218377Y-120144000D01*
X182141110Y-119957000D01*
X181796813Y-119612101D01*
X181346737Y-119425213D01*
X180859401Y-119424788D01*
X180409000Y-119610890D01*
X180373829Y-119646000D01*
X179324000Y-119646000D01*
X179036987Y-119703090D01*
X178793670Y-119865670D01*
X178539670Y-120119670D01*
X178377090Y-120362987D01*
X178320000Y-120650000D01*
X178320000Y-121160000D01*
X177196226Y-121160000D01*
X177147728Y-121132990D01*
X177068681Y-121160000D01*
X177038000Y-121160000D01*
X176992568Y-121168549D01*
X176950841Y-121195399D01*
X176946503Y-121201748D01*
X176905000Y-121215929D01*
X176155000Y-121215929D01*
X175912272Y-121132990D01*
X175640622Y-121284279D01*
X175191041Y-121727523D01*
X174945304Y-122309074D01*
X173087244Y-122309074D01*
X173087244Y-121636000D01*
X173043663Y-121404389D01*
X172906781Y-121191668D01*
X172825000Y-121135789D01*
X172825000Y-120711544D01*
X181947272Y-111589272D01*
X182245334Y-111143189D01*
X182350000Y-110617000D01*
X182245334Y-110090811D01*
X181947272Y-109644728D01*
X181501189Y-109346666D01*
X180975000Y-109242000D01*
X180448811Y-109346666D01*
X180002728Y-109644728D01*
X171281456Y-118366000D01*
X169418000Y-118366000D01*
X169372568Y-118374549D01*
X169330841Y-118401399D01*
X169325551Y-118409140D01*
X168921401Y-118408788D01*
X168471000Y-118594890D01*
X168126101Y-118939187D01*
X167939213Y-119389263D01*
X167938788Y-119876599D01*
X168124890Y-120327000D01*
X168160000Y-120362171D01*
X168160000Y-121160000D01*
X167120000Y-121160000D01*
X167120000Y-120616209D01*
X167407899Y-120328813D01*
X167594787Y-119878737D01*
X167595212Y-119391401D01*
X167409110Y-118941000D01*
X167064813Y-118596101D01*
X166614737Y-118409213D01*
X166127401Y-118408788D01*
X165677000Y-118594890D01*
X165332101Y-118939187D01*
X165145213Y-119389263D01*
X165144788Y-119876599D01*
X165330890Y-120327000D01*
X165620000Y-120616616D01*
X165620000Y-121160000D01*
X164496226Y-121160000D01*
X164447728Y-121132990D01*
X164205000Y-121215929D01*
X164205000Y-122561000D01*
X164225000Y-122561000D01*
X164225000Y-123311000D01*
X164205000Y-123311000D01*
X164205000Y-123331000D01*
X163455000Y-123331000D01*
X163455000Y-123311000D01*
X162369922Y-123311000D01*
X162303143Y-123446000D01*
X161925000Y-123446000D01*
X161879568Y-123454549D01*
X161837841Y-123481399D01*
X161809848Y-123522368D01*
X161800000Y-123571000D01*
X161800000Y-124101000D01*
X159961805Y-124101000D01*
X159974787Y-124069737D01*
X159975212Y-123582401D01*
X159789110Y-123132000D01*
X159500000Y-122842384D01*
X159500000Y-122309074D01*
X162245304Y-122309074D01*
X162369922Y-122561000D01*
X163455000Y-122561000D01*
X163455000Y-121215929D01*
X163212272Y-121132990D01*
X162940622Y-121284279D01*
X162491041Y-121727523D01*
X162245304Y-122309074D01*
X159500000Y-122309074D01*
X159500000Y-115050599D01*
X167938788Y-115050599D01*
X168124890Y-115501000D01*
X168469187Y-115845899D01*
X168919263Y-116032787D01*
X169406599Y-116033212D01*
X169857000Y-115847110D01*
X170201899Y-115502813D01*
X170388787Y-115052737D01*
X170389144Y-114643516D01*
X170980330Y-114052330D01*
X170985896Y-114044000D01*
X171894500Y-114044000D01*
X171939932Y-114035451D01*
X171954620Y-114026000D01*
X172043750Y-114026000D01*
X172200000Y-113869750D01*
X172200000Y-113088500D01*
X172700000Y-113088500D01*
X172700000Y-113869750D01*
X172856250Y-114026000D01*
X173074320Y-114026000D01*
X173304034Y-113930850D01*
X173479849Y-113755034D01*
X173575000Y-113525320D01*
X173575000Y-113244750D01*
X173418750Y-113088500D01*
X172700000Y-113088500D01*
X172200000Y-113088500D01*
X172055000Y-113088500D01*
X172055000Y-112463500D01*
X172200000Y-112463500D01*
X172200000Y-111682250D01*
X172700000Y-111682250D01*
X172700000Y-112463500D01*
X173418750Y-112463500D01*
X173575000Y-112307250D01*
X173575000Y-112026680D01*
X173479849Y-111796966D01*
X173304034Y-111621150D01*
X173074320Y-111526000D01*
X172856250Y-111526000D01*
X172700000Y-111682250D01*
X172200000Y-111682250D01*
X172043750Y-111526000D01*
X171955063Y-111526000D01*
X171943132Y-111517848D01*
X171894500Y-111508000D01*
X169418000Y-111508000D01*
X169372568Y-111516549D01*
X169330841Y-111543399D01*
X169302848Y-111584368D01*
X169293000Y-111633000D01*
X169293000Y-113583112D01*
X168921401Y-113582788D01*
X168471000Y-113768890D01*
X168126101Y-114113187D01*
X167939213Y-114563263D01*
X167938788Y-115050599D01*
X159500000Y-115050599D01*
X159500000Y-112551709D01*
X159787899Y-112264313D01*
X159974787Y-111814237D01*
X159975212Y-111326901D01*
X159963064Y-111297500D01*
X161903510Y-111297500D01*
X164342523Y-113736513D01*
X164441890Y-113977000D01*
X164786187Y-114321899D01*
X165236263Y-114508787D01*
X165723599Y-114509212D01*
X166174000Y-114323110D01*
X166518899Y-113978813D01*
X166705787Y-113528737D01*
X166706212Y-113041401D01*
X166520110Y-112591000D01*
X166175813Y-112246101D01*
X165933455Y-112145465D01*
X163307490Y-109519500D01*
X173482000Y-109519500D01*
X173912519Y-109433864D01*
X174277495Y-109189995D01*
X181622000Y-101845490D01*
X181622000Y-102870000D01*
X181679090Y-103157013D01*
X181841670Y-103400330D01*
X182603670Y-104162330D01*
X182846987Y-104324910D01*
X183134000Y-104382000D01*
X188411340Y-104382000D01*
X189566340Y-105537000D01*
X182095670Y-113007670D01*
X181933090Y-113250987D01*
X181876000Y-113538000D01*
X181876000Y-115349791D01*
X181588101Y-115637187D01*
X181401213Y-116087263D01*
X181400788Y-116574599D01*
X181586890Y-117025000D01*
X181931187Y-117369899D01*
X182252314Y-117503243D01*
X182255549Y-117520432D01*
X182282399Y-117562159D01*
X182323368Y-117590152D01*
X182372000Y-117600000D01*
X185168000Y-117600000D01*
X185168000Y-118618000D01*
X185176549Y-118663432D01*
X185203399Y-118705159D01*
X185244368Y-118733152D01*
X185293000Y-118743000D01*
X185353768Y-118743000D01*
X185647017Y-119181880D01*
X186125542Y-119501619D01*
X186604353Y-119596861D01*
X186641368Y-119622152D01*
X186690000Y-119632000D01*
X191815001Y-119632000D01*
X191814788Y-119876599D01*
X192000890Y-120327000D01*
X192345187Y-120671899D01*
X192795263Y-120858787D01*
X193201170Y-120859141D01*
X193204399Y-120864159D01*
X193245368Y-120892152D01*
X193294000Y-120902000D01*
X194463623Y-120902000D01*
X194540890Y-121089000D01*
X194885187Y-121433899D01*
X195335263Y-121620787D01*
X195822599Y-121621212D01*
X196273000Y-121435110D01*
X196617899Y-121090813D01*
X196804787Y-120640737D01*
X196805141Y-120234830D01*
X196810159Y-120231601D01*
X196838152Y-120190632D01*
X196848000Y-120142000D01*
X196848000Y-119632000D01*
X210896200Y-119632000D01*
X210941632Y-119623451D01*
X210983359Y-119596601D01*
X211011352Y-119555632D01*
X211021200Y-119507000D01*
X211021200Y-119039227D01*
X211037244Y-118960000D01*
X211037244Y-117260000D01*
X211021200Y-117174734D01*
X211021200Y-115618001D01*
X211025000Y-115598897D01*
X211025000Y-115541103D01*
X211021200Y-115521999D01*
X211021200Y-114173000D01*
X211012651Y-114127568D01*
X210985801Y-114085841D01*
X210944832Y-114057848D01*
X210896200Y-114048000D01*
X198870000Y-114048000D01*
X198870000Y-112824244D01*
X202046000Y-112824244D01*
X202277611Y-112780663D01*
X202490332Y-112643781D01*
X202494965Y-112637000D01*
X205138569Y-112637000D01*
X205299187Y-112797899D01*
X205749263Y-112984787D01*
X206236599Y-112985212D01*
X206687000Y-112799110D01*
X207031899Y-112454813D01*
X207218787Y-112004737D01*
X207219212Y-111517401D01*
X207033110Y-111067000D01*
X206744000Y-110777384D01*
X206744000Y-107186000D01*
X208661000Y-107186000D01*
X208706432Y-107177451D01*
X208748159Y-107150601D01*
X208770293Y-107118206D01*
X208954332Y-106999781D01*
X209097038Y-106790924D01*
X209147244Y-106543000D01*
X209147244Y-105293000D01*
X209135000Y-105227929D01*
X209135000Y-104317463D01*
X209147244Y-104257000D01*
X209147244Y-103007000D01*
X209135000Y-102941929D01*
X209135000Y-101015463D01*
X209147244Y-100955000D01*
X209147244Y-99705000D01*
X209135000Y-99639929D01*
X209135000Y-98729463D01*
X209147244Y-98669000D01*
X209147244Y-97419000D01*
X209135000Y-97353929D01*
X209135000Y-95427463D01*
X209147244Y-95367000D01*
X209147244Y-94117000D01*
X209135000Y-94051929D01*
X209135000Y-93141463D01*
X209147244Y-93081000D01*
X209147244Y-91831000D01*
X209103663Y-91599389D01*
X208966781Y-91386668D01*
X208757924Y-91243962D01*
X208633820Y-91218830D01*
X208405000Y-90990010D01*
X208405000Y-88457518D01*
X208488787Y-88255737D01*
X208489212Y-87768401D01*
X208303110Y-87318000D01*
X207958813Y-86973101D01*
X207508737Y-86786213D01*
X207021401Y-86785788D01*
X206571000Y-86971890D01*
X206226101Y-87316187D01*
X206039213Y-87766263D01*
X206039109Y-87886000D01*
X205740000Y-87886000D01*
X205694568Y-87894549D01*
X205679880Y-87904000D01*
X205654250Y-87904000D01*
X205498000Y-88060250D01*
X205498000Y-88841500D01*
X205643000Y-88841500D01*
X205643000Y-89466500D01*
X205498000Y-89466500D01*
X205498000Y-89549000D01*
X204998000Y-89549000D01*
X204998000Y-89466500D01*
X204365736Y-89466500D01*
X204333737Y-89453213D01*
X203846401Y-89452788D01*
X203396000Y-89638890D01*
X203051101Y-89983187D01*
X202864213Y-90433263D01*
X202863788Y-90920599D01*
X203049890Y-91371000D01*
X203394187Y-91715899D01*
X203844263Y-91902787D01*
X203868956Y-91902809D01*
X203872399Y-91908159D01*
X203913368Y-91936152D01*
X203962000Y-91946000D01*
X204872756Y-91946000D01*
X204872756Y-92532584D01*
X202364405Y-95040935D01*
X202195401Y-95040788D01*
X201745000Y-95226890D01*
X201400101Y-95571187D01*
X201213213Y-96021263D01*
X201213109Y-96141000D01*
X199644000Y-96141000D01*
X199601486Y-96149000D01*
X194056000Y-96149000D01*
X193828839Y-96191743D01*
X193620206Y-96325995D01*
X193480241Y-96530840D01*
X193456313Y-96649000D01*
X190752000Y-96649000D01*
X190752000Y-95546874D01*
X191313203Y-95435244D01*
X192002602Y-94974602D01*
X192463244Y-94285203D01*
X192625000Y-93472000D01*
X192602964Y-93361218D01*
X193078348Y-92505527D01*
X193157000Y-92202000D01*
X193157000Y-89914000D01*
X195199000Y-89914000D01*
X195244432Y-89905451D01*
X195286159Y-89878601D01*
X195314152Y-89837632D01*
X195324000Y-89789000D01*
X195324000Y-89475297D01*
X195371244Y-89242000D01*
X195371244Y-88923250D01*
X196309000Y-88923250D01*
X196309000Y-89366320D01*
X196404151Y-89596034D01*
X196579966Y-89771850D01*
X196809680Y-89867000D01*
X197102750Y-89867000D01*
X197259000Y-89710750D01*
X197259000Y-88767000D01*
X197909000Y-88767000D01*
X197909000Y-89710750D01*
X198065250Y-89867000D01*
X198358320Y-89867000D01*
X198588034Y-89771850D01*
X198763849Y-89596034D01*
X198859000Y-89366320D01*
X198859000Y-88923250D01*
X198702750Y-88767000D01*
X197909000Y-88767000D01*
X197259000Y-88767000D01*
X196465250Y-88767000D01*
X196309000Y-88923250D01*
X195371244Y-88923250D01*
X195371244Y-88849287D01*
X195459682Y-88404680D01*
X204123000Y-88404680D01*
X204123000Y-88685250D01*
X204279250Y-88841500D01*
X204998000Y-88841500D01*
X204998000Y-88060250D01*
X204841750Y-87904000D01*
X204623680Y-87904000D01*
X204393966Y-87999150D01*
X204218151Y-88174966D01*
X204123000Y-88404680D01*
X195459682Y-88404680D01*
X195463000Y-88388000D01*
X195463000Y-87417680D01*
X196309000Y-87417680D01*
X196309000Y-87860750D01*
X196465250Y-88017000D01*
X197259000Y-88017000D01*
X197259000Y-87073250D01*
X197909000Y-87073250D01*
X197909000Y-88017000D01*
X198702750Y-88017000D01*
X198859000Y-87860750D01*
X198859000Y-87417680D01*
X198763849Y-87187966D01*
X198588034Y-87012150D01*
X198358320Y-86917000D01*
X198065250Y-86917000D01*
X197909000Y-87073250D01*
X197259000Y-87073250D01*
X197102750Y-86917000D01*
X196809680Y-86917000D01*
X196579966Y-87012150D01*
X196404151Y-87187966D01*
X196309000Y-87417680D01*
X195463000Y-87417680D01*
X195463000Y-85977000D01*
X196804498Y-85977000D01*
X197274798Y-86291244D01*
X198088000Y-86453000D01*
X199678605Y-86453000D01*
X199723219Y-86522332D01*
X199932076Y-86665038D01*
X200180000Y-86715244D01*
X203680000Y-86715244D01*
X203911611Y-86671663D01*
X204124332Y-86534781D01*
X204267038Y-86325924D01*
X204317244Y-86078000D01*
X204317244Y-84859250D01*
X205555000Y-84859250D01*
X205555000Y-86202320D01*
X205650151Y-86432034D01*
X205825966Y-86607850D01*
X206055680Y-86703000D01*
X207398750Y-86703000D01*
X207555000Y-86546750D01*
X207555000Y-84703000D01*
X208305000Y-84703000D01*
X208305000Y-86546750D01*
X208461250Y-86703000D01*
X209804320Y-86703000D01*
X210034034Y-86607850D01*
X210209849Y-86432034D01*
X210305000Y-86202320D01*
X210305000Y-84859250D01*
X210148750Y-84703000D01*
X208305000Y-84703000D01*
X207555000Y-84703000D01*
X205711250Y-84703000D01*
X205555000Y-84859250D01*
X204317244Y-84859250D01*
X204317244Y-82578000D01*
X204293852Y-82453680D01*
X205555000Y-82453680D01*
X205555000Y-83796750D01*
X205711250Y-83953000D01*
X207555000Y-83953000D01*
X207555000Y-82109250D01*
X208305000Y-82109250D01*
X208305000Y-83953000D01*
X210148750Y-83953000D01*
X210305000Y-83796750D01*
X210305000Y-82453680D01*
X210209849Y-82223966D01*
X210034034Y-82048150D01*
X209804320Y-81953000D01*
X208461250Y-81953000D01*
X208305000Y-82109250D01*
X207555000Y-82109250D01*
X207398750Y-81953000D01*
X206055680Y-81953000D01*
X205825966Y-82048150D01*
X205650151Y-82223966D01*
X205555000Y-82453680D01*
X204293852Y-82453680D01*
X204273663Y-82346389D01*
X204136781Y-82133668D01*
X203927924Y-81990962D01*
X203680000Y-81940756D01*
X200180000Y-81940756D01*
X199948389Y-81984337D01*
X199735668Y-82121219D01*
X199679789Y-82203000D01*
X199463000Y-82203000D01*
X199463000Y-81262493D01*
X199507680Y-81281000D01*
X200350750Y-81281000D01*
X200507000Y-81124750D01*
X200507000Y-80131000D01*
X201257000Y-80131000D01*
X201257000Y-81124750D01*
X201413250Y-81281000D01*
X202256320Y-81281000D01*
X202486034Y-81185850D01*
X202661849Y-81010034D01*
X202757000Y-80780320D01*
X202757000Y-80287250D01*
X202600750Y-80131000D01*
X201257000Y-80131000D01*
X200507000Y-80131000D01*
X199163250Y-80131000D01*
X199158105Y-80136145D01*
X199060272Y-79989728D01*
X198769244Y-79698700D01*
X198769244Y-78856000D01*
X198745852Y-78731680D01*
X199007000Y-78731680D01*
X199007000Y-79224750D01*
X199163250Y-79381000D01*
X200507000Y-79381000D01*
X200507000Y-78387250D01*
X201257000Y-78387250D01*
X201257000Y-79381000D01*
X202600750Y-79381000D01*
X202757000Y-79224750D01*
X202757000Y-78731680D01*
X202661849Y-78501966D01*
X202486034Y-78326150D01*
X202256320Y-78231000D01*
X201413250Y-78231000D01*
X201257000Y-78387250D01*
X200507000Y-78387250D01*
X200350750Y-78231000D01*
X199507680Y-78231000D01*
X199277966Y-78326150D01*
X199102151Y-78501966D01*
X199007000Y-78731680D01*
X198745852Y-78731680D01*
X198725663Y-78624389D01*
X198588781Y-78411668D01*
X198379924Y-78268962D01*
X198132000Y-78218756D01*
X195632000Y-78218756D01*
X195400389Y-78262337D01*
X195187668Y-78399219D01*
X195044962Y-78608076D01*
X194994756Y-78856000D01*
X194994756Y-80656000D01*
X195038337Y-80887611D01*
X195175219Y-81100332D01*
X195384076Y-81243038D01*
X195632000Y-81293244D01*
X196474700Y-81293244D01*
X196713000Y-81531544D01*
X196713000Y-82679000D01*
X195371502Y-82679000D01*
X194901202Y-82364756D01*
X194088000Y-82203000D01*
X190031160Y-82203000D01*
X189992334Y-82007810D01*
X189990000Y-82004317D01*
X189990000Y-81153000D01*
X189981451Y-81107568D01*
X189972000Y-81092880D01*
X189972000Y-80940250D01*
X189815750Y-80784000D01*
X189034500Y-80784000D01*
X189034500Y-80929000D01*
X188409500Y-80929000D01*
X188409500Y-80784000D01*
X187628250Y-80784000D01*
X187472000Y-80940250D01*
X187472000Y-81092437D01*
X187463848Y-81104368D01*
X187454000Y-81153000D01*
X187454000Y-82004317D01*
X187451666Y-82007810D01*
X187376659Y-82384894D01*
X186717398Y-82825398D01*
X186506683Y-83140756D01*
X185920000Y-83140756D01*
X185688389Y-83184337D01*
X185475668Y-83321219D01*
X185332962Y-83530076D01*
X185282756Y-83778000D01*
X185282756Y-84878000D01*
X185295000Y-84943071D01*
X185295000Y-86106000D01*
X185303549Y-86151432D01*
X185308994Y-86159895D01*
X185295000Y-86193680D01*
X185295000Y-86436750D01*
X185451250Y-86593000D01*
X187845000Y-86593000D01*
X187845000Y-86473000D01*
X188595000Y-86473000D01*
X188595000Y-86593000D01*
X188615000Y-86593000D01*
X188615000Y-87143000D01*
X188595000Y-87143000D01*
X188595000Y-87263000D01*
X187845000Y-87263000D01*
X187845000Y-87143000D01*
X185451250Y-87143000D01*
X185295000Y-87299250D01*
X185295000Y-87505000D01*
X185293000Y-87505000D01*
X185247568Y-87513549D01*
X185205841Y-87540399D01*
X185177848Y-87581368D01*
X185168000Y-87630000D01*
X185168000Y-88392000D01*
X185176000Y-88434514D01*
X185176000Y-90029297D01*
X184933398Y-90191398D01*
X184472756Y-90880798D01*
X184311000Y-91694000D01*
X184472756Y-92507202D01*
X184933398Y-93196602D01*
X185622798Y-93657244D01*
X186436000Y-93819000D01*
X187841796Y-93819000D01*
X188173840Y-94151044D01*
X188029000Y-94210890D01*
X187684101Y-94555187D01*
X187497213Y-95005263D01*
X187496788Y-95492599D01*
X187682890Y-95943000D01*
X188027187Y-96287899D01*
X188477263Y-96474787D01*
X188851000Y-96475113D01*
X188851000Y-97140915D01*
X188615195Y-97376309D01*
X188367282Y-97973349D01*
X188366718Y-98619814D01*
X188613588Y-99217286D01*
X189070309Y-99674805D01*
X189667349Y-99922718D01*
X190176894Y-99923163D01*
X190197368Y-99937152D01*
X190246000Y-99947000D01*
X191931000Y-99947000D01*
X191931000Y-100115250D01*
X192087250Y-100271500D01*
X192806000Y-100271500D01*
X192806000Y-100189000D01*
X193306000Y-100189000D01*
X193306000Y-100271500D01*
X193431000Y-100271500D01*
X193431000Y-100896500D01*
X193306000Y-100896500D01*
X193306000Y-101677750D01*
X193462250Y-101834000D01*
X193680320Y-101834000D01*
X193682861Y-101832948D01*
X193812840Y-101921759D01*
X194056000Y-101971000D01*
X198120000Y-101971000D01*
X198347161Y-101928257D01*
X198555794Y-101794005D01*
X198695759Y-101589160D01*
X198745000Y-101346000D01*
X198745000Y-100701000D01*
X199644000Y-100701000D01*
X199871161Y-100658257D01*
X200079794Y-100524005D01*
X200219759Y-100319160D01*
X200269000Y-100076000D01*
X200269000Y-97407000D01*
X201688000Y-97407000D01*
X201688000Y-102059756D01*
X198546000Y-102059756D01*
X198314389Y-102103337D01*
X198101668Y-102240219D01*
X197958962Y-102449076D01*
X197948787Y-102499320D01*
X197947568Y-102499549D01*
X197905841Y-102526399D01*
X197877848Y-102567368D01*
X197868000Y-102616000D01*
X197868000Y-105412000D01*
X195324000Y-105412000D01*
X195324000Y-103378000D01*
X195315451Y-103332568D01*
X195288601Y-103290841D01*
X195247632Y-103262848D01*
X195226273Y-103258523D01*
X195114750Y-103147000D01*
X193271000Y-103147000D01*
X193271000Y-103297000D01*
X192521000Y-103297000D01*
X192521000Y-103147000D01*
X190677250Y-103147000D01*
X190521000Y-103303250D01*
X190521000Y-103315974D01*
X190511848Y-103329368D01*
X190502000Y-103378000D01*
X190502000Y-104351340D01*
X189252330Y-103101670D01*
X189009013Y-102939090D01*
X188722000Y-102882000D01*
X187069000Y-102882000D01*
X187069000Y-102572680D01*
X190521000Y-102572680D01*
X190521000Y-102690750D01*
X190677250Y-102847000D01*
X192521000Y-102847000D01*
X192521000Y-102228250D01*
X193271000Y-102228250D01*
X193271000Y-102847000D01*
X195114750Y-102847000D01*
X195271000Y-102690750D01*
X195271000Y-102572680D01*
X195175849Y-102342966D01*
X195000034Y-102167150D01*
X194770320Y-102072000D01*
X193427250Y-102072000D01*
X193271000Y-102228250D01*
X192521000Y-102228250D01*
X192364750Y-102072000D01*
X191021680Y-102072000D01*
X190791966Y-102167150D01*
X190616151Y-102342966D01*
X190521000Y-102572680D01*
X187069000Y-102572680D01*
X187069000Y-101052750D01*
X191931000Y-101052750D01*
X191931000Y-101333320D01*
X192026151Y-101563034D01*
X192201966Y-101738850D01*
X192431680Y-101834000D01*
X192649750Y-101834000D01*
X192806000Y-101677750D01*
X192806000Y-100896500D01*
X192087250Y-100896500D01*
X191931000Y-101052750D01*
X187069000Y-101052750D01*
X187069000Y-94996000D01*
X187060451Y-94950568D01*
X187033601Y-94908841D01*
X186992632Y-94880848D01*
X186944000Y-94871000D01*
X182370000Y-94871000D01*
X182370000Y-94107000D01*
X182361451Y-94061568D01*
X182334601Y-94019841D01*
X182293632Y-93991848D01*
X182245000Y-93982000D01*
X182227000Y-93982000D01*
X182227000Y-93488000D01*
X182223244Y-93469117D01*
X182223244Y-92847000D01*
X182179663Y-92615389D01*
X182042781Y-92402668D01*
X181833924Y-92259962D01*
X181586000Y-92209756D01*
X180876425Y-92209756D01*
X180848000Y-92204000D01*
X179578000Y-92204000D01*
X179532568Y-92212549D01*
X179517880Y-92222000D01*
X179492250Y-92222000D01*
X179336000Y-92378250D01*
X179336000Y-93159500D01*
X179481000Y-93159500D01*
X179481000Y-93784500D01*
X179336000Y-93784500D01*
X179336000Y-94565750D01*
X179492250Y-94722000D01*
X179710320Y-94722000D01*
X179876856Y-94653019D01*
X179876788Y-94730599D01*
X179976889Y-94972861D01*
X179890500Y-95059250D01*
X179890500Y-95310732D01*
X179852000Y-95403680D01*
X179852000Y-95621750D01*
X179890500Y-95660250D01*
X179890500Y-95778000D01*
X180789500Y-95778000D01*
X180789500Y-95684649D01*
X180857263Y-95712787D01*
X181344599Y-95713212D01*
X181414500Y-95684329D01*
X181414500Y-95778000D01*
X181497000Y-95778000D01*
X181497000Y-96278000D01*
X181414500Y-96278000D01*
X181414500Y-96423000D01*
X180816750Y-96423000D01*
X180789500Y-96395750D01*
X180789500Y-96278000D01*
X179890500Y-96278000D01*
X179890500Y-96395750D01*
X179863250Y-96423000D01*
X179265500Y-96423000D01*
X179265500Y-96278000D01*
X178484250Y-96278000D01*
X178328000Y-96434250D01*
X178328000Y-96459437D01*
X178319848Y-96471368D01*
X178310000Y-96520000D01*
X178310000Y-97409000D01*
X178318549Y-97454432D01*
X178327756Y-97468741D01*
X178315756Y-97528000D01*
X178315756Y-98528000D01*
X178359337Y-98759611D01*
X178496219Y-98972332D01*
X178705076Y-99115038D01*
X178953000Y-99165244D01*
X180203000Y-99165244D01*
X180268071Y-99153000D01*
X180416537Y-99153000D01*
X180477000Y-99165244D01*
X180699776Y-99165244D01*
X180909481Y-99305364D01*
X180968422Y-99317088D01*
X173016010Y-107269500D01*
X153945490Y-107269500D01*
X144889000Y-98213010D01*
X144889000Y-97980500D01*
X144881016Y-97940364D01*
X144803365Y-97549982D01*
X144559495Y-97185005D01*
X143479995Y-96105505D01*
X143358014Y-96024000D01*
X143115019Y-95861636D01*
X142684500Y-95776000D01*
X138684000Y-95776000D01*
X138253481Y-95861636D01*
X138010486Y-96024000D01*
X137888505Y-96105505D01*
X136939982Y-97054028D01*
X136584186Y-97053718D01*
X135986714Y-97300588D01*
X135529195Y-97757309D01*
X135281282Y-98354349D01*
X135280718Y-99000814D01*
X135527588Y-99598286D01*
X135984309Y-100055805D01*
X136480743Y-100261943D01*
X136498899Y-100290159D01*
X136539868Y-100318152D01*
X136588500Y-100328000D01*
X142044010Y-100328000D01*
X152684005Y-110967995D01*
X153048982Y-111211865D01*
X153479500Y-111297500D01*
X154996534Y-111297500D01*
X154985213Y-111324763D01*
X154984788Y-111812099D01*
X155170890Y-112262500D01*
X155460000Y-112552116D01*
X155460000Y-115140146D01*
X155459848Y-115140368D01*
X155450000Y-115189000D01*
X155450000Y-116270500D01*
X155130500Y-116270500D01*
X155085068Y-116279049D01*
X155043341Y-116305899D01*
X155015348Y-116346868D01*
X155005500Y-116395500D01*
X155005500Y-116459000D01*
X155014049Y-116504432D01*
X155015500Y-116506687D01*
X155015500Y-117226000D01*
X155160500Y-117226000D01*
X155160500Y-117851000D01*
X155015500Y-117851000D01*
X155015500Y-118490824D01*
X154985213Y-118563763D01*
X154984788Y-119051099D01*
X155170890Y-119501500D01*
X155515187Y-119846399D01*
X155965263Y-120033287D01*
X156452599Y-120033712D01*
X156903000Y-119847610D01*
X156984000Y-119766751D01*
X156984000Y-121763291D01*
X156696101Y-122050687D01*
X156547530Y-122408486D01*
X152146294Y-118007250D01*
X153640500Y-118007250D01*
X153640500Y-118287820D01*
X153735651Y-118517534D01*
X153911466Y-118693350D01*
X154141180Y-118788500D01*
X154359250Y-118788500D01*
X154515500Y-118632250D01*
X154515500Y-117851000D01*
X153796750Y-117851000D01*
X153640500Y-118007250D01*
X152146294Y-118007250D01*
X151912639Y-117773595D01*
X151826046Y-117643998D01*
X151848272Y-117621772D01*
X152146335Y-117175689D01*
X152223216Y-116789180D01*
X153640500Y-116789180D01*
X153640500Y-117069750D01*
X153796750Y-117226000D01*
X154515500Y-117226000D01*
X154515500Y-116444750D01*
X154359250Y-116288500D01*
X154141180Y-116288500D01*
X153911466Y-116383650D01*
X153735651Y-116559466D01*
X153640500Y-116789180D01*
X152223216Y-116789180D01*
X152251000Y-116649500D01*
X152251000Y-113030000D01*
X152146334Y-112503810D01*
X151848272Y-112057728D01*
X146091500Y-106300956D01*
X146091500Y-105410000D01*
X145986834Y-104883810D01*
X145688772Y-104437728D01*
X144926772Y-103675728D01*
X144910736Y-103665013D01*
X144480690Y-103377666D01*
X143954500Y-103273000D01*
X142247036Y-103273000D01*
X142238253Y-103271253D01*
X139952253Y-103271253D01*
X139426063Y-103375919D01*
X138979981Y-103673981D01*
X138681919Y-104120063D01*
X138577253Y-104646253D01*
X138681919Y-105172443D01*
X138979981Y-105618525D01*
X139426063Y-105916587D01*
X139952253Y-106021253D01*
X141607000Y-106021253D01*
X141607000Y-107286811D01*
X141563500Y-107505500D01*
X141563500Y-109791500D01*
X141668166Y-110317690D01*
X141906913Y-110675000D01*
X141966228Y-110763772D01*
X145250456Y-114048000D01*
X133221000Y-114048000D01*
X133221000Y-112379000D01*
X133985000Y-112379000D01*
X134367684Y-112302880D01*
X134692107Y-112086107D01*
X135327107Y-111451107D01*
X135543880Y-111126684D01*
X135569875Y-110996000D01*
X136588500Y-110996000D01*
X136633932Y-110987451D01*
X136675659Y-110960601D01*
X136696486Y-110930120D01*
X137091000Y-110767110D01*
X137435899Y-110422813D01*
X137622787Y-109972737D01*
X137623212Y-109485401D01*
X137437110Y-109035000D01*
X137092813Y-108690101D01*
X136695712Y-108525210D01*
X136678101Y-108497841D01*
X136637132Y-108469848D01*
X136588500Y-108460000D01*
X135620000Y-108460000D01*
X135620000Y-106680000D01*
X135543880Y-106297317D01*
X135327107Y-105972893D01*
X135073107Y-105718893D01*
X134748684Y-105502120D01*
X134366000Y-105426000D01*
X131224214Y-105426000D01*
X131170000Y-105371786D01*
X131170000Y-102870000D01*
X131157244Y-102805871D01*
X131157244Y-102220000D01*
X131113663Y-101988389D01*
X130976781Y-101775668D01*
X130767924Y-101632962D01*
X130520000Y-101582756D01*
X129915755Y-101582756D01*
X129910451Y-101554568D01*
X129883601Y-101512841D01*
X129842632Y-101484848D01*
X129794000Y-101475000D01*
X126746000Y-101475000D01*
X126700568Y-101483549D01*
X126658841Y-101510399D01*
X126630848Y-101551368D01*
X126621000Y-101600000D01*
X126621000Y-101675250D01*
X126545000Y-101751250D01*
X126545000Y-102545000D01*
X126621000Y-102545000D01*
X126621000Y-103195000D01*
X126545000Y-103195000D01*
X126545000Y-104577000D01*
X126621000Y-104577000D01*
X126621000Y-105227000D01*
X126545000Y-105227000D01*
X126545000Y-106020750D01*
X126621000Y-106096750D01*
X126621000Y-106172000D01*
X126629549Y-106217432D01*
X126656399Y-106259159D01*
X126697368Y-106287152D01*
X126746000Y-106297000D01*
X127520000Y-106297000D01*
X127520000Y-107950000D01*
X127577090Y-108237013D01*
X127739670Y-108480330D01*
X129415000Y-110155660D01*
X129415000Y-111790223D01*
X129209966Y-111875150D01*
X129034151Y-112050966D01*
X128939000Y-112280680D01*
X128939000Y-112561250D01*
X129095250Y-112717500D01*
X129814000Y-112717500D01*
X129814000Y-112635000D01*
X130314000Y-112635000D01*
X130314000Y-112717500D01*
X130459000Y-112717500D01*
X130459000Y-113342500D01*
X130314000Y-113342500D01*
X130314000Y-113425000D01*
X129814000Y-113425000D01*
X129814000Y-113342500D01*
X129095250Y-113342500D01*
X129023070Y-113414680D01*
X128986568Y-113421549D01*
X128944841Y-113448399D01*
X128916848Y-113489368D01*
X128907000Y-113538000D01*
X128907000Y-114048000D01*
X127750000Y-114048000D01*
X127750000Y-110744000D01*
X127692910Y-110456987D01*
X127530330Y-110213670D01*
X126998000Y-109681340D01*
X126998000Y-107950000D01*
X126989451Y-107904568D01*
X126962601Y-107862841D01*
X126946783Y-107852033D01*
X126813750Y-107719000D01*
X124945000Y-107719000D01*
X124945000Y-107869000D01*
X124195000Y-107869000D01*
X124195000Y-107719000D01*
X124175000Y-107719000D01*
X124175000Y-107419000D01*
X124195000Y-107419000D01*
X124195000Y-106800250D01*
X124945000Y-106800250D01*
X124945000Y-107419000D01*
X126813750Y-107419000D01*
X126970000Y-107262750D01*
X126970000Y-107144680D01*
X126874849Y-106914966D01*
X126699034Y-106739150D01*
X126469320Y-106644000D01*
X125101250Y-106644000D01*
X124945000Y-106800250D01*
X124195000Y-106800250D01*
X124038750Y-106644000D01*
X122670680Y-106644000D01*
X122670000Y-106644282D01*
X122670000Y-105383250D01*
X125395000Y-105383250D01*
X125395000Y-105676320D01*
X125490151Y-105906034D01*
X125665966Y-106081850D01*
X125895680Y-106177000D01*
X126038750Y-106177000D01*
X126195000Y-106020750D01*
X126195000Y-105227000D01*
X125551250Y-105227000D01*
X125395000Y-105383250D01*
X122670000Y-105383250D01*
X122670000Y-103378000D01*
X125351000Y-103378000D01*
X125351000Y-104394000D01*
X125359549Y-104439432D01*
X125386399Y-104481159D01*
X125427368Y-104509152D01*
X125476000Y-104519000D01*
X125493250Y-104519000D01*
X125551250Y-104577000D01*
X126195000Y-104577000D01*
X126195000Y-103195000D01*
X125551250Y-103195000D01*
X125493250Y-103253000D01*
X125476000Y-103253000D01*
X125430568Y-103261549D01*
X125388841Y-103288399D01*
X125360848Y-103329368D01*
X125351000Y-103378000D01*
X122670000Y-103378000D01*
X122670000Y-102095680D01*
X125395000Y-102095680D01*
X125395000Y-102388750D01*
X125551250Y-102545000D01*
X126195000Y-102545000D01*
X126195000Y-101751250D01*
X126038750Y-101595000D01*
X125895680Y-101595000D01*
X125665966Y-101690150D01*
X125490151Y-101865966D01*
X125395000Y-102095680D01*
X122670000Y-102095680D01*
X122670000Y-98794000D01*
X124206000Y-98794000D01*
X124493013Y-98736910D01*
X124736330Y-98574330D01*
X125522660Y-97788000D01*
X127508000Y-97788000D01*
X127553432Y-97779451D01*
X127595159Y-97752601D01*
X127608339Y-97733311D01*
X127645128Y-97733343D01*
X128371286Y-97433300D01*
X128927348Y-96878209D01*
X129228657Y-96152575D01*
X129229310Y-95403680D01*
X178328000Y-95403680D01*
X178328000Y-95621750D01*
X178484250Y-95778000D01*
X179265500Y-95778000D01*
X179265500Y-95059250D01*
X179109250Y-94903000D01*
X178828680Y-94903000D01*
X178598966Y-94998151D01*
X178423150Y-95173966D01*
X178328000Y-95403680D01*
X129229310Y-95403680D01*
X129229343Y-95366872D01*
X128929300Y-94640714D01*
X128374209Y-94084652D01*
X128027654Y-93940750D01*
X177961000Y-93940750D01*
X177961000Y-94221320D01*
X178056151Y-94451034D01*
X178231966Y-94626850D01*
X178461680Y-94722000D01*
X178679750Y-94722000D01*
X178836000Y-94565750D01*
X178836000Y-93784500D01*
X178117250Y-93784500D01*
X177961000Y-93940750D01*
X128027654Y-93940750D01*
X127648575Y-93783343D01*
X127608841Y-93783308D01*
X127597601Y-93765841D01*
X127556632Y-93737848D01*
X127508000Y-93728000D01*
X126480000Y-93728000D01*
X126480000Y-92722680D01*
X177961000Y-92722680D01*
X177961000Y-93003250D01*
X178117250Y-93159500D01*
X178836000Y-93159500D01*
X178836000Y-92378250D01*
X178679750Y-92222000D01*
X178461680Y-92222000D01*
X178231966Y-92317150D01*
X178056151Y-92492966D01*
X177961000Y-92722680D01*
X126480000Y-92722680D01*
X126480000Y-92456000D01*
X126422910Y-92168987D01*
X126260330Y-91925670D01*
X125868201Y-91533541D01*
X125753110Y-91255000D01*
X125408813Y-90910101D01*
X124958737Y-90723213D01*
X124471401Y-90722788D01*
X124021000Y-90908890D01*
X123676101Y-91253187D01*
X123489213Y-91703263D01*
X123489191Y-91727956D01*
X123483841Y-91731399D01*
X123455848Y-91772368D01*
X123446000Y-91821000D01*
X123446000Y-93783222D01*
X122934000Y-93782775D01*
X122934000Y-92202000D01*
X122925451Y-92156568D01*
X122916000Y-92141880D01*
X122916000Y-92116250D01*
X122759750Y-91960000D01*
X121978500Y-91960000D01*
X121978500Y-92105000D01*
X121353500Y-92105000D01*
X121353500Y-91960000D01*
X121271000Y-91960000D01*
X121271000Y-91460000D01*
X121353500Y-91460000D01*
X121353500Y-90741250D01*
X121978500Y-90741250D01*
X121978500Y-91460000D01*
X122759750Y-91460000D01*
X122916000Y-91303750D01*
X122916000Y-91085680D01*
X122820850Y-90855966D01*
X122645034Y-90680151D01*
X122415320Y-90585000D01*
X122134750Y-90585000D01*
X121978500Y-90741250D01*
X121353500Y-90741250D01*
X121197250Y-90585000D01*
X120919780Y-90585000D01*
X120919780Y-88136000D01*
X122682000Y-88136000D01*
X122727432Y-88127451D01*
X122769159Y-88100601D01*
X122785580Y-88076569D01*
X122795425Y-88080657D01*
X123581128Y-88081343D01*
X124307286Y-87781300D01*
X124863348Y-87226209D01*
X125164657Y-86500575D01*
X125165343Y-85714872D01*
X124865300Y-84988714D01*
X124310209Y-84432652D01*
X123584575Y-84131343D01*
X122934000Y-84130775D01*
X122934000Y-82550000D01*
X122925451Y-82504568D01*
X122916000Y-82489880D01*
X122916000Y-82464250D01*
X122759750Y-82308000D01*
X121978500Y-82308000D01*
X121978500Y-82453000D01*
X121353500Y-82453000D01*
X121353500Y-82308000D01*
X121271000Y-82308000D01*
X121271000Y-81808000D01*
X121353500Y-81808000D01*
X121353500Y-81089250D01*
X121978500Y-81089250D01*
X121978500Y-81808000D01*
X122759750Y-81808000D01*
X122916000Y-81651750D01*
X122916000Y-81433680D01*
X122820850Y-81203966D01*
X122645034Y-81028151D01*
X122415320Y-80933000D01*
X122134750Y-80933000D01*
X121978500Y-81089250D01*
X121353500Y-81089250D01*
X121197250Y-80933000D01*
X120919780Y-80933000D01*
X120919780Y-78232000D01*
X124970000Y-78232000D01*
X124970000Y-80899000D01*
X124978549Y-80944432D01*
X125005399Y-80986159D01*
X125046368Y-81014152D01*
X125095000Y-81024000D01*
X130429000Y-81024000D01*
X130474432Y-81015451D01*
X130516159Y-80988601D01*
X130544152Y-80947632D01*
X130554000Y-80899000D01*
X130554000Y-78232000D01*
X130545451Y-78186568D01*
X130536000Y-78171880D01*
X130536000Y-78146250D01*
X130379750Y-77990000D01*
X129598500Y-77990000D01*
X129598500Y-78107000D01*
X128987109Y-78107000D01*
X128987212Y-77989401D01*
X128891000Y-77756550D01*
X128891000Y-77490000D01*
X128973500Y-77490000D01*
X128973500Y-76771250D01*
X129598500Y-76771250D01*
X129598500Y-77490000D01*
X130379750Y-77490000D01*
X130536000Y-77333750D01*
X130536000Y-77115680D01*
X130440850Y-76885966D01*
X130265034Y-76710151D01*
X130035320Y-76615000D01*
X129754750Y-76615000D01*
X129598500Y-76771250D01*
X128973500Y-76771250D01*
X128901320Y-76699070D01*
X128894451Y-76662568D01*
X128867601Y-76620841D01*
X128826632Y-76592848D01*
X128778000Y-76583000D01*
X126746000Y-76583000D01*
X126700568Y-76591549D01*
X126658841Y-76618399D01*
X126630848Y-76659368D01*
X126622841Y-76698909D01*
X126550500Y-76771250D01*
X126550500Y-77490000D01*
X126633000Y-77490000D01*
X126633000Y-77756582D01*
X126537213Y-77987263D01*
X126537109Y-78107000D01*
X125925500Y-78107000D01*
X125925500Y-77990000D01*
X125144250Y-77990000D01*
X124988000Y-78146250D01*
X124988000Y-78171437D01*
X124979848Y-78183368D01*
X124970000Y-78232000D01*
X120919780Y-78232000D01*
X120919780Y-77115680D01*
X124988000Y-77115680D01*
X124988000Y-77333750D01*
X125144250Y-77490000D01*
X125925500Y-77490000D01*
X125925500Y-76771250D01*
X125769250Y-76615000D01*
X125488680Y-76615000D01*
X125258966Y-76710151D01*
X125083150Y-76885966D01*
X124988000Y-77115680D01*
X120919780Y-77115680D01*
X120919780Y-70804000D01*
X121668000Y-70804000D01*
X121668000Y-76327000D01*
G36*
X190502000Y-109985554D02*
X190350670Y-110086670D01*
X189969670Y-110467670D01*
X189807090Y-110710987D01*
X189750000Y-110998000D01*
X189750000Y-114048000D01*
X185293000Y-114048000D01*
X185247568Y-114056549D01*
X185205841Y-114083399D01*
X185177848Y-114124368D01*
X185168000Y-114173000D01*
X185168000Y-115617853D01*
X184900000Y-115349384D01*
X184900000Y-113594660D01*
X190502000Y-107992660D01*
X190502000Y-109985554D01*
X190502000Y-109985554D01*
G37*
X190502000Y-109985554D02*
X190350670Y-110086670D01*
X189969670Y-110467670D01*
X189807090Y-110710987D01*
X189750000Y-110998000D01*
X189750000Y-114048000D01*
X185293000Y-114048000D01*
X185247568Y-114056549D01*
X185205841Y-114083399D01*
X185177848Y-114124368D01*
X185168000Y-114173000D01*
X185168000Y-115617853D01*
X184900000Y-115349384D01*
X184900000Y-113594660D01*
X190502000Y-107992660D01*
X190502000Y-109985554D01*
G36*
X123710000Y-114048000D02*
X122670000Y-114048000D01*
X122670000Y-112393000D01*
X123710000Y-112393000D01*
X123710000Y-114048000D01*
X123710000Y-114048000D01*
G37*
X123710000Y-114048000D02*
X122670000Y-114048000D01*
X122670000Y-112393000D01*
X123710000Y-112393000D01*
X123710000Y-114048000D01*
G36*
X126250000Y-114048000D02*
X125210000Y-114048000D01*
X125210000Y-112316244D01*
X126250000Y-112316244D01*
X126250000Y-114048000D01*
X126250000Y-114048000D01*
G37*
X126250000Y-114048000D02*
X125210000Y-114048000D01*
X125210000Y-112316244D01*
X126250000Y-112316244D01*
X126250000Y-114048000D01*
G36*
X192082500Y-86888000D02*
X192165000Y-86888000D01*
X192165000Y-87388000D01*
X192082500Y-87388000D01*
X192082500Y-87533000D01*
X191457500Y-87533000D01*
X191457500Y-87388000D01*
X191145000Y-87388000D01*
X191145000Y-87299250D01*
X191088752Y-87243002D01*
X191145000Y-87243002D01*
X191145000Y-86888000D01*
X191457500Y-86888000D01*
X191457500Y-86743000D01*
X192082500Y-86743000D01*
X192082500Y-86888000D01*
X192082500Y-86888000D01*
G37*
X192082500Y-86888000D02*
X192165000Y-86888000D01*
X192165000Y-87388000D01*
X192082500Y-87388000D01*
X192082500Y-87533000D01*
X191457500Y-87533000D01*
X191457500Y-87388000D01*
X191145000Y-87388000D01*
X191145000Y-87299250D01*
X191088752Y-87243002D01*
X191145000Y-87243002D01*
X191145000Y-86888000D01*
X191457500Y-86888000D01*
X191457500Y-86743000D01*
X192082500Y-86743000D01*
X192082500Y-86888000D01*
G36*
X199519000Y-99316000D02*
X199136000Y-99316000D01*
X199105411Y-99321756D01*
X198112000Y-99321756D01*
X197880389Y-99365337D01*
X197667668Y-99502219D01*
X197524962Y-99711076D01*
X197474756Y-99959000D01*
X197474756Y-101209000D01*
X197477014Y-101221000D01*
X194190814Y-101221000D01*
X194193244Y-101209000D01*
X194193244Y-99959000D01*
X194181000Y-99893929D01*
X194181000Y-96899000D01*
X199519000Y-96899000D01*
X199519000Y-99316000D01*
X199519000Y-99316000D01*
G37*
X199519000Y-99316000D02*
X199136000Y-99316000D01*
X199105411Y-99321756D01*
X198112000Y-99321756D01*
X197880389Y-99365337D01*
X197667668Y-99502219D01*
X197524962Y-99711076D01*
X197474756Y-99959000D01*
X197474756Y-101209000D01*
X197477014Y-101221000D01*
X194190814Y-101221000D01*
X194193244Y-101209000D01*
X194193244Y-99959000D01*
X194181000Y-99893929D01*
X194181000Y-96899000D01*
X199519000Y-96899000D01*
X199519000Y-99316000D01*
G36*
X192407000Y-92169609D02*
X191828128Y-93211579D01*
X188481804Y-92839765D01*
X188468000Y-92839000D01*
X185926000Y-92839000D01*
X185926000Y-88517000D01*
X192407000Y-88517000D01*
X192407000Y-92169609D01*
X192407000Y-92169609D01*
G37*
X192407000Y-92169609D02*
X191828128Y-93211579D01*
X188481804Y-92839765D01*
X188468000Y-92839000D01*
X185926000Y-92839000D01*
X185926000Y-88517000D01*
X192407000Y-88517000D01*
X192407000Y-92169609D01*
M02*
